<svg id="Cirkel" xmlns="http://www.w3.org/2000/svg" viewBox="0 0 15.59 15.59"><defs><style>.cls-1{fill:#031E3A;}.cls-2{fill:none;}.cls-3{fill:#fff;}</style></defs><rect class="cls-1" width="15.59" height="15.59" rx="7.79"/><rect class="cls-2" x="6.94" y="3.1" width="1.51" height="0.67"/><path class="cls-3" d="M4.78,12.41a.38.38,0,0,0,.38.38h5.17a.38.38,0,0,0,.39-.38V5.49H4.78ZM9.17,7.19a.26.26,0,0,1,.25-.25.25.25,0,0,1,.25.25v4.6a.25.25,0,0,1-.25.25.25.25,0,0,1-.25-.25Zm-1.66,0a.25.25,0,1,1,.5,0v4.6a.25.25,0,0,1-.5,0Zm-1.77,0A.25.25,0,0,1,6,6.94a.26.26,0,0,1,.25.25v4.6A.25.25,0,0,1,6,12a.25.25,0,0,1-.25-.25Z"/><path class="cls-3" d="M10.79,3.77H9.06v-1a.3.3,0,0,0-.3-.3H6.64a.3.3,0,0,0-.3.3v1H4.71a.28.28,0,0,0-.28.3V4.9h6.64V4.07A.29.29,0,0,0,10.79,3.77ZM6.94,3.1H8.46v.67H6.94Z"/></svg>