<svg xmlns="http://www.w3.org/2000/svg" width="5.5mm" height="5.5mm" viewBox="0 0 15.591 15.591">
  <rect width="15.591" height="15.591" rx="7.795" fill="#031E3A"/>
  <g>
    <g>
      <path d="M13.76,7.807a.351.351,0,0,0-.127-.144l-1.125-.539q-.352-.834-.7-1.669a.611.611,0,0,0-.36-.376.637.637,0,0,0-.373-.027.655.655,0,0,0-.273.137l-1.4.716-.206.107a.288.288,0,0,0-.1.069.339.339,0,0,0-.05.084,1.349,1.349,0,0,0-.07.169c-.023.075-.156.4-.539,1.283a.454.454,0,0,0-.04.116.386.386,0,0,0,0,.16.367.367,0,0,0,.124.2.355.355,0,0,0,.216.083.36.36,0,0,0,.223-.07.393.393,0,0,0,.127-.146L9.65,6.584c.273-.141.171-.065.428-.133-.268,1.493-.394,2.078-.725,3.572-.48.618-.812,1.115-1.292,1.734a.438.438,0,0,0-.073.213.446.446,0,0,0,.243.423.439.439,0,0,0,.313.023.447.447,0,0,0,.23-.163c.481-.623.922-.972,1.4-1.6l.659-.716c.408.25.259.149.709.408.056.6.208.978.264,1.58a.509.509,0,0,0,.02.18.463.463,0,0,0,.13.216.418.418,0,0,0,.606-.033.41.41,0,0,0,.117-.24.349.349,0,0,0,0-.09l-.189-2.028a.517.517,0,0,0-.024-.117.478.478,0,0,0-.076-.143l-.963-1.2c.062-.483.148-.787.222-1.284l.127.17.094.127a.391.391,0,0,0,.193.23L13.31,8.3a.4.4,0,0,0,.247,0,.359.359,0,0,0,.2-.489Zm-2.011-.479.013.017Z" fill="#fff"/>
      <path d="M11.673,4.827a.839.839,0,1,0-.838-.838A.838.838,0,0,0,11.673,4.827Z" fill="#fff"/>
    </g>
    <path d="M6.788,8.14s.241-.029.27.191a.753.753,0,0,1-.471.956l-.224,1.138a8.117,8.117,0,0,1,.4.779c.089.239.317.742.317.742s.06.2-.126.209a.3.3,0,0,1-.3-.144c-.018-.048-.3-.58-.3-.58l-.246-.209-.155.616A.31.31,0,0,1,5.813,12c-.1.054-.646.365-.646.365a.177.177,0,0,1-.2-.071c-.089-.114-.077-.168,0-.264s.551-.46.551-.46l-.032-.443L4.383,10.9a.9.9,0,0,1-.52.449,4.628,4.628,0,0,0-.689.323V12.2a.2.2,0,0,1-.221.149.227.227,0,0,1-.215-.209v-.73l.317-.323-.587.026-.353.383a.188.188,0,0,1-.293.006.192.192,0,0,1,0-.3l.437-.5.562-.194a.952.952,0,0,1,.191-.362,3.1,3.1,0,0,1-.574-.517c-.119-.192-.012-.216-.012-.216s.072-.065.2.066a1.112,1.112,0,0,0,1,.228c.527-.1,1.774-.374,1.774-.374l-.224-.877s-.03-.353.383-.072Z" fill="#fff"/>
  </g>
</svg>
