<?xml version="1.0" encoding="UTF-8"?>
<svg id="b" data-name="ICONS" xmlns="http://www.w3.org/2000/svg" width="5.5mm" height="5.5mm" viewBox="0 0 15.591 15.591">
  <rect x="0" y="0" width="15.591" height="15.591" rx="7.795" ry="7.795" fill="#ef6545"/>
  <g>
    <path d="m5.479,7.789c0,.208-.076.392-.229.552-.151.16-.344.24-.576.24-.224,0-.413-.078-.569-.234-.156-.156-.234-.338-.234-.546,0-.216.076-.402.229-.558.151-.156.344-.234.575-.234s.425.076.576.228c.152.152.229.336.229.552Z" fill="#fff"/>
    <path d="m8.599,7.789c0,.208-.076.392-.229.552-.151.16-.344.24-.576.24-.224,0-.413-.078-.569-.234-.156-.156-.234-.338-.234-.546,0-.216.076-.402.229-.558.151-.156.344-.234.575-.234s.425.076.576.228c.152.152.229.336.229.552Z" fill="#fff"/>
    <path d="m11.72,7.789c0,.208-.076.392-.229.552-.151.16-.344.24-.576.24-.224,0-.413-.078-.569-.234-.156-.156-.234-.338-.234-.546,0-.216.076-.402.229-.558.151-.156.344-.234.575-.234s.425.076.576.228c.152.152.229.336.229.552Z" fill="#fff"/>
  </g>
</svg>