<?xml version="1.0" encoding="UTF-8"?>
<svg id="ICONS" xmlns="http://www.w3.org/2000/svg" viewBox="0 0 15.59 15.59">
  <defs>
    <style>
      .cls-1 {
        fill: #031E3A;
      }

      .cls-2 {
        fill: #fff;
      }
    </style>
  </defs>
  <rect class="cls-1" x="0" y="0" width="15.59" height="15.59" rx="7.8" ry="7.8"/>
  <path class="cls-2" d="m12.07,3.09c-.7-.88-2.01-1.2-3.62-.85-.19.04-.31.23-.27.41.05.2.23.32.42.27,1.33-.28,2.39-.07,2.92.59.38.48.41,1.16.1,1.81-.43.89-1.63,1.85-3.74,2.04v-.63c1.48-.17,2.66-1.37,2.77-2.87,0-.12-.1-.23-.23-.23h-5.8c-.12,0-.23.1-.22.23.1,1.51,1.29,2.71,2.77,2.87v.67h-.02c-.71,0-1.26.26-1.51.72-.18.3-.17.66,0,.96.24.4.76.65,1.46.62h.07v.69c-.97.12-1.73.9-1.83,1.87,0,.11.08.21.2.21h3.8c.11,0,.21-.09.19-.21-.08-.92-.76-1.66-1.66-1.84v-.66c1.45.24,2.63,1.15,2.73,1.94.09.74-.87,1.09-1.44,1.22-.2.05-.31.24-.26.43.04.16.18.26.34.26.03,0,.06,0,.08,0,1.96-.46,2.03-1.55,1.98-2-.14-1.12-1.59-2.32-3.43-2.57v-.96c2.1-.18,3.71-1.07,4.37-2.46.43-.89.37-1.84-.18-2.54Zm-4.89,5.91h-.08c-.51.03-.75-.14-.84-.28-.05-.08-.05-.16,0-.25.09-.16.38-.35.89-.35h.02v.88Z"/>
</svg>