<svg xmlns="http://www.w3.org/2000/svg" viewBox="0 0 128.13 128.13"><defs><style>.cls-1{fill:#031E3A;}.cls-2{fill:#fff;}</style></defs><g id="Isolation_Mode" data-name="Isolation Mode"><rect class="cls-1" width="128.13" height="128.13" rx="64.06"/><path class="cls-2" d="M51.77,52.65c-4.3,0-6.59,2.23-8.25,3.86C42,58,41.24,58.66,39.46,58.66s-2.57-.7-4.06-2.15c-1.67-1.63-4-3.86-8.26-3.86s-6.58,2.23-8.25,3.85C17.4,58,16.6,58.66,14.82,58.66a3,3,0,1,0,0,6c4.31,0,6.59-2.23,8.26-3.86,1.49-1.45,2.28-2.15,4.06-2.15s2.58.7,4.07,2.15c1.66,1.63,3.95,3.86,8.25,3.86S46,62.43,47.71,60.8c1.49-1.45,2.28-2.15,4.06-2.15a4.36,4.36,0,0,1,3.29,1.42l1.72-6.16A10,10,0,0,0,51.77,52.65Z"/><path class="cls-2" d="M113.31,58.66c-1.78,0-2.57-.7-4.06-2.15-1.67-1.63-4-3.86-8.25-3.86s-6.58,2.23-8.25,3.86c-1.49,1.45-2.28,2.15-4.06,2.15s-2.57-.7-4-2.15a22.85,22.85,0,0,0-1.93-1.72l-1.8,6.46a10.54,10.54,0,0,0,7.78,3.41c4.3,0,6.59-2.23,8.25-3.86,1.49-1.45,2.28-2.15,4.06-2.15s2.57.7,4.06,2.15c1.67,1.63,4,3.86,8.25,3.86a3,3,0,0,0,0-6Z"/><path class="cls-2" d="M43.52,76.93c-1.49,1.46-2.28,2.15-4.06,2.15s-2.57-.69-4.06-2.15c-1.67-1.63-4-3.86-8.26-3.86s-6.58,2.23-8.25,3.86c-1.49,1.46-2.29,2.15-4.06,2.15a3,3,0,1,0,0,6c4.3,0,6.58-2.23,8.25-3.85,1.49-1.46,2.28-2.16,4.06-2.16s2.58.7,4.07,2.16c1.66,1.62,3.95,3.85,8.25,3.85s6.58-2.23,8.25-3.85a10.83,10.83,0,0,1,1.91-1.62l1.82-6.51C47.36,73.21,45.14,75.35,43.52,76.93Z"/><path class="cls-2" d="M113.31,79.08c-1.78,0-2.57-.69-4.06-2.15-1.67-1.62-4-3.86-8.25-3.86s-6.58,2.24-8.25,3.86c-1.49,1.46-2.28,2.15-4.06,2.15s-2.57-.69-4-2.15a11.37,11.37,0,0,0-7-3.78L76,79.1c.14,0,.28,0,.44,0,1.77,0,2.57.7,4,2.16,1.67,1.62,4,3.85,8.25,3.85s6.59-2.23,8.25-3.85c1.49-1.46,2.28-2.16,4.06-2.16s2.57.7,4.06,2.16c1.67,1.62,4,3.85,8.25,3.85a3,3,0,0,0,0-6Z"/><path class="cls-2" d="M86.18,26.19,70.24,21.75A1.18,1.18,0,1,0,69.61,24l.15,0-20.32,73a6.85,6.85,0,0,0,4.76,8.44l2.42.68a6.85,6.85,0,0,0,8.44-4.77l20.33-73,.15,0A1.19,1.19,0,0,0,87,27.64,1.17,1.17,0,0,0,86.18,26.19Z"/><path class="cls-1" d="M52.05,97.58a4.6,4.6,0,0,0,3.21,5.67l1.62.45a4.61,4.61,0,0,0,5.68-3.2l8.59-30.86-11.52.74Z"/></g></svg>