<svg xmlns="http://www.w3.org/2000/svg" width="5.5mm" height="5.5mm" viewBox="0 0 15.591 15.591">
  <rect width="15.591" height="15.591" rx="7.795" fill="#031E3A"/>
  <path d="M12.631,3.235c-.009-.077-.048-.1-.127-.1,0,0-.216-.041-.39-.054a9.605,9.605,0,0,0-2.3.021c-.757.127-1.458.416-2.216.542a9.588,9.588,0,0,1-2.276-.021,6.75,6.75,0,0,0-1.835.128l-.019-.193A.333.333,0,0,0,3.6,3.29a.34.34,0,0,0-.679,0,.335.335,0,0,0,.19.3l.945,9.437a.179.179,0,0,0,.178.161h.018a.179.179,0,0,0,.161-.2L4.12,10.063A6.746,6.746,0,0,1,6,9.888a9.615,9.615,0,0,0,2.271-.035c.759-.146,1.451-.451,2.21-.6a9.35,9.35,0,0,1,2.26-.068c.173.01.434.037.434.037.079,0,.094-.032.086-.108ZM3.612,4.668a1.474,1.474,0,0,0,.712-.242,2.157,2.157,0,0,1,1-.337,2.159,2.159,0,0,1,1.05.132,1.473,1.473,0,0,0,.746.1,1.453,1.453,0,0,0,.711-.242,2.367,2.367,0,0,1,2.051-.2,1.491,1.491,0,0,0,.745.1l.071.714a2.155,2.155,0,0,1-1.05-.133A1.653,1.653,0,0,0,8.2,4.7a2.164,2.164,0,0,1-1,.337A2.182,2.182,0,0,1,6.145,4.9,1.512,1.512,0,0,0,5.4,4.8a1.463,1.463,0,0,0-.712.243,2.176,2.176,0,0,1-1,.337Zm.133,1.395a1.463,1.463,0,0,0,.712-.243,2.185,2.185,0,0,1,1-.337,2.162,2.162,0,0,1,1.051.133,1.476,1.476,0,0,0,.746.1,1.469,1.469,0,0,0,.71-.242,2.152,2.152,0,0,1,1-.337,2.163,2.163,0,0,1,1.05.133,1.485,1.485,0,0,0,.744.1l.071.713a2.143,2.143,0,0,1-1.05-.133,1.65,1.65,0,0,0-1.453.145,2.157,2.157,0,0,1-1,.337,2.162,2.162,0,0,1-1.051-.132,1.485,1.485,0,0,0-.745-.1,1.474,1.474,0,0,0-.712.242,2.162,2.162,0,0,1-1,.337Zm.127,1.394a1.474,1.474,0,0,0,.712-.242,2.157,2.157,0,0,1,1-.337,2.154,2.154,0,0,1,1.051.132,1.455,1.455,0,0,0,.746.1,1.459,1.459,0,0,0,.71-.242,2.148,2.148,0,0,1,1-.337,2.175,2.175,0,0,1,1.05.133,1.488,1.488,0,0,0,.743.1l.072.713a2.137,2.137,0,0,1-1.049-.133,1.654,1.654,0,0,0-1.455.145,2.158,2.158,0,0,1-1,.338,2.164,2.164,0,0,1-1.051-.133,1.5,1.5,0,0,0-.746-.1,1.474,1.474,0,0,0-.712.242,2.163,2.163,0,0,1-1,.338Zm6.2,1.276a1.652,1.652,0,0,0-1.454.145,2.153,2.153,0,0,1-1,.337,2.157,2.157,0,0,1-1.05-.132,1.476,1.476,0,0,0-.746-.1,1.474,1.474,0,0,0-.712.242,2.169,2.169,0,0,1-1,.337l-.071-.714a1.474,1.474,0,0,0,.712-.242,2.169,2.169,0,0,1,1-.337A2.154,2.154,0,0,1,6.8,8.4a1.482,1.482,0,0,0,.745.1,1.465,1.465,0,0,0,.71-.242,2.365,2.365,0,0,1,2.052-.205,1.468,1.468,0,0,0,.744.1l.071.714A2.163,2.163,0,0,1,10.075,8.733Z" fill="#fff"/>
</svg>
