<svg xmlns="http://www.w3.org/2000/svg" width="5.5mm" height="5.5mm" viewBox="0 0 15.591 15.591">
  <rect width="15.591" height="15.591" rx="7.795" fill="#031E3A"/>
  <g>
    <path d="M7.023,5.972a.951.951,0,1,0-.951-.951.951.951,0,0,0,.951.951" fill="#fff"/>
    <path d="M10.345,3.294a.951.951,0,1,0-.951-.951.95.95,0,0,0,.951.951" fill="#fff"/>
    <path d="M11.473,4.954,7.987,6.318,4.872,6.273l.178-.868A.562.562,0,0,0,5.1,5.191a.512.512,0,0,0-.339-.584.525.525,0,0,0-.691.328L3.415,6.591a.543.543,0,0,0,.314.717l2.36,1.255,1.334,2.549s-.864,1.66-.99,1.946a.451.451,0,0,0,.25.644.547.547,0,0,0,.161.025.68.68,0,0,0,.341-.1c.025-.014.058-.037.086-.055,0,0,1.423-1.575,1.531-1.7a.616.616,0,0,0,.123-.454c-.025-.106-.164-.452-.123-.525s.18-.076.281-.027a1.392,1.392,0,0,1,.553.821,2.478,2.478,0,0,1-.371.709s-.489.724-.737,1.146.332.684.686.475a20.848,20.848,0,0,0,1.673-1.976s.465-.467-.29-1.693c-.495-.8-1.521-2.757-1.521-2.757l2.787-1.85.013-.012a.417.417,0,0,0,.228-.381A.438.438,0,0,0,11.473,4.954Z" fill="#fff"/>
  </g>
</svg>
