<?xml version="1.0" encoding="UTF-8"?>
<svg id="ICONS" xmlns="http://www.w3.org/2000/svg" viewBox="0 0 15.59 15.59">
  <defs>
    <style>
      .cls-1 {
        fill: #fff;
      }

      .cls-2 {
        fill: #021e3a;
      }
    </style>
  </defs>
  <rect class="cls-2" x="0" y="0" width="15.59" height="15.59" rx="7.8" ry="7.8"/>
  <g>
    <path class="cls-1" d="m6.83,9.46h4.11c0-.98-.79-1.77-1.77-1.77h-2.34c-.08,0-.15.07-.15.15v1.47c0,.08.07.15.15.15Z"/>
    <path class="cls-1" d="m12.06,8.28c-.19,0-.34.15-.34.34v1.37H3.87v-2.85c0-.19-.15-.34-.34-.34s-.34.15-.34.34v5.13c0,.19.15.34.34.34s.34-.15.34-.34v-1.03h7.84v1.03c0,.19.15.34.34.34s.34-.15.34-.34v-3.64c0-.19-.15-.34-.34-.34Z"/>
    <path class="cls-1" d="m5.25,9.46c.46,0,.83-.37.83-.83s-.37-.83-.83-.83-.83.37-.83.83.37.83.83.83Z"/>
    <path class="cls-1" d="m9.41,4.27c-.03.12-.19.65-.71.65-.63,0-1.26,0-1.89,0-.25,0-.48-.16-.49-.4-.02-.73,0-1.46,0-2.22.1,0,2.19,0,3.15,0,.45,0,.81.28.91.72.11.47-.08.91-.49,1.1-.14.06-.3.1-.47.15Zm0-.45c.36.01.59-.19.59-.53,0-.35-.21-.57-.59-.57v1.1Z"/>
    <path class="cls-1" d="m10.51,5.25c.02.32-.2.57-.51.57-1.44,0-2.88,0-4.31,0-.31,0-.51-.23-.5-.57h5.32Z"/>
  </g>
</svg>