<svg xmlns="http://www.w3.org/2000/svg" width="5.5mm" height="5.5mm" viewBox="0 0 15.591 15.591">
  <rect width="15.591" height="15.591" rx="7.795" fill="#031E3A"/>
  <path d="M13.385,9.026a.407.407,0,0,0-.287.118V8.762a.335.335,0,1,0-.67,0v.494C11.9,9.224,11.4,8.979,11.4,7.762V5.648l.168.033.069.012a.5.5,0,0,0,.606-.511.516.516,0,0,0-.253-.422c-.451-.3-.9-.6-1.351-.892-.086-.057-.094-.212-.094-.212l-.011-.462a.054.054,0,0,0-.022-.03.055.055,0,0,0-.061,0S8.617,4.859,7.8,5.7c-.032.033-.249.323-.249.323s-3.979.031-4.2.031a4.915,4.915,0,0,0-.643.015A1.053,1.053,0,0,0,1.8,7.139c0,.557,0,1.115,0,1.672,0,.028,0,.056,0,.084h.759V8.786c0-.522,0-1.045,0-1.567A.241.241,0,0,1,2.592,7.1c.1-.16.2-.317.308-.474a.489.489,0,0,1,.048-.055c0,.028.006.042.006.056q0,.989,0,1.977a.208.208,0,0,1-.035.1c-.1.168-.213.332-.316.5a.291.291,0,0,0-.041.137q0,.879,0,1.759c0,.3,0,.6.007.9a.471.471,0,0,0,.569.429.486.486,0,0,0,.387-.508c0-.732,0-1.463,0-2.2a.359.359,0,0,1,.048-.169c.119-.2.245-.387.368-.58.013-.021.028-.039.057-.078,0,.253,0,.481,0,.709a.308.308,0,0,0,.02.118q.509,1.206,1.021,2.409a.48.48,0,1,0,.881-.379c-.3-.715-.6-1.431-.9-2.146a.131.131,0,0,1,.011-.135c.119-.2.238-.4.351-.6a.135.135,0,0,1,.137-.078c.752,0,1.5,0,2.256,0,.028,0,.056,0,.091.005v1.632c0,.5,0,1,0,1.5a.482.482,0,1,0,.962-.023c0-.984,0-1.968,0-2.952a.4.4,0,0,1,.038-.166c.34-.7.683-1.395,1.021-2.094l.169-.333c.127-.253.251-.5.374-.742.073-.145.073-.146.235-.115l.516.1V7.762c0,1.115.4,1.659,1.25,1.713v2.563a.335.335,0,0,0,.67,0V9.726a.409.409,0,1,0,.287-.7Z" fill="#fff"/>
</svg>
