<svg xmlns="http://www.w3.org/2000/svg" width="5.5mm" height="5.5mm" viewBox="0 0 15.591 15.591">
  <rect width="15.591" height="15.591" rx="7.795" fill="#031E3A"/>
  <path d="M14.033,7.409a6.194,6.194,0,0,0-.48-2.046,6.126,6.126,0,0,0-.309-.63,6.273,6.273,0,0,0-3.016-2.7A6.188,6.188,0,0,0,7.8,1.546a6.242,6.242,0,0,0-1.655.221,6.378,6.378,0,0,0-.777.27A6.264,6.264,0,0,0,2.337,4.75a6.322,6.322,0,0,0-.3.613,6.168,6.168,0,0,0-.479,2.046c-.008.128-.012.257-.012.386a6.222,6.222,0,0,0,1.6,4.178c.074.082.15.163.228.241A6.222,6.222,0,0,0,5.3,13.527l.061.026a6.259,6.259,0,0,0,4.865,0l.06-.026a6.222,6.222,0,0,0,1.926-1.313c.079-.078.155-.159.229-.241a6.235,6.235,0,0,0,1.6-4.178C14.045,7.666,14.041,7.537,14.033,7.409ZM2.382,7.724a6.47,6.47,0,0,1,.739-2.669.413.413,0,0,1,.321-.2l1.482-.145a.413.413,0,0,1,.373.168l.713.984a.409.409,0,0,1,.058.368L5.489,8.01a.414.414,0,0,1-.273.267l-1.437.428a.413.413,0,0,1-.345-.051L2.569,8.08A.4.4,0,0,1,2.382,7.724Zm4.932,4.3L6.247,12.8a.423.423,0,0,1-.4.056,5.441,5.441,0,0,1-2.3-1.694.424.424,0,0,1-.073-.374l.335-1.2A.413.413,0,0,1,4.091,9.3l1.325-.4a.41.41,0,0,1,.359.061l1.539,1.118a.413.413,0,0,1,.169.333v1.273A.413.413,0,0,1,7.314,12.026ZM6.57,5.505,5.718,4.328A.409.409,0,0,1,5.649,4l.233-1.061a.422.422,0,0,1,.279-.313A5.424,5.424,0,0,1,9.41,2.619a.422.422,0,0,1,.28.313l.244,1.107a.416.416,0,0,1-.066.325L9.062,5.5a.412.412,0,0,1-.335.173H6.9A.411.411,0,0,1,6.57,5.505Zm2.773,7.3-1.028-.747a.413.413,0,0,1-.169-.333V10.392a.413.413,0,0,1,.169-.333l1.512-1.1a.408.408,0,0,1,.358-.061l1.311.391a.409.409,0,0,1,.279.283l.338,1.215a.42.42,0,0,1-.072.374,5.453,5.453,0,0,1-2.3,1.694A.424.424,0,0,1,9.343,12.8Zm3.689-4.728-.864.573a.41.41,0,0,1-.344.052L10.37,8.264A.412.412,0,0,1,10.1,8L9.535,6.266A.409.409,0,0,1,9.59,5.9l.722-1.018a.409.409,0,0,1,.375-.171l1.466.143a.412.412,0,0,1,.318.2,5.562,5.562,0,0,1,.751,2.681A.414.414,0,0,1,13.032,8.073Z" fill="#fff"/>
</svg>
