<svg xmlns="http://www.w3.org/2000/svg" width="5.5mm" height="5.5mm" viewBox="0 0 15.591 15.591">
  <rect width="15.591" height="15.591" rx="7.795" fill="#031E3A"/>
  <path d="M13.478,9.478H12.386V7.892h1.092a.434.434,0,1,0,0-.867H10.426a.434.434,0,1,0,0,.867h1.092V9.478H8.394V5.744h2.145a.542.542,0,0,0,0-1.084H5.165a.542.542,0,0,0,0,1.084H7.31V9.478H4.073V7.892H5.165a.434.434,0,1,0,0-.867H2.113a.434.434,0,1,0,0,.867H3.2V9.478H2.17a.434.434,0,1,0,0,.867H13.478a.434.434,0,1,0,0-.867Z" fill="#fff"/>
</svg>
