<svg xmlns="http://www.w3.org/2000/svg" viewBox="0 0 128.13 128.13"><defs><style>.cls-1{fill:#031E3A;}.cls-2{fill:#fff;}</style></defs><g id="Isolation_Mode" data-name="Isolation Mode"><rect class="cls-1" width="128.13" height="128.13" rx="64.06"/><path class="cls-2" d="M105.07,81.45c-.38-.19-.74-.38-1.1-.6a13.45,13.45,0,0,1-2-1.66C99,76.38,95,74.94,90.89,76a15.69,15.69,0,0,0-5.18,2.52,24.55,24.55,0,0,1-4.64,3.07,6.32,6.32,0,0,1-3.6.46,9.2,9.2,0,0,1-4.22-2.48C70.11,76.71,66.32,75,62,75.71a13,13,0,0,0-4.85,2c-1.54,1-2.79,2.37-4.4,3.26A6.94,6.94,0,0,1,45,80.44c-1.45-1-2.62-2.34-4.21-3.18a14.15,14.15,0,0,0-5.34-1.58c-4.12-.4-7.7,1.42-10.53,4.26a7.92,7.92,0,0,1-3.05,2,6.38,6.38,0,0,1-1.6.18c-1.67-.11-3.23.42-3.7,2.09a3,3,0,0,0,2.1,3.7h0a11.78,11.78,0,0,0,6.69-1,15.38,15.38,0,0,0,4.46-3.39A6.1,6.1,0,0,1,33,81.79a7.06,7.06,0,0,1,3.73.2,11.62,11.62,0,0,1,3.73,2.43,13.56,13.56,0,0,0,10.93,3.26,13.27,13.27,0,0,0,4.94-1.85c1.56-1,2.81-2.34,4.39-3.28a6.26,6.26,0,0,1,3.85-1,5.71,5.71,0,0,1,1.66.4,9,9,0,0,1,2.2,1.33c1.68,1.36,3.14,2.86,5.15,3.74a11.75,11.75,0,0,0,5.57,1.09,14.23,14.23,0,0,0,5.65-1.68c1.7-.89,3.08-2.18,4.67-3.22a7.75,7.75,0,0,1,4.71-1.56,5.23,5.23,0,0,1,2,.64,11.52,11.52,0,0,1,2.3,1.82,14.65,14.65,0,0,0,8.64,4,3,3,0,0,0,3-3,2.93,2.93,0,0,0-2.88-3A6.53,6.53,0,0,1,105.07,81.45Z"/><path class="cls-2" d="M89.92,72.09a15.09,15.09,0,0,1,3.66-.45,16.38,16.38,0,0,1,11.14,4.61l.43.4a7.37,7.37,0,0,0,.93.8c.26.16.56.31.79.43a3.47,3.47,0,0,0,.66.25,7.6,7.6,0,0,1,2.55.65V66.88a4,4,0,0,0-4.2-4c-.78,0-1.57.08-2.38.14-12.85.84-17.84,5-19.9,12.08A19.13,19.13,0,0,1,89.92,72.09Z"/><path class="cls-2" d="M19.88,78.08h.58l.35,0a4.67,4.67,0,0,0,1.31-.94,17.17,17.17,0,0,1,12.24-5.49c.5,0,1,0,1.51.07a18.16,18.16,0,0,1,6.82,2A17.87,17.87,0,0,1,46,76.11c.46.39.9.77,1.32,1.06l.14.09C45.71,68.85,40.86,63.94,26.09,63c-1.9-.12-3.72-.21-5.45-.26a4,4,0,0,0-4.12,4v12A8,8,0,0,1,19.88,78.08Z"/><path class="cls-2" d="M103,67.58a49.83,49.83,0,0,0-6.74-7V44.4a39.52,39.52,0,0,1,3.64,2.93c1.79,1.62,4.45-1,2.66-2.65C86.87,30.45,62,27.75,42.58,34.73a52.07,52.07,0,0,0-14.87,8.15,1.87,1.87,0,0,0,2.65,2.65c.81-.63,1.64-1.23,2.49-1.81V59.83a50.38,50.38,0,0,0-5.58,5.25c-2.16,2.38,1.36,5.93,3.53,3.54A45.33,45.33,0,0,1,57.13,54.3,44.77,44.77,0,0,1,86.77,60,46.08,46.08,0,0,1,99.43,71.11a2.52,2.52,0,0,0,3.54,0A2.56,2.56,0,0,0,103,67.58ZM35.35,57.93V42.15A51.5,51.5,0,0,1,47.83,37V51.52a50.84,50.84,0,0,0-5.73,2.37A47.62,47.62,0,0,0,35.35,57.93Zm15-7.19V36.36a59.46,59.46,0,0,1,6.56-1.1c2-.22,3.94-.34,5.93-.38V48.82A50.39,50.39,0,0,0,50.33,50.74Zm15-1.92V34.88a62.17,62.17,0,0,1,13,1.59V50.85c-.86-.26-1.73-.5-2.6-.71A49.82,49.82,0,0,0,65.32,48.82Zm15.46,2.85V37.12a55.39,55.39,0,0,1,6.38,2.23,46.85,46.85,0,0,1,6.57,3.38v15.9A49.82,49.82,0,0,0,80.78,51.67Z"/></g></svg>