<svg xmlns="http://www.w3.org/2000/svg" width="5.5mm" height="5.5mm" viewBox="0 0 15.591 15.591">
  <rect width="15.591" height="15.591" rx="7.795" fill="#031E3A"/>
  <g>
    <path d="M9.148,1.984a.362.362,0,0,0-.362.361c0,.013.007.025.008.038V4.912H4.528a.56.56,0,0,0-.561.561c0,.367.561.56.561.56L5.4,6.4,5.4,8.18l-.618,2.836s-.723,1.878-.725,1.915a.53.53,0,0,0,.289.5.518.518,0,0,0,.372.028A.536.536,0,0,0,5,13.267c.192-.249.8-1.311.8-1.311l.7-1.731.705,1.235s.6,1.708.619,1.753a.549.549,0,0,0,.154.257.495.495,0,0,0,.72-.039.485.485,0,0,0,.139-.285c0-.022-.5-2.182-.5-2.182l-.7-2.14.184-2.585.97-.064V8.562c0,.013-.008.024-.008.038a.362.362,0,0,0,.362.361,3.489,3.489,0,1,0,0-6.977Zm.128,6.241V6.143l1.659-.11a.561.561,0,1,0,0-1.121H9.276V2.72a2.755,2.755,0,0,1,0,5.5Z" fill="#fff"/>
    <path d="M6.748,4.483a1,1,0,1,0-1-1A1,1,0,0,0,6.748,4.483Z" fill="#fff"/>
  </g>
</svg>
