<?xml version="1.0" encoding="UTF-8"?>
<svg id="ICONS" xmlns="http://www.w3.org/2000/svg" viewBox="0 0 15.59 15.59">
  <defs>
    <style>
      .cls-1 {
        fill: #031E3A;
      }

      .cls-2 {
        fill: #fff;
      }
    </style>
  </defs>
  <rect class="cls-1" x="0" y="0" width="15.59" height="15.59" rx="7.8" ry="7.8"/>
  <g>
    <path class="cls-2" d="m12,5.64c.31,0,.58.12.78.36.14.17.21.36.24.58.03.22.07.44.11.66.02.12.03.23.05.35.02.12.04.25.06.37.02.12.04.24.05.36.11.82.03,1.64.05,2.46,0,.2-.16.41-.38.43-.19.02-.38.02-.58.03-.05,0-.06-.02-.06-.07,0-.1.11-1.32-1.11-1.41-1.62-.02-1.38,1.38-1.37,1.42,0,.04-.02.06-.06.06-.02,0-4.45,0-4.47,0-.04,0-.06-.02-.05-.07.04-.35-.18-1.48-1.3-1.45-1.2.04-1.14,1.39-1.15,1.5-.05,0-.12,0-.17,0-.17-.03-.29-.14-.35-.3-.02-.05-.03-.11-.03-.17,0-1.53,0-3.07,0-4.6,0-.21.2-.44.39-.48.07-.01.15-.03.22-.03,1.52,0,7.62,0,9.15,0Zm-1.67,2.47c0,.06.02.1.06.15.21.21.42.41.62.62.04.04.09.06.15.06.52,0,1.03,0,1.55,0,.1,0,.12,0,.11-.11-.01-.16-.23-1.97-.33-2.21-.04-.25-.24-.44-.5-.44-.52,0-1.04,0-1.56,0-.1,0-.1,0-.1.1,0,.31,0,1.53,0,1.84Zm-4.06-1.94c-.3,0-.6,0-.91,0-.1,0-.11,0-.11.11,0,.6,0,1.21,0,1.81,0,.1,0,.1.1.1.6,0,1.21,0,1.81,0,.09,0,.1,0,.1-.1,0-.6,0-1.21,0-1.81,0-.1,0-.11-.11-.11-.3,0-.6,0-.89,0Zm1.51,1.91c0,.1,0,.11.11.11.6,0,1.2,0,1.8,0,.1,0,.11,0,.11-.11,0-.6,0-1.2,0-1.8,0-.1,0-.11-.1-.11-.6,0-1.2,0-1.81,0-.1,0-.11,0-.11.1,0,.3,0,1.5,0,1.81Zm-3.03-1.81c0-.1,0-.1-.11-.1-.54,0-1.09,0-1.63,0-.17,0-.28.11-.28.28,0,.54,0,1.09,0,1.63,0,.1,0,.11.11.11.6,0,1.2,0,1.8,0,.1,0,.11,0,.11-.11,0-.3,0-1.5,0-1.81Z"/>
    <path class="cls-2" d="m4,11.85c-.53.02-.9-.41-.89-.88.01-.54.39-.89.9-.89.47,0,.89.36.88.93,0,.43-.39.87-.89.84Z"/>
    <path class="cls-2" d="m11.08,11.85c-.52.03-.9-.41-.89-.87,0-.53.37-.89.89-.89.48,0,.91.38.88.95-.02.39-.4.86-.89.81Z"/>
  </g>
</svg>