<?xml version="1.0" encoding="UTF-8"?><svg id="Cirkel" xmlns="http://www.w3.org/2000/svg" viewBox="0 0 15.59055 15.59055"><defs><style>.cls-1{fill:#fff;}.cls-2{fill:#031E3A;}</style></defs><rect class="cls-2" x=".00472" y="0" width="15.59055" height="15.59055" rx="7.79478" ry="7.79478"/><g><path class="cls-1" d="m3.08979,9.96665h.48863v1.38924c0,.06582.023.12395.05449.17662.06138.1026.1687.17479.29692.17479.12828,0,.2356-.07219.29692-.17479.03149-.05267.05449-.1108.05449-.17662v-1.38924h7.02881v1.38924c0,.06582.023.12395.05449.17662.06138.1026.1687.17479.29692.17479.12828,0,.2356-.07219.29692-.17479.03149-.05267.05449-.1108.05449-.17662v-1.38924h.49734v-.75025H3.08979v.75025Z"/><path class="cls-1" d="m11.48399,5.11923v-.31765c0-.1941-.15731-.35141-.35141-.35141-.19404,0-.35135.15731-.35135.35141v.31765h-5.97117v-.31765c0-.1941-.15737-.35141-.35141-.35141-.1941,0-.35141.15731-.35141.35141v.31765h-1.01739v1.05332h9.42036v-1.05332h-1.02622Z"/><polygon class="cls-1" points="10.78122 6.58653 4.81005 6.58653 4.10723 6.58653 3.08984 6.58653 3.08984 7.63991 4.10723 7.63991 4.10723 8.80248 4.81005 8.80248 4.81005 7.63991 10.78122 7.63991 10.78122 8.80248 11.48399 8.80248 11.48399 7.63991 12.5102 7.63991 12.5102 6.58653 11.48399 6.58653 10.78122 6.58653"/></g></svg>