<?xml version="1.0" encoding="UTF-8"?>
<svg id="ICONS" xmlns="http://www.w3.org/2000/svg" viewBox="0 0 15.59 15.59">
  <defs>
    <style>
      .cls-1 {
        fill: #fff;
      }

      .cls-2 {
        fill: #031E3A;
      }
    </style>
  </defs>
  <rect class="cls-2" x="0" y="0" width="15.59" height="15.59" rx="7.8" ry="7.8"/>
  <path class="cls-1" d="m10.41,9.99c.01.63-.31,1.09-1.18,1.09-1.05,0-2.1,0-3.16,0-.41,0-.81-.27-.82-.66-.03-1.22-.01-3.69-.01-3.69h5.25s1.41.1,1.51,1.19c.18.78-.14,1.52-.82,1.83-.23.11-.49.16-.78.25Zm.01-.76c.6.02.98-.32.99-.88.01-.59-.35-.95-.99-.94v1.83Z"/>
  <path class="cls-1" d="m12.23,11.63c.03.54-.33.95-.84.95-2.4,0-4.79,0-7.19,0-.52,0-.85-.38-.83-.95h8.86Z"/>
  <path class="cls-1" d="m7.15,5.87s0,0-.01,0c-.18,0-.32-.16-.31-.34.04-.97.39-1.29.7-1.56.25-.22.46-.42.56-1.06.03-.18.18-.3.37-.27.18.03.3.19.27.37-.13.87-.48,1.19-.76,1.44-.26.24-.46.41-.49,1.11,0,.17-.15.31-.32.31Z"/>
  <path class="cls-1" d="m8.74,5.98s0,0-.01,0c-.18,0-.32-.16-.31-.34.02-.59.22-.81.45-1.02.14-.13.24-.22.3-.57.03-.18.19-.3.37-.27.18.03.3.2.27.37-.1.58-.33.79-.51.95-.14.13-.22.2-.24.57,0,.17-.15.31-.33.31Z"/>
</svg>