<svg xmlns="http://www.w3.org/2000/svg" width="5.5mm" height="5.5mm" viewBox="0 0 15.591 15.591">
  <rect width="15.591" height="15.591" rx="7.795" fill="#031E3A"/>
  <path d="M2.166,9.854a1.114,1.114,0,1,0,0-1.575,1.114,1.114,0,0,0,0,1.575Zm8.287-3.839,2.5-2.5a.13.13,0,0,0,0-.184L12.527,2.9a.132.132,0,0,0-.184,0l-2.5,2.5L9.7,5.547,8.96,5.394h0c-.063-.013-.12-.045-.166,0L3.1,11.084c-.045.046-.026.107,0,.166.441,1,.5,1.061,1.5,1.5.06.026.121.046.167,0l5.689-5.689c.046-.046.014-.1,0-.167l-.152-.736Z" fill="#fff" fill-rule="evenodd"/>
</svg>
