<?xml version="1.0" encoding="UTF-8"?><svg id="Lag_1" xmlns="http://www.w3.org/2000/svg" viewBox="0 0 800 800"><defs><style>.cls-1{fill:#fff;}.cls-2{fill:#031e3A;}</style></defs><rect class="cls-2" width="800" height="800"/><g><path class="cls-1" d="m576.85,460.52c-7.93,0-16.11,1.09-24.31,3.24l-.66.17-.24-.64-22.47-59.72,1.32.03,12.62.41c1.88.04,6.48.07,11.68-.5,11.05-1.2,21.22-10.23,23.64-21,3.7-16.46-10.26-32.54-25.22-35.92-2.31-.53-14.15-3.18-26.26-5.24-20.33-3.46-21.56-7.68-22.46-10.77-7.87-26.8-23.5-50.94-35.23-66.47-10.08-13.36-22.47-20.99-36.81-22.68-26.39-3.03-48.86,15.55-49.07,15.74l-84.32,63.56c-.1.07-.17.11-.22.16-11.09,8.06-17.58,18.79-19.32,31.91-3.28,24.7,11.17,49.19,20.07,61.58l.29.4-.26.43-33.22,55.61-.63-.31c-13.32-6.62-27.67-9.98-42.64-9.98-53.06,0-96.23,43.18-96.23,96.25s43.17,96.23,96.23,96.23,96.23-43.17,96.23-96.23c0-29.98-13.65-57.73-37.45-76.15l-.53-.42,29.86-49.99.67.92c10.69,14.6,29.81,40.33,37.77,48.76,16.16,17.06,11.55,45.28,8.82,56.62-5.54,23.04-9.12,45.66-9.27,46.62l-.06.34c-1,8.77,1.43,17.28,6.82,24.1,5.41,6.85,13.16,11.16,21.82,12.16,8.65,1.05,17.2-1.41,24.05-6.83,6.59-5.22,10.87-12.67,12.04-20.97.43-1.52,10.06-35,18.71-58.38,8.9-24,17.31-46.66,4.14-71.75-.69-1.33-1.52-2.85-2.42-4.46l-.51-.93,1.05-.19,89.3-15.62,11.1,29.5-.62.3c-33.35,16.35-54.07,49.46-54.07,86.38,0,53.06,43.17,96.23,96.24,96.23s96.24-43.17,96.24-96.23-43.17-96.25-96.24-96.25Zm-275.16,96.25c0,43.31-35.24,78.54-78.55,78.54s-78.55-35.23-78.55-78.54,35.24-78.56,78.55-78.56c11.68,0,22.92,2.51,33.41,7.46l.76.36-38.78,64.93c-2.5,4.18-1.13,9.62,3.05,12.12,4.18,2.51,9.62,1.13,12.12-3.06l38.55-64.53.68.56c18.27,15.02,28.75,37.15,28.75,60.71Zm215.27-132.87l-92.43,16.17-.27-.45c-11.55-19.8-26.56-44.55-34.48-57.54l-.35-.57,37.78-29.94.46.7c6.08,9.4,15.45,23.9,20.34,31.52.13.2.26.39.39.58.16.2.31.4.47.59,11.48,13.51,38.42,16.62,60.62,17.82l.49.03.18.46,7.7,20.48-.9.16Zm-54.29-50.03c-7.88-12.23-25.89-40.07-25.89-40.07-1.35-2.09-3.53-3.52-5.99-3.93-2.42-.4-4.97.24-6.92,1.8l-51.56,40.85c-3.5,2.77-4.38,7.74-2.04,11.55.21.34,24.31,39.67,39.99,66.64l.1.29c.02.18,0,.33,0,.44.37,2.27,1.62,4.23,3.51,5.62l.21.24c3.15,5.51,5.47,9.67,7.06,12.71,9.05,17.26,4.23,32.31-5.07,57.39-8.68,23.43-18.21,56.39-19.27,60.07-.09.3-.16.58-.22.87-.06.29-.11.56-.13.84-.49,3.93-2.45,7.42-5.54,9.86-2.66,2.11-5.92,3.23-9.33,3.23-.56,0-1.13-.03-1.7-.09-3.97-.46-7.52-2.45-10-5.57-2.43-3.08-3.55-6.92-3.15-10.83.39-2.42,3.85-23.8,8.99-45.14,7.18-29.9,2.38-56.48-13.18-72.91-10.42-11.04-43.01-56.21-44.78-58.66l-.27-.11-.09-.36c-10.88-13.53-22.72-35.63-20.35-53.48,1.08-8.12,4.95-14.56,11.83-19.67.17-.11.31-.21.44-.32l84.98-64.07c.15-.12,17.65-14.29,36.2-12.05,9.45,1.13,17.52,6.29,24.67,15.75,10.84,14.35,25.25,36.55,32.36,60.78,3.81,13.07,13.69,19.36,36.47,23.23,10.56,1.8,21.07,4.1,25.1,5l.19.04c6.92,1.57,13.14,9.32,11.91,14.81-.83,3.69-5.14,6.95-8.3,7.3-4.27.46-7.95.43-9.02.41-2.25-.1-4.58-.19-7.02-.26l-6.02-.18c-21.91-.62-58.57-1.66-68.14-12.03Zm114.17,261.44c-43.31,0-78.55-35.23-78.55-78.54,0-29.39,16.27-56.09,42.48-69.72l.76-.39.3.8,26.77,71.15c1.29,3.43,4.61,5.74,8.27,5.74,1.05,0,2.1-.2,3.12-.58,4.56-1.72,6.87-6.83,5.15-11.39l-27.04-71.85.85-.2c6.04-1.42,12.06-2.13,17.89-2.13,43.31,0,78.56,35.24,78.56,78.56s-35.24,78.54-78.56,78.54Z"/><path class="cls-1" d="m502.22,264.73c8.54,4.17,17.67,6.29,27.12,6.29,23.53,0,45.4-13.59,55.78-34.64l.07-.15c15-30.72,2.22-67.93-28.5-82.95-30.71-15-67.93-2.22-82.94,28.5-7.26,14.89-8.3,31.71-2.92,47.38,5.37,15.67,16.53,28.3,31.41,35.57Zm-12.6-75.18c7.38-15.11,23.05-24.88,39.93-24.88,6.75,0,13.26,1.51,19.37,4.5,21.96,10.74,31.1,37.34,20.38,59.3-7.69,15.71-23.51,24.86-39.94,24.86-6.52,0-13.13-1.44-19.37-4.48-10.63-5.2-18.61-14.23-22.45-25.43-3.85-11.2-3.11-23.23,2.09-33.87Z"/></g></svg>