<?xml version="1.0" encoding="UTF-8"?>
<svg xmlns="http://www.w3.org/2000/svg" viewBox="0 0 15.59 15.59">
  <defs>
    <style>
      .cls-1 {
        fill: #031E3A;
      }

      .cls-1, .cls-2 {
        stroke-width: 0px;
      }

      .cls-2 {
        fill: #fff;
      }
    </style>
  </defs>
  <g id="Cirkel">
    <rect class="cls-1" x="0" y="0" width="15.59" height="15.59" rx="7.8" ry="7.8"/>
  </g>
  <g id="ICONS">
    <g>
      <path class="cls-2" d="m5.21,10.62c.9,0,1.63-.73,1.63-1.63,0-.4-.15-.75-.38-1.03l.52-.52s.04-.06.04-.1l.26.17-.11,1.35c-.02.21.14.39.34.4.01,0,.02,0,.03,0,.19,0,.36-.15.37-.34l.06-.68,1.37-1.17.11.4c-.62.23-1.07.82-1.07,1.52,0,.9.73,1.63,1.63,1.63s1.63-.73,1.63-1.63-.73-1.63-1.63-1.63c-.09,0-.18.01-.27.03l-.31-1.15c.09-.05.16-.13.18-.24.04-.2-.09-.4-.3-.44l-.93-.18-.59-.88s-.04-.04-.07-.07c-.02-.02-.02-.04-.04-.05-.25-.22-.63-.2-.85.05l-1.08,1.23c-.18.21-.19.49-.05.71.02.04.04.07.07.1.01.01.02.03.03.04,0,0,.01,0,.02.01,0,0,.01.01.02.02l.97.65s-.04,0-.05.02l-.52.52c-.28-.23-.64-.38-1.03-.38-.9,0-1.63.73-1.63,1.63s.73,1.63,1.63,1.63Zm4.66-1.59c.02.07.08.11.14.11.01,0,.03,0,.04,0,.08-.02.13-.1.11-.18l-.31-1.16c.06,0,.11-.03.17-.03.68,0,1.23.55,1.23,1.23s-.55,1.23-1.23,1.23-1.23-.55-1.23-1.23c0-.51.32-.95.77-1.14l.31,1.17Zm-2.34-3.57l.32.47c.05.08.14.14.24.16l1.05.21.12.45-1.25,1.07.05-.62s0-.06-.01-.09c0,0,0,0,0-.01,0-.05-.03-.09-.05-.13,0-.01-.01-.03-.02-.04,0,0,0,0,0,0-.03-.04-.06-.08-.11-.11l-.95-.64.63-.71Zm-1.13,3.38h-.84l.59-.59c.13.17.22.37.24.59Zm-1.2-1.08c.28,0,.53.11.74.27l-.85.85s-.06.11-.03.16c.02.06.08.09.14.09h1.2c-.08.6-.57,1.08-1.2,1.08-.68,0-1.23-.55-1.23-1.23s.55-1.23,1.23-1.23Z"/>
      <path class="cls-2" d="m8.42,4.38c.39,0,.71-.32.71-.71s-.32-.71-.71-.71-.71.32-.71.71.32.71.71.71Z"/>
    </g>
    <g>
      <path class="cls-2" d="m9.05,11.65c-.08,0-.15.07-.15.15s.07.15.15.15h.5c.08,0,.15-.07.15-.15s-.07-.15-.15-.15h-.5Z"/>
      <path class="cls-2" d="m10.05,11.65c-.08,0-.15.07-.15.15s.07.15.15.15h.5c.08,0,.15-.07.15-.15s-.07-.15-.15-.15h-.5Z"/>
      <path class="cls-2" d="m8.05,11.65c-.08,0-.15.07-.15.15s.07.15.15.15h.5c.08,0,.15-.07.15-.15s-.07-.15-.15-.15h-.5Z"/>
      <path class="cls-2" d="m10.89,11.8c0,.08.07.15.15.15h.5c.08,0,.15-.07.15-.15s-.07-.15-.15-.15h-.5c-.08,0-.15.07-.15.15Z"/>
      <path class="cls-2" d="m3.7,11.8c0-.08-.07-.15-.15-.15h-.5c-.08,0-.15.07-.15.15s.07.15.15.15h.5c.08,0,.15-.07.15-.15Z"/>
      <path class="cls-2" d="m12.55,11.65h-.5c-.08,0-.15.07-.15.15s.07.15.15.15h.5c.08,0,.15-.07.15-.15s-.07-.15-.15-.15Z"/>
      <path class="cls-2" d="m4.05,11.95h.5c.08,0,.15-.07.15-.15s-.07-.15-.15-.15h-.5c-.08,0-.15.07-.15.15s.07.15.15.15Z"/>
      <path class="cls-2" d="m5.05,11.65c-.08,0-.15.07-.15.15s.07.15.15.15h.5c.08,0,.15-.07.15-.15s-.07-.15-.15-.15h-.5Z"/>
      <path class="cls-2" d="m6.05,11.65c-.08,0-.15.07-.15.15s.07.15.15.15h.5c.08,0,.15-.07.15-.15s-.07-.15-.15-.15h-.5Z"/>
      <path class="cls-2" d="m7.05,11.65c-.08,0-.15.07-.15.15s.07.15.15.15h.5c.08,0,.15-.07.15-.15s-.07-.15-.15-.15h-.5Z"/>
    </g>
  </g>
</svg>