<?xml version="1.0" encoding="UTF-8"?>
<svg id="ICONS" xmlns="http://www.w3.org/2000/svg" viewBox="0 0 15.59 15.59">
  <defs>
    <style>
      .cls-1 {
        fill: #031E3A;
      }

      .cls-2 {
        fill: #fff;
      }
    </style>
  </defs>
  <rect class="cls-1" x="0" y="0" width="15.59" height="15.59" rx="7.8" ry="7.8"/>
  <path class="cls-2" d="m7.98,7.14l.39,1.07c.03.08.1.13.18.13l1.14.04c.19,0,.27.25.12.36l-.9.7c-.07.05-.09.14-.07.22l.31,1.09c.05.18-.15.33-.31.22l-.94-.64c-.07-.05-.16-.05-.23,0l-.94.64c-.16.11-.36-.04-.31-.22l.31-1.09c.02-.08,0-.17-.07-.22l-.9-.7c-.15-.12-.07-.36.12-.36l1.14-.04c.08,0,.16-.06.18-.13l.39-1.07c.06-.18.32-.18.38,0Z"/>
  <path class="cls-2" d="m12.47,3.08c-.09-.12-.21-.17-.37-.17h-2.16v-.39c0-.21-.17-.38-.38-.38s-.37.17-.37.38v.39h-2.78v-.39c0-.21-.17-.38-.37-.38-.21,0-.38.17-.38.38v.39h-2.13c-.33,0-.48.14-.48.47,0,1.36.01,2.71.01,4.06,0,1.55-.01,3.1-.01,4.66,0,.28.17.47.47.47,2.85-.01,5.7-.01,8.54,0,.25,0,.44-.11.47-.4,0-.02,0-.04.02-.06V3.28c-.04-.06-.04-.14-.08-.2Zm-.73,8.53c0,.11-.03.15-.15.15-2.54-.01-5.09-.01-7.63,0-.09,0-.11-.03-.11-.11v-5.62c0-.09.02-.12.12-.12,1.28.01,6.38.01,7.65,0,.09,0,.12.02.12.12v5.58Zm0-6.6c0,.1-.03.11-.12.11H3.96c-.08,0-.11-.01-.11-.11v-1.19c0-.08.02-.11.11-.11h1.7v.41c0,.21.17.38.38.38s.37-.17.37-.38v-.41h2.78v.41c0,.21.16.38.37.38s.38-.17.38-.38v-.41h1.71c.08,0,.09.03.09.09-.01.41-.01.81,0,1.21Z"/>
</svg>