<svg xmlns="http://www.w3.org/2000/svg" width="5.5mm" height="5.5mm" viewBox="0 0 15.591 15.591">
  <rect width="15.591" height="15.591" rx="7.795" fill="#031E3A"/>
  <g>
    <path d="M10.864,10.01a.225.225,0,0,0-.285.134.223.223,0,0,0,.134.284c.924.333,1.475.806,1.475,1.265,0,.837-1.809,1.733-4.5,1.733s-4.5-.9-4.5-1.733a.223.223,0,0,0-.445,0c0,1.221,2.173,2.177,4.946,2.177s4.946-.956,4.946-2.177C12.633,11.019,12,10.422,10.864,10.01Z" fill="#fff"/>
    <path d="M4.321,4.956c.75-.319,1.26-.809,1.138-1.1s-.828-.258-1.578.061-1.259.809-1.137,1.094S3.571,5.275,4.321,4.956Z" fill="#fff"/>
    <path d="M8.215,8.69H9.657v2.589c-.36.051-.641.215-.658.447.025.234.419.423.88.423s.853-.189.88-.467c-.018-.2-.3-.354-.658-.4V8.69h1.423a.918.918,0,0,0,.917-.917V7.309a.221.221,0,0,0-.222-.222H10.1V6.753h.442a1.221,1.221,0,0,0,1.219-1.22V1.974H8V5.533a1.221,1.221,0,0,0,1.219,1.22h.443v.334H7.519a.222.222,0,0,0-.222.222v.464A.918.918,0,0,0,8.215,8.69ZM10.1,6.308V3.2h.363V6.054a.254.254,0,0,1-.254.254Zm1.217-.775a.773.773,0,0,1-.444.695.681.681,0,0,0,.035-.174V3.2h.409Zm-2.879,0V3.2h.41V6.038a.683.683,0,0,0,.039.192A.771.771,0,0,1,8.439,5.533Zm1.124.775a.27.27,0,0,1-.27-.27V3.2h.364V6.308ZM12,7.773a.473.473,0,0,1-.473.473h-.439a.883.883,0,0,0,.145-.463V7.531H12Zm-1.211-.242v.252a.464.464,0,0,1-.463.463H10.1V7.531Zm-1.129,0v.715H9.412a.46.46,0,0,1-.459-.459V7.531Zm-1.915,0h.767v.256a.88.88,0,0,0,.144.459H8.215a.473.473,0,0,1-.473-.473Z" fill="#fff"/>
  </g>
</svg>
