<svg xmlns="http://www.w3.org/2000/svg" width="5.5mm" height="5.5mm" viewBox="0 0 15.591 15.591">
  <rect width="15.591" height="15.591" rx="7.795" fill="#031E3A"/>
  <g>
    <path d="M5.194,5.431a.611.611,0,0,1,.554.327L6.33,6.79l.841,1.494a.121.121,0,0,0,.08.064Q8.415,8.672,9.578,9a1.305,1.305,0,0,1,.6.357l2.356,2.408a.434.434,0,0,1,0,.622.439.439,0,0,1-.628-.005q-.75-.76-1.5-1.522a.235.235,0,0,0-.1-.056L7.085,9.9a1.1,1.1,0,0,1-.5-.289A.565.565,0,0,1,6.5,9.492q-.9-1.577-1.8-3.154a.6.6,0,0,1,.362-.885A1.087,1.087,0,0,1,5.194,5.431Z" fill="#fff"/>
    <path d="M12.954,9.649c.088.05-.624.863-.7.764l-.335-.437a3.421,3.421,0,0,1-.337.077.852.852,0,1,1,.774-1,1.094,1.094,0,0,1,.01.206.077.077,0,0,0,.049.084C12.577,9.435,12.867,9.6,12.954,9.649Z" fill="#fff"/>
    <path d="M9.51,8.571l-.552-.153c-.455-.127-.91-.255-1.366-.38a.253.253,0,0,1-.215-.2.285.285,0,0,1,.009-.123c.056-.209.115-.417.175-.625A.242.242,0,0,1,7.884,6.9l1.89.533c.015,0,.03.01.047.016Z" fill="#fff"/>
    <path d="M4.423,5.5,2.648,3.97a.055.055,0,0,1,0-.086l1.1-.8A.055.055,0,0,1,3.83,3.1S4.967,5.013,4.993,5.059a.083.083,0,0,1,0,.086L4.516,5.5A.076.076,0,0,1,4.423,5.5Z" fill="#fff"/>
    <path d="M9.78,8.647,10.1,7.521a1.235,1.235,0,0,1,.452.177.59.59,0,0,1,.154.725.6.6,0,0,1-.7.29C9.931,8.694,9.86,8.671,9.78,8.647Z" fill="#fff"/>
  </g>
</svg>
