<svg xmlns="http://www.w3.org/2000/svg" width="5.5mm" height="5.5mm" viewBox="0 0 15.591 15.591">
  <rect width="15.591" height="15.591" rx="7.795" fill="#031E3A"/>
  <g>
    <path d="M12.961,4.962,8.054,2.021a.434.434,0,0,0-.448,0L2.7,4.962a.437.437,0,0,0,.449.749L7.83,2.905l4.682,2.806a.437.437,0,1,0,.449-.749Z" fill="#fff"/>
    <path d="M12,11.509h-.47a.427.427,0,0,0,.025-.124v-1.9a.437.437,0,0,0-.874,0V10.2H4.846V8.558a.437.437,0,1,0-.873,0v2.831a.441.441,0,0,0,.024.12H3.575a.328.328,0,0,0,0,.656H12a.328.328,0,0,0,0-.656Zm-7.158-.12v-.314h5.839v.31a.4.4,0,0,0,.026.124H4.822A.406.406,0,0,0,4.846,11.389Z" fill="#fff"/>
    <path d="M6.049,9.214a.627.627,0,1,0-.627-.627A.627.627,0,0,0,6.049,9.214Z" fill="#fff"/>
    <path d="M5.168,9.66a.328.328,0,0,0,.328.327H7.015l.01,0h3.039a.192.192,0,0,0,.192-.192A1.192,1.192,0,0,0,9.064,8.6H6.994a.192.192,0,0,0-.192.192v.539H5.5A.328.328,0,0,0,5.168,9.66Z" fill="#fff"/>
  </g>
</svg>
