<?xml version="1.0" encoding="UTF-8"?><svg xmlns="http://www.w3.org/2000/svg" viewBox="0 0 15.59055 15.59055"><defs><style>.cls-1{fill:#031E3A;}.cls-2{fill:#fff;}</style></defs><g id="Cirkel"><rect class="cls-1" x="0" y="0" width="15.59055" height="15.59055" rx="7.79527" ry="7.79527"/></g><g id="ICONS"><g><circle class="cls-2" cx="4.66475" cy="3.32024" r=".92432"/><path class="cls-2" d="m6.42531,10.9923c.22803,0,.41284-.18488.41284-.41284l.13239-1.47357c.00177-.0199-.00629-.03925-.00586-.0592h-.85773c.01709.06409.04407.12646.03754.19312l-.13208,1.33966c0,.22797.18488.41284.4129.41284Z"/><path class="cls-2" d="m3.52584,10.99919c.11115,0,.21118-.04504.28546-.11658l.00024.00031.00269-.00226c.0014-.0014.00305-.00244.00446-.00378l1.26855-1.07123c.09259-.07819.16321-.17914.20496-.29291l.14362-.46606h-.90631c-.0694.15234-.16742.29016-.29541.39868l-.9856.83618.00171.00183c-.08307.0755-.13727.18182-.13727.30292,0,.22809.18481.4129.4129.4129Z"/><path class="cls-2" d="m12.83425,11.9608c-.15979,0-.2298-.0614-.33588-.15399-.12189-.10657-.2738-.23926-.56384-.23926-.2901,0-.44226.13269-.56439.23926-.07172.06262-.13654.10187-.21436.12659l-1.39819-8.11414c.05328.00488.09857.00079.1532.0072.08203,0,.15625-.0498.16699-.13184.00879-.08203-.0498-.15723-.13184-.16699-1.0589-.12488-1.87457.03821-2.46967.45123-.00787-.01501-.01025-.03156-.02032-.04578-.10645-.15002-.29852-.1936-.46143-.12543,0,0-.7196.53546-1.05042.64294-.31152.10126-1.16504.15118-1.59955.17065-.14667.00653-.25812.12982-.25372.27655,0,0-.00134.9502.10791,1.20026.09698.22198.43182.19788.43182.19788l.26727,1.51282h1.7561l-.32007-1.08783.25024.06622c.01202.00293.04761.00903.04761.00903.0813.00854.16577-.00775.23761-.05878.15692-.11127.19391-.32874.08258-.4856-.05029-.07092-.12396-.11273-.20227-.13184.00195-.38263.08295-1.07507.55273-1.60712.0257-.01727.06006-.04028.06213-.04175.04449-.03156.07965-.07104.1062-.11487.46509-.40948,1.14899-.5899,2.03131-.54901l1.3999,8.12402c-.07324-.02551-.13568-.06421-.20471-.12445-.12213-.10657-.27423-.23926-.56458-.23926-.29004,0-.4422.13269-.56427.23926-.10614.09259-.17633.15399-.33661.15399-.16095,0-.23114-.0614-.33771-.15399-.09198-.0799-.18817-.15295-.30426-.19403-.07794-.02753-.16071-.04382-.24353-.04395-.03662-.00006-.08093-.00092-.11462.01477-.0285.01324-.05499.03143-.07538.0556-.02429.02887-.03772.065-.03772.10284,0,.06366.03937.12689.09375.15887.01398.00818.02869.01361.04431.01758.01758.00452.03345.00146.05145.00031.03973-.00262.08014-.00134.11902.00775.09137.02124.16974.08118.23926.14166.12256.10657.27472.23926.56543.23926.29028,0,.44244-.13269.56458-.23926.10608-.09259.17627-.15393.3363-.15393.16034,0,.23047.06134.33661.15393.12213.10657.27423.23926.56433.23926.29028,0,.44244-.13269.56451-.23926.10614-.09259.17633-.15393.33643-.15393.15973,0,.22974.06134.33588.15393.12189.10657.27374.23926.56384.23926.0957,0,.17334-.07764.17334-.17334s-.07764-.17334-.17334-.17334Zm-6.38428-5.91595l-.30029-.07355-.22614-.81268s.49341-.13007.65741-.20355c.03046-.01367.07922-.04266.12213-.06665-.1936.42865-.24591.85541-.25311,1.15643Z"/><polygon class="cls-2" points="7.402 7.80876 7.402 8.22142 6.77535 8.22142 5.7145 8.22142 5.69918 8.19207 5.69014 8.22142 4.80587 8.22142 2.58296 8.22142 2.58296 8.63408 4.67263 8.63408 5.56295 8.63408 5.93032 8.63408 6.89675 8.63408 7.402 8.63408 7.402 9.04668 7.402 11.05791 2.58364 11.05791 2.58364 11.55791 7.402 11.55791 7.402 13.19463 7.902 13.19463 7.902 11.30791 7.902 11.05791 7.902 7.46025 7.402 7.46025 7.402 7.80876"/></g></g></svg>