<svg xmlns="http://www.w3.org/2000/svg" width="5.5mm" height="5.5mm" viewBox="0 0 15.591 15.591">
  <rect width="15.591" height="15.591" rx="7.795" fill="#031E3A"/>
  <g>
    <path d="M6.685,9.536a.46.46,0,0,0-.023-.117.494.494,0,0,0-.077-.144L5.618,8.068c.062-.486.148-.79.222-1.29.1.133.252.379.293.429a.4.4,0,0,0,.124.1l1.255.586a.386.386,0,0,0,.247,0,.381.381,0,0,0,.161-.114A.376.376,0,0,0,7.994,7.6a.364.364,0,0,0-.031-.2.351.351,0,0,0-.127-.144L6.705,6.712Q6.352,5.874,6,5.035a.608.608,0,0,0-.134-.224.616.616,0,0,0-.227-.154.644.644,0,0,0-.375-.027c-.134.031-1.211.617-1.68.857l-.207.107a.308.308,0,0,0-.1.07.315.315,0,0,0-.051.084,1.414,1.414,0,0,0-.07.17c-.023.076-.157.4-.542,1.289a.449.449,0,0,0-.04.117.376.376,0,0,0,0,.161.36.36,0,0,0,.565.214.392.392,0,0,0,.127-.147L3.834,6.17l.43-.134s-.4,2.088-.728,3.588c-.482.622-.816,1.121-1.3,1.742a.446.446,0,0,0-.074.215.46.46,0,0,0,.061.251.454.454,0,0,0,.184.174.442.442,0,0,0,.314.023.533.533,0,0,0,.231-.164l2.07-2.322c.41.252.713.41.713.41s.263,1.694.286,1.768a.466.466,0,0,0,.13.218.443.443,0,0,0,.325.113.432.432,0,0,0,.284-.147.408.408,0,0,0,.117-.241.315.315,0,0,0,0-.09Z" fill="#fff"/>
    <path d="M5.867,4.4a.843.843,0,1,0-.843-.843A.843.843,0,0,0,5.867,4.4Z" fill="#fff"/>
    <path d="M8.367,10.37a.859.859,0,1,0,.859.858A.859.859,0,0,0,8.367,10.37Z" fill="#fff"/>
    <path d="M12.324,11.079V3.907l0,0,0-.442a.282.282,0,0,0-.389-.254l-2.177,1a.282.282,0,0,0-.024.512L11.85,5.74v5.339c-.627.056-1.1.326-1.1.653,0,.368.6.665,1.34.665s1.34-.3,1.34-.665C13.427,11.405,12.951,11.135,12.324,11.079Z" fill="#fff"/>
  </g>
</svg>
