<?xml version="1.0" encoding="UTF-8"?><svg xmlns="http://www.w3.org/2000/svg" viewBox="0 0 15.59055 15.59055"><defs><style>.cls-1{fill:#fff;}.cls-2{fill:#031E3A;}</style></defs><g id="Cirkel"><rect class="cls-2" x="0" y="0" width="15.59055" height="15.59055" rx="7.79527" ry="7.79527"/></g><g id="ICONS"><g><path class="cls-1" d="m11.38319,6.82437c-.04541-.06738-.13867-.08594-.20752-.04199-.00342.00195-.36084.23145-1.03027.23145h-2.21973c-.66553,0-1.02148-.22559-1.03027-.23145-.06641-.04297-.16064-.02734-.20752.04102-.04639.06934-.02783.16211.04053.20801.01709.01172.42822.2832,1.19727.2832h.95996v1.70337c-.20227.05029-.3916.21875-.3916.69312v2.8125c0,.66406.41455.71582.5415.71582.26074,0,.5415-.22461.5415-.71582v-2.86133c0-.44147-.18933-.59875-.3916-.64575v-1.7019h.95996c.76855,0,1.17969-.27148,1.19678-.2832.06885-.0459.08691-.1377.04102-.20703Zm-2.10596,2.83789v2.86133c0,.32812-.15186.41504-.2417.41504-.16016,0-.2417-.13965-.2417-.41504v-2.8125c0-.3457.09277-.41504.2417-.41504.10205,0,.2417,0,.2417.36621Z"/><path class="cls-1" d="m8.03315,5.53323v1.16437h2.00446v-1.16437s.30804.43018.36816,1.16437c0,0,.42072-.01202.72119-.32751,0,0-.04749-2.27374-1.1109-2.27374h-1.9613c-1.06342,0-1.1109,2.27374-1.1109,2.27374.30048.31549.72119.32751.72119.32751.06012-.73419.3681-1.16437.3681-1.16437Z"/><circle class="cls-1" cx="9.03541" cy="2.76938" r=".98517"/><path class="cls-1" d="m9.5583,8.77017s.35547.15063.35547.68378v1.68726s.31146,0,.31146-.47516v-3.05182h-.66693v1.15594Z"/><path class="cls-1" d="m8.51814,7.61423h-.66693l-.89819,2.28979h0l-.27319.69641-.02362.06012c-.00037.00128,0,.00214-.00037.00342-.02179.07922-.02686.14771-.02106.20782.00201.02081.01068.0354.0155.05396.00928.03613.01898.07123.03729.09875.01093.01648.02545.02765.03912.04114.02081.02063.04163.04004.0675.05365.0177.00934.03625.01495.05579.02106.02753.00861.05475.01495.08466.01709.01019.00073.0188.00592.02917.00592.00714,0,.01428-.00598.02148-.00635.07544-.00354.15131-.02374.22253-.06567.01031-.00604.01794-.0141.02789-.021.07318-.05005.1394-.11584.18121-.20795.12408-.27344.74573-1.40845.74573-1.40845,0-.53314.35547-.68378.35547-.68378v-1.15594Z"/><path class="cls-1" d="m6.43177,11.24161c-.06415-.08453-.14661-.2594-.11182-.53333l-1.83813.55042v-3.00977l2.54681-.76245c-.15295-.04639-.31372-.11475-.46204-.20636l-2.08478.62415v-.8504c0-.08301-.06689-.15039-.1499-.15039s-.1499.06738-.1499.15039v6.03516c0,.08301.06689.15039.1499.15039s.1499-.06738.1499-.15039v-1.00067l2.19482-.65729c-.09631-.04315-.18115-.10547-.24487-.18945Z"/><path class="cls-1" d="m7.80781,10.81241c-.03931.08032-.07074.14453-.08984.18665-.02484.05469-.06018.10138-.09479.1485l.53058-.15881v-.82965l-.04669.01398c-.10828.2439-.21912.47534-.29926.63934Z"/></g></g></svg>