<?xml version="1.0" encoding="UTF-8"?>
<svg id="ICONS" xmlns="http://www.w3.org/2000/svg" viewBox="0 0 15.59 15.59">
  <defs>
    <style>
      .cls-1 {
        fill: #fff;
      }

      .cls-2 {
        fill: #031E3A;
      }
    </style>
  </defs>
  <rect class="cls-2" x="0" y="0" width="15.59" height="15.59" rx="7.8" ry="7.8"/>
  <g>
    <path class="cls-1" d="m12.27,5.39l-1.59.06c-.02-.53.39-.97.92-.99l.64-.02s.08.03.08.08l.03.79s-.03.08-.08.08Z"/>
    <path class="cls-1" d="m11.92,4.19c-.25,0-.46-.18-.46-.43s.18-.46.43-.46.46.18.46.43-.18.46-.43.46Z"/>
    <path class="cls-1" d="m10.27,5.63l-1.41.74c-.25-.47-.07-1.04.4-1.29l.56-.3s.09,0,.11.03l.37.7s0,.09-.03.11Z"/>
    <path class="cls-1" d="m9.43,4.7c-.22.12-.49.03-.61-.19s-.03-.49.19-.61.49-.03.61.19.03.49-.19.61Z"/>
    <path class="cls-1" d="m8.35,6.68l-1.19,1.06c-.35-.39-.32-.99.08-1.35l.48-.43s.08-.03.11,0l.53.59s.03.08,0,.11Z"/>
    <path class="cls-1" d="m7.31,5.98c-.18.16-.47.15-.63-.04s-.15-.47.04-.63.47-.15.63.04.15.47-.04.63Z"/>
    <path class="cls-1" d="m12.61,6.88c.17,0,.33-.12.35-.29.02-.18-.11-.33-.29-.35-2.74-.26-3.8.83-4.65,1.71-.52.55-.96.95-1.65.97-1.11-.02-1.47-.52-1.85-1.06-.3-.41-.62-.85-1.26-.91-.17-.03-.33.11-.35.28-.02.18.11.33.29.35.06,0,.12.02.17.04v4.05h-.41c-.18,0-.32.14-.32.32s.14.31.32.31h9.41c.18,0,.31-.13.31-.31s-.13-.32-.31-.32h-.4v-4.82c.2,0,.42,0,.65.03Zm-7.64,4.79h-.97v-3.43c.23.32.5.7.97.98v2.45Zm1.52,0h-.88v-2.2c.22.05.47.09.76.09h.03s.07,0,.09,0v2.12Zm1.6,0h-.97v-2.23c.38-.13.68-.37.97-.64v2.87Zm1.62,0h-.99v-3.52c.28-.28.59-.56.99-.78v4.31Zm.63,0v-4.59c.29-.09.62-.17.99-.2v4.8h-.99Z"/>
  </g>
</svg>