<svg xmlns="http://www.w3.org/2000/svg" width="5.5mm" height="5.5mm" viewBox="0 0 15.591 15.591">
  <rect width="15.591" height="15.591" rx="7.795" fill="#031E3A"/>
  <path d="M12.39,12.449H11.324L10.03,10.243A3.84,3.84,0,0,0,11,9.212l.45.259a.723.723,0,0,0-.056.217l-.009.285a.479.479,0,0,0,.48.479h.478a.479.479,0,0,0,.48-.479l-.009-.285a.714.714,0,0,0-.71-.673.681.681,0,0,0-.381.126l-.521-.3a3.674,3.674,0,0,0,0-3.35l.583-.337a.42.42,0,0,0,.08.016h.478a.479.479,0,0,0,.48-.479l-.009-.285a.711.711,0,0,0-1.42,0l-.009.285a.492.492,0,0,0,.037.185L11,5.119a3.8,3.8,0,0,0-3-1.748V3.066h.028a.48.48,0,0,0,.479-.479L8.505,2.3a.71.71,0,0,0-1.419,0l-.01.285a.48.48,0,0,0,.48.479h.028v.305A3.81,3.81,0,0,0,4.628,5.042l-.39-.225a.448.448,0,0,0,.026-.127l-.009-.285a.711.711,0,0,0-1.42,0l-.009.285a.479.479,0,0,0,.48.479h.478a.481.481,0,0,0,.162-.032l.48.277a3.662,3.662,0,0,0,0,3.5l-.448.258a.688.688,0,0,0-.433-.16.714.714,0,0,0-.71.673l-.009.285a.479.479,0,0,0,.48.479h.478a.479.479,0,0,0,.48-.479l-.009-.285a.734.734,0,0,0-.042-.161l.415-.239a3.848,3.848,0,0,0,.974.989L4.328,12.449H3.2a.318.318,0,1,0,0,.635H12.39a.318.318,0,0,0,0-.635Zm-1.8,0H8.007v-1.49a3.771,3.771,0,0,0,1.478-.391ZM9.166,10.023a3.138,3.138,0,0,1-1.159.3V8.047Zm-1.582.3a3.132,3.132,0,0,1-1.112-.276l1.112-1.9Zm2.123-.633L8.617,7.833,10.457,8.9A3.2,3.2,0,0,1,9.707,9.691Zm1.269-2.526a3.132,3.132,0,0,1-.317,1.359L8.591,7.331a.777.777,0,0,0,.034-.166A.756.756,0,0,0,8.591,7l2.068-1.194A3.135,3.135,0,0,1,10.976,7.165Zm-.519-1.731L8.408,6.618a.814.814,0,0,0-.4-.24V4.006A3.171,3.171,0,0,1,10.457,5.434ZM7.584,4.006V6.378a.818.818,0,0,0-.338.176L5.181,5.361A3.173,3.173,0,0,1,7.584,4.006ZM4.615,7.165A3.13,3.13,0,0,1,4.973,5.73L7.017,6.91a.663.663,0,0,0,0,.51L4.973,8.6A3.15,3.15,0,0,1,4.615,7.165Zm.566,1.8,1.8-1.038L5.926,9.725A3.183,3.183,0,0,1,5.181,8.969Zm.971,1.624a3.786,3.786,0,0,0,1.432.366v1.49H5.063Z" fill="#fff"/>
</svg>
