<svg xmlns="http://www.w3.org/2000/svg" width="5.5mm" height="5.5mm" viewBox="0 0 15.591 15.591">
  <rect width="15.591" height="15.591" rx="7.795" fill="#031E3A"/>
  <g>
    <path d="M4.455,7.248l6.513.015a1.22,1.22,0,0,0,1.2-1.282l-.021-.627a1.211,1.211,0,0,0-1.305-1.189l-6.492.611a1.241,1.241,0,0,0,.106,2.472Z" fill="#fff"/>
    <path d="M13.009,9.86l-.746-1.287a1.132,1.132,0,0,0-.982-.55H10.92A1.08,1.08,0,0,0,9.815,9.257l.224,1.287a1.105,1.105,0,0,0,1.106.887h.882A1.062,1.062,0,0,0,13.009,9.86Z" fill="#fff"/>
    <path d="M4.889,8.023H3.948a.831.831,0,0,0-.632.3L2.107,9.743a.983.983,0,0,0,.6,1.626l1.512.062a.864.864,0,0,0,.817-.548L5.674,9.4A.962.962,0,0,0,4.889,8.023Z" fill="#fff"/>
    <path d="M8.084,8.158H7.65a1.022,1.022,0,0,0-1,.949l-.1,1.189a1.028,1.028,0,0,0,1,1.135H7.98a1.021,1.021,0,0,0,1-.948l.1-1.189A1.029,1.029,0,0,0,8.084,8.158Z" fill="#fff"/>
  </g>
</svg>
