<svg id="Cirkel" xmlns="http://www.w3.org/2000/svg" viewBox="0 0 15.59 15.59"><defs><style>.cls-1{fill:#031E3A;}.cls-2{fill:#fff;}.cls-3{fill:none;}</style></defs><rect class="cls-1" width="15.59" height="15.59" rx="7.79"/><path class="cls-2" d="M8.36,6.1l2,.9V5.66a.29.29,0,0,0-.3-.3H5.53a.29.29,0,0,0-.3.3V7l2-.9A1.45,1.45,0,0,1,8.36,6.1Z"/><path class="cls-2" d="M7.8,4.17a.25.25,0,0,1-.2-.1H6.43a.18.18,0,0,0-.17.17V4.9H9.33V4.24a.18.18,0,0,0-.17-.17H8A.24.24,0,0,1,7.8,4.17Z"/><polygon class="cls-1" points="5.94 7.19 4.73 7.73 4.73 7.73 5.94 7.19 5.94 7.19"/><path class="cls-3" d="M9.43,7.91A.23.23,0,0,0,9.12,8a.24.24,0,0,0,.12.31l1,.46a.15.15,0,0,0,.09,0,.23.23,0,0,0,.21-.13.24.24,0,0,0-.11-.31Z"/><path class="cls-3" d="M6.15,7.91,5.1,8.38A.23.23,0,0,0,5,8.69a.22.22,0,0,0,.21.13.15.15,0,0,0,.09,0l1-.46A.24.24,0,0,0,6.46,8,.23.23,0,0,0,6.15,7.91Z"/><path class="cls-2" d="M8,6.61V9.89a1.93,1.93,0,0,1,1.11.53.84.84,0,0,0,.65.31.88.88,0,0,0,.66-.31,2.4,2.4,0,0,1,.51-.37l.21-1.77a.55.55,0,0,0-.31-.54L9.63,7.19,8.16,6.53,8,6.48m-.47,0-.14,0-1.48.66-1.21.54a.53.53,0,0,0-.31.54L4.63,10a2.5,2.5,0,0,1,.55.38.86.86,0,0,0,.66.31.84.84,0,0,0,.65-.31A2,2,0,0,1,7.56,9.9V6.61M6.34,8.34l-1,.46a.15.15,0,0,1-.09,0A.22.22,0,0,1,5,8.69a.23.23,0,0,1,.11-.31l1.05-.47A.23.23,0,0,1,6.46,8,.24.24,0,0,1,6.34,8.34Zm4.25.35a.23.23,0,0,1-.21.13.15.15,0,0,1-.09,0l-1-.46A.24.24,0,0,1,9.12,8a.23.23,0,0,1,.31-.12l1.05.47A.24.24,0,0,1,10.59,8.69Z"/><path class="cls-2" d="M13.44,11.43a.94.94,0,0,1-.7-.32,1.63,1.63,0,0,0-1.18-.5,1.67,1.67,0,0,0-1.18.5.93.93,0,0,1-.7.32.94.94,0,0,1-.7-.32,1.64,1.64,0,0,0-2.36,0,.94.94,0,0,1-.7.32,1,1,0,0,1-.71-.32A1.63,1.63,0,0,0,4,10.61a1.67,1.67,0,0,0-1.18.5.94.94,0,0,1-.7.32.36.36,0,0,0-.36.36.37.37,0,0,0,.36.37,1.65,1.65,0,0,0,1.18-.5.92.92,0,0,1,1.41,0,1.63,1.63,0,0,0,1.18.5,1.67,1.67,0,0,0,1.18-.5.91.91,0,0,1,1.4,0,1.67,1.67,0,0,0,1.18.5,1.63,1.63,0,0,0,1.18-.5.92.92,0,0,1,.7-.33.9.9,0,0,1,.7.33,1.67,1.67,0,0,0,1.18.5.37.37,0,0,0,.36-.37A.36.36,0,0,0,13.44,11.43Z"/><path class="cls-2" d="M8.05,2.6a.25.25,0,0,0-.25-.25.25.25,0,0,0-.25.25v1h.5Z"/><path class="cls-2" d="M7.8,4.17A.24.24,0,0,0,8,4.07H7.6A.25.25,0,0,0,7.8,4.17Z"/><polygon class="cls-1" points="7.61 4.07 6.43 4.07 6.43 4.07 7.61 4.07 7.61 4.07"/><polygon class="cls-1" points="7.99 4.07 7.99 4.07 9.15 4.07 9.15 4.07 7.99 4.07"/><polygon class="cls-1" points="7.99 4.07 7.99 4.07 7.61 4.07 7.61 4.07 7.99 4.07"/></svg>