<svg xmlns="http://www.w3.org/2000/svg" width="5.5mm" height="5.5mm" viewBox="0 0 15.591 15.591">
  <rect width="15.591" height="15.591" rx="7.795" fill="#031E3A"/>
  <path d="M8.86,3.976A9.027,9.027,0,0,0,7.668,3.9H7.63l-.041,0A6.962,6.962,0,0,0,3.25,5.258a3.528,3.528,0,0,0-1.7,2.81c0,2.285,2.854,4.144,6.363,4.144s6.364-1.859,6.364-4.144C14.277,5.994,11.921,4.275,8.86,3.976Zm-3.38.993A8.726,8.726,0,0,1,7.913,4.63c.161,0,.32.007.478.015,1.7.19,3.017,1,3.017,1.933,0,1.071-1.73,1.976-3.778,1.976S3.853,7.649,3.853,6.578C3.853,5.922,4.506,5.331,5.48,4.969ZM3.175,6.408c0,.058-.028.112-.028.17,0,1.5,1.97,2.682,4.483,2.682s4.483-1.178,4.483-2.682a1.691,1.691,0,0,0-.054-.332,1.736,1.736,0,0,1,.41,1.072c0,1.472-2.2,2.715-4.8,2.715s-4.8-1.243-4.8-2.715A1.668,1.668,0,0,1,3.175,6.408Zm4.738,5.1c-3.12,0-5.658-1.542-5.658-3.438,0-.03.006-.059.008-.089.483,1.591,2.683,2.76,5.405,2.76,3.088,0,5.507-1.5,5.507-3.421a2.282,2.282,0,0,0-.1-.649,2.35,2.35,0,0,1,.494,1.4C13.571,9.964,11.033,11.506,7.913,11.506Z" fill="#fff"/>
</svg>
