<svg xmlns="http://www.w3.org/2000/svg" width="5.5mm" height="5.5mm" viewBox="0 0 15.591 15.591">
  <rect width="15.591" height="15.591" rx="7.795" fill="#031E3A"/>
  <path d="M8.561,9.072H8.555V2.729l0,0,0-.482a.306.306,0,0,0-.421-.275L5.773,3.052a.307.307,0,0,0-.026.556L8.04,4.716v4.32c-.049,0-.1,0-.15-.011s-.1-.005-.153-.005c-1.929,0-4.365-1-4.365.18s2.436,4.114,4.365,4.114,3.494-.962,3.494-2.146C11.231,10.124,10.165,9.265,8.561,9.072Zm-.4,2.68c-.739,0-1.338-.325-1.338-.723,0-.354.469-.649,1.088-.712H8.04v.515a.258.258,0,0,0,.515,0v-.515h.006c.618.063.939.358.939.712C9.5,11.427,8.9,11.752,8.164,11.752Z" fill="#fff"/>
</svg>
