<?xml version="1.0" encoding="UTF-8"?>
<svg id="ICONS" xmlns="http://www.w3.org/2000/svg" viewBox="0 0 15.59 15.59">
  <defs>
    <style>
      .cls-1 {
        fill: #fff;
      }

      .cls-2 {
        fill: #021e3a;
      }
    </style>
  </defs>
  <rect class="cls-2" x="-.02" y=".02" width="15.59" height="15.59" rx="7.8" ry="7.8"/>
  <g>
    <path class="cls-1" d="m13.02,5.37l-5.01-3c-.14-.08-.32-.08-.46,0l-5.01,3c-.21.13-.28.4-.15.61.13.21.4.28.61.15l4.78-2.87,4.78,2.87c.07.04.15.06.23.06.15,0,.3-.08.38-.22.13-.21.06-.48-.15-.61Z"/>
    <path class="cls-1" d="m12.04,12.06h-.48s.03-.08.03-.13v-1.94c0-.25-.2-.45-.45-.45s-.45.2-.45.45v.73h-5.96v-1.68c0-.25-.2-.45-.45-.45s-.45.2-.45.45v2.89s.01.08.02.12h-.43c-.18,0-.33.15-.33.33s.15.33.33.33h8.61c.18,0,.33-.15.33-.33s-.15-.33-.33-.33Zm-7.31-.12v-.32h5.96v.32s.01.09.03.13h-6.01s.02-.08.02-.12Z"/>
    <path class="cls-1" d="m8.79,4.75c-.18,0-.33.15-.33.33v.94s0,0,0,0h-1.15v-.94c0-.18-.15-.33-.33-.33s-.33.15-.33.33v2.43c0,.18.15.33.33.33s.33-.15.33-.33v-.82h1.15s0,0,0,0v.82c0,.18.15.33.33.33s.33-.15.33-.33v-2.43c0-.18-.15-.33-.33-.33Z"/>
    <path class="cls-1" d="m7.02,10.31h3.24c0-.77-.63-1.4-1.4-1.4h-1.85c-.06,0-.12.05-.12.12v1.16c0,.06.05.12.12.12Z"/>
    <path class="cls-1" d="m5.82,10.31c.36,0,.66-.29.66-.66s-.29-.66-.66-.66-.66.29-.66.66.29.66.66.66Z"/>
  </g>
</svg>