<?xml version="1.0" encoding="UTF-8"?><svg id="ICONS" xmlns="http://www.w3.org/2000/svg" viewBox="0 0 15.59055 15.59055"><defs><style>.cls-1{fill:#fff;}.cls-2{fill:#031E3A;}</style></defs><rect class="cls-2" x="0" y="0" width="15.59055" height="15.59055" rx="7.79527" ry="7.79527"/><path class="cls-1" d="m12.95348,11.06795h-4.83124v-.87555c.64124-.27344,1.05316-1.28412,1.22198-2.4812.09943.0553.21143.12079.3269.18604.12354.06976.24579.13403.34344.159.27374.06976,1.31342.03522,1.50842.10504l.49188.44141s.22931.28613.47339.11163c.24396-.17456-.05566-.43408-.11963-.48785-.06396-.05389-1.1377-1.18945-1.62927-1.23975,0,0-.11115-.27148-.263-.41382,0,0,.34894-.39636.7525-.54132.40369-.14502.53314-.14691.60632-.2135.06744-.06122.08411-.21667-.29413-.17261-.34619.04047-1.31433.30951-1.76868.45959-.04199.01385-.10474.03241-.1366.04388,0,0-.08832.04401-.20856.07684-.0415-1.82965-.60431-3.61444-1.65515-3.61444-.90436,0-1.44513,1.32465-1.60663,2.85919-.03021-.00195-.04633-.0022-.04633-.0022l-.28198-.1875-.38879-.25861s.2915-.56506.18317-.65509c-.09778-.0813-.7002.3374-.7002.3374,0,0-.15509-.02698-.20734-.03223-.27106-.02734-.80969-.03784-1.07874.15631-.18079.13043-.31293.34399-.31293.34399,0,0-.52594.07886-.55231.12122-.02631.04236.05737.7724.32678.86554.26935.09302,1.39862.20148,1.39862.20148,0,0,.3241.12628.39368.5332.01672.09839-1.08917.461-1.08917.461,0,0-.50568.17188-.49774.3609.01886.4472.91846.11902.91846.11902,0,0,1.14459-.35077,1.44543-.34161.02448.00073.09143.00299.1485.00488.0882.00281.20428.00671.35217.01172.14966,1.28265.56885,2.39508,1.24518,2.68372v.87427H2.63707c-.11035,0-.2002.08984-.2002.2002s.08984.2002.2002.2002h4.78485v.81055h-1.06012c-.19354,0-.35016.15729-.35016.35016s.15662.35016.35016.35016h2.78223c.19354,0,.35016-.15729.35016-.35016s-.15662-.35016-.35016-.35016h-1.02179v-.81055h4.83124c.11035,0,.2002-.08984.2002-.2002s-.08984-.2002-.2002-.2002Zm-6.07001-3.53406c.11456.00391.23425.008.35303.01215.37329.01282.74072.0257,1.06384.03735.04956-.33716.08453-.71063.08453-1.14209,0-.15216-.01862-.27179-.02582-.41248-.37506-.12006-.81305-.26117-1.15167-.3559-.09393-.02625-.18042-.04907-.255-.06659-.03741-.00885-.06183-.0127-.0965-.02039.14038-1.39038.59473-2.27429.9162-2.27429.36255,0,.89362,1.12299.95166,2.83289.00336.09955.01129.1933.01129.29675,0,.4209-.03229.8042-.08167,1.15491-.17114,1.21637-.58344,1.97473-.88129,1.97473-.30273,0-.7229-.78503-.88861-2.03705Z"/></svg>