<svg xmlns="http://www.w3.org/2000/svg" width="5.5mm" height="5.5mm" viewBox="0 0 15.591 15.591">
  <rect width="15.591" height="15.591" rx="7.795" fill="#031E3A"/>
  <path d="M11.293,3.235A2.068,2.068,0,0,0,9.225,5.3v.878a2.065,2.065,0,0,0,1.591,2.007V9.381a3.275,3.275,0,0,0-.6.018.5.5,0,0,0-.324.269c-.072.169.032.319.214.39l.177.068a14.632,14.632,0,0,1-5.534,0,.549.549,0,0,1,.105-.043c.248,0,.42-.091.424-.364,0-.219-.153-.33-.448-.334-.147,0-.292,0-.433,0V8.821c2.66-.4.5-5.029-.3-6.557a.283.283,0,0,0-.507.01C2.872,3.792.964,8.309,3.522,8.811v.562l-.144,0c-.572.036-.729.1-.722.336.016.5.433.336.729.4l.137.066v2.861a.44.44,0,0,0,.88,0V10.632a4.812,4.812,0,0,0,3.305,1.335,5.063,5.063,0,0,0,3.109-1.437v2.509a.441.441,0,0,0,.881,0V10.163l.2-.048c.312-.04.6-.021.618-.377.011-.23-.128-.322-.562-.379l-.253.008V8.208A2.068,2.068,0,0,0,13.36,6.181V5.3A2.067,2.067,0,0,0,11.293,3.235Z" fill="#fff"/>
</svg>
