<svg xmlns="http://www.w3.org/2000/svg" width="5.5mm" height="5.5mm" viewBox="0 0 15.591 15.591">
  <rect width="15.591" height="15.591" rx="7.795" fill="#031E3A"/>
  <g>
    <path d="M13.422,5.322,8.042,2.1a.482.482,0,0,0-.492,0L2.169,5.322a.479.479,0,0,0,.492.822L7.8,3.067,12.93,6.144a.479.479,0,0,0,.492-.822Z" fill="#fff"/>
    <path d="M11,8.415A3.476,3.476,0,0,0,9.148,6.566,3.454,3.454,0,0,0,7.8,6.292a3.46,3.46,0,0,0-.92.124,3.412,3.412,0,0,0-.433.15A3.484,3.484,0,0,0,4.76,8.074a3.711,3.711,0,0,0-.167.341,3.437,3.437,0,0,0-.266,1.138c0,.071-.007.143-.007.215a3.457,3.457,0,0,0,.891,2.323c.041.046.083.091.127.134a3.447,3.447,0,0,0,1.071.73l.033.015a3.489,3.489,0,0,0,2.706,0l.034-.015a3.459,3.459,0,0,0,1.071-.73c.043-.043.086-.088.127-.134a3.47,3.47,0,0,0,.891-2.323c0-.072,0-.144-.007-.215A3.439,3.439,0,0,0,11,8.415ZM4.889,9.926a.224.224,0,0,1-.1-.2A3.6,3.6,0,0,1,5.2,8.244a.226.226,0,0,1,.179-.112L6.2,8.051a.23.23,0,0,1,.207.093l.4.548a.232.232,0,0,1,.032.2l-.322.991a.225.225,0,0,1-.152.148l-.8.239a.229.229,0,0,1-.192-.029Zm2.733,2.009a.228.228,0,0,1-.094.185l-.594.431a.232.232,0,0,1-.22.031,3.035,3.035,0,0,1-1.28-.941.235.235,0,0,1-.04-.208l.186-.669a.23.23,0,0,1,.155-.158l.737-.22a.23.23,0,0,1,.2.035l.856.621a.229.229,0,0,1,.094.185ZM7.3,8.589a.227.227,0,0,1-.185-.1L6.64,7.84A.23.23,0,0,1,6.6,7.657l.129-.59a.235.235,0,0,1,.156-.174,3.024,3.024,0,0,1,1.806,0,.234.234,0,0,1,.156.174l.135.616a.228.228,0,0,1-.036.181L8.5,8.492a.229.229,0,0,1-.187.1Zm2.857,3.052a3.025,3.025,0,0,1-1.279.941.234.234,0,0,1-.221-.031l-.572-.415a.229.229,0,0,1-.094-.185v-.739a.229.229,0,0,1,.094-.185l.841-.611a.228.228,0,0,1,.2-.034l.729.217a.228.228,0,0,1,.155.158l.188.676A.235.235,0,0,1,10.156,11.641Zm.551-1.719-.48.319a.232.232,0,0,1-.192.029l-.808-.242a.227.227,0,0,1-.152-.148l-.313-.963a.233.233,0,0,1,.031-.2l.4-.566A.227.227,0,0,1,9.4,8.053l.815.08a.226.226,0,0,1,.177.11,3.094,3.094,0,0,1,.418,1.491A.228.228,0,0,1,10.707,9.922Z" fill="#fff"/>
  </g>
</svg>
