<svg id="Cirkel" xmlns="http://www.w3.org/2000/svg" viewBox="0 0 15.59 15.59"><defs><style>.cls-1{fill:#031E3A;}.cls-2{fill:#fff;}</style></defs><rect class="cls-1" width="15.59" height="15.59" rx="7.79"/><path class="cls-2" d="M3.86,11.87a.56.56,0,0,0,.56.57h6.75a.57.57,0,0,0,.57-.57V9.5H3.86Z"/><path class="cls-2" d="M12.13,8.23H3.46a.35.35,0,1,0,0,.7h8.67a.35.35,0,0,0,0-.7Z"/><path class="cls-2" d="M3.86,7.72h.47v-2a1.08,1.08,0,0,1-.47.15Z"/><path class="cls-2" d="M11.26,7.72h.48V5.83a1.08,1.08,0,0,1-.48-.15Z"/><path class="cls-2" d="M11.89,3.48a.59.59,0,0,0-.52-.33H4.22a.59.59,0,0,0-.52.33l-.1.23H12Z"/><path class="cls-2" d="M3.78,5.45a.77.77,0,0,0,.41-.15,1.07,1.07,0,0,0,.14-.16.66.66,0,0,0,.12-.34v0a.69.69,0,0,0,.25.49h0a.61.61,0,0,0,.8,0,.63.63,0,0,0,.26-.5v0a.69.69,0,0,0,.26.5.66.66,0,0,0,.41.15.64.64,0,0,0,.4-.15.65.65,0,0,0,.26-.5v0a.69.69,0,0,0,.26.5.66.66,0,0,0,.41.15.64.64,0,0,0,.4-.15.69.69,0,0,0,.26-.5v0a.65.65,0,0,0,.26.5.64.64,0,0,0,.4.15.66.66,0,0,0,.41-.15.69.69,0,0,0,.26-.5v0a.65.65,0,0,0,.26.5.64.64,0,0,0,.4.15.62.62,0,0,0,.4-.15h0a.69.69,0,0,0,.25-.49v0a.66.66,0,0,0,.12.34.75.75,0,0,0,.15.16.47.47,0,0,0,.4.15.67.67,0,0,0,.67-.67h0l-.26-.57H3.37l-.26.57h0A.66.66,0,0,0,3.78,5.45Z"/></svg>