<svg xmlns="http://www.w3.org/2000/svg" width="5.5mm" height="5.5mm" viewBox="0 0 15.591 15.591">
  <rect width="15.591" height="15.591" rx="7.795" fill="#031E3A"/>
  <g>
    <path d="M13.689,5.763a.357.357,0,0,0-.356.356V6.44a.352.352,0,0,0-.225-.085.365.365,0,0,0-.365.364.36.36,0,0,0,.13.274c-.015.771-.3,1.109-.967,1.109H11.88a1.294,1.294,0,0,0-.664-.827.121.121,0,0,0-.1,0,.122.122,0,0,0-.07.079.9.9,0,0,1-.854.659H8.3l.1-.168h.062a.345.345,0,0,0,.266-.563l.2-.339.088.054a.314.314,0,0,0,.319,0,1.209,1.209,0,0,0,.434-.446c.263-.456.224-.963-.09-1.154a.521.521,0,0,0-.411-.051,1.085,1.085,0,0,0-.626.525,1.233,1.233,0,0,0-.173.6.327.327,0,0,0,.154.278l.093.057-.2.342a.312.312,0,0,0-.053-.011h-.71l-.424-.384V6.41a.124.124,0,0,0-.124-.124H6.827a.442.442,0,0,0-.436.445V8.01H4.038a.9.9,0,0,1-.854-.659.121.121,0,0,0-.069-.079.123.123,0,0,0-.106,0,1.322,1.322,0,0,0-.458,1.95.446.446,0,0,0,.1.089A1.624,1.624,0,0,1,3.754,8.9a1.73,1.73,0,0,1,1.238.521.8.8,0,0,0,1.227,0,1.727,1.727,0,0,1,2.472,0,.8.8,0,0,0,1.224,0A1.729,1.729,0,0,1,11.152,8.9a1.594,1.594,0,0,1,.625.126,1.313,1.313,0,0,0,.15-.582c0-.037-.012-.071-.015-.108.762,0,1.143-.424,1.186-1.255l.01,0A.357.357,0,0,0,13.333,7V9.042a.356.356,0,0,0,.712,0V6.119A.357.357,0,0,0,13.689,5.763ZM8.008,8.01H7.329V7.7l.064.057a.336.336,0,0,0,.229.089h.489Z" fill="#fff"/>
    <path d="M6.912,6.179a.648.648,0,1,0-.635-.648A.642.642,0,0,0,6.912,6.179Z" fill="#fff"/>
    <path d="M13,10.341a.913.913,0,0,1-.689-.315,1.61,1.61,0,0,0-2.315,0,.914.914,0,0,1-1.381,0,1.611,1.611,0,0,0-2.316,0,.916.916,0,0,1-1.383,0,1.617,1.617,0,0,0-2.319,0,.92.92,0,0,1-.693.316.356.356,0,1,0,0,.711,1.606,1.606,0,0,0,1.159-.49.918.918,0,0,1,1.386,0,1.615,1.615,0,0,0,2.317,0,.912.912,0,0,1,1.381,0,1.613,1.613,0,0,0,2.316,0,.91.91,0,0,1,1.379,0,1.607,1.607,0,0,0,1.158.49.356.356,0,1,0,0-.711Z" fill="#fff"/>
  </g>
</svg>
