<svg xmlns="http://www.w3.org/2000/svg" width="5.5mm" height="5.5mm" viewBox="0 0 15.591 15.591">
  <rect width="15.591" height="15.591" rx="7.795" fill="#031E3A"/>
  <g>
    <path d="M12.031,11.672a.743.743,0,0,1-.561-.257,1.312,1.312,0,0,0-1.885,0,.744.744,0,0,1-1.124,0,1.313,1.313,0,0,0-1.885,0,.746.746,0,0,1-1.127,0,1.316,1.316,0,0,0-1.888,0A.749.749,0,0,1,3,11.672a.29.29,0,1,0,0,.58,1.307,1.307,0,0,0,.943-.4.747.747,0,0,1,1.128,0,1.313,1.313,0,0,0,1.887,0,.743.743,0,0,1,1.124,0,1.312,1.312,0,0,0,1.886,0,.741.741,0,0,1,1.122,0,1.309,1.309,0,0,0,.943.4.29.29,0,0,0,0-.58Z" fill="#fff"/>
    <circle cx="6.306" cy="6.13" r="0.601" fill="#fff"/>
    <path d="M5.416,7.2a.289.289,0,0,0,.289.29H7.252a.269.269,0,0,0,.064-.013h3.1a.17.17,0,0,0,.169-.17V7.124A1.054,1.054,0,0,0,9.53,6.07H7.63a.563.563,0,0,0-.563.563v.28H5.705A.289.289,0,0,0,5.416,7.2Z" fill="#fff"/>
    <path d="M3.476,7.735a.387.387,0,0,0,0,.773h7.108a.387.387,0,0,0,0-.773H4.591V5.178l5.625-2.073a.386.386,0,0,0-.267-.724L3.342,4.815a.386.386,0,1,0,.267.725l.21-.077V7.735Z" fill="#fff"/>
    <path d="M12.594,7.945a.29.29,0,0,0-.29.29V8.5a.291.291,0,0,0-.183-.069.3.3,0,0,0-.3.3.291.291,0,0,0,.105.222c-.012.628-.246.9-.787.9h-.021a1.051,1.051,0,0,0-.541-.673.1.1,0,0,0-.086,0,.1.1,0,0,0-.056.065.731.731,0,0,1-.7.536H4.736a.731.731,0,0,1-.695-.536.1.1,0,0,0-.056-.065.1.1,0,0,0-.086,0,1.075,1.075,0,0,0-.373,1.587.354.354,0,0,0,.091.084,1.322,1.322,0,0,1,.888-.324,1.408,1.408,0,0,1,1.007.423.65.65,0,0,0,1,0,1.41,1.41,0,0,1,2.014,0,.648.648,0,0,0,1,0,1.408,1.408,0,0,1,1.007-.424,1.284,1.284,0,0,1,.5.1,1.062,1.062,0,0,0,.134-.492c0-.03-.01-.058-.012-.087.621,0,.931-.345.966-1.023l.008,0a.291.291,0,0,0,.183-.069v1.662a.29.29,0,1,0,.579,0V8.235A.289.289,0,0,0,12.594,7.945Z" fill="#fff"/>
  </g>
</svg>
