<svg xmlns="http://www.w3.org/2000/svg" width="5.5mm" height="5.5mm" viewBox="0 0 15.591 15.591">
  <rect width="15.591" height="15.591" rx="7.795" fill="#031E3A"/>
  <g>
    <path d="M4.38,9.932a.536.536,0,1,0-.586-.467A.531.531,0,0,0,4.38,9.932Z" fill="#fff"/>
    <path d="M13.108,5.212a3.3,3.3,0,0,0-6.351-1.26c0,.007,0,.014,0,.022a.254.254,0,0,0-.016.038L5.548,10.59l-.38.047-.387-.272-.035-.286a.1.1,0,0,0-.114-.089l-.31.039a.364.364,0,0,0-.313.409l.122.987a.908.908,0,1,0,.192.915H7.185a.9.9,0,1,0,0-.589H7l-1.252-.3-.842-.077-.029-.235.058.041a.284.284,0,0,0,.2.05l.691-.085a.279.279,0,0,0,.134-.061L11.1,8.248l.006,0a3.286,3.286,0,0,0,2.005-3.031ZM7.287,4.288a2.7,2.7,0,0,1,2.807.637h0a2.7,2.7,0,0,1,.618,2.863L6.2,10.271Z" fill="#fff"/>
  </g>
</svg>
