<?xml version="1.0" encoding="UTF-8"?><svg id="ICONS" xmlns="http://www.w3.org/2000/svg" viewBox="0 0 15.59055 15.59055"><defs><style>.cls-1{fill:#fff;}.cls-2{fill:#031E3A;}</style></defs><rect class="cls-2" x="0" y="0" width="15.59055" height="15.59055" rx="7.79527" ry="7.79527"/><g><path class="cls-1" d="m9.44335,9.36234c-.19869,0-.35974.16107-.35974.35977,0,.19867.16105.35974.35974.35974s.35974-.16107.35974-.35974c0-.19869-.16105-.35977-.35974-.35977Z"/><g><path class="cls-1" d="m11.6449,10.10451c-.55243,0-1.00031-.16382-1.00031-.36584v.16797c0,.20203.44788.36578,1.00031.36578.55249,0,1.00031-.16376,1.00031-.36578v-.16797c0,.20203-.44781.36584-1.00031.36584Z"/><path class="cls-1" d="m11.6449,9.9106c.48157,0,.83527-.13202.97345-.28064.01758-.01892.02686-.05927.02686-.08521,0-.19141-.40643-.34375-.91864-.35974v-2.51575c.33893-.04218.6051-.31995.6051-.67023,0-.37927-.30743-.68677-.68677-.68677-.37927,0-.68671.3075-.68671.68677,0,.35022.26617.62805.60504.67023v2.51575c-.51221.01599-.91864.16833-.91864.35974,0,.02594.02032.08154.03754.10645.06976.1012.4812.2594.96277.2594Z"/></g><g><path class="cls-1" d="m5.29118,4.04587c.54737,0,.99113-.44376.99113-.99113,0-.54742-.44376-.99119-.99113-.99119-.54742,0-.99119.44376-.99119.99119,0,.54737.44376.99113.99119.99113Z"/><path class="cls-1" d="m9.04719,12.54196l-.01612-.04483c-.05969-.16586-.11403-.30524-.40833-.19229l-.33993.12229-1.44043-4.01708c.3995-.44416,1.19112-1.55942,1.14734-1.91887-.06477-.53183-.41529-1.01305-.68946-1.42896-.46573-.70648-1.16634-.64966-1.68184-.64847h-.46071l-.17822.00285c-.62403.00518-1.39814.53524-1.35513,1.15784l.02187,2.62406.08075,4.58211c0,.24817.20118.44934.44929.44934.24817,0,.44934-.20118.44934-.44934l.46415-3.98297h.1359l.46415,3.98297h.00974c0,.24817.20118.44934.44929.44934.24817,0,.44934-.20118.44934-.44934,0-.02193-.00946-.04073-.01247-.0618l.11082-3.90283,1.32815,3.70399.12907-.04642-.46899.16871c-.26491.10167-.25193.24247-.19229.40833l.01612.04477c.05964.16586.13738.28508.40833.19229l.93799-.33736c.28821-.11232.25193-.24247.19229-.40833Zm-1.9127-5.93693l-.46531.69009v-1.45965l.46531.76956Z"/></g></g></svg>