<?xml version="1.0" encoding="UTF-8"?>
<svg xmlns="http://www.w3.org/2000/svg" width="5.5mm" height="5.5mm" viewBox="0 0 15.591 15.591">
  <g id="a" data-name="Cirkel">
    <rect x="0" y="0" width="15.591" height="15.591" rx="7.795" ry="7.795" fill="#031E3A"/>
  </g>
  <g id="b" data-name="ICONS">
    <g>
      <polygon points="4.338 6.969 4.801 5.934 4.534 5.938 4.791 5.27 4.056 5.281 4.069 6.186 4.363 6.181 4.338 6.969" fill="none"/>
      <path d="m4.44,7.747c.11,0,.2.09.2.2h.065c.123,0,.223-.1.223-.223v-.011s0,0,0-.001c-.001-.021,0-.044,0-.065v-.233c.051,0,.097.001.144.002.13,0,.258-.011.381-.054.233-.082.355-.258.352-.504-.002-.137-.002-.274-.003-.41-.003-.347-.006-.695-.008-1.042,0-.134,0-.268,0-.402.077-.003.15-.006.223-.007.031,0,.054-.01.077-.032.198-.192.2-.497.005-.693-.028-.028-.055-.043-.096-.041-.116.004-.232.003-.347.003-.055,0-.109,0-.166-.001-.002-.326-.007-.644-.004-.962,0-.097-.035-.167-.106-.225-.077-.063-.165-.091-.256-.043-.094.05-.174.116-.173.242.004.31.006.621.008.931,0,.02-.003.04-.004.063-.347.002-.688.005-1.018.007-.007-.098-.017-.187-.018-.276-.004-.258-.004-.516-.005-.774,0-.016,0-.034-.007-.046-.054-.091-.124-.166-.236-.179-.105-.012-.18.045-.24.124-.025.033-.05.063-.049.112.005.263.006.526.009.789,0,.083,0,.167,0,.259-.048,0-.087-.002-.126-.002-.129,0-.258.003-.387.001-.038,0-.064.011-.09.037-.194.193-.195.491-.004.687.032.033.064.048.111.045.067-.005.134-.002.196-.002.004.093.009.177.01.261.003.281.004.563.006.845.002.263.002.526.008.79.005.2.105.342.283.43.148.073.308.082.47.079.044,0,.087,0,.118,0,0,0,0,0,0,0v.3c0,.123.1.223.223.223h.035c0-.11.09-.2.2-.2Zm-.371-1.561l-.013-.905.735-.011-.257.668.266-.004-.463,1.035.025-.787-.294.004Z" fill="#fff"/>
      <path d="m8.926,6.762c.458,0,.829-.371.829-.829s-.371-.829-.829-.829-.829.371-.829.829.371.829.829.829Z" fill="#fff"/>
      <path d="m7.264,8.951c.246-.186.519-.337.827-.4.011-.002.022,0,.034-.003l-.042-.096h0l-.023-.054.384-.278s.301-.01.677.047c.382.058.765.263.765.263,0,0-.085-.71-.147-1.049-.06-.327-.285-.415-.285-.415,0,0-.177.12-.529.12s-.516-.12-.516-.12l-1.097.913c-.22.183-.294.487-.183.751l.09.214h0l.045.107Z" fill="#fff"/>
      <path d="m8.291,8.933c-.04.006-.08.002-.12.01-.279.057-.531.201-.748.387l.076.18h0l.417.99h0c.073.177.246.302.449.302.269,0,.487-.218.487-.487,0-.043-.014-.081-.024-.12l.008-.003-.017-.038c-.007-.02-.015-.037-.024-.056l-.385-.889h0s-.119-.276-.119-.276Z" fill="#fff"/>
      <path d="m12.348,11.48l.004-.002-.55-1.382s-.104-.241-.225-.323c-.248-.169-.657-.121-.657-.121,0,0,.083.32.14.73.038.27.02.702.02.702l.304.781s.004.009.006.013l.01.022.004-.002c.085.171.258.292.462.292.288,0,.521-.233.521-.521,0-.067-.015-.129-.038-.188Z" fill="#fff"/>
      <path d="m8.532,8.513l.172.409c.375.035.729.181,1.012.445.415.386.611.933.538,1.5-.108.841-.929,1.499-1.869,1.499-2.065,0-3.745-1.68-3.745-3.745v-.674h0s-.374,0-.374,0h-.027v.674c0,2.286,1.859,4.146,4.145,4.146,1.156,0,2.129-.795,2.265-1.849.09-.697-.151-1.369-.662-1.844-.402-.373-.916-.562-1.456-.561Z" fill="#fff"/>
      <path d="m6.456,10.178c-.022.108.047.214.155.236.111.025.214-.046.237-.154.047-.222.155-.423.287-.608l-.177-.427c-.241.27-.425.591-.501.952Z" fill="#fff"/>
      <path d="m4.641,7.947c0-.11-.09-.2-.2-.2s-.2.09-.2.2h.4Z" fill="#fff"/>
      <path d="m8.091,8.551c-.308.063-.581.214-.827.4l.159.379c.216-.185.468-.33.748-.387.04-.008.08-.005.12-.01l-.166-.385c-.011.002-.022,0-.034.003Z" fill="#fff"/>
      <rect x="7.242" y="8.839" width="0" height=".116" transform="translate(-2.884 3.506) rotate(-22.823)" fill="#fff"/>
      <polygon points="7.424 9.33 7.424 9.33 7.499 9.51 7.499 9.51 7.424 9.33" fill="#fff"/>
      <polygon points="7.264 8.951 7.424 9.33 7.424 9.33 7.264 8.951 7.264 8.951" fill="#fff"/>
      <polygon points="8.291 8.933 8.411 9.209 8.411 9.209 8.292 8.933 8.291 8.933" fill="#fff"/>
      <polygon points="8.125 8.548 8.125 8.548 8.084 8.452 8.084 8.452 8.125 8.548" fill="#fff"/>
      <polygon points="8.291 8.933 8.292 8.933 8.125 8.548 8.125 8.548 8.291 8.933" fill="#fff"/>
    </g>
  </g>
</svg>