<svg xmlns="http://www.w3.org/2000/svg" width="5.5mm" height="5.5mm" viewBox="0 0 15.591 15.591">
  <rect width="15.591" height="15.591" rx="7.795" fill="#427c7f"/>
  <g>
    <path d="M8.714,9.747,9.7,8.582a.243.243,0,0,0-.372-.314L8.342,9.433a.243.243,0,1,0,.372.314Z" fill="#fff"/>
    <path d="M11.651,9.034a1.874,1.874,0,0,0-.549.081L10.127,6.8a.195.195,0,0,0-.041-.385h-1.1a.195.195,0,1,0,0,.389h.727a.219.219,0,0,0,.01.034l.539,1.282-1.994,2.43L7.035,7.62h.558a.194.194,0,1,0,0-.388h-1.1a.194.194,0,1,0,0,.388h.13a.217.217,0,0,0,.013.05l.389.923-.479.679a1.875,1.875,0,0,0-.918-.238,1.786,1.786,0,0,0-.77.179l.007.007a.18.18,0,0,0-.124.163.192.192,0,0,0,.191.191.174.174,0,0,0,.084-.035v.007l0,.014a1.46,1.46,0,0,1,.613-.137,1.5,1.5,0,0,1,.693.169l-.856,1.215a.17.17,0,0,0-.022.154.166.166,0,0,0,.166.156H7.113a1.5,1.5,0,0,1-2.988-.194l0-.014H4.12V7.794h.058A.223.223,0,0,0,4.4,7.571V7.56h0c0-.021,0-.044,0-.065V7.26l.144,0a1.121,1.121,0,0,0,.381-.055.489.489,0,0,0,.351-.5c0-.137,0-.273,0-.41q0-.522-.008-1.042c0-.134,0-.268,0-.4.076,0,.149-.006.223-.007a.1.1,0,0,0,.076-.032.479.479,0,0,0,0-.693.121.121,0,0,0-.1-.041c-.115,0-.231,0-.347,0l-.165,0c0-.325-.008-.644,0-.962a.269.269,0,0,0-.105-.225A.22.22,0,0,0,4.6,2.848a.264.264,0,0,0-.173.241c0,.311,0,.621.008.932,0,.019,0,.04,0,.063l-1.019.007c-.006-.1-.017-.187-.018-.276,0-.258,0-.516,0-.774A.09.09,0,0,0,3.376,3a.318.318,0,0,0-.235-.179A.26.26,0,0,0,2.9,2.94a.167.167,0,0,0-.048.111c.005.263.006.527.008.79,0,.083,0,.167,0,.258l-.126,0c-.129,0-.258,0-.387,0a.116.116,0,0,0-.09.037.479.479,0,0,0,0,.687.133.133,0,0,0,.111.045c.067,0,.134,0,.2,0,0,.093.01.177.011.261,0,.282,0,.564.006.845,0,.263,0,.527.008.79a.467.467,0,0,0,.283.43,1.007,1.007,0,0,0,.47.08h.118v.3a.222.222,0,0,0,.222.223h.062v3.111l0,.018,0,.023v.033h0a1.887,1.887,0,0,0,3.763.138h.686a.191.191,0,0,0,.166-.069l2.074-2.526.312.744a1.89,1.89,0,1,0,.908-.232ZM3.528,5.127l.735-.01-.257.667.267,0L3.81,6.815l.025-.787-.294,0Zm2.466,5.6.643-.914a1.493,1.493,0,0,1,.476.914Zm1.511,0a1.892,1.892,0,0,0-.642-1.234L7.2,9.016l.72,1.713Zm4.146,1.694a1.5,1.5,0,0,1-.756-2.8l.54,1.285a.195.195,0,0,0,.359-.15l-.541-1.286a1.5,1.5,0,1,1,.4,2.947Z" fill="#fff"/>
  </g>
</svg>
