<?xml version="1.0" encoding="UTF-8"?><svg id="ICONS" xmlns="http://www.w3.org/2000/svg" viewBox="0 0 15.59055 15.59055"><defs><style>.cls-1{fill:#fff;}.cls-2{fill:#031E3A;}</style></defs><rect class="cls-2" x="0" y="0" width="15.59055" height="15.59055" rx="7.79527" ry="7.79527"/><path class="cls-1" d="M13.00429,8.77411h-.83228c-.19825-.43638-.39651-.87276-.59476-1.30915-.04445-.09784-.0889-.19568-.13335-.29352-.04275-.0941-.16309-.14977-.2611-.14977H6.57811c-.09658,0-.22021,.05542-.2611,.14977-.23158,.53422-.46317,1.06844-.69475,1.60267h-.91977c-.07061,0-.12785,.05724-.12785,.12785v.33274c0,.0706,.05724,.12784,.12785,.12784h.66468c-.02349,.05421-.04699,.10841-.07049,.16261-.01849,.04264-.02823,.08741-.03052,.13161h-.01202v2.88611c0,.14314,.11604,.25919,.25919,.25919h.73554c.14315,0,.25919-.11605,.25919-.25919v-1.05777h4.79148v1.05777c0,.14314,.11604,.25919,.25919,.25919h.73554c.14315,0,.25919-.11605,.25919-.25919v-2.88611h-.00636c-.00358-.04427-.01452-.08895-.0339-.13161-.02463-.05421-.04925-.10841-.07387-.16261h.56495c.07061,0,.12785-.05724,.12785-.12784v-.33274c0-.07061-.05724-.12785-.12785-.12785Zm-6.29384-1.00039c.02128-.04909,.04256-.09818,.06384-.14727h4.21545c.24354,.53608,.48709,1.07217,.73064,1.60825H6.07712l.63333-1.46098Zm.54249,2.35413c0,.15378-.12467,.27846-.27846,.27846h-.70401c-.20795,0-.37653-.16858-.37653-.37653,0-.11703,.09488-.21191,.21191-.21191h.93518c.11703,0,.21191,.09488,.21191,.21191v.09807Zm4.35893,.27846h-.70401c-.15379,0-.27846-.12467-.27846-.27846v-.09807c0-.11703,.09487-.21191,.2119-.21191h.93518c.11703,0,.2119,.09488,.2119,.21191,0,.20795-.16857,.37653-.37652,.37653Z"/><path class="cls-1" d="M4.12543,10.92287c0-.0047,.00116-.00916,.00134-.01379h-.00684v-3.1153h.05829c.12305,0,.22272-.09973,.22272-.22272v-.01093c-.00006-.00061,.00067-.00073,.00061-.00134-.00134-.02106-.00006-.04401-.00061-.06519v-.23346c.05078,.00061,.09741,.00134,.14386,.00153,.12976,.00085,.25769-.01123,.38104-.05444,.23322-.08167,.35516-.25757,.35156-.50391-.00208-.1369-.00183-.27368-.00293-.41046-.00275-.34747-.00574-.69489-.00818-1.04236-.00098-.13397-.00055-.26788-.00079-.40161,.07684-.00256,.14996-.00598,.22314-.0069,.03094-.00037,.05402-.01044,.0766-.03229,.1983-.19177,.20032-.49731,.00452-.6925-.02753-.02747-.05469-.04272-.09631-.04138-.11566,.00397-.23151,.00262-.34729,.00293-.0545,.00006-.10907-.00098-.16565-.00146-.00214-.32556-.0072-.64404-.00421-.9624,.00092-.09686-.03528-.16663-.10553-.22461-.07678-.06342-.16504-.09149-.25623-.04279-.09406,.05035-.1745,.11627-.17267,.24152,.00446,.31049,.00562,.62097,.00787,.93152,.00012,.0199-.00262,.03998-.00421,.06335-.34686,.00238-.68787,.0047-1.01843,.00696-.00659-.09796-.01672-.18695-.01794-.27606-.0036-.25781-.0036-.51581-.00549-.77362-.00012-.0155-.00006-.03351-.00739-.04596-.05414-.09137-.12366-.16632-.23572-.17932-.10547-.01215-.17957,.04492-.24023,.1236-.02545,.03296-.04968,.06354-.04871,.11176,.00494,.26312,.00641,.52631,.00861,.78949,.00067,.08337-.00012,.16681-.00024,.25867-.04767-.00079-.08704-.00214-.12646-.00208-.12897,.00043-.258,.00293-.3869,.00116-.03766-.00049-.0639,.0105-.09009,.03662-.19409,.19342-.19556,.49091-.0036,.68683,.03192,.03259,.0639,.0484,.1109,.04486,.06671-.00494,.13403-.00159,.19568-.00177,.00378,.09332,.00916,.17731,.01007,.26147,.00293,.28149,.00409,.56311,.00641,.84467,.00201,.26318,.00195,.52643,.008,.78955,.00452,.19983,.10492,.34222,.28271,.43036,.14844,.07336,.30847,.08167,.46997,.07947,.04352-.00067,.0871-.00024,.11786-.00024,0,.00031,.00006,.00061,.00006,.00092v.29987c0,.12299,.09967,.22272,.22266,.22272h.06177v3.11133c-.00043,.0061-.00238,.0116-.00238,.01776,0,.00793,.00226,.01526,.00238,.02319v.0332h.00336c.02954,.98444,.80988,1.77399,1.78906,1.82324h.76187l-.76187-.38892c-.78375-.0495-1.40601-.69446-1.40601-1.49072Zm-.58405-4.8905l-.01331-.90497,.73511-.0108-.25671,.66772,.26648-.00397-.46277,1.03485,.02521-.78717-.29401,.00433Z"/></svg>