<svg xmlns="http://www.w3.org/2000/svg" width="5.5mm" height="5.5mm" viewBox="0 0 15.591 15.591">
  <rect width="15.591" height="15.591" rx="7.795" fill="#031E3A"/>
  <g>
    <path d="M9.711,4.812a.367.367,0,0,0-.365-.332H7.989V2.913a1.141,1.141,0,0,1,.248,0,1.723,1.723,0,0,0,.4.033c.135-.012.261-.053.4-.066a1.654,1.654,0,0,1,.395.028l.075.014c.013,0,.017,0,.017-.017L9.509,1.871c0-.014-.006-.019-.02-.021a.67.67,0,0,0-.067-.016,1.711,1.711,0,0,0-.4-.036c-.134.009-.262.047-.4.056a1.681,1.681,0,0,1-.4-.044,1.2,1.2,0,0,0-.24-.005v-.06a.119.119,0,0,0-.237,0V4.48H6.421a.367.367,0,0,0-.366.333l-.168,1.8h4Z" fill="#fff"/>
    <polygon points="9.999 7.832 5.773 7.832 5.572 9.994 10.206 9.994 9.999 7.832" fill="#fff"/>
    <path d="M10.322,11.212H5.458L5.271,13.22a.367.367,0,0,0,.365.4h4.512a.367.367,0,0,0,.366-.4Z" fill="#fff"/>
  </g>
</svg>
