<svg xmlns="http://www.w3.org/2000/svg" width="5.5mm" height="5.5mm" viewBox="0 0 15.591 15.591">
  <rect width="15.591" height="15.591" rx="7.795" fill="#031E3A"/>
  <g>
    <path d="M6.382,3.361,4.142,2.9a.229.229,0,0,0-.27.178l-1.79,8.737a.228.228,0,0,0,.178.27l2.24.459a.229.229,0,0,0,.27-.178L6.56,3.631A.229.229,0,0,0,6.382,3.361ZM4.373,10.886a.686.686,0,1,1-.534-.81A.685.685,0,0,1,4.373,10.886ZM5.883,4.66,5.148,8.244a.228.228,0,0,1-.27.178L3.534,8.147a.23.23,0,0,1-.178-.271L4.09,4.292a.23.23,0,0,1,.27-.178l1.345.276A.229.229,0,0,1,5.883,4.66Z" fill="#fff"/>
    <rect x="4.666" y="4.238" width="0.457" height="1.373" rx="0.182" transform="translate(-0.912 8.731) rotate(-78.42)" fill="#fff"/>
    <rect x="4.528" y="4.91" width="0.457" height="1.373" rx="0.182" transform="translate(-1.68 9.134) rotate(-78.425)" fill="#fff"/>
    <rect x="4.391" y="5.582" width="0.457" height="1.373" rx="0.182" transform="translate(-2.449 9.535) rotate(-78.416)" fill="#fff"/>
    <path d="M9.459,3.175H7.172a.229.229,0,0,0-.228.229v8.918a.228.228,0,0,0,.228.228H9.459a.229.229,0,0,0,.229-.228V3.4A.23.23,0,0,0,9.459,3.175ZM8.316,11.636A.686.686,0,1,1,9,10.95.686.686,0,0,1,8.316,11.636Zm.915-3.43A.23.23,0,0,1,9,8.435H7.63A.23.23,0,0,1,7.4,8.206V4.547a.23.23,0,0,1,.229-.229H9a.23.23,0,0,1,.229.229Z" fill="#fff"/>
    <rect x="7.63" y="4.776" width="1.372" height="0.457" rx="0.182" fill="#fff"/>
    <rect x="7.63" y="5.462" width="1.372" height="0.457" rx="0.182" fill="#fff"/>
    <rect x="7.63" y="6.148" width="1.372" height="0.457" rx="0.182" fill="#fff"/>
    <path d="M12.661,3.175H10.374a.229.229,0,0,0-.229.229v8.918a.228.228,0,0,0,.229.228h2.287a.228.228,0,0,0,.228-.228V3.4A.229.229,0,0,0,12.661,3.175Zm-1.144,8.461a.686.686,0,1,1,.686-.686A.686.686,0,0,1,11.517,11.636Zm.915-3.43a.23.23,0,0,1-.229.229H10.831a.23.23,0,0,1-.229-.229V4.547a.23.23,0,0,1,.229-.229H12.2a.23.23,0,0,1,.229.229Z" fill="#fff"/>
    <rect x="10.841" y="4.776" width="1.372" height="0.457" rx="0.182" fill="#fff"/>
    <rect x="10.841" y="5.462" width="1.372" height="0.457" rx="0.182" fill="#fff"/>
    <rect x="10.831" y="6.148" width="1.372" height="0.457" rx="0.182" fill="#fff"/>
  </g>
</svg>
