<?xml version="1.0" encoding="UTF-8"?>
<svg id="ICONS" xmlns="http://www.w3.org/2000/svg" viewBox="0 0 15.59 15.59">
  <defs>
    <style>
      .cls-1 {
        fill: #031E3A;
      }

      .cls-2 {
        fill: #fff;
      }
    </style>
  </defs>
  <rect class="cls-1" x="-.02" y=".02" width="15.59" height="15.59" rx="7.8" ry="7.8"/>
  <path class="cls-2" d="m12.23,6.08h-2.71v-2.71c0-.33-.27-.59-.59-.59h-2.3c-.33,0-.59.27-.59.59v2.71h-2.71c-.33,0-.59.27-.59.59v2.3c0,.33.27.59.59.59h2.71v2.71c0,.33.27.59.59.59h2.3c.33,0,.59-.27.59-.59v-2.71h2.71c.33,0,.59-.27.59-.59v-2.3c0-.33-.27-.59-.59-.59Z"/>
</svg>