<svg xmlns="http://www.w3.org/2000/svg" width="5.5mm" height="5.5mm" viewBox="0 0 15.591 15.591">
  <rect width="15.591" height="15.591" rx="7.795" fill="#031E3A"/>
  <path d="M12.189,7.279h-.237a7.232,7.232,0,0,0-1.7-2.785.878.878,0,0,0,.238-.593.889.889,0,1,0-.889.888A.812.812,0,0,0,9.8,4.75a3.989,3.989,0,0,1,.82.948l.086.137a9.327,9.327,0,0,1,.719,1.444H9.586A39.033,39.033,0,0,0,5.3,4.653a.373.373,0,0,0-.536.366l.173,1.964a5.432,5.432,0,0,1-1.319-.645l-1.4-.95a.371.371,0,0,0-.58.307V8.377A2.167,2.167,0,0,0,3.8,10.542h.158l-.749,1.19a.371.371,0,0,0,.315.568.363.363,0,0,0,.112-.017,29.865,29.865,0,0,0,4.116-1.741h5.34A1.183,1.183,0,0,0,14.27,9.361,2.084,2.084,0,0,0,12.189,7.279ZM9.212,3.9a.394.394,0,1,1,.393.393A.394.394,0,0,1,9.212,3.9ZM5.56,5.628c.967.527,1.983,1.174,2.7,1.651H6.685a5.527,5.527,0,0,1-.989-.1ZM4.408,11.216l.424-.674L5.3,9.8l.256-.407H8.329c-.264.146-.518.275-.774.407-.539.278-1.057.53-1.532.743C5.4,10.822,4.841,11.05,4.408,11.216ZM13.089,9.8H9.113c.257-.149.515-.3.774-.464a.371.371,0,0,0-.2-.686H5.35a.371.371,0,0,0-.314.174L4.422,9.8H3.8A1.423,1.423,0,0,1,2.375,8.377V6.4l.823.558a6.187,6.187,0,0,0,1.851.84,6.231,6.231,0,0,0,1.636.229h5.5a1.325,1.325,0,0,1,.846.311h-.743a.458.458,0,1,0,0,.916H13.44a.374.374,0,0,0,.074-.015c0,.043.013.084.013.127A.438.438,0,0,1,13.089,9.8Z" fill="#fff"/>
</svg>
