<svg xmlns="http://www.w3.org/2000/svg" width="5.5mm" height="5.5mm" viewBox="0 0 15.591 15.591">
  <rect width="15.591" height="15.591" rx="7.795" fill="#031E3A"/>
  <path d="M13.633,5.68c-1.5-1.933-4.393-1.466-5.958-3.292l.113-.2a.235.235,0,0,0-.407-.235L1.964,11.35a.233.233,0,0,0,.086.32.232.232,0,0,0,.32-.086L5.328,6.457c1.566,1.826,4.454,1.359,5.958,3.292.028.037.069.037.09,0q1.135-1.966,2.269-3.933a.134.134,0,0,0-.012-.136M11.827,8.654A3.619,3.619,0,0,0,11,7.917l-.516.894A5.573,5.573,0,0,0,9.45,8.287l.516-.894c-.364-.143-.741-.264-1.119-.384q-.256.447-.515.894c-.377-.121-.754-.241-1.118-.384l.515-.894A5.666,5.666,0,0,1,6.692,6.1L6.176,7a3.645,3.645,0,0,1-.77-.674l.515-.893a3.673,3.673,0,0,0,.771.673l.554-.961a5.608,5.608,0,0,0,1.038.523l-.555.962c.364.143.741.264,1.118.384L9.4,6.047c.377.121.754.241,1.118.385l-.554.961A5.666,5.666,0,0,1,11,7.917l.555-.962a3.645,3.645,0,0,1,.824.738Zm1.135-1.967a3.669,3.669,0,0,0-.825-.737q-.276.481-.554.962a5.612,5.612,0,0,0-1.038-.524l.555-.962c-.364-.143-.741-.263-1.118-.384L9.427,6c-.377-.121-.754-.241-1.118-.384l.555-.962a5.551,5.551,0,0,1-1.038-.524L7.272,5.1A3.649,3.649,0,0,1,6.5,4.422l.555-.961a3.639,3.639,0,0,0,.77.673L8.367,3.2A5.643,5.643,0,0,0,9.4,3.721l-.541.937c.364.144.741.264,1.118.384q.27-.468.541-.937c.377.12.754.24,1.118.384l-.541.937a5.634,5.634,0,0,1,1.037.524q.271-.468.541-.937a3.619,3.619,0,0,1,.824.737Z" fill="#fff"/>
</svg>
