<svg xmlns="http://www.w3.org/2000/svg" width="5.5mm" height="5.5mm" viewBox="0 0 15.591 15.591">
  <rect width="15.591" height="15.591" rx="7.795" fill="#031E3A"/>
  <path d="M12.437,7.877a.042.042,0,0,1,.034-.065h.468a.152.152,0,0,0,.132-.229l-1.386-2.4a.153.153,0,0,0-.264,0l-1.387,2.4a.153.153,0,0,0,.132.229s.43,0,.469,0a.044.044,0,0,1,.037.059c0,.006-.14.243-.316.546-.494-.857-1.373-2.381-1.388-2.4a.061.061,0,0,1,.049-.093h.669a.218.218,0,0,0,.189-.327L7.892,2.16a.217.217,0,0,0-.377,0L5.532,5.594a.218.218,0,0,0,.189.327s.615,0,.671,0a.062.062,0,0,1,.052.084L5,8.505l-.363-.628a.042.042,0,0,1,.034-.065h.468a.153.153,0,0,0,.132-.229l-1.387-2.4a.153.153,0,0,0-.264,0l-1.387,2.4a.153.153,0,0,0,.132.229s.431,0,.47,0a.043.043,0,0,1,.036.059l-1.2,2.087a.152.152,0,0,0,.132.228h1.52a.146.146,0,0,1,.146.147v1.591a.288.288,0,0,0,.576,0V10.339a.153.153,0,0,1,.152-.153H5.706a.152.152,0,0,0,.132-.228l-.37-.642H7.082a.21.21,0,0,1,.21.21V11.8a.412.412,0,1,0,.823,0V9.534a.218.218,0,0,1,.218-.218h1.5l-.37.642a.151.151,0,0,0,.131.228h1.52a.147.147,0,0,1,.147.147v1.591a.288.288,0,1,0,.576,0V10.339a.153.153,0,0,1,.152-.153h1.514a.152.152,0,0,0,.132-.228S12.451,7.9,12.437,7.877Z" fill="#fff"/>
</svg>
