<?xml version="1.0" encoding="UTF-8"?><svg id="ICONS" xmlns="http://www.w3.org/2000/svg" viewBox="0 0 15.59055 15.59055"><defs><style>.cls-1{fill:#fff;}.cls-2{fill:#031E3A;}</style></defs><rect class="cls-2" x="0" y="0" width="15.59055" height="15.59055" rx="7.79527" ry="7.79527"/><g><path class="cls-1" d="m12.42752,6.40477c-.0094-.01477-.00317-.04437.02325-.04437h.31793c.07965,0,.12946-.08624.08966-.15515l-.94232-1.63208c-.03979-.06903-.13934-.06903-.1792,0l-.94226,1.63208c-.03986.06891.00989.15515.0896.15515,0,0,.29248-.00012.31891,0,.02167.00018.03204.02753.02466.04028s-.81879,1.41821-.81879,1.41821c-.03986.06891.00995.15515.0896.15515h1.03265c.05511,0,.09973.04468.09973.09979v1.35992c0,.00073.00079.00116.00079.00189-.54578-.02026-1.25391-.00702-2.09283.10028v-.78473c0-.04419.03583-.07996.07996-.07996h.79504c.06158,0,.10004-.06665.06927-.11993,0,0-.6236-1.08136-.63092-1.09277-.00732-.01147-.0025-.0343.01794-.0343h.24573c.06152,0,.09998-.06665.06921-.11993l-.72815-1.26123c-.03076-.05334-.10773-.05334-.13849,0l-.72821,1.26123c-.03076.05328.00769.11993.06927.11993,0,0,.22601-.00012.24646,0,.01672.00012.02472.02124.01904.03113s-.63275,1.09595-.63275,1.09595c-.03082.05328.00769.11993.06921.11993h.7981c.04254,0,.07703.03455.07703.07709v.83197c-.7851.11749-1.66754.31616-2.62274.64154-.55139-.37628-1.34174-.57123-2.10962-.66736v-.72998c0-.09619.078-.17413.17413-.17413h1.73157c.13409,0,.21783-.1452.15088-.26123,0,0-1.35828-2.35516-1.37415-2.38-.01593-.02496-.00543-.07471.03906-.07471h.53516c.13409,0,.21783-.14514.15088-.26123l-1.586-2.74695c-.06696-.11609-.23456-.11609-.30157,0l-1.586,2.74695c-.06708.11609.01672.26123.15082.26123,0,0,.49225-.00031.53674,0,.03656.00031.05396.04626.04156.06775-.01245.02148-1.37817,2.38696-1.37817,2.38696-.06702.11609.01678.26123.15082.26123h1.73816c.09271,0,.16785.07513.16785.16785v.67419c-.90222-.05737-1.64337-.00446-1.70557.00024-.10938.00781-.19238.10449-.18359.21484.00781.10449.0957.18457.19922.18457.00488,0,.00977,0,.01562-.00098.01453-.00195.76837-.05646,1.67432.00256v.77863c0,.1817.1474.22382.32916.22382.18164,0,.3291-.04211.3291-.22382v-.7149c.73724.09509,1.48297.28223,1.95941.6427.00165.00122.00366.00214.00531.00336.0011.00079.00214.00134.0033.00214,1.08276.81323,2.87573.99939,4.28143.99841,1.11719,0,1.99023-.11621,2.06934-.12695.10938-.01562.18555-.11621.1709-.22559s-.12207-.18164-.22559-.1709c-.04047.00549-3.77545.50232-5.72034-.57953,3.27484-1.03625,5.68036-.55701,5.70667-.55231.10645.02441.21387-.0459.23633-.1543.02344-.10742-.0459-.21387-.1543-.23633-.03461-.00714-.32745-.06592-.82379-.10236.0011-.0083.00909-.01337.00909-.02197v-1.35626c0-.05713.04639-.10345.10352-.10345h1.02875c.07965,0,.12946-.08624.08966-.15521,0,0-.80701-1.39929-.81647-1.41406Z"/><path class="cls-1" d="m12.06735,12.78631c-.19366,0-.27844-.0744-.40698-.18658-.14771-.12909-.33179-.28992-.68323-.28992-.3515,0-.53583.16083-.68384.28992-.12854.11218-.21356.18658-.40778.18658-.19391,0-.27899-.0744-.40753-.18658-.14801-.12909-.33234-.28992-.68408-.28992-.35144,0-.53583.16083-.68378.28992-.12854.11218-.21362.18658-.40784.18658-.19501,0-.28003-.0744-.40918-.18658-.14819-.12909-.33258-.28992-.68457-.28992-.35205,0-.53662.16083-.68488.28992-.12885.11218-.21393.18658-.40863.18658-.11597,0-.21008.09406-.21008.21002s.09412.21008.21008.21008c.35199,0,.53662-.16083.68488-.28992.12885-.11218.21387-.18652.40863-.18652s.27979.07434.40863.18652c.1485.12909.33289.28992.68512.28992.35175,0,.53613-.16083.68408-.28992.12854-.11218.21362-.18652.40753-.18652.19421,0,.27924.07434.40784.18652.14795.12909.33228.28992.68378.28992.35175,0,.53607-.16083.68402-.28992.1286-.11218.21362-.18652.40759-.18652.1936,0,.27838.07434.40698.18652.14771.12909.33173.28992.68323.28992.11597,0,.21002-.09412.21002-.21008s-.09406-.21002-.21002-.21002Z"/><path class="cls-1" d="m9.28708,4.5653c.60236,0,1.09064-.48828,1.09064-1.09058s-.48828-1.09058-1.09064-1.09058c-.60229,0-1.09058.48828-1.09058,1.09058s.48828,1.09058,1.09058,1.09058Z"/></g></svg>