<svg xmlns="http://www.w3.org/2000/svg" width="5.5mm" height="5.5mm" viewBox="0 0 15.591 15.591">
  <rect width="15.591" height="15.591" rx="7.795" fill="#031E3A"/>
  <g>
    <path d="M7.8,1.882a5.98,5.98,0,1,0,5.979,5.979A5.987,5.987,0,0,0,7.8,1.882Zm0,11.209a5.23,5.23,0,1,1,5.229-5.23A5.237,5.237,0,0,1,7.8,13.091Z" fill="#fff"/>
    <path d="M7.8,3.478A4.384,4.384,0,1,0,12.18,7.861,4.389,4.389,0,0,0,7.8,3.478Zm0,8.017A3.634,3.634,0,1,1,11.43,7.861,3.639,3.639,0,0,1,7.8,11.5Z" fill="#fff"/>
  </g>
</svg>
