<?xml version="1.0" encoding="UTF-8"?><svg id="ICONS" xmlns="http://www.w3.org/2000/svg" viewBox="0 0 15.59055 15.59055"><defs><style>.cls-1{fill:#fff;}.cls-2{fill:#031E3A;}</style></defs><rect class="cls-2" x=".00472" y="0" width="15.59055" height="15.59055" rx="7.79478" ry="7.79478"/><g><polygon class="cls-1" points="11.95346 7.58302 11.83797 7.80475 12.36604 8.08198 4.57408 10.39662 4.8659 9.87505 4.64718 9.75255 4.143 10.65509 5.05832 11.13713 5.17474 10.91512 4.64495 10.63637 12.43925 8.32103 12.14681 8.84483 12.36459 8.9676 12.8685 8.06413 11.95346 7.58302"/><path class="cls-1" d="m3.77596,9.34321l8.71652-2.58996c.08546-.0511.19044-.09397.2638-.2105.19944-.31665.20665-.71544.09894-1.07792-.15599-.52507-.58245-.91177-1.11272-1.00919-.0398-.00729-.08067.00361-.11179.02971-.03097.02613-.04871.06474-.04831.10524.00493.44212-.27942.83644-.69156.95897l-6.46199,1.91999c-.41214.12253-.86564-.05255-1.10293-.42567-.0217-.03417-.05764-.05685-.09778-.06186-.04039-.00486-.08056.00837-.11.03622-.39106.37115-.53714.92794-.38109,1.45299.08793.29613.2587.55851.50833.73949.22794.16519.53059.1325.53059.1325Z"/></g></svg>