<svg xmlns="http://www.w3.org/2000/svg" width="5.5mm" height="5.5mm" viewBox="0 0 15.591 15.591">
  <rect width="15.591" height="15.591" rx="7.795" fill="#031E3A"/>
  <g>
    <path d="M3.6,5.016a.717.717,0,1,0-.954-.343A.716.716,0,0,0,3.6,5.016Z" fill="#fff"/>
    <rect x="6.21" y="2.124" width="2.968" height="10.398" rx="0.498" fill="#fff"/>
    <rect x="10.188" y="5.447" width="2.968" height="7.074" rx="0.498" fill="#fff"/>
    <path d="M5.424,5.137l-.562.1.826-1.661a.335.335,0,0,0-.144-.426.326.326,0,0,0-.438.15L4.175,4.817l-.8.554a.362.362,0,0,0-.189.23l-.6,2.387a1.308,1.308,0,0,0-.072.419.156.156,0,0,0,.021.075.212.212,0,0,0,.078.105L3.716,9.894l-.033,1.73a.3.3,0,0,0,.267.354.306.306,0,0,0,.189-.018.3.3,0,0,0,.171-.237l.28-1.77a.294.294,0,0,0-.068-.265L3.83,8.38l.254-.067L4.54,8.2l.363.768a.3.3,0,0,0,.36.254A.248.248,0,0,0,5.35,9.2a.314.314,0,0,0,.179-.338L5.321,7.7a.276.276,0,0,0-.138-.2l-.922-.3V6.106l1.274-.343c.023-.011.052-.011.086-.027a.327.327,0,0,0,.174-.35A.322.322,0,0,0,5.424,5.137Z" fill="#fff"/>
  </g>
</svg>
