<?xml version="1.0" encoding="UTF-8"?>
<svg id="ICONS" xmlns="http://www.w3.org/2000/svg" viewBox="0 0 15.59 15.59">
  <defs>
    <style>
      .cls-1 {
        fill: #fff;
      }

      .cls-2 {
        fill: #031E3A;
      }
    </style>
  </defs>
  <rect class="cls-2" x="0" y="0" width="15.59" height="15.59" rx="7.8" ry="7.8"/>
  <g>
    <path class="cls-1" d="m12.41,7.34v-3.76s-1.15.06-1.15,1.67v2.53h.63l-.16,3.57c0,.36.19.66.43.66s.43-.3.43-.66l-.18-4.02Z"/>
    <path class="cls-1" d="m9.8,5.56v-1.85c0-.07-.06-.12-.12-.12s-.12.06-.12.12v1.85h-.35v-1.85c0-.07-.06-.12-.12-.12s-.12.06-.12.12v1.85h-.35v-1.85c0-.07-.06-.12-.12-.12s-.12.06-.12.12v1.85h0c0,.51,0,.97,0,1.08.02.27.35.67.35.67l.13.1-.18,3.96c0,.36.19.65.42.65s.42-.29.42-.65l-.18-3.96.13-.1s.33-.4.35-.67c0-.11,0-.56,0-1.08h0Z"/>
    <path class="cls-1" d="m6.48,3.59c.13,0,.2.05.22.19.11.53.22,1.06.3,1.59.08.5.15.99.17,1.49.04,1.04-.57,1.91-1.57,2.15-.04,0-.08.02-.12.03-.16.02-.18.07-.18.21,0,.77,0,1.36,0,2.12,0,.06.02.08.08.08.28,0,.52,0,.8,0,.14,0,.25.14.26.25,0,.12-.1.27-.24.27-.74,0-1.49,0-2.23,0-.11,0-.24-.13-.23-.27,0-.13.13-.26.24-.26.28,0,.51,0,.79,0,.07,0,.11-.01.11-.1,0-.79,0-1.41,0-2.21,0-.07-.02-.1-.09-.11-.7-.09-1.97-.94-1.76-2.38.06-.74.42-2.68.47-2.93.02-.11.09-.15.2-.15.47,0,2.33,0,2.79,0Zm-.04,2c.16,0,.16-.22.13-.38,0,0,0-.01,0-.02-.07-.39-.14-.71-.21-1.1-.03-.06-.07-.1-.13-.1-.84,0-1.49,0-2.25,0-.06,0-.09.02-.1.08-.08.42-.17.8-.24,1.22,0,.06,0,.26.15.3.17,0,2.65,0,2.65,0Z"/>
  </g>
</svg>