<svg xmlns="http://www.w3.org/2000/svg" width="5.5mm" height="5.5mm" viewBox="0 0 15.591 15.591">
  <rect width="15.591" height="15.591" rx="7.795" fill="#031E3A"/>
  <g>
    <path d="M4.642,7.551V7.468c0-.4,0-.8,0-1.194a.187.187,0,0,1,.024-.093c.076-.122.156-.241.235-.361a.357.357,0,0,1,.036-.042.332.332,0,0,1,0,.043q0,.753,0,1.507a.165.165,0,0,1-.026.079c-.08.127-.163.253-.241.381a.214.214,0,0,0-.031.1q0,.67,0,1.34c0,.228,0,.456,0,.684a.359.359,0,0,0,.434.327.37.37,0,0,0,.294-.388c0-.557,0-1.114,0-1.672a.253.253,0,0,1,.037-.128c.09-.15.186-.3.28-.443.009-.015.021-.03.043-.059,0,.192,0,.367,0,.541a.242.242,0,0,0,.016.089q.387.919.778,1.836A.366.366,0,1,0,7.2,9.73q-.345-.817-.69-1.635a.1.1,0,0,1,.009-.1c.091-.152.181-.3.268-.458a.1.1,0,0,1,.1-.059H8.611l.069,0V8.723c0,.381,0,.761,0,1.142a.368.368,0,1,0,.733-.018c0-.75,0-1.5,0-2.249a.292.292,0,0,1,.029-.127c.258-.532.52-1.063.778-1.595.025-.052.049-.061.106-.051a.941.941,0,0,0,.961-.352,3.124,3.124,0,0,0,.218-.371l.052.009a.382.382,0,0,0,.462-.389.394.394,0,0,0-.193-.322c-.344-.226-.684-.456-1.029-.68a.139.139,0,0,1-.072-.161,1.288,1.288,0,0,0-.011-.433q-1.07,1.107-2.14,2.213a.167.167,0,0,1-.1.049c-.234,0-.469,0-.7,0-.021,0-.042,0-.064,0V4.917l.048.007.62.144a.269.269,0,0,0,.329-.141.263.263,0,0,0-.173-.368c-.219-.061-.44-.114-.66-.171-.054-.014-.125-.015-.154-.049s-.012-.105-.014-.16a.56.56,0,0,0-.445-.566.552.552,0,0,0-.665.555c0,.356,0,.712,0,1.068v.149c-.026,0-.045,0-.064,0H5.244a3.637,3.637,0,0,0-.49.011.8.8,0,0,0-.693.812c0,.425,0,.85,0,1.274,0,.022,0,.043,0,.064Zm5.994-2.495c.056-.11.056-.111.18-.087.151.028.3.058.453.087a.766.766,0,0,1-.917.566C10.448,5.429,10.542,5.243,10.636,5.056Z" fill="#fff"/>
    <path d="M7.161,3.459a.552.552,0,0,0,0-1.1.555.555,0,0,0-.551.554A.548.548,0,0,0,7.161,3.459Z" fill="#fff"/>
    <path d="M11.32,7.974a.366.366,0,1,0-.228.7c1.077.354,1.746.864,1.746,1.332,0,.856-2.2,1.813-5.144,1.813S2.549,10.857,2.549,10a.366.366,0,1,0-.732,0c0,1.451,2.527,2.545,5.877,2.545S13.57,11.452,13.57,10C13.57,9.17,12.771,8.449,11.32,7.974Z" fill="#fff"/>
  </g>
</svg>
