<svg xmlns="http://www.w3.org/2000/svg" width="5.5mm" height="5.5mm" viewBox="0 0 15.591 15.591">
  <rect width="15.591" height="15.591" rx="7.795" fill="#031E3A"/>
  <g>
    <g>
      <path d="M5.957,9.115a.46.46,0,1,0-.46-.46A.459.459,0,0,0,5.957,9.115Z" fill="#fff"/>
      <path d="M8.74,9.115a.46.46,0,1,0-.46-.46A.459.459,0,0,0,8.74,9.115Z" fill="#fff"/>
      <path d="M10.576,10.978a.347.347,0,0,0-.034-.032l-.548-.43a.584.584,0,0,0-.113-.062l.366-.825h.006A.217.217,0,0,0,10.2,9.2L10,9.224l-.9.122a.393.393,0,0,0-.278-.115H8.657a.4.4,0,0,0-.4.4v1.184a.43.43,0,0,0,.034.167h-.5a.261.261,0,0,0-.034-.032l-.548-.43a.47.47,0,0,0-.118-.06l.371-.827h.007a.217.217,0,0,0-.058-.43l-.192.026-.905.122a.4.4,0,0,0-.279-.115H5.872a.4.4,0,0,0-.4.4v1.184a.449.449,0,0,0,.034.167H2.719a1.275,1.275,0,0,0,1.272,1.271H5.817l-.369.808a.228.228,0,0,0,.016.218.572.572,0,0,0,.4.2.267.267,0,0,0,.21-.09,4.13,4.13,0,0,0,.374-.91.607.607,0,0,0,.016-.222H8.6l-.369.808a.228.228,0,0,0,.016.218.572.572,0,0,0,.4.2.267.267,0,0,0,.21-.09,4.13,4.13,0,0,0,.374-.91.607.607,0,0,0,.015-.222h2.442a1.275,1.275,0,0,0,1.272-1.271ZM6.431,9.768l.729-.1-.33.737a.688.688,0,0,0-.152.027l-.255.092Zm2.785,0,.728-.1-.317.711a.348.348,0,0,0-.166.053l-.253.091Z" fill="#fff"/>
    </g>
    <path d="M13.123,4.49l-1.588-1.1a.954.954,0,0,0-.528-.171c-.551-.008-1.784-.011-2.968-.011s-2.416,0-2.967.011a.951.951,0,0,0-.528.171L2.956,4.49c-.145.07-.1.338.051.338h.577V6.907a.281.281,0,0,0,.281.281h8.221a.28.28,0,0,0,.28-.281V4.828h.706C13.228,4.828,13.268,4.56,13.123,4.49Z" fill="#fff"/>
  </g>
</svg>
