<svg xmlns="http://www.w3.org/2000/svg" width="5.5mm" height="5.5mm" viewBox="0 0 15.591 15.591">
  <rect width="15.591" height="15.591" rx="7.795" fill="#031E3A"/>
  <path d="M12.122,10.17l-.346-.658a.955.955,0,0,0-.04-1.559C11.7,7.929,9.214,6.443,9.19,6.426a.357.357,0,0,0,.047-.174.35.35,0,0,0-.353-.35h-.9a.147.147,0,0,1-.15-.146.15.15,0,0,1,.15-.15h.5A.351.351,0,0,0,8.314,5H7.347a.15.15,0,1,1,0-.3h.746c-.266-1.006-.054-2.309-.488-2.453a.814.814,0,0,0-.809.407,1.693,1.693,0,0,0-.68-.151c-.929,0-1.353.245-1.535.863a.388.388,0,0,0-.139.734C4.264,5.183,3.955,7.2,3.8,8.221A1.754,1.754,0,0,0,3.945,9.3a1.536,1.536,0,0,0-.925.691L3,9.983a.27.27,0,1,0-.216.494l.85.372a1.049,1.049,0,1,0,2.024.517l.379.1a1.048,1.048,0,0,0,2.052-.11l.374.1a1.049,1.049,0,0,0,2.058-.109l.368.1a1.05,1.05,0,1,0,1.229-1.266Zm-7.5,1.345a.315.315,0,1,1,.315-.315A.315.315,0,0,1,4.626,11.515Zm2.43,0a.315.315,0,1,1,.315-.315A.315.315,0,0,1,7.056,11.515ZM8.944,9.648h-2.3a.2.2,0,1,1,0-.4h2.3a.2.2,0,0,1,0,.4Zm.542,1.867A.315.315,0,1,1,9.8,11.2.315.315,0,0,1,9.486,11.515Zm2.429,0a.315.315,0,1,1,.315-.315A.316.316,0,0,1,11.915,11.515Z" fill="#fff"/>
</svg>
