<svg xmlns="http://www.w3.org/2000/svg" width="5.5mm" height="5.5mm" viewBox="0 0 15.591 15.591">
  <rect width="15.591" height="15.591" rx="7.795" fill="#031E3A"/>
  <g>
    <path d="M9.079,1.507A4.08,4.08,0,0,0,6.066,8.355l-.939.939a.77.77,0,0,0-.844.163L2.516,11.225a.77.77,0,1,0,1.089,1.088l1.767-1.767A.768.768,0,0,0,5.535,9.7l.954-.954a4.057,4.057,0,0,0,2.59.95,4.1,4.1,0,1,0,0-8.192Zm0,7.614A3.519,3.519,0,1,1,12.6,5.6,3.522,3.522,0,0,1,9.079,9.121Z" fill="#fff"/>
    <path d="M10.494,5.253A1.013,1.013,0,1,0,9.482,4.24v.173h-.7V4.24A1.013,1.013,0,1,0,7.769,5.253h.174v.7H7.769A1.013,1.013,0,1,0,8.782,6.965V6.792h.7v.173a1.013,1.013,0,1,0,1.012-1.013h-.173v-.7Zm-2.725-.63A.366.366,0,0,1,7.4,4.258h0a.365.365,0,0,1,.73,0v.365Zm.383,2.342A.365.365,0,1,1,7.787,6.6h.365Zm1.482-.86H8.629V5.1H9.634Zm.86.478a.365.365,0,1,1-.365.365V6.583Zm-.365-1.978V4.24a.365.365,0,1,1,.365.365Z" fill="#fff"/>
  </g>
</svg>
