<svg xmlns="http://www.w3.org/2000/svg" width="5.5mm" height="5.5mm" viewBox="0 0 15.591 15.591">
  <rect width="15.591" height="15.591" rx="7.795" fill="#031E3A"/>
  <g>
    <path d="M5.277,6.47a1.275,1.275,0,0,0,.948.509.932.932,0,0,0,.157-.013,1.2,1.2,0,0,0,.88-.832A2.953,2.953,0,0,0,7.381,4.6a2.958,2.958,0,0,0-.62-1.414,1.207,1.207,0,0,0-1.105-.5,1.206,1.206,0,0,0-.88.833,2.952,2.952,0,0,0-.12,1.539A2.95,2.95,0,0,0,5.277,6.47Z" fill="#fff"/>
    <path d="M9.209,6.966a.916.916,0,0,0,.157.013,1.276,1.276,0,0,0,.948-.509,2.949,2.949,0,0,0,.62-1.413,2.952,2.952,0,0,0-.119-1.539,1.206,1.206,0,0,0-.88-.833,1.209,1.209,0,0,0-1.105.5A2.95,2.95,0,0,0,8.209,4.6a2.952,2.952,0,0,0,.12,1.539A1.2,1.2,0,0,0,9.209,6.966Z" fill="#fff"/>
    <path d="M4.928,8.975a2.529,2.529,0,0,0,.144-1.421,2.521,2.521,0,0,0-.6-1.294,1.222,1.222,0,0,0-1.091-.438,1.219,1.219,0,0,0-.886.773,2.528,2.528,0,0,0-.144,1.421A2.522,2.522,0,0,0,2.952,9.31a1.278,1.278,0,0,0,.922.452.954.954,0,0,0,.168-.015A1.215,1.215,0,0,0,4.928,8.975Z" fill="#fff"/>
    <path d="M13.1,6.6a1.125,1.125,0,0,0-1.976-.335,2.53,2.53,0,0,0-.6,1.294,2.52,2.52,0,0,0,.145,1.421,1.214,1.214,0,0,0,.885.772.965.965,0,0,0,.169.015,1.283,1.283,0,0,0,.922-.452,2.521,2.521,0,0,0,.6-1.294A2.511,2.511,0,0,0,13.1,6.6Z" fill="#fff"/>
    <path d="M9.769,9.385v-.02a2.619,2.619,0,0,0-.551-1.641A1.049,1.049,0,0,0,7.8,7.542a1.054,1.054,0,0,0-.747-.179,1.09,1.09,0,0,0-.729.431,2.648,2.648,0,0,0-.5,1.571v.02c-.831-.165-1.579.693-1.579,1.757a1.619,1.619,0,0,0,1.382,1.777,1.23,1.23,0,0,0,1.347-1.006,1.71,1.71,0,0,0,1.653,0,1.226,1.226,0,0,0,1.343,1.006,1.618,1.618,0,0,0,1.381-1.777C11.348,10.078,10.6,9.22,9.769,9.385Z" fill="#fff"/>
  </g>
</svg>
