<svg xmlns="http://www.w3.org/2000/svg" width="5.5mm" height="5.5mm" viewBox="0 0 15.591 15.591">
  <rect width="15.591" height="15.591" rx="7.795" fill="#031E3A"/>
  <g>
    <circle cx="5.988" cy="8.993" r="0.772" fill="#fff"/>
    <path d="M4.871,10.373a.345.345,0,0,0,.345.344H7.142c.009,0,.016.011.026.011h4.116a.2.2,0,0,0,.2-.2v-.357a1.253,1.253,0,0,0-1.253-1.253h-2.6a.67.67,0,0,0-.669.669v.443H5.216A.345.345,0,0,0,4.871,10.373Z" fill="#fff"/>
    <path d="M12.509,11.093H3.748V7.743l8.92-3.287a.458.458,0,0,0-.318-.86L2.193,7.339a.459.459,0,0,0,.159.889A.437.437,0,0,0,2.51,8.2l.32-.117v3.011H2.352a.459.459,0,0,0,0,.918H12.509a.459.459,0,0,0,0-.918Z" fill="#fff"/>
  </g>
</svg>
