<svg xmlns="http://www.w3.org/2000/svg" width="5.5mm" height="5.5mm" viewBox="0 0 15.591 15.591">
  <rect width="15.591" height="15.591" rx="7.795" fill="#031E3A"/>
  <g>
    <path d="M12.933,5.16a1.155,1.155,0,1,1-1.155-1.154A1.156,1.156,0,0,1,12.933,5.16Zm0,0" fill="#fff"/>
    <path d="M12.207,10.8a.527.527,0,0,0-.657.359.823.823,0,0,1-1.02.558L8.421,11.09l.854-1.746a1.321,1.321,0,0,0-.861-1.657L8.36,7.669l.662-.26,2.543.837A.53.53,0,0,0,11.9,7.24l-1.75-.577A1.057,1.057,0,0,0,8.809,5.217l-1.067.42L4.266,3.519l.207-.339A.4.4,0,1,0,3.8,2.767l-.207.339L3.135,2.83a.4.4,0,0,0-.413.679l.453.275-.207.339a.4.4,0,0,0,.678.414l.207-.34L6.813,6l-1.327.522A1.32,1.32,0,0,0,5.572,9.01l1.443.456-.092,1.188-3.6-1.047a.529.529,0,0,0-.3,1.016l7.206,2.108a1.881,1.881,0,0,0,2.335-1.278.531.531,0,0,0-.36-.656Zm0,0" fill="#fff"/>
  </g>
</svg>
