<svg xmlns="http://www.w3.org/2000/svg" width="5.5mm" height="5.5mm" viewBox="0 0 15.591 15.591">
  <rect width="15.591" height="15.591" rx="7.795" fill="#031E3A"/>
  <g>
    <path d="M10.622,11.022a.989.989,0,0,1-.99.989H9.283a.578.578,0,0,0,.011-.11v-1H8.976A1.63,1.63,0,0,1,7.421,9.751a1.632,1.632,0,0,1-1.156,1.1l.47.322a1.225,1.225,0,0,0,1.087.144V11.9a.609.609,0,0,0,.021.154.618.618,0,0,0,.219,1.2h1.57a2.23,2.23,0,0,0,2.231-2.23V9.74a3,3,0,0,1-1.241.943Z" fill="#fff"/>
    <path d="M11.4,2.338h-.32a.46.46,0,0,0-.46.461v.443h1.241V2.8A.461.461,0,0,0,11.4,2.338Z" fill="#fff"/>
    <path d="M10.622,5.161a3.006,3.006,0,0,1,1.241.942V3.882H10.622Z" fill="#fff"/>
    <path d="M6.853,9.274A.347.347,0,0,1,7.2,8.927h.444a.347.347,0,0,1,.346.347.988.988,0,0,0,.987.986h.531a2.338,2.338,0,0,0,0-4.676H5.336a2.338,2.338,0,0,0,0,4.676h.531A.988.988,0,0,0,6.853,9.274Z" fill="#fff"/>
  </g>
</svg>
