<svg xmlns="http://www.w3.org/2000/svg" viewBox="0 0 128.13 128.13"><defs><style>.cls-1{fill:#031E3A;}.cls-2{fill:#fff;}</style></defs><g id="Isolation_Mode" data-name="Isolation Mode"><rect class="cls-1" width="128.13" height="128.13" rx="64.06"/><path class="cls-2" d="M98.31,88.93l-7.65-16.5L89.07,69a1.75,1.75,0,0,0-.21-.46L78.46,46.14c-.93-2-1.86-4-2.8-6-.84-1.82-3.86-2-5-.36H53.14c-1.13-1.58-4.13-1.49-5,.36L40.77,56.57h6.54l3.31-7.38.19-.41q2.5,5.41,5,10.83L68,85.92l2.8,6A3,3,0,0,0,74.92,93,3.08,3.08,0,0,0,76,88.93c-.41-.89-.82-1.78-1.24-2.67H90.48L93.12,92A3,3,0,0,0,97.23,93,3.08,3.08,0,0,0,98.31,88.93ZM73.11,48.79l2.74,5.91h-5.4Q71.79,51.74,73.11,48.79Zm-17-2.65-1.23-2.66H69L64.25,53.94a4.19,4.19,0,0,0-.24.76H60.13Zm10,21.62Q64,63.11,61.87,58.45H77.59l.54,1.17c1.26,2.71,2.52,5.43,3.77,8.14H66.18Zm8.13,14.75H73q-2.33-5-4.67-10.08c-.14-.3-.28-.61-.43-.92H83.64l5.1,11Z"/><path class="cls-2" d="M59.2,74l-.43-.92H24.83c-4.2,0-8.45-.18-12.64,0H12a1.25,1.25,0,0,0,0,2.5H59.93Z"/><path class="cls-2" d="M116.12,73.11H94.28l1.16,2.5h7.87c4.2,0,8.44.19,12.63,0h.18A1.25,1.25,0,0,0,116.12,73.11Z"/><path class="cls-2" d="M116.12,64.77H90.41l1.1,2.38a.67.67,0,0,1,.06.12h11.74c4.2,0,8.44.19,12.63,0h.18A1.25,1.25,0,0,0,116.12,64.77Z"/><path class="cls-2" d="M54.91,64.77H24.83c-4.2,0-8.45-.18-12.64,0H12a1.25,1.25,0,0,0,0,2.5H56.07Z"/><path class="cls-2" d="M25,53.51V84.37c0,3.22,5,3.22,5,0V53.51c0-3.22-5-3.22-5,0Z"/><path class="cls-2" d="M106.8,53.51V84.37c0,3.22,5,3.22,5,0V53.51c0-3.22-5-3.22-5,0Z"/><path class="cls-2" d="M116.12,56.43H86.54l.94,2,.22.48h15.61c4.2,0,8.44.19,12.63,0h.18A1.25,1.25,0,0,0,116.12,56.43Z"/><path class="cls-2" d="M50.83,56.43h-26c-4.2,0-8.45-.18-12.64,0H12a1.25,1.25,0,0,0,0,2.5H52.2L51,56.43Z"/></g></svg>