<svg xmlns="http://www.w3.org/2000/svg" width="5.5mm" height="5.5mm" viewBox="0 0 15.591 15.591">
  <rect width="15.591" height="15.591" rx="7.795" fill="#031E3A"/>
  <g>
    <path d="M4.421,10.905a.4.4,0,0,0,.279.074.49.49,0,0,0,.235-.108L7.186,9.135c.326.295.571.489.571.489s-.049,1.565-.041,1.636a.42.42,0,0,0,.08.217.384.384,0,0,0,.553.073.38.38,0,0,0,.146-.2.31.31,0,0,0,.012-.081L8.68,9.409a.463.463,0,0,0-.046-.252,13.062,13.062,0,0,1-.564-1.3l.316-.729s.163.382.191.434a.36.36,0,0,0,.094.111L9.7,8.412a.347.347,0,0,0,.223.039.337.337,0,0,0,.163-.075.334.334,0,0,0,.1-.144.33.33,0,0,0,.007-.188.323.323,0,0,0-.09-.151l-.924-.678Q9,6.4,8.823,5.59a.553.553,0,0,0-.077-.213,3.817,3.817,0,0,0-.886-.364v0l-.509-.871.441-1.292a.362.362,0,0,0,0-.178.324.324,0,0,0-.312-.257.331.331,0,0,0-.206.063.363.363,0,0,0-.095.113.47.47,0,0,0-.043.1c-.27.842-.374,1.147-.4,1.213a1.34,1.34,0,0,0-.054.159.3.3,0,0,0-.016.088.267.267,0,0,0,.025.107l.078.2c.13.329.374.984.523,1.349C7.082,6.242,6.9,6.7,6.9,6.7c-.249.626-.69,1.386-1.063,2.261-.538.477-.922.869-1.46,1.346a.4.4,0,0,0-.1.18.41.41,0,0,0,.148.423Z" fill="#fff"/>
    <path d="M8.2,4.1a.771.771,0,1,0,.9-.615A.772.772,0,0,0,8.2,4.1Z" fill="#fff"/>
    <path d="M8.618,3a.585.585,0,1,0-.585-.585A.585.585,0,0,0,8.618,3Z" fill="#fff"/>
    <path d="M11.6,12.164l-1.131-.249-.566.024-.961.04a.831.831,0,0,0-.2.035l-.754.236a.793.793,0,0,1-.482,0l-.8-.532a.73.73,0,0,0-.173-.036l-1.162-.106a.814.814,0,0,0-.171,0L3.159,12.1l.062-.013-.062.013c-.362.075-.335.689.014.691s8.014.063,8.442.063S12.065,12.266,11.6,12.164Zm-8.319-.088Z" fill="#fff"/>
  </g>
</svg>
