<svg xmlns="http://www.w3.org/2000/svg" width="5.5mm" height="5.5mm" viewBox="0 0 15.591 15.591">
  <rect width="15.591" height="15.591" rx="7.795" fill="#031E3A"/>
  <g>
    <path d="M4.746,7.486l2.611,0A.143.143,0,0,0,7.5,7.325,6.162,6.162,0,0,0,5.559,3.408a.151.151,0,0,0-.238.092L4.6,7.313A.146.146,0,0,0,4.746,7.486Z" fill="#fff"/>
    <path d="M3.179,9.057A1.559,1.559,0,0,1,4.26,8.641a1.646,1.646,0,0,1,1.175.494.76.76,0,0,0,1.166,0,1.644,1.644,0,0,1,1.176-.495,1.565,1.565,0,0,1,1.089.424L9.4,8.5a.311.311,0,0,0-.286-.473H2.991a.311.311,0,0,0-.294.46Z" fill="#fff"/>
    <path d="M13.383,10.321a.338.338,0,0,0-.339-.338.872.872,0,0,1-.655-.3,1.528,1.528,0,0,0-2.2,0,.87.87,0,0,1-1.313,0,1.53,1.53,0,0,0-2.2,0,.871.871,0,0,1-1.315,0,1.534,1.534,0,0,0-2.2,0,.877.877,0,0,1-.658.3.338.338,0,0,0,0,.676,1.525,1.525,0,0,0,1.1-.466.873.873,0,0,1,1.316,0,1.533,1.533,0,0,0,2.2,0,.869.869,0,0,1,1.313,0,1.53,1.53,0,0,0,2.2,0,.878.878,0,0,1,.657-.3.868.868,0,0,1,.654.3,1.525,1.525,0,0,0,1.1.467A.338.338,0,0,0,13.383,10.321Z" fill="#fff"/>
    <path d="M9.923,9.331A.231.231,0,1,0,9.692,9.1.231.231,0,0,0,9.923,9.331Z" fill="#fff"/>
    <path d="M11.236,10.389a.231.231,0,1,0,.231.23A.231.231,0,0,0,11.236,10.389Z" fill="#fff"/>
    <path d="M11.918,11.07a.231.231,0,1,0,.23.231A.23.23,0,0,0,11.918,11.07Z" fill="#fff"/>
    <path d="M12.6,11.752a.231.231,0,1,0,.231.23A.231.231,0,0,0,12.6,11.752Z" fill="#fff"/>
  </g>
</svg>
