<svg xmlns="http://www.w3.org/2000/svg" width="5.5mm" height="5.5mm" viewBox="0 0 15.591 15.591">
  <rect width="15.591" height="15.591" rx="7.795" fill="#031E3A"/>
  <g>
    <circle cx="9.282" cy="6.761" r="0.612" fill="#fff"/>
    <path d="M7.714,3.119h-3.9V8.993a3.9,3.9,0,0,0,3.9,3.9h0a3.9,3.9,0,0,0,3.9-3.9V3.119Zm-2.2,3.642a.612.612,0,1,1,.612.611A.612.612,0,0,1,5.517,6.761ZM7.7,10.727A1.727,1.727,0,0,1,5.986,9V8.81H7.7Zm2.882-1.734a2.872,2.872,0,0,1-2.868,2.868h0V10.728H9.441v-.19A1.728,1.728,0,0,0,7.714,8.81V4.151h2.868Z" fill="#fff"/>
  </g>
</svg>
