<svg xmlns="http://www.w3.org/2000/svg" width="5.5mm" height="5.5mm" viewBox="0 0 15.591 15.591">
  <rect width="15.591" height="15.591" rx="7.795" fill="#031E3A"/>
  <path d="M3.56,4.616A1.017,1.017,0,0,1,4.636,5.974,1.017,1.017,0,0,1,3.56,4.616m-.7,2.352a1.015,1.015,0,0,1,1.717-.223A1.015,1.015,0,0,1,2.855,6.968ZM6.077,4.487A1.016,1.016,0,0,1,5.4,6.079,1.016,1.016,0,0,1,6.077,4.487Zm5.953.129a1.016,1.016,0,0,1-1.075,1.358A1.016,1.016,0,0,1,12.03,4.616Zm.706,2.352a1.016,1.016,0,0,0-1.718-.223A1.016,1.016,0,0,0,12.736,6.968ZM9.513,4.487A1.015,1.015,0,0,1,10.2,6.079,1.016,1.016,0,0,1,9.513,4.487ZM7.8,3.451a1.015,1.015,0,0,0,0-1.732A1.016,1.016,0,0,0,7.8,3.451ZM9.839,3.2a1.016,1.016,0,0,1-1.53.813A1.016,1.016,0,0,1,9.839,3.2Zm-4.087,0a1.016,1.016,0,0,1,1.53.813A1.016,1.016,0,0,1,5.752,3.2ZM7.8,3.71a.231.231,0,0,0-.223.22L7.1,8.191,5.14,6.243a.224.224,0,0,0-.351.278L6.9,9.959l-.4,3.582c-.021.174.051.32.243.33H8.839c.193-.01.265-.156.244-.33l-.4-3.582L10.8,6.521a.224.224,0,0,0-.351-.278L8.491,8.191,8.019,3.93A.232.232,0,0,0,7.8,3.71Z" fill="#fff" fill-rule="evenodd"/>
</svg>
