<svg xmlns="http://www.w3.org/2000/svg" width="5.5mm" height="5.5mm" viewBox="0 0 15.591 15.591">
  <rect width="15.591" height="15.591" rx="7.795" fill="#031E3A"/>
  <path d="M12.509,3.088a.5.5,0,0,0-.5.5v.7H8.635v-.7a.5.5,0,1,0-1,0V5.7H3.472V5.444a.5.5,0,0,0-1,0V12a.5.5,0,0,0,1,0V6.453H7.635V12a.5.5,0,0,0,1,0v-1.3h3.374V12a.5.5,0,1,0,1,0V3.588A.5.5,0,0,0,12.509,3.088ZM8.635,5.035h3.374V5.7H8.635Zm0,2.835h3.374v.667H8.635Zm3.374-1.417V7.12H8.635V6.453ZM8.635,9.287h3.374v.668H8.635Z" fill="#fff"/>
</svg>
