<?xml version="1.0" encoding="UTF-8"?>
<svg id="b" data-name="ICONS" xmlns="http://www.w3.org/2000/svg" width="5.5mm" height="5.5mm" viewBox="0 0 15.591 15.591">
  <rect x="0" y="0" width="15.591" height="15.591" rx="7.795" ry="7.795" fill="#031E3A"/>
  <path d="m7.063,9.608v-.456c0-.192.015-.364.042-.516.028-.152.072-.296.133-.432.06-.136.14-.268.239-.396.101-.128.227-.264.378-.408l.54-.516c.152-.136.282-.288.391-.456.107-.168.162-.372.162-.612,0-.312-.099-.574-.294-.786-.196-.212-.475-.318-.834-.318-.185,0-.351.034-.498.102-.148.068-.276.16-.385.276-.107.116-.189.25-.245.402-.057.152-.089.308-.097.468l-1.476-.132c.048-.384.149-.726.306-1.026s.358-.554.606-.762c.248-.208.531-.366.852-.474.32-.108.664-.162,1.032-.162.344,0,.67.05.978.15.309.1.58.248.816.444.236.196.422.438.558.726.137.288.204.62.204.996,0,.256-.028.48-.084.672s-.136.368-.24.528c-.104.16-.229.314-.378.462-.147.148-.313.302-.498.462-.159.136-.29.256-.39.36s-.18.208-.24.312c-.06.104-.102.216-.126.336-.023.12-.036.268-.036.444v.312h-1.416Zm-.239,1.668c0-.256.094-.476.281-.66.188-.184.414-.276.679-.276.256,0,.479.088.672.264.191.176.288.392.288.648s-.095.476-.282.66c-.188.184-.414.276-.678.276-.128,0-.25-.024-.366-.072s-.218-.112-.306-.192c-.089-.08-.158-.176-.21-.288-.053-.112-.078-.232-.078-.36Z" fill="#fff"/>
</svg>