<svg xmlns="http://www.w3.org/2000/svg" width="5.5mm" height="5.5mm" viewBox="0 0 15.591 15.591">
  <rect width="15.591" height="15.591" rx="7.795" fill="#031E3A"/>
  <g>
    <path d="M5.8,8.028l3.738-.005A.2.2,0,0,0,9.742,7.8c-.1-.851-.61-3.9-2.783-5.608a.216.216,0,0,0-.34.132L5.59,7.78A.21.21,0,0,0,5.8,8.028Z" fill="#fff"/>
    <path d="M3.548,10.272A1.531,1.531,0,0,1,4.442,10a1.683,1.683,0,0,1,1.2.5.777.777,0,0,0,1.191,0,1.679,1.679,0,0,1,2.4,0,.775.775,0,0,0,1.189,0,1.679,1.679,0,0,1,1.2-.5,1.575,1.575,0,0,1,.3.036l.526-.554a.445.445,0,0,0-.409-.677H3.283a.446.446,0,0,0-.421.658Z" fill="#fff"/>
    <path d="M13.418,11.373a.892.892,0,0,1-.67-.3,1.562,1.562,0,0,0-2.247,0,.89.89,0,0,1-1.341,0,1.564,1.564,0,0,0-2.249,0,.891.891,0,0,1-1.343,0,1.57,1.57,0,0,0-2.252,0,.9.9,0,0,1-.672.306.346.346,0,1,0,0,.691,1.565,1.565,0,0,0,1.126-.476.891.891,0,0,1,1.344,0,1.567,1.567,0,0,0,2.251,0,.89.89,0,0,1,1.342,0,1.564,1.564,0,0,0,2.248,0,.887.887,0,0,1,1.339,0,1.556,1.556,0,0,0,1.124.477.346.346,0,1,0,0-.691Z" fill="#fff"/>
  </g>
</svg>
