<svg xmlns="http://www.w3.org/2000/svg" width="5.5mm" height="5.5mm" viewBox="0 0 15.591 15.591">
  <rect width="15.591" height="15.591" rx="7.795" fill="#031E3A"/>
  <path d="M12.988,6.49a.874.874,0,0,1-.66-.3,1.547,1.547,0,0,0-2.223,0,.886.886,0,0,1-.664.3.876.876,0,0,1-.661-.3,1.546,1.546,0,0,0-1.113-.471,1.452,1.452,0,0,0-.466.076L4.926,3.516a.638.638,0,1,0-.9.9L6.077,6.471a.934.934,0,0,1-.186.019.888.888,0,0,1-.665-.3A1.551,1.551,0,0,0,3,6.187a.887.887,0,0,1-.665.3.342.342,0,0,0,0,.684A1.544,1.544,0,0,0,3.448,6.7a.881.881,0,0,1,1.33,0,1.544,1.544,0,0,0,1.113.472A1.412,1.412,0,0,0,6.6,7L7.856,8.251a.547.547,0,0,0,.58.161l2.645,2.645a.342.342,0,0,0-.067.652l1.283.526a.335.335,0,0,0,.13.026.341.341,0,0,0,.242-.583L8.92,7.929a.628.628,0,0,0-.162-.58l-.933-.934a.99.99,0,0,1,.5.287,1.546,1.546,0,0,0,2.224,0,.886.886,0,0,1,.664-.3.874.874,0,0,1,.66.3,1.541,1.541,0,0,0,1.111.472.342.342,0,0,0,0-.684Z" fill="#fff"/>
</svg>
