<svg xmlns="http://www.w3.org/2000/svg" width="5.5mm" height="5.5mm" viewBox="0 0 15.591 15.591">
  <rect width="15.591" height="15.591" rx="7.795" fill="#031E3A"/>
  <g>
    <path d="M8.9,7.514a.354.354,0,0,0,.3.182l2.976.107h.012a.355.355,0,0,0,.2-.648A14.911,14.911,0,0,0,8.682,5.214L7.8,4.079a.355.355,0,0,0-.59.391Z" fill="#fff"/>
    <path d="M13.034,8.323,8.941,8.115l-.069.055A6.485,6.485,0,0,1,6.779,9.385V8.829h.114a.474.474,0,0,0,0-.947H2.985a.474.474,0,0,0,0,.947h.092l-.012.847a1.984,1.984,0,0,0-1.445.87.446.446,0,0,0,.372.694H2l9.048-.111a11.355,11.355,0,0,0,2.492-.922.8.8,0,0,0,.508-.7C14.047,8.908,13.2,8.416,13.034,8.323Z" fill="#fff"/>
  </g>
</svg>
