<?xml version="1.0" encoding="UTF-8"?>
<svg id="ICONS" xmlns="http://www.w3.org/2000/svg" viewBox="0 0 15.59 15.59">
  <defs>
    <style>
      .cls-1 {
        fill: #fff;
      }

      .cls-2 {
        fill: #021e3a;
      }
    </style>
  </defs>
  <rect class="cls-2" x="0" y="0" width="15.59" height="15.59" rx="7.8" ry="7.8"/>
  <g>
    <path class="cls-1" d="m12.99,5.4l-4.97-2.98c-.14-.08-.31-.08-.45,0l-4.97,2.98c-.21.13-.28.4-.15.61.13.21.4.28.61.15l4.74-2.84,4.74,2.84c.07.04.15.06.23.06.15,0,.3-.08.38-.22.13-.21.06-.48-.15-.61Z"/>
    <path class="cls-1" d="m11.85,8.88v-1.9c0-.25-.19-.44-.44-.44s-.44.19-.44.44v.72h-5.92v-1.67c0-.25-.19-.44-.44-.44s-.44.19-.44.44v6.27c0,.23.2.41.44.41.21,0,.39-.15.43-.35,0-.03,0-.06,0-.09v-.26h5.92v.26c0,.24.2.44.45.44.23,0,.41-.19.43-.41v-1.9s0,0,0-.01v-1.52s0,0,0,0Zm-6.8-.29h5.92v.14h0v2.41h-5.91v-2.55Z"/>
    <path class="cls-1" d="m7.32,10.58h3.22c0-.77-.62-1.39-1.39-1.39h-1.83c-.06,0-.12.05-.12.12v1.15c0,.06.05.12.12.12Z"/>
    <path class="cls-1" d="m6.13,10.58c.36,0,.65-.29.65-.65s-.29-.65-.65-.65-.65.29-.65.65.29.65.65.65Z"/>
    <path class="cls-1" d="m7.32,7.16h3.22c0-.77-.62-1.39-1.39-1.39h-1.83c-.06,0-.12.05-.12.12v1.15c0,.06.05.12.12.12Z"/>
    <path class="cls-1" d="m6.13,7.16c.36,0,.65-.29.65-.65s-.29-.65-.65-.65-.65.29-.65.65.29.65.65.65Z"/>
  </g>
</svg>