<svg xmlns="http://www.w3.org/2000/svg" width="5.5mm" height="5.5mm" viewBox="0 0 15.591 15.591">
  <rect width="15.591" height="15.591" rx="7.795" fill="#031E3A"/>
  <g>
    <path d="M7.8,9.627a1.691,1.691,0,0,1,1.223.514.8.8,0,0,0,.608.284.5.5,0,0,0,.39-.112.878.878,0,0,0,.159-.3,10.019,10.019,0,0,0-.333-7,.259.259,0,0,0-.436-.031l-3.9,5.39a.25.25,0,0,0,.1.373A5.083,5.083,0,0,0,7.8,9.627Z" fill="#fff"/>
    <path d="M13.288,11.144a.905.905,0,0,1-.682-.312,1.594,1.594,0,0,0-2.292,0,.9.9,0,0,1-1.367,0,1.6,1.6,0,0,0-2.293,0,.908.908,0,0,1-1.37,0,1.6,1.6,0,0,0-2.3,0,.912.912,0,0,1-.685.312.353.353,0,0,0,0,.705,1.594,1.594,0,0,0,1.148-.486.906.906,0,0,1,1.37,0,1.6,1.6,0,0,0,2.3,0,.9.9,0,0,1,1.367,0,1.6,1.6,0,0,0,2.293,0,.9.9,0,0,1,1.366,0,1.586,1.586,0,0,0,1.145.486.353.353,0,0,0,0-.7Z" fill="#fff"/>
  </g>
</svg>
