<svg xmlns="http://www.w3.org/2000/svg" width="5.5mm" height="5.5mm" viewBox="0 0 15.591 15.591">
  <rect width="15.591" height="15.591" rx="7.795" fill="#031E3A"/>
  <path d="M12.776,2.913c-.008-.08-.049-.108-.132-.111,0,0-.227-.042-.409-.056a10.087,10.087,0,0,0-2.414.022c-.795.134-1.53.436-2.325.569a10.054,10.054,0,0,1-2.388-.022,7.1,7.1,0,0,0-1.926.134l-.02-.2a.35.35,0,0,0,.14-.276.357.357,0,0,0-.713,0,.352.352,0,0,0,.2.316l.992,9.9a.188.188,0,0,0,.187.169h.019a.187.187,0,0,0,.168-.205l-.308-3.073a7.07,7.07,0,0,1,1.968-.185A10.072,10.072,0,0,0,8.2,9.857c.8-.153,1.523-.473,2.319-.628a9.765,9.765,0,0,1,2.372-.07c.181.009.455.038.455.038.083,0,.1-.033.09-.113ZM9.34,4.192l.408-.108a.018.018,0,0,0,.01-.009l.131-.4a.014.014,0,0,1,.025,0l.229.354a.012.012,0,0,0,.011.007h.422a.013.013,0,0,1,.01.022l-.266.327a.016.016,0,0,0,0,.013l.129.4a.013.013,0,0,1-.017.017l-.394-.153a.015.015,0,0,0-.013,0L9.68,4.91A.014.014,0,0,1,9.659,4.9l.023-.421a.014.014,0,0,0-.006-.012l-.34-.249A.014.014,0,0,1,9.34,4.192Zm.488,2.965a.463.463,0,1,1,.272-.6A.464.464,0,0,1,9.828,7.157ZM7.258,4.438l.408-.108a.014.014,0,0,0,.009-.009l.132-.4a.013.013,0,0,1,.024,0l.229.355a.015.015,0,0,0,.011.006h.422A.014.014,0,0,1,8.5,4.3l-.267.328a.011.011,0,0,0,0,.012l.129.4a.014.014,0,0,1-.018.017l-.394-.153a.013.013,0,0,0-.012,0L7.6,5.156a.013.013,0,0,1-.021-.012L7.6,4.723a.017.017,0,0,0,0-.012l-.341-.249A.014.014,0,0,1,7.258,4.438Zm.749,2.541.168-1.27A.2.2,0,0,1,8.383,5.5l.845.018a.191.191,0,0,1,.2.2.187.187,0,0,1-.161.191.239.239,0,0,1-.091.01l-.489.075.628,1.834A.474.474,0,0,1,8.946,7.7a1.014,1.014,0,0,0-1.441.171.477.477,0,0,1-.338.209A.419.419,0,0,1,6.851,8ZM5.175,4.684l.408-.108a.011.011,0,0,0,.009-.009l.132-.4a.013.013,0,0,1,.024,0l.229.355a.014.014,0,0,0,.012.006h.422a.014.014,0,0,1,.01.022l-.266.328a.013.013,0,0,0,0,.012l.129.4a.013.013,0,0,1-.017.017L5.87,5.154a.015.015,0,0,0-.013,0L5.515,5.4a.014.014,0,0,1-.022-.011l.024-.422a.014.014,0,0,0-.006-.012l-.34-.249A.013.013,0,0,1,5.175,4.684Zm6.394,3.655a.939.939,0,0,1-.709-.207.535.535,0,0,0-.8.1.947.947,0,0,1-1.351.16.536.536,0,0,0-.806.1.948.948,0,0,1-1.352.16.537.537,0,0,0-.807.095A.943.943,0,0,1,5.1,9.1a.208.208,0,1,1-.049-.414.54.54,0,0,0,.382-.232A.947.947,0,0,1,6.783,8.3a.538.538,0,0,0,.807-.1.946.946,0,0,1,1.351-.159.536.536,0,0,0,.8-.1.945.945,0,0,1,1.35-.159.536.536,0,0,0,.424.136.209.209,0,0,1,.049.415Z" fill="#fff"/>
</svg>
