<svg xmlns="http://www.w3.org/2000/svg" width="5.5mm" height="5.5mm" viewBox="0 0 15.591 15.591">
  <rect width="15.591" height="15.591" rx="7.795" fill="#031E3A"/>
  <g>
    <path d="M12.747,2.392H10.819a.215.215,0,0,0-.215.214V5.123a.215.215,0,0,0,.215.215h.714V7.147a1.011,1.011,0,0,0-.772.881A1.97,1.97,0,0,0,9.493,8L8.434,5.475a.211.211,0,0,0-.044-.418h-1.2a.212.212,0,0,0,0,.423h.791a.165.165,0,0,0,.011.036L8.579,6.91,6.411,9.551,5.074,6.37H5.68a.212.212,0,0,0,0-.423h-1.2a.212.212,0,1,0,0,.423h.142a.215.215,0,0,0,.014.054l.422,1-.52.737a2.054,2.054,0,1,0,1.044,2.006H6.33a.21.21,0,0,0,.181-.076L8.764,7.35l.34.808a2.054,2.054,0,0,0,.986,3.855,2.025,2.025,0,0,0,.654-.117v.218a.237.237,0,0,0,.474,0v-.441a2.05,2.05,0,0,0,0-3.427V8.124a.553.553,0,0,1,1.105,0v3.99a.237.237,0,0,0,.473,0V8.124a1.012,1.012,0,0,0-.789-.977V5.338h.74a.215.215,0,0,0,.215-.215V2.606A.214.214,0,0,0,12.747,2.392Zm-9.206,9.2A1.631,1.631,0,1,1,4.3,8.513l-.93,1.32A.185.185,0,0,0,3.341,10a.181.181,0,0,0,.18.17H5.158A1.63,1.63,0,0,1,3.541,11.59Zm.4-1.842.7-.992a1.623,1.623,0,0,1,.517.992Zm1.642,0a2.05,2.05,0,0,0-.7-1.34l.367-.521.783,1.861ZM10.09,11.59a1.631,1.631,0,0,1-.821-3.039l.587,1.4a.212.212,0,0,0,.39-.164l-.588-1.4a1.62,1.62,0,0,1,1.086.081v2.983A1.62,1.62,0,0,1,10.09,11.59Zm1.631-1.631a1.62,1.62,0,0,1-.5,1.174V8.785A1.623,1.623,0,0,1,11.721,9.959Zm.173-5.9h-.23v.6a.141.141,0,0,1-.14.141H11.34a.141.141,0,0,1-.141-.141V3.093a.14.14,0,0,1,.141-.14h.554a.547.547,0,0,1,.626.557A.553.553,0,0,1,11.894,4.059Z" fill="#fff"/>
    <path d="M11.849,3.327h-.185V3.69h.185c.14,0,.2-.071.2-.18S11.989,3.327,11.849,3.327Z" fill="#fff"/>
  </g>
</svg>
