<svg xmlns="http://www.w3.org/2000/svg" width="5.5mm" height="5.5mm" viewBox="0 0 15.591 15.591">
  <rect width="15.591" height="15.591" rx="7.795" fill="#031E3A"/>
  <path d="M11.638,4.251,7.992,1.637a.336.336,0,0,0-.394,0L3.953,4.251a.2.2,0,0,0,.115.358h.457v9.014a.395.395,0,0,0,.789,0v-.63l2.394-1.437L10.277,13.1v.525a.395.395,0,0,0,.789,0V4.609h.457A.2.2,0,0,0,11.638,4.251ZM5.314,6.263V4.781a.172.172,0,0,1,.172-.172h2.05a.172.172,0,0,1,.172.172V6.263a.172.172,0,0,1-.172.172H5.486A.172.172,0,0,1,5.314,6.263Zm0,5.81V10.119l1.628.977Zm4.963.106L8.474,11.1l1.8-1.082Zm0-3.084L7.708,10.637,5.314,9.2V8.292h4.963Z" fill="#fff"/>
</svg>
