<svg xmlns="http://www.w3.org/2000/svg" width="5.5mm" height="5.5mm" viewBox="0 0 15.591 15.591">
  <rect width="15.591" height="15.591" rx="7.795" fill="#031E3A"/>
  <g>
    <path d="M12.364,10.18a.321.321,0,0,0-.182.062V9.964a.326.326,0,0,0-.652,0v.384c-.4-.039-.77-.262-.77-1.2V7.423l.121.023.056.01a.41.41,0,0,0,.5-.418.424.424,0,0,0-.208-.345c-.368-.242-.733-.489-1.1-.729-.071-.046-.078-.173-.078-.173l-.009-.378a.04.04,0,0,0-.017-.024.045.045,0,0,0-.05,0S8.467,6.774,7.8,7.465c-.027.027-.2.264-.2.264s-3.252.025-3.43.025a4,4,0,0,0-.526.013.86.86,0,0,0-.743.871c0,.455,0,.911,0,1.366,0,.023,0,.046,0,.069h.62V9.984c0-.427,0-.854,0-1.281a.2.2,0,0,1,.025-.1c.082-.131.167-.259.252-.387a.422.422,0,0,1,.039-.045c0,.023.006.035.006.046q0,.809,0,1.616a.17.17,0,0,1-.029.085c-.085.137-.174.271-.258.409a.233.233,0,0,0-.034.111q0,.72,0,1.438c0,.244,0,.489.006.733a.386.386,0,0,0,.466.351.4.4,0,0,0,.315-.416c0-.6,0-1.2,0-1.793a.276.276,0,0,1,.039-.138c.1-.16.2-.317.3-.475.01-.016.023-.032.046-.063,0,.206,0,.393,0,.58a.258.258,0,0,0,.016.1q.415.986.835,1.969a.392.392,0,1,0,.72-.31q-.37-.876-.739-1.754a.108.108,0,0,1,.009-.111c.1-.163.2-.325.287-.491a.11.11,0,0,1,.112-.063c.614,0,1.229,0,1.843,0,.023,0,.046,0,.075,0V11.33c0,.408,0,.816,0,1.224a.394.394,0,1,0,.786-.018q0-1.207,0-2.413a.334.334,0,0,1,.031-.136c.278-.571.558-1.14.835-1.711L9.641,8l.3-.606c.06-.119.06-.119.192-.094s.27.052.4.078V9.147c0,.882.335,1.329.987,1.4v2.1a.326.326,0,0,0,.652,0V10.788a.328.328,0,0,0,.182.061.335.335,0,0,0,0-.669Z" fill="#fff"/>
    <path d="M12.9,4.737,8.019,1.812a.435.435,0,0,0-.446,0L2.692,4.737a.434.434,0,1,0,.446.745L7.8,2.691l4.656,2.791a.434.434,0,0,0,.447-.745Z" fill="#fff"/>
  </g>
</svg>
