<svg xmlns="http://www.w3.org/2000/svg" width="5.5mm" height="5.5mm" viewBox="0 0 15.591 15.591">
  <rect width="15.591" height="15.591" rx="7.795" fill="#031E3A"/>
  <g>
    <path d="M10.355,11.988H9.228V6.573A.563.563,0,0,0,9.242,6.5a.542.542,0,0,0-.014-.07V6.357H9.212A.531.531,0,0,0,8.7,5.966H5.649a.538.538,0,1,0,0,1.075h.712v4.947H5.236a.538.538,0,1,0,0,1.075h5.119a.538.538,0,0,0,0-1.075Z" fill="#fff"/>
    <path d="M7.8,4.805A1.426,1.426,0,1,0,6.369,3.379,1.426,1.426,0,0,0,7.8,4.805Z" fill="#fff"/>
  </g>
</svg>
