<svg xmlns="http://www.w3.org/2000/svg" width="5.5mm" height="5.5mm" viewBox="0 0 15.591 15.591">
  <rect width="15.591" height="15.591" rx="7.795" fill="#031E3A"/>
  <g>
    <path d="M10.434,9.572l1.834,1.834a5.743,5.743,0,0,0,.016-7.184L10.438,6.068A3.15,3.15,0,0,1,10.434,9.572Z" fill="#fff"/>
    <path d="M5.1,6.155c.016-.03.04-.059.058-.089L3.317,4.224c-.031.041-.07.077-.1.119a5.777,5.777,0,0,0,.1,7.08L5.16,9.578A3.148,3.148,0,0,1,5.1,6.155Z" fill="#fff"/>
    <path d="M9.552,10.459c-.03.02-.057.051-.087.069a3.132,3.132,0,0,1-3.42-.067L4.2,12.306a5.749,5.749,0,0,0,7.073.1c.041-.03.08-.072.12-.1Z" fill="#fff"/>
    <path d="M6.047,5.185a3.111,3.111,0,0,1,3.508,0L11.4,3.337a5.738,5.738,0,0,0-7.189.013Z" fill="#fff"/>
  </g>
</svg>
