<svg xmlns="http://www.w3.org/2000/svg" width="5.5mm" height="5.5mm" viewBox="0 0 15.591 15.591">
  <rect width="15.591" height="15.591" rx="7.795" fill="#031E3A"/>
  <path d="M7.989,2.065a4.9,4.9,0,0,0-4.9,4.9c0,3.873,4.864,7.513,4.864,7.513s4.936-3.64,4.936-7.513A4.9,4.9,0,0,0,7.989,2.065Zm3.479,5.588h-.6l-.372.651a.327.327,0,0,1-.321.173.345.345,0,0,1-.3-.209L9.43,7.229l-.162.343a.347.347,0,0,1-.313.2H8.137l-.7,1.292a.347.347,0,0,1-.3.18.436.436,0,0,1-.051,0,.347.347,0,0,1-.288-.274l-.476-2.31-.4.977a.347.347,0,0,1-.321.216H4.438a.347.347,0,0,1,0-.693h.926L6.1,5.336a.343.343,0,0,1,.352-.215.346.346,0,0,1,.308.275l.516,2.5.35-.642a.346.346,0,0,1,.3-.18h.8l.4-.842a.325.325,0,0,1,.319-.2.347.347,0,0,1,.312.21l.473,1.109.127-.221a.346.346,0,0,1,.3-.174h.8a.346.346,0,1,1,0,.692Z" fill="#fff"/>
</svg>
