<svg xmlns="http://www.w3.org/2000/svg" width="5.5mm" height="5.5mm" viewBox="0 0 15.591 15.591">
  <rect width="15.591" height="15.591" rx="7.795" fill="#031E3A"/>
  <path d="M13.009,6.5,7.665,2.15a.294.294,0,0,0-.374,0L1.968,6.527a.173.173,0,0,0,.11.306l1.394,0,.013,5.543a.2.2,0,0,0,.2.2l.888,0,2.568-.006h.724l2.567-.006.888,0a.2.2,0,0,0,.2-.2L11.507,6.81l1.394,0A.172.172,0,0,0,13.009,6.5Zm-3.738,3a.917.917,0,0,1-1.147-.185l-.447.259,0,1.314a.1.1,0,0,1-.1.1h-.16a.1.1,0,0,1-.1-.1l0-1.314-.448-.257a.916.916,0,0,1-1.146.19,4.51,4.51,0,0,1-1.154-1.72,4.525,4.525,0,0,1,2.068.129A.918.918,0,0,1,7.047,9l.266.153,0-1.373a.918.918,0,0,1-.738-.9,4.524,4.524,0,0,1,.913-1.86,4.519,4.519,0,0,1,.922,1.856.918.918,0,0,1-.734.9l0,1.373L7.942,9A.918.918,0,0,1,8.35,7.914a4.517,4.517,0,0,1,2.067-.139A4.506,4.506,0,0,1,9.271,9.5Z" fill="#fff"/>
</svg>
