<svg xmlns="http://www.w3.org/2000/svg" width="5.5mm" height="5.5mm" viewBox="0 0 15.591 15.591">
  <rect width="15.591" height="15.591" rx="7.795" fill="#031E3A"/>
  <g>
    <path d="M13.557,8.744s-1.62-2.809-1.639-2.839a.058.058,0,0,1,.047-.089H12.6a.207.207,0,0,0,.18-.311L10.891,2.228a.207.207,0,0,0-.359,0L8.64,5.505a.207.207,0,0,0,.18.311h.64a.06.06,0,0,1,.05.081L7.866,8.744a.208.208,0,0,0,.18.312h2.073a.2.2,0,0,1,.2.2v2.17a.393.393,0,0,0,.785,0V9.264a.208.208,0,0,1,.208-.208h2.065A.208.208,0,0,0,13.557,8.744Z" fill="#fff"/>
    <path d="M7.545,7.463,6.519,6.971Q6.2,6.211,5.878,5.45a.552.552,0,0,0-.121-.2.566.566,0,0,0-.206-.14.579.579,0,0,0-.34-.024.585.585,0,0,0-.249.124L3.686,5.86l-.188.1a.269.269,0,0,0-.088.064.308.308,0,0,0-.046.076,1.2,1.2,0,0,0-.063.154c-.022.069-.143.364-.492,1.17a.411.411,0,0,0-.037.106.356.356,0,0,0,0,.146.335.335,0,0,0,.31.258.337.337,0,0,0,.2-.064A.36.36,0,0,0,3.4,7.733l.516-1.254c.249-.128.156-.059.39-.121-.244,1.36-.359,1.894-.661,3.256-.437.564-.74,1.017-1.177,1.581a.383.383,0,0,0-.067.194.4.4,0,0,0,.055.228.388.388,0,0,0,.452.179.419.419,0,0,0,.21-.149c.438-.568.84-.886,1.278-1.454l.6-.652c.372.227.236.135.646.371.052.549.19.892.242,1.44a.455.455,0,0,0,.018.164.422.422,0,0,0,.118.2.381.381,0,0,0,.553-.031.37.37,0,0,0,.106-.218.341.341,0,0,0,0-.082L6.5,9.534a.465.465,0,0,0-.021-.107.45.45,0,0,0-.07-.13L5.532,8.2c.057-.441.135-.717.2-1.17l.116.155.086.115A.371.371,0,0,0,6,7.421a.36.36,0,0,0,.112.091l1.139.531a.354.354,0,0,0,.225,0,.334.334,0,0,0,.145-.1.326.326,0,0,0,.067-.158.332.332,0,0,0-.027-.185A.314.314,0,0,0,7.545,7.463Z" fill="#fff"/>
    <path d="M5.759,4.877a.765.765,0,1,0-.765-.764A.764.764,0,0,0,5.759,4.877Z" fill="#fff"/>
  </g>
</svg>
