<svg xmlns="http://www.w3.org/2000/svg" width="5.5mm" height="5.5mm" viewBox="0 0 15.591 15.591">
  <rect width="15.591" height="15.591" rx="7.795" fill="#031E3A"/>
  <path d="M10.81,8.8A5.678,5.678,0,0,0,12.2,6.223a.131.131,0,0,0-.161-.161A5.676,5.676,0,0,0,9.469,7.454a5.527,5.527,0,0,0-1.315,2.3v-.79a.84.84,0,0,0,0-1.542v-.1a5.661,5.661,0,0,0,2.631-1.405,5.681,5.681,0,0,0,1.392-2.572.132.132,0,0,0-.161-.162A5.693,5.693,0,0,0,9.443,4.57,5.034,5.034,0,0,0,8.5,5.912a4.967,4.967,0,0,0,.264-1.545,5.682,5.682,0,0,0-.835-2.8.131.131,0,0,0-.228,0,5.684,5.684,0,0,0-.834,2.8,4.98,4.98,0,0,0,.263,1.546,5.023,5.023,0,0,0-.94-1.343A5.693,5.693,0,0,0,3.62,3.177a.132.132,0,0,0-.161.162A5.681,5.681,0,0,0,4.851,5.911,5.657,5.657,0,0,0,7.482,7.316v.1a.839.839,0,0,0,0,1.54v.79a5.53,5.53,0,0,0-1.315-2.3A5.676,5.676,0,0,0,3.6,6.062a.132.132,0,0,0-.161.161A5.678,5.678,0,0,0,4.826,8.8a5.68,5.68,0,0,0,2.656,1.411v.627a.83.83,0,0,0-.72-.431.842.842,0,1,0,0,1.684.831.831,0,0,0,.72-.432v2.126a.336.336,0,0,0,.672,0V11.655a.831.831,0,0,0,.72.432.842.842,0,0,0,0-1.684.829.829,0,0,0-.72.432v-.628A5.675,5.675,0,0,0,10.81,8.8Z" fill="#fff"/>
</svg>
