<?xml version="1.0" encoding="UTF-8"?>
<svg id="ICONS" xmlns="http://www.w3.org/2000/svg" viewBox="0 0 15.59 15.59">
  <defs>
    <style>
      .cls-1 {
        fill: #031E3A;
      }

      .cls-1, .cls-2 {
        stroke-width: 0px;
      }

      .cls-2 {
        fill: #fff;
      }
    </style>
  </defs>
  <rect class="cls-1" x="0" y="0" width="15.59" height="15.59" rx="7.8" ry="7.8"/>
  <path class="cls-2" d="m10.72,10.68c-.23,0-.43-.18-.45-.41-.02-.25.17-.46.41-.48.49-.04.94-.23,1.25-.54.18-.18.46-.17.64,0,.17.18.17.46,0,.64-.47.46-1.11.75-1.81.8-.01,0-.02,0-.04,0Zm-1.72-.42c-.08,0-.17-.02-.24-.07-.57-.36-.99-.9-1.22-1.54-.09-.23.04-.49.27-.58.23-.08.49.04.58.27.17.46.46.83.86,1.09.21.13.27.41.14.62-.09.13-.23.21-.38.21Zm-6.34-.45c-.25,0-.45-.2-.45-.45v-1.34c0-.25.2-.45.45-.45s.45.2.45.45v1.34c0,.25-.2.45-.45.45Zm10.26-1.42s-.02,0-.02,0c-.25-.01-.44-.23-.42-.47v-1.68c0-.25.2-.45.45-.45s.45.2.45.45v1.57c0,.06,0,.11,0,.17-.01.24-.21.42-.45.42Zm-5.44-1.17c-.16,0-.32-.09-.4-.24-.22-.42-.57-.75-1.01-.95-.23-.1-.33-.37-.22-.6.1-.23.37-.32.6-.22.62.29,1.12.75,1.43,1.35.12.22.03.49-.19.61-.07.03-.14.05-.21.05Zm-4.39-.45c-.09,0-.18-.03-.26-.08-.2-.14-.25-.43-.11-.63.39-.54.99-.93,1.68-1.07.24-.05.48.1.53.35.05.24-.1.48-.35.53-.34.07-.81.26-1.14.72-.09.12-.23.19-.37.19Z"/>
</svg>