<?xml version="1.0" encoding="UTF-8"?><svg id="Lag_1" xmlns="http://www.w3.org/2000/svg" viewBox="0 0 800 800"><defs><style>.cls-1{fill:#fff;}.cls-2{fill:#004a98;}</style></defs><rect class="cls-2" width="800" height="800"/><g><path class="cls-1" d="m213.16,440.08c-1.34-3.04-4.36-5.01-7.69-5.01h-64.11l82.01-84.03c2.36-2.42,3.04-6.01,1.73-9.13s-4.36-5.14-7.74-5.14h-54.68l65.57-80.58c2.05-2.51,2.46-5.98,1.08-8.91-1.4-2.93-4.35-4.79-7.59-4.79h-32.87l64.41-74.9,64.42,74.9h-32.86c-3.1,0-5.95,1.71-7.41,4.44-1.46,2.74-1.29,6.06.44,8.63l54.4,81.16h-49.73c-4.64,0-8.4,3.76-8.4,8.4s3.76,8.4,8.4,8.4h65.47c3.1,0,5.95-1.71,7.41-4.44,1.46-2.74,1.29-6.06-.44-8.63l-54.4-81.16h35.42c3.28,0,6.26-1.91,7.64-4.89,1.37-2.98.87-6.49-1.27-8.98l-82.14-95.5c-1.59-1.86-3.92-2.92-6.37-2.92h-1.17c-2.45,0-4.78,1.06-6.37,2.92l-82.14,95.5c-2.14,2.49-2.64,6-1.27,8.98,1.38,2.98,4.36,4.89,7.64,4.89h33.51l-65.57,80.58c-2.05,2.51-2.46,5.98-1.08,8.91,1.4,2.93,4.35,4.79,7.59,4.79h52.41l-82.01,84.03c-2.36,2.42-3.04,6.01-1.73,9.13s4.36,5.14,7.74,5.14h65l-70.64,77.34c-3.13,3.42-2.89,8.74.54,11.87,1.61,1.47,3.64,2.2,5.66,2.2,2.28,0,4.54-.92,6.2-2.73l83.49-91.41c2.25-2.46,2.83-6.01,1.49-9.05Z"/><path class="cls-1" d="m682.39,585.35c-4.13-2.1-9.19-.46-11.3,3.67l-6.01,11.79-242.12-290.94c-1.6-1.92-3.97-3.03-6.46-3.03h-.77c-2.46,0-4.8,1.08-6.4,2.96l-247.52,291.05-6.03-11.84c-2.1-4.13-7.16-5.77-11.3-3.67-4.13,2.1-5.78,7.16-3.67,11.3l26.37,51.76c1.48,2.91,4.43,4.59,7.49,4.59,1.28,0,2.58-.3,3.8-.92,4.13-2.1,5.78-7.16,3.67-11.3l-12.08-23.71,76.93-90.47v126.39h338.21v-121.88l71.56,85.99-12.07,23.68c-2.11,4.14-.46,9.19,3.67,11.3,1.22.62,2.52.92,3.8.92,3.06,0,6.01-1.68,7.49-4.59l26.37-51.76c2.11-4.14.46-9.19-3.67-11.3Zm-113.96,50.85h-143.91v-188.01c0-4.64-3.76-8.4-8.4-8.4s-8.4,3.76-8.4,8.4v188.01h-143.91v-129.34l152.24-179.02,152.37,183.1v125.27Z"/><path class="cls-1" d="m611.18,360.69c10.14,0,20.25-1.78,30.03-5.28,3.24-1.16,5.44-4.17,5.56-7.61.13-3.43-1.86-6.6-5.01-7.98-27.11-11.93-44.62-38.75-44.62-68.3s17.52-56.38,44.62-68.32c3.15-1.39,5.13-4.55,5.01-7.99-.12-3.44-2.33-6.45-5.57-7.61-9.81-3.49-19.91-5.27-30.01-5.27-49.18,0-89.19,40.01-89.19,89.19s40.01,89.18,89.19,89.18Zm0-161.57c1.52,0,3.05.05,4.57.15-22.01,17.08-35.42,43.61-35.42,72.24s13.4,55.15,35.42,72.23c-1.52.1-3.05.15-4.58.15-39.92,0-72.39-32.47-72.39-72.38s32.48-72.39,72.39-72.39Z"/></g></svg>