<?xml version="1.0" encoding="UTF-8"?><svg id="Lag_1" xmlns="http://www.w3.org/2000/svg" viewBox="0 0 800 800"><defs><style>.cls-1{fill:#fff;}.cls-2{fill:#004a98;}</style></defs><rect class="cls-2" width="800" height="800"/><g><path class="cls-1" d="m474.2,319.01h-19.91v-29.99c0-13.79-11.22-25.01-25.01-25.01h-19.53v-25.88l66.86,3.61c.77.03,1.53.05,2.29.05,12.17,0,23.61-4.62,32.44-13.13,9.38-9.05,14.45-21.21,14.3-34.25-.16-13.03-5.53-25.06-15.11-33.89-9.59-8.83-22.07-13.15-35.12-12.25l-83.19,6.79c-7.85-5.09-17.19-8.08-27.22-8.08s-19.37,2.99-27.22,8.08l-83.28-6.79c-13.06-.94-25.45,3.43-35.03,12.25-9.59,8.83-14.95,20.86-15.11,33.89-.15,13.03,4.92,25.19,14.3,34.25,8.83,8.52,20.27,13.13,32.48,13.13.77,0,1.53-.02,2.31-.06l67.57-3.65v25.92h-22.62c-13.79,0-25.01,11.22-25.01,25.01v29.99h-70.34c-4.62,0-8.36,3.74-8.36,8.36s3.74,8.36,8.36,8.36h126.34c4.62,0,8.36-3.74,8.36-8.36s-3.74-8.36-8.36-8.36h-39.28v-29.99c0-4.57,3.72-8.3,8.3-8.3h130.9c4.57,0,8.3,3.72,8.3,8.3v29.99h-36.18c-4.62,0-8.36,3.74-8.36,8.36s3.74,8.36,8.36,8.36h72.81c63.09,0,114.42,51.33,114.42,114.42v9.61h-80.88v-9.61c0-18.49-15.04-33.53-33.53-33.53h-38.07c-2.56,0-4.98,1.17-6.56,3.18-14.33,18.16-35.76,28.58-58.78,28.58s-44.44-10.42-58.78-28.58c-1.58-2.01-4-3.18-6.56-3.18h-102.44c-4.62,0-8.36,3.74-8.36,8.36s3.74,8.36,8.36,8.36h98.5c17.46,20.24,42.48,31.76,69.28,31.76s51.81-11.52,69.28-31.76h34.13c9.27,0,16.82,7.55,16.82,16.82v17.97c0,4.62,3.74,8.36,8.36,8.36h97.6c4.62,0,8.36-3.74,8.36-8.36v-17.97c0-72.3-58.83-131.13-131.13-131.13Zm2.47-154.06c8.46-.57,16.37,2.21,22.53,7.88,6.16,5.67,9.61,13.41,9.71,21.79.1,8.38-3.17,16.2-9.2,22.02s-13.98,8.85-22.27,8.41l-68.5-3.7c3.96-7.17,6.23-15.41,6.23-24.16,0-9.77-2.85-18.87-7.7-26.59l69.19-5.65Zm-78.21,32.24c0,18.46-15.02,33.48-33.48,33.48s-33.48-15.02-33.48-33.48,15.02-33.49,33.48-33.49,33.48,15.02,33.48,33.49Zm-145.9,27.86c-8.16.44-16.29-2.58-22.32-8.41-6.03-5.82-9.3-13.64-9.2-22.02.1-8.38,3.55-16.12,9.71-21.79,6.17-5.67,14.23-8.48,22.44-7.88l69.28,5.66c-4.85,7.72-7.7,16.82-7.7,26.59,0,8.76,2.27,16.99,6.23,24.16l-68.44,3.7Zm85.14,14.22c7.86,5.11,17.22,8.11,27.27,8.11s20.03-3.17,28.05-8.58v25.21h-55.32v-24.74Z"/><path class="cls-1" d="m550.6,490.91c-2.64,0-4.87,1.03-6.49,2.92-1.81,2.12-44.49,52.61-44.49,108.34,0,28.03,22.81,50.84,50.84,50.84s50.84-22.8,50.84-50.84c0-52.13-42.51-105.86-44.32-108.12-1.55-1.94-3.9-3.09-6.39-3.13Zm-.14,145.38c-18.82,0-34.13-15.31-34.13-34.13,0-37.07,22.5-73.06,33.96-88.96,11.43,16.56,34.29,54.05,34.29,88.96,0,18.82-15.31,34.13-34.13,34.13Z"/></g></svg>