<?xml version="1.0" encoding="UTF-8"?><svg id="Lag_1" xmlns="http://www.w3.org/2000/svg" viewBox="0 0 800 800"><defs><style>.cls-1{fill:#fff;}.cls-2{fill:#004a98;}</style></defs><rect class="cls-2" width="800" height="800"/><g><path class="cls-1" d="m681.16,437.57l-80.28-84.04h51.31c3.17,0,6.06-1.86,7.43-4.79,1.36-2.93.95-6.4-1.05-8.91l-64.19-80.58h32.81c3.21,0,6.13-1.91,7.48-4.89,1.34-2.99.85-6.49-1.24-8.99l-80.41-95.52c-1.56-1.85-3.83-2.92-6.23-2.92h-1.14c-2.4,0-4.67,1.07-6.23,2.92l-80.41,95.52c-2.1,2.49-2.58,6-1.24,8.99,1.35,2.98,4.26,4.89,7.48,4.89h33.18l-61.98,80.65c-1.95,2.53-2.3,5.97-.93,8.86s4.24,4.73,7.39,4.73h78c4.54,0,8.22-3.76,8.22-8.4s-3.68-8.4-8.22-8.4h-61.09l61.98-80.65c1.95-2.53,2.3-5.97.93-8.86s-4.24-4.73-7.39-4.73h-32.17l63.06-74.91,63.07,74.91h-32.18c-3.17,0-6.06,1.86-7.43,4.79-1.36,2.93-.95,6.4,1.05,8.91l64.19,80.58h-53.53c-3.31,0-6.29,2.02-7.58,5.14s-.62,6.71,1.69,9.13l80.28,84.04h-62.77c-4.54,0-8.22,3.76-8.22,8.4s3.68,8.4,8.22,8.4h82.28c3.31,0,6.29-2.02,7.58-5.14,1.28-3.11.62-6.71-1.69-9.13Z"/><path class="cls-1" d="m619.5,583.42H132.95v-44.16h100.07v21.26h16.44v-78.06c0-16.89,13.46-30.63,29.99-30.63h246.45c16.53,0,29.98,13.74,29.98,30.63v78.06h16.44v-78.06c0-26.15-20.82-47.43-46.43-47.43h-246.45c-23.74,0-43.35,18.3-46.08,41.82.01-.42.06-.83.06-1.26,0-26.15-20.82-47.43-46.43-47.43s-46.43,21.28-46.43,47.43c0,23.81,17.28,43.51,39.69,46.87h-47.32v-172.97l215.53-67.98c4.34-1.37,6.77-6.07,5.43-10.51-1.35-4.43-5.94-6.9-10.29-5.55l-227.12,71.64v263.12h34.17v52.85h72.67v-52.85h114.48v52.85h72.67v-52.85h114.48v52.85h72.67v-52.85h21.84c4.54,0,8.22-3.76,8.22-8.4s-3.68-8.4-8.22-8.4Zm-462.48-107.83c0-16.89,13.46-30.64,29.99-30.64s29.98,13.75,29.98,30.64-13.45,30.63-29.98,30.63-29.99-13.74-29.99-30.63Zm76.06,5.61c-.01.42-.06.83-.06,1.26v40.01h-39.27c20.62-3.09,36.86-20.02,39.33-41.26Zm-26.18,155.07h-39.78v-33.25h39.78v33.25Zm187.16,0h-39.78v-33.25h39.78v33.25Zm187.16,0h-39.78v-33.25h39.78v33.25Z"/></g></svg>