<?xml version="1.0" encoding="UTF-8"?><svg id="Lag_1" xmlns="http://www.w3.org/2000/svg" viewBox="0 0 800 800"><defs><style>.cls-1{fill:#fff;}.cls-2{fill:#004a98;}</style></defs><rect class="cls-2" width="800" height="800"/><g><path class="cls-1" d="m674.75,635.49h-25.83v-47.43c18.88-9.58,31.93-29.5,31.93-52.54V222.7c0-22.61-12.89-43.43-32.81-53.05l-4.18-2.02s-.01,0-.01,0c-56.97-27.49-213.93-27.5-270.92,0l-4.16,2.02c-19.94,9.62-32.82,30.44-32.82,53.05v312.82c0,22.88,12.86,42.68,31.53,52.34v47.62h-79.77v-60.93c0-4.84-3.75-8.76-8.39-8.76h-145.68v-235.64l132.49-80.67c4-2.43,5.36-7.8,3.02-11.98-2.34-4.19-7.49-5.61-11.47-3.15l-136.65,83.2c-2.58,1.57-4.16,4.45-4.16,7.56v319.12c0,4.84,3.75,8.76,8.39,8.76h549.49c4.64,0,8.39-3.92,8.39-8.76s-3.75-8.76-8.39-8.76ZM352.72,250.68h311.35v181.62h-311.35v-181.62Zm23.09-65.14l4.16-2.02c26.41-12.75,77.41-19.12,128.43-19.12s101.99,6.37,128.38,19.1l4.19,2.03c14.02,6.77,23.09,21.35,23.09,37.16v10.47h-311.35v-10.47c0-15.8,9.06-30.39,23.09-37.16Zm-23.09,349.98v-85.7h311.35v85.7c0,22.68-18.12,41.12-40.38,41.12h-230.59c-22.26,0-40.37-18.45-40.37-41.12Zm209.97,58.64v41.33h-108.99v-41.33h108.99Zm-429.05-10.85h137.29v52.17h-137.29v-52.17Zm250.61,52.17v-42.1c2.89.46,5.83.78,8.84.78h43.82v41.33h-52.67Zm195.21,0v-41.33h44.22c2.88,0,5.69-.29,8.45-.71v42.04h-52.67Z"/><path class="cls-1" d="m571.31,522.12h34.7c4.64,0,8.39-3.92,8.39-8.76s-3.75-8.76-8.39-8.76h-34.7c-4.64,0-8.39,3.92-8.39,8.76s3.75,8.76,8.39,8.76Z"/><path class="cls-1" d="m410.78,522.12h34.7c4.64,0,8.39-3.92,8.39-8.76s-3.75-8.76-8.39-8.76h-34.7c-4.64,0-8.39,3.92-8.39,8.76s3.75,8.76,8.39,8.76Z"/></g></svg>