<?xml version="1.0" encoding="UTF-8"?><svg id="Lag_1" xmlns="http://www.w3.org/2000/svg" viewBox="0 0 800 800"><defs><style>.cls-1{fill:#fff;}.cls-2{fill:#004a98;}</style></defs><rect class="cls-2" width="800" height="800"/><g><path class="cls-1" d="m347.9,565.57c-23.89,0-43.33,19.44-43.33,43.33s19.44,43.09,43.33,43.09,43.09-19.33,43.09-43.09-19.33-43.33-43.09-43.33Zm0,69.71c-14.67,0-26.62-11.83-26.62-26.38s11.94-26.62,26.62-26.62,26.38,11.94,26.38,26.62-12.08,26.38-26.38,26.38Z"/><path class="cls-1" d="m539.18,565.57c-23.76,0-43.09,19.44-43.09,43.33s19.33,43.09,43.09,43.09,43.34-19.33,43.34-43.09-19.45-43.33-43.34-43.33Zm0,69.71c-14.3,0-26.38-12.08-26.38-26.38s11.83-26.62,26.38-26.62,26.63,11.94,26.63,26.62-11.95,26.38-26.63,26.38Z"/><path class="cls-1" d="m650.06,255.48c-1.58-1.91-3.94-3.01-6.42-3.01H248.22l-11.74-82.34c-1.8-12.62-12.76-22.13-25.5-22.13h-54.61c-4.62,0-8.36,3.74-8.36,8.36s3.74,8.36,8.36,8.36h54.61c4.47,0,8.32,3.34,8.96,7.77l47.85,335.56c1.8,12.61,12.76,22.12,25.5,22.12h298.25c4.62,0,8.36-3.74,8.36-8.36s-3.74-8.36-8.36-8.36h-298.25c-4.47,0-8.32-3.34-8.96-7.77l-6.45-45.22h316.28c12.44,0,23.09-8.88,25.34-21.13l32.37-177.02c.44-2.44-.22-4.95-1.81-6.85Zm-47.01,180.86c-.79,4.3-4.52,7.42-8.89,7.42h-318.66l-24.9-174.57h383.01l-30.57,167.15Z"/></g></svg>