<?xml version="1.0" encoding="UTF-8"?><svg id="Lag_1" xmlns="http://www.w3.org/2000/svg" viewBox="0 0 800 800"><defs><style>.cls-1{fill:#fff;}.cls-2{fill:#004a98;}</style></defs><rect class="cls-2" width="800" height="800"/><g><path class="cls-1" d="m554.16,572.51c-2.87-21.22-7.66-56.73-7.66-132.01V177.3c0-17.36-11.21-28.57-28.57-28.57-13.84,0-34.71,10.85-47.8,34.69-14.69,26.77-21.04,89.38-21.26,209.37v6.71c-.02,3.34,1.97,6.36,5.05,7.68l6.16,2.63c14.88,6.34,20.16,20.5,20.16,30.7,0,75.15-9.99,110.41-15.96,131.47-2.96,10.42-5.29,18.65-5.29,27.18,0,25.91,16.76,52.13,48.81,52.13s48.82-26.46,48.82-52.61c0-7.93-1.02-15.53-2.46-26.16Zm-46.36,62.11c-25.38,0-32.16-22.3-32.16-35.47,0-6.21,1.96-13.1,4.67-22.63,6.2-21.9,16.58-58.55,16.58-136.02,0-15.27-7.93-36.49-30.28-46.02l-1.09-.46v-1.2c.2-113.88,6.31-177.87,19.21-201.38,11.68-21.26,28.29-26.05,33.19-26.05,8.13,0,11.91,3.79,11.91,11.92v263.19c0,76.41,4.89,112.61,7.83,134.35,1.33,9.88,2.3,17.01,2.3,23.83,0,13.35-6.78,35.95-32.17,35.95Z"/><path class="cls-1" d="m352.93,148.73c-7.9,0-15.06,3.23-20.24,8.44-5.18-5.21-12.34-8.44-20.24-8.44s-15.07,3.23-20.25,8.44c-5.18-5.21-12.34-8.44-20.25-8.44-15.75,0-28.57,12.82-28.57,28.57v80.98c0,49.48,10.18,73.41,41.5,95.49-.33,87.56-10.5,160.42-16.61,204.23-2.79,20.03-4.64,33.27-4.64,40.83,0,34.43,24.56,52.45,48.82,52.45s48.81-18.02,48.81-52.45c0-7.56-1.85-20.79-4.64-40.83-6.11-43.82-16.28-116.67-16.61-204.23,31.31-22.07,41.5-46,41.5-95.49v-80.98c0-15.75-12.82-28.57-28.57-28.57Zm11.92,109.55c0,50.47-11.66,66.75-37.79,84.18-2.32,1.54-3.71,4.15-3.71,6.93,0,90.67,10.5,165.94,16.77,210.92,2.51,17.94,4.49,32.12,4.49,38.52,0,24.59-16.67,35.79-32.16,35.79s-32.17-11.2-32.17-35.79c0-6.4,1.98-20.58,4.49-38.52,6.27-44.98,16.77-120.25,16.77-210.92,0-2.78-1.39-5.39-3.71-6.93-26.13-17.43-37.79-33.72-37.79-84.18v-80.98c0-6.57,5.35-11.92,11.92-11.92s11.92,5.35,11.92,11.92v80.98c0,4.6,3.72,8.33,8.33,8.33s8.33-3.72,8.33-8.33v-80.98c0-6.57,5.35-11.92,11.92-11.92s11.92,5.35,11.92,11.92v80.98c0,4.6,3.72,8.33,8.33,8.33s8.33-3.72,8.33-8.33v-80.98c0-6.57,5.34-11.92,11.91-11.92s11.92,5.35,11.92,11.92v80.98Z"/></g></svg>