<?xml version="1.0" encoding="UTF-8"?><svg id="Lag_1" xmlns="http://www.w3.org/2000/svg" viewBox="0 0 800 800"><defs><style>.cls-1{fill:#fff;}.cls-2{fill:#004a98;}</style></defs><rect class="cls-2" width="800" height="800"/><g><path class="cls-1" d="m557.37,320.78c-4.28-2.02-5.09-4.71-5-8.39.52-21.03.84-42.41,1.14-63.1.09-6.4-3.07-10.29-8.45-10.43-2.55-.09-4.54.63-6.09,2.06-1.93,1.78-2.98,4.61-3.04,8.17l-.27,15.69c-.28,16.28-.56,32.56-.73,48.84-.04,3.7-1.53,5.69-5.14,6.88l-5.15,1.69c-13.19,4.32-26.82,8.79-40.06,13.61-10.26,3.73-18.08,1.86-25.35-6.08-10.37-11.34-21.11-22.72-31.5-33.72-8.53-9.05-17.07-18.09-25.51-27.22-9.2-9.95-20.03-14.84-33.1-14.93-2.41-.02-4.83-.05-7.24-.08-6.93-.1-14.09-.19-21.09.1-41.92,1.79-79.74,30-91.97,68.62-5.8,18.34-11.9,37.96-18.62,59.97l-.36,1.17c-1.24,4.01-2.51,8.16-2.75,12.2-.48,7.66,2.25,14.87,7.68,20.29,6.15,6.13,15.39,9.6,25.24,9.32,7.07-.14,14.21-.11,21.13-.07,3.12.02,6.22.03,9.3.03h.92l.49.74c.14.22.26.38.36.51.27.35.6.78.65,1.4.9,10.61,4.27,19.65,10.32,27.62,1.34,1.77,1.1,4.49.94,5.58-3.79,24.22-7.63,48.42-11.6,72.61-.61,3.72-1.24,7.51-3.28,10.38-12.43,17.5-26.1,36.34-41.79,57.58-5.63,7.62-7.07,16.94-3.95,25.57,3.08,8.54,10.13,14.94,19.33,17.55,11.57,3.28,23.72-.59,30.9-9.88,5.01-6.48,9.98-12.99,14.94-19.49,8.98-11.76,18.25-23.91,27.64-35.69,9.33-11.68,15.95-23,20.24-34.62,2.94-7.95,6.38-15.86,9.72-23.5,1.41-3.25,2.83-6.49,4.21-9.75.45-1.06.95-2.12,1.53-3.33l1.64-3.48,1.66,1.14c4.03,2.78,8,5.55,11.94,8.29,9.99,6.95,19.43,13.51,29.19,19.97,5.6,3.71,9.35,8.5,11.78,15.07,7.37,19.89,11,40.83,14.52,61.08,1.13,6.51,2.26,13.02,3.51,19.5,1.95,10.07,6.18,20.61,22.82,22.42,18.7,2.03,29.39-5.05,31.64-21.07.49-3.45.66-6.19.56-8.64-.15-3.58-.28-7.16-.41-10.75-.38-10.35-.76-21.06-1.83-31.49-2.03-19.83-4.88-39.92-7.65-59.36-1.16-8.13-4.9-14.85-11.49-20.9-17.28-15.82-34.68-32.09-51.51-47.81-9.94-9.3-19.89-18.59-29.87-27.86-2.81-2.62-3.71-5.28-2.99-8.89,1.46-7.36,2.78-14.74,4.11-22.12l5.87-32,12.36,9.9c7.54,6.05,14.83,11.91,22.2,17.67,10.64,8.31,22.52,10.79,35.33,7.36,6.89-1.84,13.77-4.32,20.41-6.72,3.31-1.19,6.61-2.38,9.94-3.51,5.75-1.94,11.51-3.85,17.53-5.84l10.76-3.57v4.65c.02,1.58.03,2.94-.01,4.29-.11,3.3-.24,6.6-.37,9.89-.23,5.61-.45,11.23-.55,16.84-.86,47.49-1.69,94.99-2.51,142.48l-.76,44.45c-.21,12.75-.42,25.5-.65,38.25-.07,3.91,1.29,6.45,4.29,7.98,3.19,1.62,6.41,1.53,9.59-.27,3.18-1.81,3.86-4.73,3.93-8.85.22-13.88.45-27.77.68-41.65l2.93-187.09c.17-8.99.33-17.98.36-26.97.01-5.15.64-10.85,7.93-13.22,1.54-.5,3.01-1.54,4.51-2.65,6.99-5.15,10.34-12.74,9.43-21.36-1.01-9.77-7.36-19.26-15.44-23.06Zm-258.86,69.56c-1.05,5.52-2.09,11.05-3.17,16.57l-.25,1.31h-1.38c-3.9,0-7.77.02-11.61.05-3.86.02-7.63.05-11.36.05-5.24,0-10.4-.05-15.63-.22-3.58-.12-6.45-1.48-8.29-3.93-2.2-2.93-2.65-7.07-1.24-11.64,3.46-11.22,6.94-22.43,10.42-33.64,3.19-10.27,6.38-20.53,9.55-30.81,3.21-10.37,8.42-19.71,15.5-27.77,12.62-14.36,28.44-23.47,48.36-27.86l3.31-.73-1.42,2.96c-17.9,37.09-25.46,77.03-32.78,115.65Zm55.94,114.65c-6.4,15.44-12.84,30.87-19.33,46.28-.79,1.88-1.83,3.69-3.03,5.25-17.12,22.36-34.28,44.7-51.46,67.02-2.84,3.7-6.17,5.58-9.69,5.58-1.8,0-3.66-.5-5.52-1.49-2.86-1.53-4.81-3.91-5.48-6.71-.75-3.12.09-6.57,2.38-9.72l10.88-14.95c10.51-14.43,21.38-29.36,31.91-44.13,1.86-2.61,3.26-6.12,3.86-9.62,2.94-17.34,5.69-34.72,8.53-52.6l3.15-19.84,22.57,14.87c1.24.82,2.46,1.66,3.7,2.49l2.72,1.84c8.37,5.61,8.64,6.49,4.82,15.72Zm199.61-156.73c-1.19,3.07-4.11,5.53-8.23,6.93-15.52,5.29-31.07,10.52-46.61,15.76l-19.38,6.53c-2.16.72-4.32,1.44-6.48,2.18-8.26,2.84-15.9,1.53-22.71-3.91-14.57-11.64-29.14-23.3-43.7-34.97-3.89-3.12-7.71-4.24-10.71-3.18-3.02,1.06-5.18,4.27-6.06,9.04-1.93,10.47-3.83,20.94-5.73,31.42-2.41,13.34-4.83,26.67-7.33,40-.6,3.21.04,5.5,2.15,7.65,4.54,4.64,9.07,9.31,13.59,13.97,9.67,9.98,19.68,20.29,29.76,30.2,8.1,7.97,16.53,15.91,24.67,23.59,7,6.6,14,13.19,20.89,19.89,3.12,3.03,5.31,6.76,5.87,9.96,2.66,15.42,5.36,31.12,6.77,46.7,1.1,12.17,1.5,24.58,1.89,36.58.16,4.91.32,9.82.52,14.72.07,1.96-.04,3.95-.33,5.93-.57,3.85-1.7,6.19-3.67,7.59-1.36.97-3.07,1.44-5.36,1.44-1.05,0-2.22-.1-3.53-.29-4.86-.73-6.09-3.99-6.66-7.08l-6.61-36.63c-3.01-16.58-6.85-35.78-14.38-53.82-2.51-6-6.3-10.66-11.59-14.23-15.07-10.17-30.11-20.38-45.15-30.59-19.79-13.42-39.57-26.84-59.4-40.19-10.92-7.36-15.82-16.61-15.86-30.01.56-3.39,1.1-6.71,1.65-10.17,1.29-8.03,2.75-17.14,4.67-26.01,4.95-22.77,10.94-49.74,17.87-77.2,1.93-7.63,5.24-15.59,10.15-24.32,4.99-8.9,12.25-14.31,20.43-15.23,8.45-.97,17.23,2.9,24.65,10.87,16.06,17.27,32.26,34.43,48.45,51.58l9.03,9.57c11.56,12.26,25.22,15.4,41.76,9.64,13.03-4.55,26.36-8.99,39.24-13.29l10.21-3.41c6.36-2.14,11.42-.58,14.29,4.31,1.68,2.85,2.01,5.79.95,8.51Z"/><path class="cls-1" d="m399.84,248.48h.13c14.03,0,27.2-5.28,37.09-14.86,9.96-9.65,15.36-22.47,15.2-36.11-.33-28.37-23.19-50.5-52.1-50.5-.12,0-.28,0-.41,0-28.87,0-51.7,22.03-52.02,50.23-.16,13.83,5.21,26.76,15.12,36.41,9.79,9.53,22.93,14.8,36.99,14.84Zm-24.43-75.23c6.77-6.39,15.87-9.9,25.68-9.9.16,0,.32,0,.49,0,18.04.21,33.3,15.96,33.31,34.38.02,18.95-15.39,33.88-35.08,33.97h-.17c-9.1,0-17.71-3.46-24.27-9.77-6.8-6.53-10.53-15.22-10.48-24.47.05-9.26,3.78-17.85,10.52-24.21Z"/></g></svg>