<?xml version="1.0" encoding="UTF-8"?><svg id="Lag_1" xmlns="http://www.w3.org/2000/svg" viewBox="0 0 800 800"><defs><style>.cls-1{fill:#fff;}.cls-2{fill:#004a98;}</style></defs><rect class="cls-2" width="800" height="800"/><g><path class="cls-1" d="m585.9,147H214.09c-37,0-67.09,30.1-67.09,67.1v371.8c0,37,30.09,67.1,67.09,67.1h371.81c37,0,67.1-30.1,67.1-67.1V214.1c0-37-30.1-67.1-67.1-67.1Zm50.32,438.9c0,27.75-22.58,50.32-50.32,50.32H214.09c-27.74,0-50.31-22.57-50.31-50.32V214.1c0-27.74,22.57-50.32,50.31-50.32h371.81c27.74,0,50.32,22.58,50.32,50.32v371.8Z"/><path class="cls-1" d="m513.57,296.53c22.38,0,40.58-18.21,40.58-40.58s-18.2-40.58-40.58-40.58-40.58,18.21-40.58,40.58,18.2,40.58,40.58,40.58Zm0-65.45c13.72,0,24.88,11.16,24.88,24.87s-11.16,24.87-24.88,24.87-24.87-11.16-24.87-24.87,11.16-24.87,24.87-24.87Z"/><path class="cls-1" d="m546.3,306.76h-65.47c-21.29,0-38.62,17.32-38.62,38.62v77.19c0,12.81,10.43,23.24,23.24,23.24,2.64,0,5.17-.44,7.53-1.26l.03,109.82c0,13.31,10.88,24.14,24.26,24.14,6.28,0,12-2.41,16.29-6.34,4.32,3.94,10.07,6.34,16.4,6.34,13.31,0,24.13-10.83,24.13-24.14v-109.82c2.38.82,4.92,1.27,7.57,1.27,12.81,0,23.24-10.43,23.24-23.24v-77.19c0-21.29-17.32-38.62-38.62-38.63Zm22.91,115.81c0,4.15-3.38,7.53-7.53,7.53s-7.53-3.38-7.53-7.53c0-.07-.03-.12-.03-.19v-65.31c0-4.34-3.51-7.86-7.85-7.86s-7.85,3.52-7.85,7.86v65.5s0,.02,0,.04c0,.03-.01.06-.01.09v131.67c0,4.65-3.78,8.43-8.55,8.43s-8.43-3.78-8.43-8.43v-129.28c0-4.34-3.51-7.86-7.85-7.86s-7.85,3.52-7.85,7.86v129.28c0,4.65-3.79,8.43-8.43,8.43s-8.55-3.78-8.55-8.43l-.03-131.81v-65.49c0-4.34-3.51-7.86-7.85-7.86s-7.85,3.52-7.85,7.86v65.49c0,4.15-3.38,7.53-7.53,7.53s-7.53-3.38-7.53-7.53v-77.19c0-12.63,10.28-22.91,22.91-22.91h65.45c12.64,0,22.92,10.29,22.92,22.92v77.19Z"/><path class="cls-1" d="m293.37,296.53c22.37,0,40.58-18.21,40.58-40.58s-18.2-40.58-40.58-40.58-40.58,18.21-40.58,40.58,18.2,40.58,40.58,40.58Zm0-65.45c13.71,0,24.87,11.16,24.87,24.87s-11.16,24.87-24.87,24.87-24.88-11.16-24.88-24.87,11.16-24.87,24.88-24.87Z"/><path class="cls-1" d="m347.88,337.51c-7.02-19.98-20.75-31.44-37.66-31.44h-34.33c-16.91,0-30.64,11.46-37.66,31.44-5.69,16.2-20.33,60.86-22.53,70.1-1.43,6.04-.39,12.12,2.94,17.12,3.55,5.33,9.41,9.02,16.1,10.13,2.14.35,4.26.3,6.35.07l-5.49,25.1c-.51,2.33.06,4.75,1.55,6.6,1.49,1.86,3.75,2.93,6.12,2.93h9.2l.04,84.8c0,13.31,10.88,24.14,24.26,24.14,6.29,0,11.98-2.48,16.28-6.44,4.3,3.96,9.99,6.44,16.28,6.44,13.38,0,24.26-10.83,24.26-24.14l.03-84.81h9.21c2.38,0,4.63-1.08,6.12-2.93,1.49-1.85,2.06-4.28,1.55-6.6l-5.48-25.05c.83.09,1.66.19,2.5.19,1.28,0,2.56-.1,3.84-.31,6.69-1.11,12.56-4.8,16.1-10.13,3.33-5,4.37-11.08,2.93-17.11-2.18-9.2-16.82-53.87-22.52-70.1Zm-71.11,225.29c-4.71,0-8.55-3.78-8.55-8.43l-.04-84.8h17.02v84.8c0,4.65-3.79,8.43-8.43,8.43Zm41.12-8.43c0,4.65-3.84,8.43-8.55,8.43s-8.43-3.78-8.43-8.43v-84.8h17.01l-.03,84.8Zm36.5-138.34c-1.12,1.69-3.22,2.94-5.59,3.33-1.96.33-3.98-.14-5.61-1.31-1.45-1.04-2.37-2.56-2.81-4.27l-12.56-57.36c-.93-4.23-5.11-6.9-9.35-5.99-4.24.93-6.92,5.12-5.99,9.36l12.18,55.65c.01.1-.03.18,0,.28.08.51.28.99.4,1.49l8.02,36.65h-80.03l8.02-36.65c.12-.5.31-.98.4-1.49.02-.1-.02-.18,0-.28l12.18-55.65c.93-4.24-1.75-8.43-5.99-9.36s-8.43,1.75-9.35,5.99l-12.56,57.36c-.44,1.71-1.36,3.23-2.81,4.27-1.63,1.17-3.63,1.64-5.61,1.31-2.37-.39-4.46-1.64-5.59-3.33-.91-1.37-1.16-2.98-.73-4.78,1.95-8.17,16.01-51.31,22.07-68.52,2.75-7.82,9.37-20.93,22.83-20.93h34.33c13.47,0,20.09,13.11,22.83,20.93,6.06,17.24,20.13,60.38,22.06,68.52.43,1.81.19,3.42-.73,4.79Z"/><path class="cls-1" d="m403.31,214.08c-4.34,0-7.85,3.52-7.85,7.86v348.72c0,4.34,3.51,7.86,7.85,7.86s7.85-3.52,7.85-7.86V221.94c0-4.34-3.51-7.86-7.85-7.86Z"/></g></svg>