<?xml version="1.0" encoding="UTF-8"?><svg id="Lag_1" xmlns="http://www.w3.org/2000/svg" viewBox="0 0 800 800"><defs><style>.cls-1{fill:#fff;}.cls-2{fill:#004a98;}</style></defs><rect class="cls-2" width="800" height="800"/><g><path class="cls-1" d="m585.9,147H214.1c-37,0-67.1,30.1-67.1,67.1v371.8c0,37,30.1,67.1,67.1,67.1h371.81c37,0,67.1-30.1,67.1-67.1V214.1c0-37-30.1-67.1-67.1-67.1Zm50.32,438.9c0,27.75-22.58,50.32-50.32,50.32H214.1c-27.74,0-50.32-22.57-50.32-50.32V214.1c0-27.74,22.58-50.32,50.32-50.32h371.81c27.74,0,50.32,22.58,50.32,50.32v371.8Z"/><path class="cls-1" d="m466.7,313.26h0c-9.41-7.88-22.4-11.88-38.59-11.88h-64.61v104.68h64.61c16.32,0,29.39-4.34,38.84-12.9,9.69-8.78,14.61-22.32,14.61-40.25s-5-31.39-14.85-39.65Zm-11.03,67.47c-6.27,5.68-15.55,8.56-27.57,8.56h-47.84v-71.13h47.84c12.14,0,21.5,2.68,27.81,7.96,5.88,4.92,8.86,13.93,8.86,26.79s-3.06,22.34-9.1,27.81Z"/><path class="cls-1" d="m514.32,274.69c-19.06-16.7-44.7-25.17-76.22-25.17h-136.59v315.35h78.76v-107.36h53.78c34.31,0,61.32-8.02,80.26-23.83,19.39-16.18,29.23-43.5,29.23-81.18,0-34.64-9.83-60.82-29.21-77.82Zm-10.77,146.11h0c-15.85,13.23-39.23,19.94-69.5,19.94h-70.56v107.36h-45.2v-281.79h119.81c27.32,0,49.25,7.07,65.16,21.01,15.59,13.67,23.5,35.6,23.5,65.19,0,32.47-7.8,55.45-23.2,68.3Z"/></g></svg>