<?xml version="1.0" encoding="UTF-8"?><svg id="Lag_1" xmlns="http://www.w3.org/2000/svg" viewBox="0 0 800 800"><defs><style>.cls-1{fill:#fff;}.cls-2{fill:#004a98;}</style></defs><rect class="cls-2" width="800" height="800"/><g><path class="cls-1" d="m186.19,220.51h427.6c5,0,9.05-4.05,9.05-9.05v-55.63c0-5-4.05-9.05-9.05-9.05H186.19c-5,0-9.05,4.05-9.05,9.05v55.63c0,5,4.05,9.05,9.05,9.05Zm9.05-55.63h409.51v37.53H195.24v-37.53Z"/><path class="cls-1" d="m728.93,418.88h-159.71l-39.94-167.95c-1.16-4.86-6.05-7.87-10.9-6.72-4.87,1.16-7.87,6.04-6.72,10.9l38.94,163.77h-45.56l-39.15-167.91c-1.14-4.87-5.97-7.88-10.87-6.76-4.87,1.14-7.9,6-6.76,10.87l38.2,163.8h-172.77l40.6-163.67c1.2-4.85-1.75-9.76-6.6-10.97-4.89-1.18-9.76,1.76-10.97,6.6l-41.68,168.04h-45.48l41.34-163.64c1.22-4.85-1.72-9.77-6.56-11-4.83-1.22-9.77,1.71-11,6.56l-42.47,168.08H71.07c-5,0-9.05,4.05-9.05,9.05v55.64c0,5,4.05,9.05,9.05,9.05h657.86c5,0,9.05-4.05,9.05-9.05v-55.64c0-5-4.05-9.05-9.05-9.05Zm-9.05,55.64H80.12v-37.54h639.76v37.54Z"/><path class="cls-1" d="m281.77,516.29c-4.85-1.2-9.76,1.7-11.01,6.54l-28.6,112.27-46.41-.02,27.71-107.75c1.25-4.84-1.67-9.78-6.51-11.02-4.89-1.26-9.79,1.67-11.02,6.51l-33.51,130.35,83.81.05,32.08-125.92c1.23-4.84-1.69-9.77-6.54-11.01Z"/><path class="cls-1" d="m73.7,384.08h94.69c5,0,9.05-4.05,9.05-9.05s-4.05-9.05-9.05-9.05h-94.69c-5,0-9.05,4.05-9.05,9.05s4.05,9.05,9.05,9.05Z"/><path class="cls-1" d="m583.05,516.31c-4.84,1.24-7.76,6.18-6.51,11.02l27.71,107.75-46.41.02-28.59-112.27c-1.23-4.84-6.12-7.74-11.01-6.54-4.84,1.23-7.77,6.16-6.54,11.01l32.07,125.92,83.81-.05-33.51-130.35c-1.24-4.84-6.15-7.77-11.02-6.51Z"/><path class="cls-1" d="m631.62,384.08h94.69c5,0,9.05-4.05,9.05-9.05s-4.05-9.05-9.05-9.05h-94.69c-5,0-9.05,4.05-9.05,9.05s4.05,9.05,9.05,9.05Z"/></g></svg>