<?xml version="1.0" encoding="UTF-8"?><svg id="Lag_1" xmlns="http://www.w3.org/2000/svg" viewBox="0 0 800 800"><defs><style>.cls-1{fill:#fff;}.cls-2{fill:#004a98;}</style></defs><rect class="cls-2" width="800" height="800"/><g><path class="cls-1" d="m349.24,579.02h-74.71c-4.7,0-8.5,3.8-8.5,8.5v48.15h-40.59l.36-48.09c.02-2.26-.87-4.45-2.47-6.05-1.6-1.6-3.77-2.51-6.03-2.51h-108.68l86.55-89.05c2.38-2.45,3.07-6.08,1.73-9.23-1.33-3.15-4.42-5.19-7.83-5.19h-80.02l100.25-100.15c2.44-2.43,3.16-6.09,1.85-9.27-1.31-3.18-4.41-5.25-7.85-5.25h-67.13l78.6-85.02c2.29-2.48,2.9-6.08,1.55-9.18-1.35-3.09-4.41-5.09-7.79-5.09h-42.7l80.46-93.55,80.45,93.55h-49.08c-3.41,0-6.49,2.03-7.82,5.17-1.33,3.14-.67,6.77,1.7,9.23l47.14,49.02c3.25,3.38,8.62,3.48,12.02.23,3.38-3.25,3.49-8.63.23-12.02l-33.3-34.62h47.64c3.32,0,6.34-1.94,7.73-4.95,1.39-3.02.88-6.57-1.28-9.09l-98.28-114.28c-1.62-1.87-3.97-2.95-6.45-2.95h-1.39c-2.47,0-4.83,1.08-6.45,2.95l-98.29,114.28c-2.17,2.52-2.67,6.08-1.28,9.09,1.39,3.02,4.4,4.95,7.73,4.95h41.79l-78.6,85.02c-2.29,2.48-2.9,6.08-1.55,9.18s4.41,5.09,7.79,5.09h66.03l-100.25,100.15c-2.44,2.43-3.16,6.09-1.85,9.27,1.31,3.18,4.41,5.25,7.85,5.25h80.45l-86.55,89.05c-2.38,2.45-3.07,6.08-1.73,9.23,1.33,3.15,4.42,5.19,7.83,5.19h120.23l-.36,48.09c-.02,2.26.87,4.45,2.47,6.05,1.6,1.6,3.77,2.51,6.03,2.51h57.66c4.7,0,8.5-3.8,8.5-8.5v-48.15h66.21c4.7,0,8.5-3.8,8.5-8.5s-3.8-8.5-8.5-8.5Z"/><path class="cls-1" d="m718.15,398.32l-197.51-247.8c-1.6-2-4.01-3.17-6.56-3.2-2.61.07-5,1.1-6.63,3.07l-201.87,243c-2.1,2.54-2.56,6.06-1.16,9.04,1.4,2.99,4.4,4.89,7.7,4.89h67.77v236.86c0,4.7,3.8,8.5,8.5,8.5h89.97c4.7,0,8.5-3.8,8.5-8.5v-135.28h53.41v135.28c0,4.7,3.8,8.5,8.5,8.5h92.05c4.7,0,8.5-3.8,8.5-8.5v-232.06h62.19c3.27,0,6.24-1.87,7.66-4.81,1.42-2.95,1.02-6.44-1.01-9Zm-77.33-3.2c-4.7,0-8.5,3.8-8.5,8.5v232.06h-75.05v-135.28c0-4.7-3.8-8.5-8.5-8.5h-70.41c-4.7,0-8.5,3.8-8.5,8.5v135.28h-72.97v-236.86c0-4.7-3.8-8.5-8.5-8.5h-58.15l183.62-221.03,180,225.83h-53.04Z"/><path class="cls-1" d="m470.1,327.89v70.77c0,4.7,3.8,8.5,8.5,8.5h70.77c4.7,0,8.5-3.8,8.5-8.5v-70.77c0-4.7-3.8-8.5-8.5-8.5h-70.77c-4.7,0-8.5,3.8-8.5,8.5Zm17,8.5h53.77v53.77h-53.77v-53.77Z"/></g></svg>