<?xml version="1.0" encoding="UTF-8"?><svg id="Lag_1" xmlns="http://www.w3.org/2000/svg" viewBox="0 0 800 800"><defs><style>.cls-1{fill:#fff;}.cls-2{fill:#004a98;}</style></defs><rect class="cls-2" width="800" height="800"/><g><path class="cls-1" d="m585.9,147H214.1c-37,0-67.1,30.1-67.1,67.1v371.8c0,37,30.1,67.1,67.1,67.1h371.81c37,0,67.1-30.1,67.1-67.1V214.1c0-37-30.1-67.1-67.1-67.1Zm50.32,438.9c0,27.75-22.58,50.32-50.32,50.32H214.1c-27.74,0-50.32-22.57-50.32-50.32V214.1c0-27.74,22.58-50.32,50.32-50.32h371.81c27.74,0,50.32,22.58,50.32,50.32v371.8Z"/><path class="cls-1" d="m458.05,529.27c-4.85,1.34-9.16,2.02-12.81,2.02-10.1,0-13.61-1.95-14.64-2.79-.62-.5-2.64-2.77-2.64-10.98,0-1.99.29-5.96,1.65-13.6,1.11-6.28,2.39-11.96,3.81-16.91l18.17-64.34c1.92-6.38,3.26-13.48,3.98-21.13.7-7.45,1.03-12.56,1.03-15.63,0-16.01-5.76-29.27-17.12-39.39-11.07-9.86-26.64-14.87-46.29-14.87-10.57,0-21.88,1.88-33.59,5.6-11.12,3.53-22.9,7.82-35.01,12.75l-3.97,1.61-9.67,39.52,14.87-5.56c3.4-1.27,7.48-2.61,12.22-4.03,4.18-1.24,8.27-1.87,12.17-1.87,10.77,0,13.48,2.29,13.75,2.55.59.56,2.52,3.04,2.52,11.22,0,4.03-.51,8.58-1.51,13.53-1.06,5.3-2.41,11.06-3.96,16.98l-18.38,65.03c-1.68,7.01-2.92,13.44-3.7,19.09-.79,5.74-1.19,11.46-1.19,16.99,0,15.75,5.91,28.94,17.58,39.21,11.36,9.98,27.13,15.05,46.87,15.05,12.39,0,23.53-1.68,33.12-5,8.8-3.06,20.69-7.54,35.32-13.3l4.04-1.59,10.08-41.23-15.9,7.49c-1.42.67-4.46,1.84-10.83,3.6Zm2.41,17.71c-12.57,4.92-22.87,8.78-30.63,11.48-7.81,2.71-17.1,4.08-27.62,4.08-15.54,0-27.58-3.66-35.78-10.87-7.99-7.04-11.88-15.74-11.88-26.61,0-4.77.35-9.71,1.03-14.7.7-5.11,1.84-10.99,3.31-17.14l18.33-64.85c1.67-6.39,3.1-12.48,4.22-18.09,1.22-6.03,1.83-11.7,1.83-16.84,0-10.75-2.52-18.39-7.71-23.35-5.07-4.84-13.36-7.19-25.34-7.19-5.08,0-10.32.73-15.6,2.18l.28-1.12c10.3-4.1,20.3-7.69,29.79-10.7,10.07-3.19,19.67-4.82,28.52-4.82,15.4,0,27.22,3.57,35.12,10.61,7.74,6.9,11.51,15.69,11.51,26.86,0,2.51-.33,7.24-.96,14.06-.61,6.54-1.74,12.55-3.38,18l-18.2,64.44c-1.58,5.47-2.98,11.73-4.21,18.57-1.28,7.2-1.9,12.61-1.9,16.54,0,11.19,2.98,19.27,8.87,24.04,5.43,4.38,13.67,6.51,25.18,6.51,4.67,0,9.88-.72,15.49-2.15l-.27,1.06Z"/><path class="cls-1" d="m424.83,323.37c14.09,0,26.33-4.74,36.4-14.1,10.23-9.52,15.42-21.24,15.42-34.84s-5.17-25.33-15.38-34.92c-10.07-9.45-22.32-14.24-36.43-14.24s-26.4,4.78-36.52,14.22c-10.3,9.59-15.52,21.34-15.52,34.94s5.23,25.35,15.55,34.86c10.11,9.35,22.39,14.08,36.49,14.08Zm-25.07-71.61c7.01-6.54,15.21-9.72,25.07-9.72s17.99,3.17,24.94,9.7c6.79,6.38,10.1,13.8,10.1,22.68s-3.29,16.25-10.06,22.55c-6.95,6.46-15.13,9.61-24.97,9.61s-18.09-3.15-25.11-9.63c-6.83-6.3-10.15-13.67-10.15-22.53s3.33-16.28,10.19-22.66Z"/></g></svg>