<?xml version="1.0" encoding="UTF-8"?><svg id="Lag_1" xmlns="http://www.w3.org/2000/svg" viewBox="0 0 800 800"><defs><style>.cls-1{fill:#fff;}.cls-2{fill:#004a98;}</style></defs><rect class="cls-2" width="800" height="800"/><g><path class="cls-1" d="m489.78,636.22h-187.2c-4.64,0-8.39,3.76-8.39,8.39s3.75,8.39,8.39,8.39h187.2c4.64,0,8.39-3.76,8.39-8.39s-3.75-8.39-8.39-8.39Z"/><path class="cls-1" d="m400,596.01c2.56,0,4.98-1.16,6.57-3.17,6.09-7.66,149.17-188.79,149.17-290.11,0-88.78-66.95-155.73-155.74-155.73s-155.73,66.95-155.73,155.73c0,101.32,143.07,282.45,149.16,290.11,1.59,2,4.01,3.17,6.57,3.17Zm0-432.23c80.52,0,138.96,58.44,138.96,138.95s-110.57,233.96-138.96,271.17c-28.39-37.21-138.95-187.53-138.95-271.17s58.44-138.95,138.95-138.95Z"/><path class="cls-1" d="m400.53,368.43l55.99,28.91-11.11-62.03,44.79-44.32-62.42-8.6-28.3-56.3-27.47,56.71-62.29,9.52,45.45,43.65-10.19,62.19,55.56-29.73Zm-54.66-64.65l37.39-5.72,16.5-34.05,16.99,33.8,37.48,5.16-26.89,26.61,6.67,37.24-33.62-17.36-33.35,17.86,6.12-37.34-27.29-26.2Z"/></g></svg>