<?xml version="1.0" encoding="UTF-8"?><svg id="Lag_1" xmlns="http://www.w3.org/2000/svg" viewBox="0 0 800 800"><defs><style>.cls-1{fill:#fff;}.cls-2{fill:#004a98;}</style></defs><rect class="cls-2" width="800" height="800"/><g><path class="cls-1" d="m204.19,293.3c.28.03.55.04.82.04l133.32.18,32.59,34.63-146.87,126.04c-3.76,3.23-4.19,8.9-.96,12.66,3.22,3.76,8.9,4.21,12.66.97l153.99-132.16c1.86-1.6,2.99-3.88,3.11-6.34.13-2.45-.75-4.84-2.43-6.63l-41.68-44.3c-1.69-1.8-4.05-2.82-6.52-2.82l-136.76-.18c-19.24-1.99-32.63-16.96-32.63-36.54,0-9.99,3.46-18.41,10-24.37,7.18-6.53,17.81-9.68,29.07-8.61.27.03.54.04.82.04,62.22.11,156.47.81,164.66,2.15,33.18,8.16,88.04,50.15,135.79,125.59,48.66,76.84,57.14,128.22,57.22,128.71.68,4.44,4.5,7.62,8.87,7.62.45,0,.9-.03,1.37-.1,4.9-.75,8.27-5.33,7.52-10.24-.34-2.22-8.9-55.24-59.78-135.6-44.35-70.05-101.93-122.42-146.68-133.42-8.7-2.14-118.12-2.58-168.53-2.67-16.15-1.41-31.6,3.41-42.4,13.25-10.23,9.32-15.87,22.69-15.87,37.65,0,28.88,20.73,51.78,49.31,54.46Z"/><path class="cls-1" d="m131.14,566.87l53.72-36.31c6.03-4.07,13.53-4.07,19.56,0l38.99,26.36c11.96,8.08,27.4,8.09,39.35,0l39-26.36c6.03-4.07,13.53-4.07,19.56,0l38.99,26.36c11.96,8.08,27.4,8.09,39.35,0l39-26.36c6.04-4.08,13.54-4.07,19.56,0l38.99,26.36c11.96,8.08,27.4,8.09,39.35,0l39-26.36c6.04-4.08,13.54-4.07,19.56,0l53.72,36.31c1.51,1.03,3.24,1.51,4.94,1.51,2.84,0,5.62-1.36,7.33-3.88,2.73-4.04,1.66-9.53-2.37-12.27l-53.72-36.31c-11.94-8.07-27.38-8.08-39.35,0l-39,26.36c-6.04,4.08-13.54,4.07-19.56,0l-38.99-26.36c-11.94-8.07-27.38-8.08-39.35,0l-39,26.36c-6.04,4.08-13.54,4.07-19.56,0l-38.99-26.36c-11.96-8.07-27.4-8.07-39.35,0l-39,26.36c-6.04,4.08-13.54,4.07-19.56,0l-38.99-26.36c-11.96-8.07-27.4-8.07-39.35,0l-53.72,36.31c-4.04,2.73-5.1,8.22-2.37,12.27,2.73,4.03,8.23,5.11,12.27,2.37Z"/><path class="cls-1" d="m625.03,600.54c-11.94-8.07-27.38-8.08-39.35,0l-39,26.35c-6.04,4.08-13.54,4.07-19.56,0l-38.99-26.35c-11.94-8.07-27.38-8.08-39.35,0l-39,26.35c-6.04,4.08-13.54,4.07-19.56,0l-38.99-26.36c-11.96-8.07-27.4-8.08-39.35,0l-39,26.35c-6.04,4.08-13.54,4.07-19.56,0l-38.99-26.36c-11.96-8.07-27.4-8.07-39.35,0l-53.72,36.31c-4.04,2.73-5.1,8.22-2.37,12.27,2.73,4.03,8.23,5.1,12.27,2.37l53.72-36.31c6.03-4.07,13.53-4.07,19.56,0l38.99,26.35c11.96,8.08,27.4,8.09,39.35,0l39-26.35c6.03-4.07,13.53-4.07,19.56,0l38.99,26.35c11.96,8.08,27.4,8.09,39.35,0l39-26.35c6.04-4.08,13.54-4.07,19.56,0l38.99,26.35c11.96,8.08,27.4,8.09,39.35,0l39-26.35c6.04-4.08,13.54-4.07,19.56,0l53.72,36.31c1.51,1.03,3.24,1.51,4.94,1.51,2.84,0,5.62-1.36,7.33-3.88,2.73-4.04,1.66-9.53-2.37-12.27l-53.72-36.31Z"/><path class="cls-1" d="m583.4,310.55c45.09,0,81.78-36.68,81.78-81.77s-36.69-81.77-81.78-81.77-81.77,36.68-81.77,81.77,36.68,81.77,81.77,81.77Zm0-145.59c35.19,0,63.82,28.63,63.82,63.82s-28.63,63.82-63.82,63.82-63.81-28.63-63.81-63.82,28.63-63.82,63.81-63.82Z"/></g></svg>