<?xml version="1.0" encoding="UTF-8"?><svg id="Lag_1" xmlns="http://www.w3.org/2000/svg" viewBox="0 0 800 800"><defs><style>.cls-1{fill:#fff;}.cls-2{fill:#004a98;}</style></defs><rect class="cls-2" width="800" height="800"/><g><path class="cls-1" d="m706.31,349.81c-5.55,0-10.04,4.49-10.04,10.04v131.33h-27.05v-84.21c0-31.52-25.64-57.16-57.16-57.16h-329.87c-26.68,0-49.08,18.39-55.35,43.15.19-1.9.29-3.83.29-5.78,0-31.52-25.64-57.16-57.16-57.16s-57.16,25.64-57.16,57.16c0,29.63,22.66,54.05,51.56,56.88h-60.64v-131.33c0-5.55-4.49-10.04-10.04-10.04s-10.04,4.49-10.04,10.04v329.87c0,5.55,4.49,10.04,10.04,10.04s10.04-4.49,10.04-10.04v-84.21h592.54v84.21c0,5.55,4.49,10.04,10.04,10.04s10.04-4.49,10.04-10.04v-282.74c0-5.55-4.49-10.04-10.04-10.04Zm-461.2,57.16c0-20.45,16.64-37.09,37.09-37.09h329.87c20.45,0,37.09,16.64,37.09,37.09v84.21H245.1v-84.21Zm-19.78-5.78c-.19,1.9-.29,3.83-.29,5.78v37.09h-49.46c24.18-2.36,43.92-19.86,49.75-42.86Zm-92.44-14.02c0-20.45,16.64-37.09,37.09-37.09s37.09,16.64,37.09,37.09-16.64,37.09-37.09,37.09-37.09-16.64-37.09-37.09Zm-29.15,76.95h121.3v27.05h-121.3v-27.05Zm592.54,74.17H103.73v-27.05h592.54v27.05Z"/><path class="cls-1" d="m305.84,257.31c4.84-1.01,9.04-2.87,12.6-5.6,3.15-2.37,5.79-5.29,7.89-8.76,3.31-5.25,4.96-11.16,4.96-17.77s-1.45-11.84-4.34-16.33c-2.9-4.48-7.19-7.76-12.87-9.83,3.74-1.92,6.57-4.03,8.49-6.35,3.44-4.13,5.17-9.6,5.17-16.4s-1.71-12.28-5.12-17.01c-5.68-7.71-15.29-11.67-28.89-11.88h-53.86v111.45h50.22c5.66,0,10.91-.5,15.74-1.51Zm-43.74-90.58h24.25c5.34,0,9.73.58,13.17,1.74,3.99,1.67,5.99,5.08,5.99,10.28,0,4.69-1.51,7.95-4.54,9.79-3.01,1.84-6.95,2.76-11.78,2.76h-27.09v-24.57Zm0,72.73v-29.71h27.43c4.79.05,8.49.68,11.13,1.88,4.73,2.17,7.11,6.16,7.11,11.95,0,6.86-2.44,11.49-7.33,13.91-2.69,1.3-6.45,1.96-11.28,1.96h-27.06Z"/><path class="cls-1" d="m553.44,257.31c4.84-1.01,9.04-2.87,12.6-5.6,3.15-2.37,5.79-5.29,7.89-8.76,3.31-5.25,4.96-11.16,4.96-17.77s-1.45-11.84-4.34-16.33c-2.89-4.48-7.19-7.76-12.87-9.83,3.75-1.92,6.57-4.03,8.5-6.35,3.44-4.13,5.16-9.6,5.16-16.4s-1.71-12.28-5.12-17.01c-5.66-7.71-15.29-11.67-28.88-11.88h-53.87v111.45h50.22c5.66,0,10.91-.5,15.74-1.51Zm-43.74-90.58h24.25c5.35,0,9.73.58,13.17,1.74,4,1.67,5.99,5.08,5.99,10.28,0,4.69-1.51,7.95-4.53,9.79-3.02,1.84-6.94,2.76-11.79,2.76h-27.09v-24.57Zm0,72.73v-29.71h27.43c4.79.05,8.5.68,11.14,1.88,4.73,2.17,7.1,6.16,7.1,11.95,0,6.86-2.44,11.49-7.33,13.91-2.68,1.3-6.45,1.96-11.28,1.96h-27.06Z"/><polygon class="cls-1" points="398.72 258.83 418.6 258.83 418.6 227.67 449.61 227.67 449.61 207.94 418.6 207.94 418.6 176.94 398.72 176.94 398.72 207.94 367.73 207.94 367.73 227.67 398.72 227.67 398.72 258.83"/></g></svg>