<?xml version="1.0" encoding="UTF-8"?><svg id="Lag_1" xmlns="http://www.w3.org/2000/svg" viewBox="0 0 800 800"><defs><style>.cls-1{fill:#fff;}.cls-2{fill:#004a98;}</style></defs><rect class="cls-2" width="800" height="800"/><g><path class="cls-1" d="m177.01,297.65l48.65-26.02,49.01,25.31-9.73-54.31,39.22-38.8-54.65-7.54-24.78-49.3-24.05,49.66-54.52,8.33,39.78,38.22-8.92,54.44Zm8.11-80.31l27.7-4.23,12.21-25.22,12.58,25.02,27.77,3.84-19.93,19.71,4.95,27.58-24.89-12.86-24.72,13.23,4.54-27.65-20.21-19.42Z"/><path class="cls-1" d="m358.59,297.65l48.64-26.02,49.02,25.31-9.73-54.31,39.22-38.8-54.65-7.54-24.78-49.3-24.05,49.66-54.54,8.33,39.79,38.23-8.92,54.43Zm8.11-80.31l27.7-4.23,12.21-25.22,12.58,25.02,27.77,3.84-19.93,19.71,4.95,27.58-24.9-12.86-24.71,13.23,4.54-27.66-20.21-19.41Z"/><path class="cls-1" d="m538.66,297.65l48.64-26.02,49.01,25.31-9.72-54.31,39.21-38.8-54.65-7.54-24.78-49.3-24.05,49.66-54.54,8.33,39.79,38.23-8.92,54.43Zm8.11-80.31l27.7-4.23,12.21-25.22,12.58,25.02,27.76,3.84-19.92,19.71,4.94,27.58-24.89-12.86-24.71,13.23,4.54-27.66-20.21-19.41Z"/><path class="cls-1" d="m683.28,372.94c-5.13,0-9.28,4.15-9.28,9.28v121.46h-25.02v-77.88c0-29.15-23.71-52.86-52.86-52.86h-305.07c-24.67,0-45.39,17.01-51.19,39.9.18-1.76.27-3.54.27-5.34,0-29.15-23.71-52.86-52.86-52.86s-52.86,23.71-52.86,52.86c0,27.4,20.96,49.99,47.69,52.6h-56.08v-121.46c0-5.13-4.15-9.28-9.28-9.28s-9.28,4.15-9.28,9.28v305.07c0,5.13,4.15,9.28,9.28,9.28s9.28-4.15,9.28-9.28v-77.88h548v77.88c0,5.13,4.15,9.28,9.28,9.28s9.28-4.15,9.28-9.28v-261.49c0-5.13-4.15-9.28-9.28-9.28Zm-426.54,52.86c0-18.91,15.39-34.3,34.3-34.3h305.07c18.91,0,34.3,15.39,34.3,34.3v77.88h-373.67v-77.88Zm-18.3-5.34c-.18,1.76-.27,3.54-.27,5.34v34.3h-45.74c22.36-2.18,40.62-18.37,46.01-39.64Zm-85.49-12.96c0-18.91,15.39-34.3,34.3-34.3s34.3,15.39,34.3,34.3-15.39,34.3-34.3,34.3-34.3-15.39-34.3-34.3Zm-26.96,71.17h112.18v25.02h-112.18v-25.02Zm548,68.6H126v-25.02h548v25.02Z"/></g></svg>