<?xml version="1.0" encoding="UTF-8"?><svg id="Livello_1" xmlns="http://www.w3.org/2000/svg" viewBox="0 0 161.86 161.86"><defs><style>.cls-1{fill:#f6f6f6;}.cls-1,.cls-2{fill-rule:evenodd;}.cls-3{fill:#3c3c3b;}.cls-2{fill:#bacd4e;}</style></defs><circle class="cls-3" cx="80.93" cy="80.93" r="80.93"/><path class="cls-2" d="m117.35,139.69c.32-.13.45-.2.62-.16-8.94,5.23-18.98,9.34-32.63,9.79h-4.35c-19.55-.87-32.5-8.44-43.34-18.15-1.02-1.17-2.11-2.28-3.26-3.32-9.66-10.92-16.97-24.22-18.18-43.73v-5.84c.94-20.66,8.15-35.74,19.26-46.89,10.88-10.91,25.6-18.99,45.05-20.36h3.73c.78-.11,1.08.27,1.86.16,14.72.83,25.21,5.95,33.56,13.26.87,1.01,1.8,1.96,2.8,2.84,9.03,7.97,14.86,29.58,7.3,43.73-7.06-7.19-15.79-12.69-29.05-13.58-1.3-.26-3.68-.26-4.97,0-11.62.66-19.37,5.26-25.94,11.05-1,.88-1.93,1.83-2.8,2.84-5.86,6.89-10.58,14.93-11.19,27.15-.26,1.16-.26,3.42,0,4.58.59,12.2,5.59,21.56,12.27,28.42,6.69,6.86,16.29,12.15,28.28,12.47,2.41.09,1.9.08,4.35,0,6.72-.22,11.92-1.99,16.62-4.26Z"/><path class="cls-1" d="m106.97,127.3c.99-1.31,1.28-3.32,2.27-4.62,1.8,4.14,3.99,7.88,6.68,11.12.42.54-.09.6-.28.58-1,.06-3.55.44-5.83.58-2.12.13-4.82-.07-5.97.58-.21.12-.57.03-.43.72-.25.37-.94.29-1.56.29-1.01.07-1.14-.76-1.99-.87h-2.7c-5.76-.41-9.56-2.8-13.08-5.49-.65-.78-1.36-1.5-2.13-2.17-3.16-4.16-5.14-9.51-5.26-16.76v-1.88c.7-4.78.27-8.59-2.27-10.98,1.73-1.81,4.15-2.02,6.4-3.32.85-.5,1.57-1.33,2.27-1.88,5.5-4.3,14.46-5.96,23.6-4.04,8.9,1.87,16.92,5.54,21.75,11.84-.58.36-1.55.7-2.27,1.16-.63.4-1.55,1.15-1.42,1.44.88-.55,2.46-.39,3.55-.72-1.07,2.21-2.98,3.19-5.12,4.04-2.14.86-4.87,1.34-6.82,2.31-2.55,1.27-3.96,4.01-6.68,4.62-.23-.97-.37-2.04-1.28-2.31-2.86.99-6.13,1.08-7.96,3.03-1.12,1.19-1.15,2.95-2.27,4.33-.61-.25-1.22-.49-2.13-.43-2.31,1.99-2.24,7.45.99,8.52,1.8.6,4.01-.09,6.11-.29-.29.78-1.02,1.66-.57,2.74.77.35,2.05.1,2.56-.29.81-.43,1.36-1.12,1.85-1.88Z"/></svg>