<?xml version="1.0" encoding="UTF-8"?>
<svg id="ICONS" xmlns="http://www.w3.org/2000/svg" viewBox="0 0 15.59 15.59">
  <defs>
    <style>
      .cls-1 {
        fill: #031E3A;
      }

      .cls-1, .cls-2 {
        stroke-width: 0px;
      }

      .cls-2 {
        fill: #fff;
      }
    </style>
  </defs>
  <rect class="cls-1" x="0" y="0" width="15.59" height="15.59" rx="7.8" ry="7.8"/>
  <g>
    <path class="cls-2" d="m9.53,5.49c-.46-.07-.91.03-1.33.24-.26.13-.55.13-.81,0-.41-.21-.87-.3-1.33-.24-1.46.21-2.44,1.85-2.18,3.68s1.65,3.13,3.12,2.93c.29-.04.48-.18.79-.19.35-.02.51.15.79.19,1.46.21,2.86-1.1,3.12-2.93.26-1.82-.72-3.47-2.18-3.68Z"/>
    <path class="cls-2" d="m10.99,2.76s.05,1.01-.54,1.6-1.6.54-1.6.54c0,0-.05-1.01.54-1.6s1.6-.54,1.6-.54Z"/>
    <path class="cls-2" d="m7.85,5.25s-.04,0-.05,0c-.18-.03-.31-.2-.28-.39h0c.01-.08.1-.8-.61-1.02-.18-.06-.28-.25-.22-.43.06-.18.25-.27.43-.22,1.03.33,1.15,1.31,1.08,1.78-.03.17-.17.28-.33.28Z"/>
  </g>
</svg>