<?xml version="1.0" encoding="UTF-8"?>
<svg id="ICONS" xmlns="http://www.w3.org/2000/svg" viewBox="0 0 15.59 15.59">
  <defs>
    <style>
      .cls-1 {
        fill: #031E3A;
      }

      .cls-1, .cls-2 {
        stroke-width: 0px;
      }

      .cls-2 {
        fill: #fff;
      }
    </style>
  </defs>
  <rect class="cls-1" x="0" y="0" width="15.59" height="15.59" rx="7.8" ry="7.8"/>
  <g>
    <path class="cls-2" d="m2.66,9.81c-.25,0-.45-.2-.45-.45v-1.24c0-.25.2-.45.45-.45s.45.2.45.45v1.24c0,.25-.2.45-.45.45Zm5.27-.95c-.19,0-.37-.12-.43-.31-.07-.22-.12-.46-.15-.7-.04-.32-.12-.61-.26-.87-.12-.22-.03-.49.19-.61.22-.12.49-.03.61.19.19.36.31.76.36,1.19.02.18.06.36.11.52.08.24-.05.49-.29.57-.05.01-.09.02-.14.02Zm5-.47s-.02,0-.02,0c-.25-.01-.44-.23-.42-.47v-1.68c0-.25.2-.45.45-.45s.45.2.45.45v1.57c0,.06,0,.11,0,.17-.01.24-.21.42-.45.42Z"/>
    <path class="cls-2" d="m2.26,7.58h0s0,0,0,0Zm.68-1.08c-.19-.15-.23-.43-.08-.63h0c.16-.19.44-.22.63-.07h0c.2.15.23.44.08.63h0c-.09.11-.23.17-.38.17h0c-.09,0-.18-.03-.26-.1Zm2.98-.62c-.23-.09-.35-.35-.27-.58h0c.09-.24.35-.36.58-.28h0c.23.09.36.35.27.58h0c-.06.2-.25.31-.43.3h0s-.09-.01-.14-.02Zm-1.83-.43c-.05-.25.1-.48.34-.54h0c.24-.05.48.1.54.34h0c.05.25-.1.48-.34.54h0s-.08,0-.12,0h0c-.2,0-.37-.15-.42-.35Z"/>
    <path class="cls-2" d="m10.46,10.32c-.05-.24.12-.48.37-.52h0c.25-.04.48.12.52.37h0c.05.25-.12.48-.37.52h0s-.08,0-.12,0h0c-.2-.02-.36-.17-.4-.37Z"/>
    <path class="cls-2" d="m9.19,10.48h0c-.24-.1-.34-.36-.24-.58h0c.1-.23.36-.34.59-.24h0c.23.09.34.36.23.58h0c-.07.19-.26.29-.45.27h0s-.09,0-.13-.03Z"/>
    <path class="cls-2" d="m11.95,9.85c-.18-.16-.2-.44-.04-.64h0c.16-.19.45-.21.64-.04h0c.18.15.2.44.04.63h0c-.1.12-.24.17-.38.15h0c-.09,0-.19-.05-.26-.11Z"/>
  </g>
</svg>