<?xml version="1.0" encoding="UTF-8"?>
<svg id="ICONS" xmlns="http://www.w3.org/2000/svg" viewBox="0 0 15.59 15.59">
  <defs>
    <style>
      .cls-1 {
        fill: #031E3A;
      }

      .cls-1, .cls-2 {
        stroke-width: 0px;
      }

      .cls-2 {
        fill: #fff;
      }
    </style>
  </defs>
  <rect class="cls-1" x="0" y="0" width="15.59" height="15.59" rx="7.8" ry="7.8"/>
  <g>
    <path class="cls-2" d="m12.93,6.68c-.05,0-.12,0-.17-.04-.05-.03-.11-.05-.14-.1-.05-.04-.07-.09-.1-.14-.02-.05-.04-.12-.04-.17,0-.12.05-.23.14-.32.16-.16.47-.16.64,0,.08.09.13.21.13.32,0,.05,0,.12-.04.17-.02.05-.05.11-.09.14-.05.04-.1.07-.15.1s-.11.04-.17.04Z"/>
    <path class="cls-2" d="m10.24,10.67c-.25-.02-.43-.23-.41-.48h0c.02-.25.23-.43.49-.41h0c.24.02.43.23.41.48h0c-.03.24-.22.42-.45.42h0s-.03,0-.04,0Zm1.45-.67c-.15-.2-.12-.48.08-.63h0c.2-.15.49-.12.63.08h0c.15.19.13.48-.08.63h0c-.08.06-.17.09-.27.09h0c-.14,0-.27-.05-.36-.17Zm-3.42-.21c-.18-.17-.18-.46,0-.64h0c.17-.17.46-.18.64,0h0c.18.18.18.46,0,.64h0c-.09.09-.21.13-.32.13h0c-.12,0-.23-.04-.31-.13Zm4.59-1.24c-.24-.03-.42-.24-.4-.49h0c.02-.25.24-.43.49-.4h0c.24.03.42.24.4.49h0c-.03.23-.22.41-.45.41h0s-.03,0-.04,0Zm-5.52-.69c-.03-.25.15-.48.4-.5h0c.25-.03.48.14.5.4h0c.03.24-.15.47-.4.5h0s-.04,0-.05,0h0c-.22,0-.41-.17-.45-.4Zm-4.72.03c-.25-.03-.42-.25-.4-.5h0c.03-.25.25-.42.49-.4h0c.24.03.42.24.4.5h0c-.03.23-.23.4-.45.4h-.05Zm4.08-1.44c-.18-.17-.18-.46,0-.64h0c.18-.17.46-.17.64,0h0c.18.17.18.46,0,.64h0c-.08.08-.2.13-.32.13h0c-.12,0-.23-.04-.31-.13Zm-3.51-.34c-.14-.2-.11-.49.09-.63h0c.2-.15.49-.11.63.09h0c.15.2.11.48-.09.63h0c-.08.06-.17.09-.27.09h0c-.14,0-.27-.06-.36-.18Zm2.11-.3c-.25-.02-.43-.24-.41-.49h0c.03-.25.24-.43.49-.41h0c.25.02.43.23.41.49h0c-.03.23-.22.41-.45.41h-.04Z"/>
    <path class="cls-2" d="m2.66,9.81c-.12,0-.23-.05-.31-.13-.08-.08-.14-.2-.14-.32s.05-.23.14-.32c.13-.13.32-.16.49-.09.06.02.11.05.15.09.08.09.13.21.13.32s-.04.23-.13.32c-.04.04-.09.07-.15.1-.05.02-.11.04-.17.04Z"/>
  </g>
</svg>