<svg id="Cirkel" xmlns="http://www.w3.org/2000/svg" viewBox="0 0 15.59055 15.59055"><defs><style>.cls-1{fill:#11233C;}.cls-2{fill:none;}.cls-3{fill:#fff;}</style></defs><rect class="cls-1" x="0.00472" width="15.59055" height="15.59055" rx="7.79478"/><rect class="cls-2" x="6.94321" y="3.09931" width="1.51367" height="0.66815"/><path class="cls-3" d="M4.77823,12.4065a.38487.38487,0,0,0,.38489.38489H10.333a.38493.38493,0,0,0,.38495-.38489V5.48823H4.77823ZM9.17465,7.194a.25.25,0,0,1,.5,0v4.5957a.25.25,0,1,1-.5,0Zm-1.667,0a.25.25,0,1,1,.5,0v4.5957a.25.25,0,0,1-.5,0Zm-1.77246,0a.25.25,0,0,1,.5,0v4.5957a.25.25,0,0,1-.5,0Z"/><path class="cls-3" d="M10.78909,3.76746H9.05649v-.968a.29925.29925,0,0,0-.29981-.2998H6.6434a.29924.29924,0,0,0-.2998.2998v.968H4.70712a.29091.29091,0,0,0-.27893.30158v.83319H11.068V4.069A.2909.2909,0,0,0,10.78909,3.76746ZM6.94321,3.09931H8.45688v.66815H6.94321Z"/></svg>