<?xml version="1.0"?>
<svg xmlns="http://www.w3.org/2000/svg" id="travel" enable-background="new 0 0 300 300" height="512px" viewBox="0 0 300 300" width="512px" class=""><g><g><circle cx="176.059" cy="126.059" fill="#edebdc" r="86" data-original="#EDEBDC" class="active-path" style="fill:#B73F20" data-old_color="#edebdc"/><g fill="#4c241d"><path d="m246 124c-1.023 0-2.047-.391-2.828-1.172l-16-16c-1.562-1.562-1.562-4.094 0-5.656s4.094-1.562 5.656 0l16 16c1.562 1.562 1.562 4.094 0 5.656-.781.781-1.805 1.172-2.828 1.172z" data-original="#4C241D" class="" style="fill:#4C241D"/><path d="m230 124c-1.023 0-2.047-.391-2.828-1.172-1.562-1.562-1.562-4.094 0-5.656l16-16c1.562-1.562 4.094-1.562 5.656 0s1.562 4.094 0 5.656l-16 16c-.781.781-1.805 1.172-2.828 1.172z" data-original="#4C241D" class="" style="fill:#4C241D"/><path d="m180 68c-7.719 0-14-6.281-14-14s6.281-14 14-14 14 6.281 14 14-6.281 14-14 14zm0-20c-3.309 0-6 2.691-6 6s2.691 6 6 6 6-2.691 6-6-2.691-6-6-6z" data-original="#4C241D" class="" style="fill:#4C241D"/><path d="m74 71.371c-2.211 0-4-1.791-4-4v-5.658c0-2.209 1.789-4 4-4s4 1.791 4 4v5.658c0 2.209-1.789 4-4 4z" data-original="#4C241D" class="" style="fill:#4C241D"/><path d="m74 94.008c-2.211 0-4-1.791-4-4v-5.658c0-2.209 1.789-4 4-4s4 1.791 4 4v5.658c0 2.209-1.789 4-4 4z" data-original="#4C241D" class="" style="fill:#4C241D"/><path d="m65.512 79.861h-5.66c-2.211 0-4-1.791-4-4s1.789-4 4-4h5.66c2.211 0 4 1.791 4 4s-1.789 4-4 4z" data-original="#4C241D" class="" style="fill:#4C241D"/><path d="m88.148 79.861h-5.66c-2.211 0-4-1.791-4-4s1.789-4 4-4h5.66c2.211 0 4 1.791 4 4s-1.789 4-4 4z" data-original="#4C241D" class="" style="fill:#4C241D"/><circle cx="126" cy="72" r="4" data-original="#4C241D" class="" style="fill:#4C241D"/></g><g><path d="m206 236h-176v-70.91c0-24.902 20.188-45.09 45.09-45.09h130.91z" fill="#fff" data-original="#FFF" class="" style="fill:#62B4C7" data-old_color="#fff"/><path d="m206 240h-176c-2.211 0-4-1.791-4-4v-70.91c0-27.069 22.023-49.09 49.09-49.09h130.91c2.211 0 4 1.791 4 4v116c0 2.209-1.789 4-4 4zm-172-8h168v-108h-126.91c-22.656 0-41.09 18.434-41.09 41.09z" fill="#4c241d" data-original="#4C241D" class="" style="fill:#4C241D"/></g><g><circle cx="66" cy="236" fill="#6b4f5b" r="20" data-original="#6B4F5B" style="fill:#62B4C7" class="" data-old_color="#6b4f5b"/><path d="m66 260c-13.234 0-24-10.766-24-24s10.766-24 24-24 24 10.766 24 24-10.766 24-24 24zm0-40c-8.824 0-16 7.178-16 16s7.176 16 16 16 16-7.178 16-16-7.176-16-16-16z" fill="#4c241d" data-original="#4C241D" class="" style="fill:#4C241D"/></g><circle cx="66" cy="236" fill="#4c241d" r="4" data-original="#4C241D" class="" style="fill:#4C241D"/><g><path d="m146 156h44v80h-44z" fill="#fff" data-original="#FFF" class="" style="fill:#62B4C7" data-old_color="#fff"/><path d="m190 240h-44c-2.211 0-4-1.791-4-4v-80c0-2.209 1.789-4 4-4h44c2.211 0 4 1.791 4 4v80c0 2.209-1.789 4-4 4zm-40-8h36v-72h-36z" fill="#4c241d" data-original="#4C241D" class="" style="fill:#4C241D"/></g><g><path d="m158 168h20v20h-20z" fill="#9dc1e4" data-original="#9DC1E4" class="" style="fill:#9DC1E4"/><path d="m178 192h-20c-2.211 0-4-1.791-4-4v-20c0-2.209 1.789-4 4-4h20c2.211 0 4 1.791 4 4v20c0 2.209-1.789 4-4 4zm-16-8h12v-12h-12z" fill="#4c241d" data-original="#4C241D" class="" style="fill:#4C241D"/></g><g><path d="m122 188h-64v-22.162c0-7.643 6.195-13.838 13.838-13.838h50.162z" fill="#9dc1e4" data-original="#9DC1E4" class="" style="fill:#9DC1E4"/><path d="m122 192h-64c-2.211 0-4-1.791-4-4v-22.162c0-9.836 8-17.838 17.836-17.838h50.164c2.211 0 4 1.791 4 4v36c0 2.209-1.789 4-4 4zm-60-8h56v-28h-46.164c-5.422 0-9.836 4.414-9.836 9.838z" fill="#4c241d" data-original="#4C241D" class="" style="fill:#4C241D"/></g><path d="m274 260h-248c-2.211 0-4-1.791-4-4s1.789-4 4-4h248c2.211 0 4 1.791 4 4s-1.789 4-4 4z" fill="#4c241d" data-original="#4C241D" class="" style="fill:#4C241D"/><g><path d="m206 224h64v12h-64z" fill="#b5a19c" data-original="#B5A19C" class="" style="fill:#62B4C7" data-old_color="#b5a19c"/><path d="m270 240h-64c-2.211 0-4-1.791-4-4v-12c0-2.209 1.789-4 4-4h64c2.211 0 4 1.791 4 4v12c0 2.209-1.789 4-4 4zm-60-8h56v-4h-56z" fill="#4c241d" data-original="#4C241D" class="" style="fill:#4C241D"/></g><path d="m234 228c-2.211 0-4-1.791-4-4v-24c0-2.209 1.789-4 4-4s4 1.791 4 4v24c0 2.209-1.789 4-4 4z" fill="#4c241d" data-original="#4C241D" class="" style="fill:#4C241D"/><path d="m250 228c-2.211 0-4-1.791-4-4v-36c0-2.209 1.789-4 4-4s4 1.791 4 4v36c0 2.209-1.789 4-4 4z" fill="#4c241d" data-original="#4C241D" class="" style="fill:#4C241D"/><path d="m250 256c-2.211 0-4-1.791-4-4v-16c0-2.209 1.789-4 4-4s4 1.791 4 4v16c0 2.209-1.789 4-4 4z" fill="#4c241d" data-original="#4C241D" class="" style="fill:#4C241D"/><path d="m254 212h-8c-2.211 0-4-1.791-4-4s1.789-4 4-4h8c2.211 0 4 1.791 4 4s-1.789 4-4 4z" fill="#4c241d" data-original="#4C241D" class="" style="fill:#4C241D"/><path d="m146 208h-116c-2.211 0-4-1.791-4-4s1.789-4 4-4h116c2.211 0 4 1.791 4 4s-1.789 4-4 4z" fill="#4c241d" data-original="#4C241D" class="" style="fill:#4C241D"/><path d="m206 208h-16c-2.211 0-4-1.791-4-4s1.789-4 4-4h16c2.211 0 4 1.791 4 4s-1.789 4-4 4z" fill="#4c241d" data-original="#4C241D" class="" style="fill:#4C241D"/></g></g> </svg>
