<?xml version="1.0"?>
<svg xmlns="http://www.w3.org/2000/svg" xmlns:xlink="http://www.w3.org/1999/xlink" version="1.1" id="Capa_1" x="0px" y="0px" viewBox="0 0 316.587 316.587" style="enable-background:new 0 0 316.587 316.587;" xml:space="preserve" width="512px" height="512px" class="hovered-paths"><g><path d="M316.251,164.205c0.999-3.625-0.302-8.549-2.961-11.208l-47.053-47.058c-2.104-2.104-5.769-3.517-9.121-3.517  c-0.741,0-1.447,0.071-2.098,0.211l-31.932,6.883c-0.649,0.141-1.399,0.212-2.227,0.212c-2.75,0-5.85-0.782-7.716-1.946  l-13.517-8.432c-1.299-0.81-2.867-1.238-4.536-1.238c-2.44,0-4.743,0.904-6.319,2.479l-6.905,6.907l-10.541-12.861  c-3.88-4.734-11.682-8.992-17.761-9.693l-50.393-5.819c-2.585-2.438-6.058-3.945-9.883-3.945H41.259  c-7.656,0-15.343,6.056-17.134,13.5L1.033,184.635c-0.082,0.343-0.137,0.682-0.192,1.021C0.304,186.993,0,188.447,0,189.973v13.615  c0,6.408,5.214,11.622,11.622,11.622h10.757c-0.042,0.58-0.07,1.164-0.07,1.755c0,13.478,10.965,24.442,24.441,24.442  c13.478,0,24.443-10.965,24.443-24.442c0-0.591-0.028-1.175-0.07-1.755h50.959c-0.042,0.58-0.07,1.164-0.07,1.755  c0,13.478,10.965,24.442,24.441,24.442c13.477,0,24.441-10.965,24.441-24.442c0-0.591-0.028-1.175-0.07-1.755h16.919  c6.408,0,11.622-5.214,11.622-11.622v-13.615c0-6.408-5.214-11.622-11.622-11.622h-80.03V89.604c0-0.277-0.026-0.548-0.042-0.822  l44.852,5.179c3.764,0.434,9.38,3.499,11.781,6.43l11.111,13.559l-5.775,5.777c-2.823,2.823-2.823,7.417,0,10.24l8.178,8.178  c-1.629,2.953-2.504,6.282-2.504,9.749c0,5.409,2.106,10.494,5.931,14.318c3.824,3.824,8.909,5.931,14.317,5.931  c3.467,0,6.796-0.875,9.751-2.504l30.92,30.92c-4.219,7.69-3.088,17.555,3.418,24.061c3.824,3.823,8.908,5.93,14.316,5.93  c3.467,0,6.797-0.875,9.752-2.504l14.724,14.724c1.363,1.363,3.182,2.113,5.12,2.113s3.757-0.75,5.12-2.113l23.885-23.884  c2.819-2.819,2.837-7.424,0.038-10.264l-2.188-2.219c-1.988-2.018-3.032-6.029-2.28-8.76L316.251,164.205z M146.453,204.826  c6.705,0,12.141,5.434,12.141,12.14c0,6.704-5.436,12.141-12.141,12.141c-6.705,0-12.141-5.437-12.141-12.141  C134.313,210.259,139.748,204.826,146.453,204.826z M46.75,229.106c-6.703,0-12.139-5.437-12.139-12.141  c0-6.706,5.436-12.14,12.139-12.14c6.705,0,12.141,5.434,12.141,12.14C58.891,223.669,53.455,229.106,46.75,229.106z   M88.828,161.921c0,4.49-3.673,8.163-8.163,8.163H25.229c-4.49,0-7.228-3.552-6.084-7.894l15.529-58.962  c1.143-4.341,5.752-7.894,10.242-7.894h35.748c4.49,0,8.163,3.673,8.163,8.163V161.921z M202.674,155.005  c-3.928,3.928-10.297,3.929-14.225,0c-3.928-3.927-3.928-10.295,0.002-14.223c3.928-3.93,10.295-3.929,14.223,0  C206.602,144.709,206.602,151.078,202.674,155.005z M229.102,123.753c-1.871-1.871-1.298-3.91,1.274-4.532l23.936-5.788  c2.572-0.622,6.206,0.399,8.077,2.271l17.173,17.175l-20.668,20.669L229.102,123.753z M261.08,213.413  c-3.928,3.929-10.297,3.929-14.223,0.001c-3.93-3.929-3.928-10.297,0-14.225c3.928-3.929,10.295-3.928,14.223,0  C265.008,203.117,265.01,209.485,261.08,213.413z M304.73,164.039l-6.77,22.589c-0.76,2.534-2.911,3.077-4.782,1.206l-26.1-26.102  l20.668-20.668l14.963,14.966C304.581,157.901,305.49,161.504,304.73,164.039z" data-original="#000000" class="hovered-path active-path" data-old_color="#000000" fill="#D8A649"/></g> </svg>
