<?xml version="1.0"?>
<svg xmlns="http://www.w3.org/2000/svg" xmlns:xlink="http://www.w3.org/1999/xlink" version="1.1" id="Layer_1" x="0px" y="0px" viewBox="0 0 512 512" style="enable-background:new 0 0 512 512;" xml:space="preserve" width="512px" height="512px" class=""><g><path style="fill:#E95C31" d="M438.23,301.14L262.687,67.082c-2.159-2.879-5.918-4.054-9.331-2.915  c-3.413,1.139-5.716,4.333-5.716,7.931v234.057c0,4.616,3.743,8.359,8.359,8.359h175.543  C438.286,314.514,442.29,306.551,438.23,301.14z" data-original="#FF9940" class="" data-old_color="#FF9940"/><path style="fill:#B63328" d="M258.884,131.125c-3.29-1.21-6.984-0.239-9.254,2.433L107.524,300.741  c-4.526,5.326-0.606,13.773,6.37,13.773H256c4.616,0,8.359-3.743,8.359-8.359V138.971  C264.359,135.467,262.173,132.334,258.884,131.125z" data-original="#FFD042" class="" data-old_color="#FFD042"/><path style="fill:#B63328" d="M317.977,25.078l10.807-10.807C333.945,9.108,330.149,0,322.873,0H256  c-4.616,0-8.359,3.743-8.359,8.359v33.437c0,4.616,3.743,8.359,8.359,8.359h66.873c7.276,0,11.072-9.108,5.911-14.27L317.977,25.078  z" data-original="#FF6C5C" class="" data-old_color="#FF6C5C"/><path style="fill:#38CED9" d="M256,356.31c-4.616,0-8.359-3.743-8.359-8.359V8.359C247.641,3.743,251.384,0,256,0  s8.359,3.743,8.359,8.359v339.592C264.359,352.567,260.616,356.31,256,356.31z" data-original="#807A72" class="" data-old_color="#807A72"/><path style="fill:#196E88" d="M463.731,343.556c-1.522-2.464-4.214-3.964-7.111-3.964H55.38c-6.095,0-10.211,6.631-7.476,12.098  l58.514,117.029c1.416,2.832,4.31,4.621,7.476,4.621h284.212c3.166,0,6.06-1.789,7.476-4.621l58.514-117.029  C465.393,349.098,465.254,346.021,463.731,343.556z" data-original="#A4A09A" class="" data-old_color="#A4A09A"/><path style="fill:#196E88" d="M106.418,468.718c1.416,2.832,4.31,4.621,7.476,4.621h284.212c3.166,0,6.06-1.789,7.476-4.621  l22.942-45.883H83.476L106.418,468.718z" data-original="#928D86" class="active-path" data-old_color="#928D86"/><g>
	<path style="fill:#38CED9" d="M373.029,364.669c-4.616,0-8.359,3.743-8.359,8.359s3.743,8.359,8.359,8.359h76.219l8.359-16.718   H373.029z" data-original="#807A72" class="" data-old_color="#807A72"/>
	<path style="fill:#38CED9" d="M314.514,364.669H130.612c-4.616,0-8.359,3.743-8.359,8.359s3.743,8.359,8.359,8.359h183.902   c4.616,0,8.359-3.743,8.359-8.359S319.131,364.669,314.514,364.669z" data-original="#807A72" class="" data-old_color="#807A72"/>
	<path style="fill:#38CED9" d="M130.612,406.465c0-4.616-3.743-8.359-8.359-8.359H72.098c-0.324,0-0.643,0.023-0.957,0.059   l8.33,16.66h42.782C126.869,414.824,130.612,411.082,130.612,406.465z" data-original="#807A72" class="" data-old_color="#807A72"/>
	<path style="fill:#38CED9" d="M272.718,398.106h-25.078c-4.616,0-8.359,3.743-8.359,8.359c0,4.616,3.743,8.359,8.359,8.359h25.078   c4.616,0,8.359-3.743,8.359-8.359C281.078,401.849,277.335,398.106,272.718,398.106z" data-original="#807A72" class="" data-old_color="#807A72"/>
	<path style="fill:#38CED9" d="M389.747,406.465c0,4.616,3.743,8.359,8.359,8.359h34.423l8.359-16.718h-42.782   C393.49,398.106,389.747,401.849,389.747,406.465z" data-original="#807A72" class="" data-old_color="#807A72"/>
	<path style="fill:#38CED9" d="M105.535,373.029c0-4.616-3.743-8.359-8.359-8.359H55.38c-0.324,0-0.643,0.023-0.957,0.059   l8.33,16.66h34.423C101.792,381.388,105.535,377.645,105.535,373.029z" data-original="#807A72" class="" data-old_color="#807A72"/>
</g><path style="fill:#D9ECF2" d="M490.057,406.465c-4.616,0-8.359,3.743-8.359,8.359c0,13.827-11.25,25.078-25.078,25.078  c-13.827,0-25.078-11.25-25.078-25.078c0-4.616-3.743-8.359-8.359-8.359s-8.359,3.743-8.359,8.359  c0,13.827-11.25,25.078-25.078,25.078c-13.827,0-25.078-11.25-25.078-25.078c0-4.616-3.743-8.359-8.359-8.359  s-8.359,3.743-8.359,8.359c0,13.827-11.25,25.078-25.078,25.078c-13.827,0-25.078-11.25-25.078-25.078  c0-4.616-3.743-8.359-8.359-8.359c-4.616,0-8.359,3.743-8.359,8.359c0,13.827-11.25,25.078-25.078,25.078  s-25.078-11.25-25.078-25.078c0-4.616-3.743-8.359-8.359-8.359c-4.616,0-8.359,3.743-8.359,8.359  c0,13.827-11.25,25.078-25.078,25.078s-25.078-11.25-25.078-25.078c0-4.616-3.743-8.359-8.359-8.359s-8.359,3.743-8.359,8.359  c0,13.827-11.25,25.078-25.078,25.078c-13.827,0-25.078-11.25-25.078-25.078c0-4.616-3.743-8.359-8.359-8.359  s-8.359,3.743-8.359,8.359c0,13.827-11.25,25.078-25.078,25.078s-25.078-11.25-25.078-25.078c0-4.616-3.743-8.359-8.359-8.359  s-8.359,3.743-8.359,8.359v88.816c0,4.616,3.743,8.359,8.359,8.359h468.114c4.616,0,8.359-3.743,8.359-8.359v-88.816  C498.416,410.208,494.673,406.465,490.057,406.465z" data-original="#38CED9" class="" data-old_color="#38CED9"/><path style="fill:#5EBED1" d="M490.057,448.261c-4.616,0-8.359,3.743-8.359,8.359c0,13.827-11.25,25.078-25.078,25.078  c-13.827,0-25.078-11.25-25.078-25.078c0-4.616-3.743-8.359-8.359-8.359s-8.359,3.743-8.359,8.359  c0,13.827-11.25,25.078-25.078,25.078c-13.827,0-25.078-11.25-25.078-25.078c0-4.616-3.743-8.359-8.359-8.359  s-8.359,3.743-8.359,8.359c0,13.827-11.25,25.078-25.078,25.078c-13.827,0-25.078-11.25-25.078-25.078  c0-4.616-3.743-8.359-8.359-8.359c-4.616,0-8.359,3.743-8.359,8.359c0,13.827-11.25,25.078-25.078,25.078  s-25.078-11.25-25.078-25.078c0-4.616-3.743-8.359-8.359-8.359c-4.616,0-8.359,3.743-8.359,8.359  c0,13.827-11.25,25.078-25.078,25.078s-25.078-11.25-25.078-25.078c0-4.616-3.743-8.359-8.359-8.359s-8.359,3.743-8.359,8.359  c0,13.827-11.25,25.078-25.078,25.078c-13.827,0-25.078-11.25-25.078-25.078c0-4.616-3.743-8.359-8.359-8.359  s-8.359,3.743-8.359,8.359c0,13.827-11.25,25.078-25.078,25.078s-25.078-11.25-25.078-25.078c0-4.616-3.743-8.359-8.359-8.359  s-8.359,3.743-8.359,8.359v47.02c0,4.616,3.743,8.359,8.359,8.359h468.114c4.616,0,8.359-3.743,8.359-8.359v-47.02  C498.416,452.004,494.673,448.261,490.057,448.261z" data-original="#89EBF0" class="" data-old_color="#89EBF0"/></g> </svg>
