<?xml version="1.0" encoding="iso-8859-1"?>
<!-- Generator: Adobe Illustrator 19.0.0, SVG Export Plug-In . SVG Version: 6.00 Build 0)  -->
<svg version="1.1" id="Capa_1" xmlns="http://www.w3.org/2000/svg" xmlns:xlink="http://www.w3.org/1999/xlink" x="0px" y="0px"
	 viewBox="0 0 512 512" style="enable-background:new 0 0 512 512;" xml:space="preserve">
<path style="fill:#A17852;" d="M103.915,425.552C46.616,425.552,0,378.935,0,321.636S46.616,217.72,103.915,217.72
	S207.83,264.336,207.83,321.636S161.214,425.552,103.915,425.552z M103.915,247.721C63.158,247.721,30,280.879,30,321.636
	s33.158,73.915,73.915,73.915s73.915-33.158,73.915-73.915S144.672,247.721,103.915,247.721z"/>
<path style="fill:#715539;" d="M408.084,425.552c-57.299,0-103.915-46.616-103.915-103.915s46.616-103.916,103.915-103.916
	S512,264.337,512,321.637S465.384,425.552,408.084,425.552z M408.084,247.721c-40.757,0-73.915,33.158-73.915,73.916
	s33.158,73.915,73.915,73.915S482,362.394,482,321.637S448.842,247.721,408.084,247.721z"/>
<polygon style="fill:#67BD00;" points="422.47,317.388 393.7,325.888 353.43,189.558 321.66,195.168 277.29,346.728 262.76,345.888 
	103.05,336.608 104.79,306.658 255.21,315.398 262.76,289.608 288.7,200.998 262.76,205.578 200.77,216.528 166.89,256.448 
	144.02,237.038 168.91,207.708 136.28,149.558 162.45,134.878 192.03,187.608 262.76,175.118 344.88,160.608 331.83,116.448 
	295.47,116.448 295.47,86.448 354.25,86.448 "/>
<rect x="114.07" y="120.87" style="fill:#FFA92F;" width="74.76" height="30"/>
<polygon style="fill:#5EAD00;" points="422.47,317.388 393.7,325.888 353.43,189.558 321.66,195.168 277.29,346.728 262.76,345.888 
	262.76,289.608 288.7,200.998 262.76,205.578 262.76,175.118 344.88,160.608 331.83,116.448 295.47,116.448 295.47,86.448 
	354.25,86.448 "/>
<g>
</g>
<g>
</g>
<g>
</g>
<g>
</g>
<g>
</g>
<g>
</g>
<g>
</g>
<g>
</g>
<g>
</g>
<g>
</g>
<g>
</g>
<g>
</g>
<g>
</g>
<g>
</g>
<g>
</g>
</svg>
