<?xml version="1.0"?>
<svg xmlns="http://www.w3.org/2000/svg" xmlns:xlink="http://www.w3.org/1999/xlink" version="1.1" id="Layer_1" x="0px" y="0px" viewBox="0 0 511.999 511.999" style="enable-background:new 0 0 511.999 511.999;" xml:space="preserve" width="512px" height="512px"><g><g>
	<g>
		<path d="M412.433,0h-85.906c-19.746,0-35.811,16.065-35.811,35.811v27.693H77.279l-32.653,40.117l32.654,40.117h40.528    l9.144-6.391l9.143,6.391h22.678l12.959-8.613l12.959,8.613h28.048l5.674-4.055l5.674,4.055h66.631v27.693    c0,19.747,16.065,35.811,35.811,35.811h85.906c19.746,0,35.811-16.065,35.811-35.811V35.811C448.243,16.065,432.178,0,412.433,0z     M290.716,113.744h-57.013l-15.291-10.93l-15.291,10.93h-9.373l-22.016-14.632l-22.016,14.632h-4.177l-18.586-12.99l-18.587,12.99    H91.54l-8.24-10.123l8.24-10.124h199.176V113.744z M418.249,171.43c0,3.208-2.609,5.817-5.817,5.817h-85.906    c-3.207,0-5.817-2.609-5.817-5.817v-42.69v-14.997V93.498V78.501v-42.69c0-3.207,2.609-5.817,5.817-5.817h85.906    c3.207,0,5.817,2.609,5.817,5.817V171.43z" data-original="#000000" class="active-path" data-old_color="#000000" fill="#5EBED1"/>
	</g>
</g><g>
	<g>
		<rect x="371.871" y="66.82" width="29.994" height="73.605" data-original="#000000" class="active-path" data-old_color="#000000" fill="#5EBED1"/>
	</g>
</g><g>
	<g>
		<path d="M441.16,245.532h-58.814l-12.842,18.203l-13.97-20.955c-8.096-12.146-21.646-19.399-36.245-19.399H192.575    c-14.598,0-28.147,7.252-36.245,19.398l-13.906,20.859l-12.774-18.106H70.836c-19.952,0-36.183,16.232-36.183,36.183v5.779    c0,19.952,16.232,36.184,36.183,36.184H91.68l-4.832,3.866c-10.767,8.613-16.94,21.46-16.94,35.247v103.419h20.022v8.879    c0,20.353,16.558,36.91,36.91,36.91h16.844c20.352,0,36.91-16.558,36.91-36.91v-8.879h0.378h150.055h0.378v8.879    c0,20.353,16.559,36.91,36.91,36.91h16.844c20.353,0,36.91-16.558,36.91-36.91v-8.879h19.89V362.791    c0-13.787-6.175-26.634-16.94-35.247l-4.832-3.866h20.977c19.952,0,36.184-16.232,36.184-36.183v-5.779    C477.344,261.765,461.113,245.532,441.16,245.532z M181.286,259.417c2.521-3.783,6.742-6.041,11.289-6.041h126.713    c4.547,0,8.767,2.258,11.289,6.042l23.056,34.584l-15.664,16.848h-61.273H235.3h-61.273l-15.741-16.93L181.286,259.417z     M70.836,293.686c-3.413-0.001-6.19-2.777-6.19-6.191v-5.779c0-3.413,2.776-6.19,6.19-6.19h43.268l10.486,14.864l-2.197,3.295    H70.836z M150.599,475.091c0,3.814-3.103,6.917-6.917,6.917h-16.844c-3.814,0-6.917-3.102-6.917-6.917v-8.879h30.677V475.091z     M301.032,436.218h-90.067v-19.617c0-2.206,1.794-3.999,3.999-3.999h82.069c2.206,0,3.999,1.794,3.999,3.999V436.218z     M392.074,475.091L392.074,475.091c0,3.814-3.103,6.917-6.917,6.917h-16.843c-3.813,0-6.917-3.102-6.917-6.917v-8.879h30.677    V475.091z M411.964,436.219h-80.559h-0.379v-0.001v-19.617c0-18.744-15.249-33.993-33.993-33.993h-82.069    c-18.744,0-33.993,15.249-33.993,33.993v19.617h-0.378H99.9v-52.23l11.938,12.84h44.236v-29.994h-31.169l-16.702-17.963    l28.816-23.052l4.163-6.245l19.776,21.27H235.3h41.395h74.342l19.699-21.187l4.108,6.162l28.891,23.113l-16.645,17.902h-31.169    v29.994h44.236l11.806-12.697V436.219z M447.35,287.495L447.35,287.495c0,3.413-2.776,6.19-6.19,6.19h-51.557l-2.197-3.295    l10.486-14.864h43.268c3.413,0,6.19,2.776,6.19,6.19V287.495z" data-original="#000000" class="active-path" data-old_color="#000000" fill="#5EBED1"/>
	</g>
</g></g> </svg>
