<?xml version="1.0" encoding="iso-8859-1"?>
<!-- Generator: Adobe Illustrator 19.0.0, SVG Export Plug-In . SVG Version: 6.00 Build 0)  -->
<svg version="1.1" id="Layer_1" xmlns="http://www.w3.org/2000/svg" xmlns:xlink="http://www.w3.org/1999/xlink" x="0px" y="0px"
	 viewBox="0 0 512 512" style="enable-background:new 0 0 512 512;" xml:space="preserve">
<g>
	<path style="fill:#512807;" d="M431.862,317.611c-3.493-1.193-7.235,0.069-9.353,2.862l-19.483-14.763l-28.877,5.862l-0.329-0.98
		c-1.466-4.374-6.197-6.73-10.575-5.266c-4.374,1.466-6.731,6.2-5.266,10.575l15.043,44.882l-17.02,30.432
		c-1.917,0.694-4.163,1.817-6.414,3.627c-4.444,3.578-9.915,10.751-10.741,24.605c-0.137,2.298,0.679,4.55,2.258,6.225
		c1.578,1.676,3.779,2.625,6.08,2.625h49.724c3.573,0,6.75-2.272,7.905-5.653l32.253-94.429
		C438.559,323.85,436.228,319.102,431.862,317.611z"/>
	<path style="fill:#512807;" d="M187.524,310.69c-4.038-0.386-7.678,2.152-8.807,5.888l-17.217-5.225l-0.023-2.617
		c-0.041-4.587-3.772-8.278-8.351-8.278c-0.026,0-0.051,0-0.076,0c-4.613,0.041-8.32,3.815-8.278,8.428l0.752,84.245
		c-11.279,14.18-14.454,23.033-14.793,24.042c-0.858,2.549-0.435,5.355,1.134,7.538c1.569,2.184,4.094,3.478,6.783,3.478h38.177
		c4.298,0,7.894-3.261,8.313-7.539l9.886-100.834C195.472,315.226,192.115,311.139,187.524,310.69z"/>
	<path style="fill:#512807;" d="M503.549,264.294c-0.131,0-0.263-0.003-0.395-0.009c-4.609-0.215-8.169-4.125-7.955-8.734
		c2.62-56.134-50.71-98.249-51.249-98.668c-3.644-2.83-4.301-8.078-1.47-11.72c2.832-3.645,8.079-4.301,11.72-1.47
		c2.481,1.927,60.705,47.942,57.687,112.637C511.678,260.807,507.984,264.294,503.549,264.294z"/>
</g>
<path style="fill:#A86B38;" d="M505.036,320.563l-28.629-59.047c8.856-37.127,7.02-68.788-5.468-94.14
	c-12.099-24.56-31.645-37.863-45.913-44.698c-21.196-10.155-67.38-6.031-104.489-2.719c-17.488,1.561-35.571,3.173-41.262,2.057
	c-6.902-1.359-19.105-8.342-30.908-15.097c-17.604-10.073-37.555-21.49-53.815-23.077c-27.991-2.732-79.858,35.328-85.679,39.676
	c-1.778,1.328-2.868,3.229-3.222,5.255l-5.065-0.885c0.012-0.068,0.03-0.134,0.04-0.202c0.682-4.562-2.464-8.813-7.025-9.496
	c-4.978-0.743-49.144-6.766-66.1,10.761C-2.539,160.003-0.98,203.229,0.825,253.284l0.155,4.315
	c0.832,23.393,6.689,38.66,17.409,45.377c4.515,2.83,8.997,3.594,12.709,3.603c4.796,12.125,17.067,35.057,41.467,35.778
	c0.307,0.009,0.614,0.013,0.921,0.013c9.557,0,18.992-4.388,27.341-12.731c7.333-7.326,13.513-17.417,18.23-29.231
	c14.31,9.142,43.587,25.104,77.914,28.484c9.178,24.278,17.92,51.991,17.23,57.702c-0.384,2.839-2.026,5.007-4.893,8.597
	c-4.169,5.219-9.878,12.365-9.878,24.646c0,4.614,3.74,8.353,8.353,8.353h33.471c4.417,0,8.071-3.44,8.337-7.85l5.515-91.28
	c2.67,0.055,5.352,0.081,8.045,0.081c56.018,0,115.666-11.235,131.548-14.443c22.177,17.098,47.047,25.482,59.551,28.886
	c-2.893,15.757-6.649,32.127-8.905,37.006c-19.302,10.5-20.516,31.269-18.362,41.044c0.844,3.829,4.237,6.555,8.157,6.555h39.298
	c3.858,0,7.215-2.643,8.12-6.393l23.081-95.629C506.093,324.287,505.88,322.305,505.036,320.563z"/>
<g>
	<path style="fill:#8C4A14;" d="M505.036,320.563l-28.629-59.047c8.856-37.127,7.02-68.788-5.468-94.14
		c-12.099-24.56-31.645-37.863-45.913-44.698c-13.857-6.639-38.394-7.174-64.093-5.824c13.563,3.18,32.718,10.726,38.208,13.356
		c29.942,14.345,66.746,50.525,46.161,132.241l29.942,61.755l-25.096,103.982h24.291c3.858,0,7.215-2.643,8.12-6.393l23.08-95.628
		C506.093,324.287,505.88,322.305,505.036,320.563z"/>
	<path style="fill:#8C4A14;" d="M120.948,239.605c-0.07,0-0.141,0-0.213,0c-11.743-0.025-21.634,8.841-22.814,20.525
		c-3.018,29.893-24.828,63.231-42.098,77.679c4.808,2.64,10.356,4.359,16.743,4.549c0.307,0.009,0.614,0.013,0.921,0.013
		c9.557,0,18.992-4.388,27.341-12.731c7.32-7.313,13.491-17.381,18.203-29.167C125.616,279.281,127.71,256.584,120.948,239.605z"/>
</g>
<path style="fill:#2A2A2C;" d="M38.35,267.165c-10.758-11.036-27.785-8.53-29.689-8.208c-4.38,0.741-7.415,4.779-6.907,9.193
	c2.07,17.979,7.943,29.861,17.455,35.311c4.158,2.382,8.244,3.112,11.69,3.112c4.928,0,8.545-1.492,9.175-1.771
	c2.501-1.103,4.305-3.36,4.828-6.043C47.585,285.005,45.381,274.375,38.35,267.165z"/>
<path d="M37.65,217.021c-5.255,0-9.529-4.268-9.529-9.514c0-5.247,4.275-9.515,9.529-9.515s9.529,4.268,9.529,9.515
	C47.179,212.753,42.905,217.021,37.65,217.021z"/>
<path style="fill:#2A2A2C;" d="M116.003,98.405c-1.159-3.841-4.892-6.323-8.879-5.894c-3.992,0.423-7.118,3.626-7.444,7.627
	c-2.715,33.259-42.084,54.952-42.682,55.277c-4.061,2.181-5.589,7.239-3.411,11.303c0,0,6.807,23.894,10.381,32.284
	c0.267,0.848,0.667,1.668,1.221,2.426c1.636,2.236,4.175,3.421,6.749,3.421c1.711,0,3.436-0.523,4.923-1.609
	c1.225-0.897,30.113-22.114,40.314-37.941C129.756,145.777,117.448,103.196,116.003,98.405z"/>
<g>
</g>
<g>
</g>
<g>
</g>
<g>
</g>
<g>
</g>
<g>
</g>
<g>
</g>
<g>
</g>
<g>
</g>
<g>
</g>
<g>
</g>
<g>
</g>
<g>
</g>
<g>
</g>
<g>
</g>
</svg>
