<?xml version="1.0" encoding="iso-8859-1"?>
<!-- Generator: Adobe Illustrator 19.0.0, SVG Export Plug-In . SVG Version: 6.00 Build 0)  -->
<svg version="1.1" id="Capa_1" xmlns="http://www.w3.org/2000/svg" xmlns:xlink="http://www.w3.org/1999/xlink" x="0px" y="0px"
	 viewBox="0 0 512 512" style="enable-background:new 0 0 512 512;" xml:space="preserve">
<rect x="34.133" y="110.933" style="fill:#A02020;" width="443.733" height="85.333"/>
<path style="fill:#DD352E;" d="M460.8,24.713c0-8.934-7.245-16.179-16.179-16.179H67.379c-8.934,0-16.179,7.245-16.179,16.179v8.815
	c0,16.777-6.665,32.87-18.534,44.74l0,0C17.212,93.722,8.533,114.679,8.533,136.533l0,0h494.933l0,0
	c0-21.854-8.678-42.812-24.132-58.266l0,0c-11.87-11.87-18.534-27.964-18.534-44.74V24.713z"/>
<path style="fill:#A02020;" d="M55.467,187.733h-8.533c-21.205,0-38.4-17.195-38.4-38.4v-12.8h85.333v12.8
	C93.867,170.539,76.672,187.733,55.467,187.733L55.467,187.733z"/>
<path style="fill:#BC2424;" d="M140.8,187.733h-8.533c-21.205,0-38.4-17.195-38.4-38.4v-12.8H179.2v12.8
	C179.2,170.539,162.005,187.733,140.8,187.733L140.8,187.733z"/>
<path style="fill:#A02020;" d="M379.733,187.733H371.2c-21.205,0-38.4-17.195-38.4-38.4v-12.8h85.333v12.8
	C418.133,170.539,400.939,187.733,379.733,187.733L379.733,187.733z"/>
<path style="fill:#BC2424;" d="M465.067,187.733h-8.533c-21.205,0-38.4-17.195-38.4-38.4v-12.8h85.333v12.8
	C503.467,170.539,486.272,187.733,465.067,187.733L465.067,187.733z"/>
<path style="fill:#A02020;" d="M217.6,187.733L217.6,187.733c-21.205,0-38.4-17.195-38.4-38.4v-12.8H256v12.8
	C256,170.539,238.805,187.733,217.6,187.733L217.6,187.733z"/>
<path style="fill:#BC2424;" d="M294.4,187.733L294.4,187.733c-21.205,0-38.4-17.195-38.4-38.4v-12.8h76.8v12.8
	C332.8,170.539,315.605,187.733,294.4,187.733L294.4,187.733z"/>
<path style="fill:#46AB6F;" d="M465.067,187.733h-8.533c-16.691,0-30.754-10.718-36.045-25.6h-4.702
	c-5.291,14.882-19.354,25.6-36.045,25.6h-8.533c-16.691,0-30.754-10.718-36.045-25.6h-4.702c-5.291,14.882-19.354,25.6-36.045,25.6
	c-16.691,0-30.754-10.718-36.045-25.6h-4.702c-5.291,14.882-19.354,25.6-36.045,25.6s-30.754-10.718-36.045-25.6h-4.702
	c-5.291,14.882-19.354,25.6-36.045,25.6h-8.533c-16.691,0-30.754-10.718-36.045-25.6h-4.702c-5.291,14.882-19.354,25.6-36.045,25.6
	h-8.533c-4.514,0-8.781-0.922-12.8-2.355v318.089h443.733V185.378C473.847,186.812,469.581,187.733,465.067,187.733z"/>
<rect x="68.267" y="230.4" style="fill:#63393D;" width="136.533" height="273.067"/>
<rect x="238.933" y="230.4" style="fill:#186637;" width="204.8" height="238.933"/>
<g>
	<path style="fill:#EBBA16;" d="M324.267,230.4c0,0,0,93.867-85.333,119.467V230.4H324.267z"/>
	<path style="fill:#EBBA16;" d="M358.4,230.4c0,0,0,93.867,85.333,119.467V230.4H358.4z"/>
</g>
<rect x="324.267" y="418.133" style="fill:#FBCE9D;" width="34.133" height="51.2"/>
<rect x="281.6" y="384" style="fill:#DB976A;" width="119.467" height="34.133"/>
<g>
	<path style="fill:#4D007E;" d="M503.467,145.067H8.533c-4.71,0-8.533-3.814-8.533-8.533c0-24.294,9.455-47.13,26.633-64.299
		c10.342-10.342,16.034-24.081,16.034-38.707v-8.815C42.667,11.093,53.751,0,67.379,0h377.242c13.628,0,24.713,11.093,24.713,24.713
		v8.806c0,14.626,5.692,28.365,16.034,38.707C502.545,89.404,512,112.239,512,136.533C512,141.252,508.177,145.067,503.467,145.067z
		 M17.553,128h476.902c-1.886-16.512-9.233-31.787-21.154-43.699c-13.568-13.568-21.035-31.599-21.035-50.773v-8.815
		c0-4.215-3.43-7.646-7.646-7.646H67.379c-4.215,0-7.646,3.43-7.646,7.646v8.806c0,19.174-7.467,37.205-21.026,50.773
		C26.778,96.213,19.439,111.488,17.553,128z"/>
	<path style="fill:#4D007E;" d="M93.867,145.067c-4.71,0-8.533-3.814-8.533-8.533v-9.259c0-17.818,4.847-35.319,14.02-50.603
		c7.578-12.629,11.58-27.085,11.58-41.813V8.533c0-4.719,3.823-8.533,8.533-8.533C124.177,0,128,3.814,128,8.533v26.325
		c0,17.818-4.847,35.319-14.02,50.603c-7.578,12.629-11.58,27.093-11.58,41.813v9.259C102.4,141.252,98.577,145.067,93.867,145.067z
		"/>
	<path style="fill:#4D007E;" d="M179.2,145.067c-4.71,0-8.533-3.814-8.533-8.533V124.16c0-14.993,1.493-30.054,4.437-44.766
		c2.714-13.611,4.096-27.546,4.096-41.421V8.533c0-4.719,3.823-8.533,8.533-8.533c4.71,0,8.533,3.814,8.533,8.533v29.44
		c0,14.993-1.493,30.054-4.437,44.766c-2.714,13.611-4.096,27.546-4.096,41.421v12.373
		C187.733,141.252,183.91,145.067,179.2,145.067z"/>
	<path style="fill:#4D007E;" d="M256,145.067c-4.71,0-8.533-3.814-8.533-8.533v-128C247.467,3.814,251.29,0,256,0
		c4.71,0,8.533,3.814,8.533,8.533v128C264.533,141.252,260.71,145.067,256,145.067z"/>
	<path style="fill:#4D007E;" d="M332.8,145.067c-4.71,0-8.533-3.814-8.533-8.533V124.16c0-13.875-1.382-27.81-4.096-41.421
		c-2.944-14.703-4.437-29.773-4.437-44.766V8.533c0-4.719,3.823-8.533,8.533-8.533s8.533,3.814,8.533,8.533v29.44
		c0,13.875,1.382,27.81,4.096,41.421c2.944,14.703,4.437,29.773,4.437,44.766v12.373C341.333,141.252,337.51,145.067,332.8,145.067z
		"/>
	<path style="fill:#4D007E;" d="M418.133,145.067c-4.71,0-8.533-3.814-8.533-8.533v-9.259c0-14.729-4.002-29.184-11.58-41.813
		C388.847,70.178,384,52.676,384,34.859V8.533C384,3.814,387.823,0,392.533,0s8.533,3.814,8.533,8.533v26.325
		c0,14.729,4.002,29.184,11.58,41.813c9.173,15.283,14.02,32.785,14.02,50.603v9.259
		C426.667,141.252,422.844,145.067,418.133,145.067z"/>
	<path style="fill:#4D007E;" d="M55.467,196.267h-8.533C21.052,196.267,0,175.206,0,149.333v-12.8C0,131.814,3.823,128,8.533,128
		h85.333c4.71,0,8.533,3.814,8.533,8.533v12.8C102.4,175.206,81.348,196.267,55.467,196.267z M17.067,145.067v4.267
		c0,16.469,13.397,29.867,29.867,29.867h8.533c16.469,0,29.867-13.397,29.867-29.867v-4.267H17.067z"/>
	<path style="fill:#4D007E;" d="M140.8,196.267h-8.533c-25.882,0-46.933-21.06-46.933-46.933v-12.8c0-4.719,3.823-8.533,8.533-8.533
		H179.2c4.71,0,8.533,3.814,8.533,8.533v12.8C187.733,175.206,166.682,196.267,140.8,196.267z M102.4,145.067v4.267
		c0,16.469,13.397,29.867,29.867,29.867h8.533c16.469,0,29.867-13.397,29.867-29.867v-4.267H102.4z"/>
	<path style="fill:#4D007E;" d="M379.733,196.267H371.2c-25.882,0-46.933-21.06-46.933-46.933v-12.8
		c0-4.719,3.823-8.533,8.533-8.533h85.333c4.71,0,8.533,3.814,8.533,8.533v12.8C426.667,175.206,405.615,196.267,379.733,196.267z
		 M341.333,145.067v4.267c0,16.469,13.397,29.867,29.867,29.867h8.533c16.469,0,29.867-13.397,29.867-29.867v-4.267H341.333z"/>
	<path style="fill:#4D007E;" d="M465.067,196.267h-8.533c-25.882,0-46.933-21.06-46.933-46.933v-12.8
		c0-4.719,3.823-8.533,8.533-8.533h85.333c4.71,0,8.533,3.814,8.533,8.533v12.8C512,175.206,490.948,196.267,465.067,196.267z
		 M426.667,145.067v4.267c0,16.469,13.397,29.867,29.867,29.867h8.533c16.469,0,29.867-13.397,29.867-29.867v-4.267H426.667z"/>
	<path style="fill:#4D007E;" d="M217.6,196.267c-25.882,0-46.933-21.06-46.933-46.933v-12.8c0-4.719,3.823-8.533,8.533-8.533H256
		c4.71,0,8.533,3.814,8.533,8.533v12.8C264.533,175.206,243.482,196.267,217.6,196.267z M187.733,145.067v4.267
		c0,16.469,13.397,29.867,29.867,29.867s29.867-13.397,29.867-29.867v-4.267H187.733z"/>
	<path style="fill:#4D007E;" d="M294.4,196.267c-25.882,0-46.933-21.06-46.933-46.933v-12.8c0-4.719,3.823-8.533,8.533-8.533h76.8
		c4.71,0,8.533,3.814,8.533,8.533v12.8C341.333,175.206,320.282,196.267,294.4,196.267z M264.533,145.067v4.267
		c0,16.469,13.397,29.867,29.867,29.867c16.469,0,29.867-13.397,29.867-29.867v-4.267H264.533z"/>
	<path style="fill:#4D007E;" d="M477.867,512H34.133c-4.71,0-8.533-3.814-8.533-8.533v-318.08c0-2.773,1.348-5.367,3.61-6.963
		c2.27-1.604,5.163-2.005,7.774-1.075c3.533,1.246,6.784,1.852,9.95,1.852h8.533c12.518,0,23.774-8.004,28.006-19.925
		c1.212-3.396,4.429-5.675,8.038-5.675h4.702c3.61,0,6.835,2.278,8.038,5.675c4.241,11.921,15.497,19.925,28.015,19.925h8.533
		c12.518,0,23.774-8.004,28.006-19.925c1.212-3.396,4.429-5.675,8.038-5.675h4.702c3.61,0,6.835,2.278,8.038,5.675
		c4.241,11.921,15.497,19.925,28.015,19.925c12.518,0,23.774-8.004,28.006-19.925c1.212-3.396,4.429-5.675,8.038-5.675h4.702
		c3.61,0,6.835,2.278,8.038,5.675c4.241,11.921,15.497,19.925,28.015,19.925c12.518,0,23.774-8.004,28.006-19.925
		c1.212-3.396,4.429-5.675,8.038-5.675h4.702c3.61,0,6.835,2.278,8.038,5.675c4.241,11.921,15.497,19.925,28.015,19.925h8.533
		c12.518,0,23.774-8.004,28.006-19.925c1.212-3.396,4.429-5.675,8.038-5.675h4.702c3.61,0,6.835,2.278,8.038,5.675
		c4.241,11.921,15.497,19.925,28.015,19.925h8.533c3.166,0,6.417-0.606,9.95-1.86c2.611-0.939,5.513-0.529,7.774,1.075
		c2.261,1.604,3.61,4.19,3.61,6.972v318.08C486.4,508.186,482.577,512,477.867,512z M42.667,494.933h426.667v-298.88
		c-1.425,0.137-2.842,0.213-4.267,0.213h-8.533c-15.505,0-29.781-7.774-38.4-20.19c-8.619,12.416-22.895,20.19-38.4,20.19H371.2
		c-15.505,0-29.781-7.774-38.4-20.19c-8.619,12.416-22.895,20.19-38.4,20.19c-15.505,0-29.781-7.774-38.4-20.19
		c-8.619,12.416-22.895,20.19-38.4,20.19s-29.781-7.774-38.4-20.19c-8.619,12.416-22.895,20.19-38.4,20.19h-8.533
		c-15.505,0-29.781-7.774-38.4-20.19c-8.619,12.416-22.895,20.19-38.4,20.19h-8.533c-1.425,0-2.842-0.077-4.267-0.213V494.933z"/>
	<path style="fill:#4D007E;" d="M204.8,512H68.267c-4.71,0-8.533-3.814-8.533-8.533V230.4c0-4.719,3.823-8.533,8.533-8.533H204.8
		c4.71,0,8.533,3.814,8.533,8.533v273.067C213.333,508.186,209.51,512,204.8,512z M76.8,494.933h119.467v-256H76.8V494.933z"/>
	<path style="fill:#4D007E;" d="M85.333,298.667H68.267c-4.71,0-8.533-3.814-8.533-8.533c0-4.719,3.823-8.533,8.533-8.533h17.067
		c4.71,0,8.533,3.814,8.533,8.533C93.867,294.852,90.044,298.667,85.333,298.667z"/>
	<path style="fill:#4D007E;" d="M85.333,452.267H68.267c-4.71,0-8.533-3.814-8.533-8.533c0-4.719,3.823-8.533,8.533-8.533h17.067
		c4.71,0,8.533,3.814,8.533,8.533C93.867,448.452,90.044,452.267,85.333,452.267z"/>
	<path style="fill:#4D007E;" d="M443.733,477.867h-204.8c-4.71,0-8.533-3.814-8.533-8.533V230.4c0-4.719,3.823-8.533,8.533-8.533
		h204.8c4.71,0,8.533,3.814,8.533,8.533v238.933C452.267,474.052,448.444,477.867,443.733,477.867z M247.467,460.8H435.2V238.933
		H247.467V460.8z"/>
	<path style="fill:#4D007E;" d="M170.667,392.533c-4.71,0-8.533-3.814-8.533-8.533v-17.067h-17.067c-4.71,0-8.533-3.814-8.533-8.533
		c0-4.719,3.823-8.533,8.533-8.533h25.6c4.71,0,8.533,3.814,8.533,8.533V384C179.2,388.719,175.377,392.533,170.667,392.533z"/>
	<path style="fill:#4D007E;" d="M238.933,358.4c-1.809,0-3.601-0.572-5.094-1.681c-2.167-1.621-3.439-4.156-3.439-6.852V230.4
		c0-4.719,3.823-8.533,8.533-8.533h85.333c4.71,0,8.533,3.814,8.533,8.533c0,0.998-1.05,100.531-91.418,127.642
		C240.58,358.281,239.753,358.4,238.933,358.4z M247.467,238.933v98.876c54.827-22.562,65.621-77.542,67.746-98.876H247.467z"/>
	<path style="fill:#4D007E;" d="M443.733,358.4c-0.819,0-1.647-0.119-2.449-0.358c-90.368-27.11-91.418-126.643-91.418-127.642
		c0-4.719,3.823-8.533,8.533-8.533h85.333c4.71,0,8.533,3.814,8.533,8.533v119.467c0,2.697-1.271,5.231-3.439,6.852
		C447.334,357.828,445.542,358.4,443.733,358.4z M367.454,238.933c2.125,21.333,12.928,76.314,67.746,98.876v-98.876H367.454z"/>
	<path style="fill:#4D007E;" d="M358.4,477.867h-34.133c-4.71,0-8.533-3.814-8.533-8.533v-51.2c0-4.719,3.823-8.533,8.533-8.533
		H358.4c4.71,0,8.533,3.814,8.533,8.533v51.2C366.933,474.052,363.11,477.867,358.4,477.867z M332.8,460.8h17.067v-34.133H332.8
		V460.8z"/>
	<path style="fill:#4D007E;" d="M401.067,426.667H281.6c-4.71,0-8.533-3.814-8.533-8.533V384c0-4.719,3.823-8.533,8.533-8.533
		h119.467c4.71,0,8.533,3.814,8.533,8.533v34.133C409.6,422.852,405.777,426.667,401.067,426.667z M290.133,409.6h102.4v-17.067
		h-102.4V409.6z"/>
</g>
<g>
</g>
<g>
</g>
<g>
</g>
<g>
</g>
<g>
</g>
<g>
</g>
<g>
</g>
<g>
</g>
<g>
</g>
<g>
</g>
<g>
</g>
<g>
</g>
<g>
</g>
<g>
</g>
<g>
</g>
</svg>
