<?xml version="1.0"?>
<svg xmlns="http://www.w3.org/2000/svg" height="512px" viewBox="0 0 464 464" width="512px" class=""><g><path d="m64 64c-35.300781 0-64 28.699219-64 64v336h128v-336c0-35.300781-28.699219-64-64-64zm0 0" fill="#fdb62f" data-original="#FDB62F" class="active-path" style="fill:#5EBED1" data-old_color="#fdb62f"/><path d="m64 64c-8.199219 0-16.398438 1.601562-24 4.699219 24.199219 9.800781 40 33.199219 40 59.300781v336h48v-336c0-35.300781-28.699219-64-64-64zm0 0" fill="#ff9f19" data-original="#FF9F19" class="" style="fill:#194178" data-old_color="#ff9f19"/><path d="m0 136h128v16h-128zm0 0" fill="#f78b20" data-original="#F78B20" class="" style="fill:#4388D1" data-old_color="#f78b20"/><path d="m0 200h128v16h-128zm0 0" fill="#f78b20" data-original="#F78B20" class="" style="fill:#4388D1" data-old_color="#f78b20"/><path d="m0 264h128v16h-128zm0 0" fill="#f78b20" data-original="#F78B20" class="" style="fill:#4388D1" data-old_color="#f78b20"/><path d="m0 328h128v16h-128zm0 0" fill="#f78b20" data-original="#F78B20" class="" style="fill:#4388D1" data-old_color="#f78b20"/><path d="m0 392h128v16h-128zm0 0" fill="#f78b20" data-original="#F78B20" class="" style="fill:#4388D1" data-old_color="#f78b20"/><path d="m423.898438 463-22.796876-175h14.898438v-16h-17l-6.199219-48h15.199219v-16h-17.300781l-14.699219-113c-.601562-4.398438-4.601562-7.5-8.898438-6.898438-3.601562.5-6.5 3.296876-6.902343 6.898438l-14.699219 113h-17.5v16h15.199219l-6.300781 48h-8.898438v16h6.898438l-22.796876 175c0 .300781 0 .699219.097657 1h111.699219c0-.300781 0-.699219 0-1zm-55.898438-305.199219 6.5 50.199219h-13.101562zm-8.601562 66.199219h17.300781l6.300781 48h-29.800781zm-8.398438 64h34l6.300781 48h-46.402343zm-8.300781 64h50.699219l13.601562 104h-77.800781zm0 0" fill="#fdb62f" data-original="#FDB62F" class="active-path" style="fill:#5EBED1" data-old_color="#fdb62f"/><path d="m360 464h-256v-128l32-72 96-40 96 40 32 72zm0 0" fill="#dd4a43" data-original="#DD4A43" class="" style="fill:#B63328" data-old_color="#dd4a43"/><path d="m337.398438 285.199219-9.398438-21.199219-96-40-96 40-9.398438 21.199219 105.398438-45.199219zm0 0" fill="#d13e37" data-original="#D13E37" class="" style="fill:#E95C31" data-old_color="#d13e37"/><path d="m104 336h-32l40-96 120-48 120 48 40 96h-32l-32-72-96-40-96 40zm0 0" fill="#7a3e1a" data-original="#7A3E1A" class="" style="fill:#E95C31" data-old_color="#7a3e1a"/><path d="m184 384h96v80h-96zm0 0" fill="#c9c9c8" data-original="#C9C9C8" class=""/><path d="m144 320h32v32h-32zm0 0" fill="#4398d1" data-original="#4398D1" class="" style="fill:#5EBED1" data-old_color="#4398d1"/><path d="m288 320h32v32h-32zm0 0" fill="#4398d1" data-original="#4398D1" class="" style="fill:#5EBED1" data-old_color="#4398d1"/><path d="m216 264h32v32h-32zm0 0" fill="#4398d1" data-original="#4398D1" class="" style="fill:#5EBED1" data-old_color="#4398d1"/><path d="m216 264h32v16h-32zm0 0" fill="#4388d1" data-original="#4388D1" class="" style="fill:#5EBED1" data-old_color="#4388d1"/><path d="m440 464h-80v-112l80 32zm0 0" fill="#d13e37" data-original="#D13E37" class="" style="fill:#E95C31" data-old_color="#d13e37"/><path d="m464 408-104-40v-32l104 40zm0 0" fill="#7a3e1a" data-original="#7A3E1A" class="" style="fill:#E95C31" data-old_color="#7a3e1a"/><path d="m392 408h16v24h-16zm0 0" fill="#4398d1" data-original="#4398D1" class="" style="fill:#5EBED1" data-old_color="#4398d1"/><path d="m24 232h16v16h-16zm0 0" fill="#ffc961" data-original="#FFC961" class="" style="fill:#B63328" data-old_color="#ffc961"/><path d="m24 168h16v16h-16zm0 0" fill="#ffc961" data-original="#FFC961" class="" style="fill:#B63328" data-old_color="#ffc961"/><path d="m24 296h16v16h-16zm0 0" fill="#ffc961" data-original="#FFC961" class="" style="fill:#B63328" data-old_color="#ffc961"/><path d="m24 360h16v16h-16zm0 0" fill="#ffc961" data-original="#FFC961" class="" style="fill:#B63328" data-old_color="#ffc961"/><path d="m24 424h16v16h-16zm0 0" fill="#ffc961" data-original="#FFC961" class="" style="fill:#B63328" data-old_color="#ffc961"/><path d="m43.199219 116-13.800781-8c7.203124-12.300781 20.402343-20 34.601562-20v16c-8.601562 0-16.5 4.601562-20.800781 12zm0 0" fill="#ffc961" data-original="#FFC961" class="" style="fill:#B63328" data-old_color="#ffc961"/><g fill="#dd4a43"><path d="m368 64v-64l-46.5 15.5 30.5 52.898438c4.898438-2.796876 10.398438-4.398438 16-4.398438zm0 0" data-original="#DD4A43" class="" style="fill:#B63328" data-old_color="#DD4A43"/><path d="m368 189v3l46.5-15.5-30.5-52.898438c-4.800781 2.796876-10.300781 4.398438-15.898438 4.398438v61zm0 0" data-original="#DD4A43" class="" style="fill:#B63328" data-old_color="#DD4A43"/><path d="m340.398438 80.101562-55.5-32.101562-9.796876 48h61c-.101562-5.601562 1.5-11.101562 4.296876-15.898438zm0 0" data-original="#DD4A43" class="" style="fill:#B63328" data-old_color="#DD4A43"/><path d="m395.601562 111.898438 55.5 32 9.796876-48h-61c.101562 5.703124-1.5 11.203124-4.296876 16zm0 0" data-original="#DD4A43" class="" style="fill:#B63328" data-old_color="#DD4A43"/><path d="m352.101562 123.601562c-4.800781-2.800781-8.902343-6.800781-11.703124-11.703124l-55.5 32 36.703124 32.5 6-10.398438zm0 0" data-original="#DD4A43" class="" style="fill:#B63328" data-old_color="#DD4A43"/><path d="m395.601562 80.101562 55.5-32-36.703124-32.5-21.597657 37.398438-8.902343 15.5c4.902343 2.699219 8.902343 6.699219 11.703124 11.601562zm0 0" data-original="#DD4A43" class="" style="fill:#B63328" data-old_color="#DD4A43"/><path d="m327.5 166.101562 24.601562-42.5zm0 0" data-original="#DD4A43" class="" style="fill:#B63328" data-old_color="#DD4A43"/><path d="m352.101562 68.398438-32-55.5-32.5 36.703124 52.898438 30.5c2.699219-4.902343 6.699219-8.902343 11.601562-11.703124zm0 0" data-original="#DD4A43" class="" style="fill:#B63328" data-old_color="#DD4A43"/><path d="m352.101562 68.398438-30.601562-52.898438zm0 0" data-original="#DD4A43" class="" style="fill:#B63328" data-old_color="#DD4A43"/><path d="m383.898438 123.601562 32.101562 55.5 32.5-36.703124-52.898438-30.5c-2.800781 4.902343-6.800781 8.902343-11.703124 11.703124zm0 0" data-original="#DD4A43" class="" style="fill:#B63328" data-old_color="#DD4A43"/><path d="m395.601562 111.898438 52.898438 30.601562zm0 0" data-original="#DD4A43" class="" style="fill:#B63328" data-old_color="#DD4A43"/><path d="m336 96h-64l15.5 46.5 52.898438-30.5c-2.796876-4.898438-4.398438-10.398438-4.398438-16zm0 0" data-original="#DD4A43" class="" style="fill:#B63328" data-old_color="#DD4A43"/><path d="m448.5 49.5-52.898438 30.5c2.796876 4.800781 4.398438 10.300781 4.398438 15.898438h64zm0 0" data-original="#DD4A43" class="" style="fill:#B63328" data-old_color="#DD4A43"/><path d="m340.398438 111.898438-52.898438 30.601562zm0 0" data-original="#DD4A43" class="" style="fill:#B63328" data-old_color="#DD4A43"/><path d="m395.601562 80.101562 52.898438-30.601562zm0 0" data-original="#DD4A43" class="" style="fill:#B63328" data-old_color="#DD4A43"/><path d="m352.101562 123.601562-24.5 42.5-6 10.398438-1.5 2.601562 48 9.796876v-60.898438c-5.703124 0-11.203124-1.601562-16-4.398438zm0 0" data-original="#DD4A43" class="" style="fill:#B63328" data-old_color="#DD4A43"/><path d="m327.5 166.101562-6 10.398438zm0 0" data-original="#DD4A43" class="" style="fill:#B63328" data-old_color="#DD4A43"/><path d="m383.898438 68.398438 9-15.5 23.101562-40-48-9.898438v61c5.601562 0 11.101562 1.601562 15.898438 4.398438zm0 0" data-original="#DD4A43" class="" style="fill:#B63328" data-old_color="#DD4A43"/><path d="m383.898438 68.398438 9-15.5zm0 0" data-original="#DD4A43" class="" style="fill:#B63328" data-old_color="#DD4A43"/></g><path d="m241.300781 384h-18.601562l-38.699219 64.398438v15.601562h9.300781l30.699219-51.101562v51.101562h16v-51.101562l30.699219 51.101562h9.300781v-15.601562zm0 0" fill="#d8d8d8" data-original="#D8D8D8" class=""/><path d="m168 376h128v16h-128zm0 0" fill="#7a3e1a" data-original="#7A3E1A" class="" style="fill:#E95C31" data-old_color="#7a3e1a"/><path d="m184 392h96v16h-96zm0 0" fill="#bfbfbe" data-original="#BFBFBE" class=""/><path d="m168 392h16v16h-16zm0 0" fill="#c43d37" data-original="#C43D37" class="" style="fill:#C43D37"/><path d="m280 392h16v16h-16zm0 0" fill="#c43d37" data-original="#C43D37" class="" style="fill:#C43D37"/><path d="m288 320h32v16h-32zm0 0" fill="#4388d1" data-original="#4388D1" class="" style="fill:#5EBED1" data-old_color="#4388d1"/><path d="m144 320h32v16h-32zm0 0" fill="#4388d1" data-original="#4388D1" class="" style="fill:#5EBED1" data-old_color="#4388d1"/><path d="m392 408h16v16h-16zm0 0" fill="#4388d1" data-original="#4388D1" class="" style="fill:#5EBED1" data-old_color="#4388d1"/><path d="m368 128c-5.601562 0-11.101562-1.601562-15.898438-4.398438l-.101562.097657v62l16 3.300781zm0 0" fill="#d13e37" data-original="#D13E37" class="" style="fill:#E95C31" data-old_color="#d13e37"/><path d="m368 3v61c5.601562 0 11.101562 1.601562 15.898438 4.398438l.101562-.097657v-62zm0 0" fill="#d13e37" data-original="#D13E37" class="" style="fill:#E95C31" data-old_color="#d13e37"/><path d="m384 123.699219c-4.898438 2.800781-10.398438 4.199219-16 4.199219v.101562l31 53.699219 15.5-5.199219zm0 0" fill="#d13e37" data-original="#D13E37" class="" style="fill:#E95C31" data-old_color="#d13e37"/><path d="m321.5 15.5 30.5 52.800781c4.898438-2.800781 10.398438-4.199219 16-4.199219v-.101562l-31-53.699219zm0 0" fill="#d13e37" data-original="#D13E37" class="" style="fill:#E95C31" data-old_color="#d13e37"/><path d="m395.699219 112c-2.800781 4.800781-6.898438 8.800781-11.800781 11.601562l.101562.097657 53.699219 31 10.800781-12.199219zm0 0" fill="#d13e37" data-original="#D13E37" class="" style="fill:#E95C31" data-old_color="#d13e37"/><path d="m287.5 49.5 52.800781 30.5c2.800781-4.800781 6.898438-8.800781 11.800781-11.601562l-.101562-.097657-53.699219-31zm0 0" fill="#d13e37" data-original="#D13E37" class="" style="fill:#E95C31" data-old_color="#d13e37"/><path d="m400 96c0 5.601562-1.601562 11.101562-4.398438 15.898438l.097657.101562h62l3.300781-16zm0 0" fill="#d13e37" data-original="#D13E37" class="" style="fill:#E95C31" data-old_color="#d13e37"/><path d="m275 96h61c0-5.601562 1.601562-11.101562 4.398438-15.898438l-.097657-.101562h-62zm0 0" fill="#d13e37" data-original="#D13E37" class="" style="fill:#E95C31" data-old_color="#d13e37"/><path d="m395.699219 80c2.800781 4.898438 4.199219 10.398438 4.199219 16h.101562l53.699219-31-5.199219-15.5zm0 0" fill="#d13e37" data-original="#D13E37" class="" style="fill:#E95C31" data-old_color="#d13e37"/><path d="m287.5 142.5 52.800781-30.5c-2.800781-4.898438-4.199219-10.398438-4.199219-16h-.101562l-53.699219 31zm0 0" fill="#d13e37" data-original="#D13E37" class="" style="fill:#E95C31" data-old_color="#d13e37"/><path d="m384 68.300781c4.800781 2.800781 8.800781 6.898438 11.601562 11.800781l.097657-.101562 31-53.699219-12.199219-10.800781zm0 0" fill="#d13e37" data-original="#D13E37" class="" style="fill:#E95C31" data-old_color="#d13e37"/><path d="m321.5 176.5 30.5-52.800781c-4.800781-2.800781-8.800781-6.898438-11.601562-11.800781l-.097657.101562-31 53.699219zm0 0" fill="#d13e37" data-original="#D13E37" class="" style="fill:#E95C31" data-old_color="#d13e37"/></g> </svg>
