<?xml version="1.0" encoding="iso-8859-1"?>
<!-- Generator: Adobe Illustrator 17.1.0, SVG Export Plug-In . SVG Version: 6.00 Build 0)  -->
<!DOCTYPE svg PUBLIC "-//W3C//DTD SVG 1.1//EN" "http://www.w3.org/Graphics/SVG/1.1/DTD/svg11.dtd">
<svg xmlns="http://www.w3.org/2000/svg" xmlns:xlink="http://www.w3.org/1999/xlink" version="1.1" id="Capa_1" x="0px" y="0px" viewBox="0 0 512 512" style="enable-background:new 0 0 512 512;" xml:space="preserve" width="512px" height="512px">
<g>
	<path d="M8,180.27c-4.418,0-8,3.582-8,8s3.582,8,8,8h494.038c4.418,0,8-3.582,8-8s-3.582-8-8-8h-15.905v-31.811h15.905   c4.418,0,8-3.582,8-8s-3.582-8-8-8H8c-4.418,0-8,3.582-8,8s3.582,8,8,8h15.905v31.811H8z M406.386,180.27h-15.873v-31.811h15.873   V180.27z M422.386,148.459h15.874v31.811h-15.874V148.459z M374.513,180.27h-15.874v-31.811h15.874V180.27z M342.639,180.27   h-15.874v-31.811h15.874V180.27z M310.766,180.27h-15.874v-31.811h15.874V180.27z M278.892,180.27h-15.873v-31.811h15.873V180.27z    M247.019,180.27h-15.874v-31.811h15.874V180.27z M215.146,180.27h-15.874v-31.811h15.874V180.27z M183.272,180.27h-15.874v-31.811   h15.874V180.27z M151.398,180.27h-15.873v-31.811h15.873V180.27z M119.525,180.27h-15.874v-31.811h15.874V180.27z M87.652,180.27   H71.778v-31.811h15.874V180.27z M470.133,180.27h-15.874v-31.811h15.874V180.27z M39.905,148.459h15.873v31.811H39.905V148.459z" fill="#382e2d"/>
	<path d="M504,259.952c-9.115,0-14.015,2.79-17.952,5.032c-3.104,1.769-5.156,2.937-10.034,2.937c-4.878,0-6.929-1.168-10.034-2.937   c-1.107-0.63-2.344-1.327-3.753-1.998v-34.844h39.81c4.418,0,8-3.582,8-8s-3.582-8-8-8h-47.81h-31.873H270.956h-31.874H87.684   H55.81H8c-4.418,0-8,3.582-8,8s3.582,8,8,8h39.81v32.706c-4.244,1.005-7.208,2.683-9.759,4.136   c-3.104,1.769-5.156,2.937-10.034,2.937s-6.929-1.168-10.034-2.936c-2.05-1.168-4.374-2.49-7.484-3.5   c-4.206-1.367-8.715,0.937-10.079,5.141c-1.364,4.202,0.938,8.715,5.14,10.078c1.555,0.505,2.857,1.246,4.506,2.185   c3.937,2.242,8.837,5.032,17.951,5.032c9.115,0,14.015-2.79,17.952-5.032c0.648-0.369,1.25-0.71,1.841-1.022v53.801h-6.937   c-4.962,0-9,4.037-9,9v30.873c0,4.418,3.582,8,8,8h63.747c4.418,0,8-3.582,8-8v-30.873c0-4.963-4.038-9-9-9h-6.937v-49.733   c2.486-0.935,4.484-2.055,6.225-3.046c3.105-1.769,5.156-2.937,10.035-2.937c4.874,0,6.923,1.168,10.025,2.936   c3.936,2.242,8.834,5.033,17.946,5.033c9.117,0,14.018-2.79,17.956-5.032c3.107-1.769,5.159-2.937,10.042-2.937   c4.876,0,6.927,1.168,10.031,2.936c3.937,2.242,8.836,5.033,17.95,5.033c9.116,0,14.017-2.79,17.955-5.032   c3.106-1.769,5.158-2.937,10.039-2.937c3.285,0,5.289,0.531,7.195,1.415v15.134c-2.075-0.417-4.44-0.675-7.195-0.675   c-9.116,0-14.017,2.79-17.955,5.031c-3.106,1.769-5.159,2.937-10.04,2.937c-4.877,0-6.927-1.168-10.031-2.936   c-3.937-2.242-8.836-5.032-17.949-5.032c-4.418,0-8,3.582-8,8s3.582,8,8,8c4.877,0,6.927,1.168,10.031,2.936   c3.937,2.242,8.836,5.032,17.949,5.032c9.116,0,14.017-2.79,17.955-5.031c3.106-1.769,5.159-2.937,10.04-2.937   c3.285,0,5.289,0.53,7.195,1.414v22.428h-6.937c-4.962,0-9,4.037-9,9v30.873c0,4.418,3.582,8,8,8h63.747c4.418,0,8-3.582,8-8   v-30.873c0-4.963-4.038-9-9-9h-6.937v-23.902c0.31,0.037,0.624,0.061,0.944,0.061c4.885,0,6.939,1.169,10.048,2.938   c3.939,2.241,8.841,5.03,17.959,5.03c9.117,0,14.018-2.79,17.957-5.031c3.107-1.769,5.16-2.937,10.042-2.937c4.418,0,8-3.582,8-8   s-3.582-8-8-8c-9.117,0-14.018,2.79-17.957,5.031c-3.107,1.769-5.16,2.937-10.042,2.937c-4.885,0-6.938-1.168-10.047-2.938   c-3.939-2.241-8.842-5.03-17.96-5.03c-0.32,0-0.634,0.024-0.944,0.061v-15.995c0.31,0.037,0.624,0.061,0.944,0.061   c4.885,0,6.939,1.169,10.047,2.938c3.939,2.241,8.841,5.031,17.96,5.031c9.117,0,14.019-2.79,17.957-5.032   c3.107-1.769,5.16-2.937,10.042-2.937c4.884,0,6.937,1.169,10.044,2.938c3.938,2.241,8.841,5.031,17.958,5.031   c9.119,0,14.022-2.79,17.961-5.031c3.109-1.769,5.163-2.938,10.048-2.938c4.9,0,6.959,1.17,10.076,2.94   c3.044,1.729,6.671,3.779,12.359,4.627v48.148h-6.937c-4.962,0-9,4.037-9,9v30.873c0,4.418,3.582,8,8,8h63.747c4.418,0,8-3.582,8-8   v-30.873c0-4.963-4.038-9-9-9h-6.937v-50.577c3.326,1.535,7.577,2.83,13.787,2.83c9.115,0,14.015-2.79,17.952-5.032   c3.104-1.769,5.156-2.937,10.034-2.937c4.418,0,8-3.582,8-8S508.418,259.952,504,259.952z M95.62,363.541H47.874v-15.873h7.937   h31.874h7.937V363.541z M63.81,331.668V269.68c0.123-0.557,0.192-1.134,0.192-1.728s-0.07-1.171-0.192-1.728v-38.081h15.874v47.674   c0,0.02,0,0.04,0,0.061v55.791H63.81z M223.887,259.952c-9.116,0-14.017,2.79-17.955,5.032c-3.106,1.769-5.158,2.937-10.039,2.937   c-4.876,0-6.927-1.168-10.031-2.936c-3.937-2.242-8.836-5.033-17.95-5.033c-9.117,0-14.019,2.79-17.957,5.032   c-3.107,1.769-5.159,2.937-10.041,2.937c-4.874,0-6.923-1.168-10.025-2.936c-3.936-2.242-8.834-5.033-17.946-5.033   c-7.86,0-12.583,2.074-16.26,4.083v-35.893h135.398v32.485C229.007,260.21,226.642,259.952,223.887,259.952z M278.892,363.541   h-47.747v-15.873h7.937h31.874h7.937V363.541z M247.082,331.668V228.143h15.874v103.525H247.082z M409.898,264.98   c-3.944-2.24-8.852-5.028-17.979-5.028c-9.119,0-14.022,2.79-17.961,5.031c-3.109,1.769-5.163,2.938-10.048,2.938   c-4.884,0-6.937-1.169-10.044-2.938c-3.938-2.241-8.841-5.031-17.958-5.031c-9.117,0-14.019,2.79-17.957,5.032   c-3.107,1.769-5.16,2.937-10.042,2.937c-4.885,0-6.938-1.169-10.047-2.938c-3.939-2.241-8.842-5.031-17.96-5.031   c-0.32,0-0.634,0.024-0.944,0.061v-31.87h135.399v38.999C412.801,266.627,411.486,265.882,409.898,264.98z M462.165,363.541   h-47.747v-15.873h7.937h31.873h7.937V363.541z M430.354,331.668V228.143h15.873v39.969c-0.023,0.37-0.028,0.737,0,1.099v62.457   H430.354z" fill="#382e2d"/>
</g>
<g>
</g>
<g>
</g>
<g>
</g>
<g>
</g>
<g>
</g>
<g>
</g>
<g>
</g>
<g>
</g>
<g>
</g>
<g>
</g>
<g>
</g>
<g>
</g>
<g>
</g>
<g>
</g>
<g>
</g>
</svg>
