<?xml version="1.0"?>
<svg xmlns="http://www.w3.org/2000/svg" xmlns:xlink="http://www.w3.org/1999/xlink" version="1.1" id="Capa_1" x="0px" y="0px" viewBox="0 0 426.667 426.667" style="enable-background:new 0 0 426.667 426.667;" xml:space="preserve" width="512px" height="512px" class=""><g><rect y="321.844" style="fill:#E95C31" width="426.667" height="11.951" data-original="#3A556A" class="" data-old_color="#3A556A"/><rect x="13.099" y="148.698" style="fill:#B63328" width="120.107" height="173.163" data-original="#EBF0F3" class="" data-old_color="#EBF0F3"/><polyline style="fill:#E95C31" points="13.097,148.699 74.546,92.872 133.183,148.699 " data-original="#3A556A" class="" data-old_color="#3A556A"/><polyline style="fill:#B63328" points="24.161,151.679 74.546,104.151 122.119,151.679 " data-original="#EBF0F3" class="" data-old_color="#EBF0F3"/><rect x="28.783" y="160.722" style="fill:#5EBED1" width="34.807" height="63.526" data-original="#2D93BA" class="" data-old_color="#2D93BA"/><polygon style="fill:#D9ECF2" points="28.783,224.248 28.783,160.723 63.592,160.723 " data-original="#27A2DB" class="active-path" data-old_color="#27A2DB"/><g>
	<rect x="45.18" y="160.474" style="fill:#B63328" width="2.018" height="63.778" data-original="#EBF0F3" class="" data-old_color="#EBF0F3"/>
	<rect x="28.783" y="175.881" style="fill:#B63328" width="34.807" height="3.029" data-original="#EBF0F3" class="" data-old_color="#EBF0F3"/>
</g><rect x="27.776" y="235.657" style="fill:#5EBED1" width="34.807" height="63.526" data-original="#2D93BA" class="" data-old_color="#2D93BA"/><polygon style="fill:#D9ECF2" points="27.774,299.181 27.774,235.656 62.583,235.656 " data-original="#27A2DB" class="active-path" data-old_color="#27A2DB"/><g>
	<rect x="44.169" y="235.401" style="fill:#B63328" width="2.018" height="63.778" data-original="#EBF0F3" class="" data-old_color="#EBF0F3"/>
	<rect x="27.776" y="250.808" style="fill:#B63328" width="34.807" height="3.029" data-original="#EBF0F3" class="" data-old_color="#EBF0F3"/>
</g><rect x="81.92" y="160.722" style="fill:#5EBED1" width="34.807" height="63.526" data-original="#2D93BA" class="" data-old_color="#2D93BA"/><polygon style="fill:#D9ECF2" points="81.941,224.248 81.941,160.723 116.75,160.723 " data-original="#27A2DB" class="active-path" data-old_color="#27A2DB"/><g>
	<rect x="98.347" y="160.474" style="fill:#B63328" width="2.018" height="63.778" data-original="#EBF0F3" class="" data-old_color="#EBF0F3"/>
	<rect x="81.963" y="175.881" style="fill:#B63328" width="34.807" height="3.029" data-original="#EBF0F3" class="" data-old_color="#EBF0F3"/>
</g><rect x="82.347" y="266.42" style="fill:#64798A;" width="36.053" height="55.433" data-original="#64798A" class=""/><rect x="99.328" y="266.42" style="fill:#E95C31" width="2.018" height="55.433" data-original="#3A556A" class="" data-old_color="#3A556A"/><rect x="213.973" y="148.698" style="fill:#B63328" width="120.107" height="173.163" data-original="#EBF0F3" class="" data-old_color="#EBF0F3"/><polyline style="fill:#E95C31" points="213.994,148.699 275.444,92.872 334.081,148.699 " data-original="#3A556A" class="" data-old_color="#3A556A"/><polyline style="fill:#B63328" points="225.058,151.679 275.444,104.151 323.017,151.679 " data-original="#EBF0F3" class="" data-old_color="#EBF0F3"/><rect x="229.679" y="160.722" style="fill:#5EBED1" width="34.807" height="63.526" data-original="#2D93BA" class="" data-old_color="#2D93BA"/><polygon style="fill:#D9ECF2" points="229.68,224.248 229.68,160.723 264.49,160.723 " data-original="#27A2DB" class="active-path" data-old_color="#27A2DB"/><g>
	<rect x="246.059" y="160.474" style="fill:#B63328" width="2.018" height="63.778" data-original="#EBF0F3" class="" data-old_color="#EBF0F3"/>
	<rect x="229.683" y="175.881" style="fill:#B63328" width="34.807" height="3.029" data-original="#EBF0F3" class="" data-old_color="#EBF0F3"/>
</g><rect x="228.651" y="235.657" style="fill:#5EBED1" width="34.807" height="63.526" data-original="#2D93BA" class="" data-old_color="#2D93BA"/><polygon style="fill:#D9ECF2" points="228.671,299.181 228.671,235.656 263.481,235.656 " data-original="#27A2DB" class="active-path" data-old_color="#27A2DB"/><g>
	<rect x="245.077" y="235.401" style="fill:#B63328" width="2.018" height="63.778" data-original="#EBF0F3" class="" data-old_color="#EBF0F3"/>
	<rect x="228.693" y="250.808" style="fill:#B63328" width="34.807" height="3.029" data-original="#EBF0F3" class="" data-old_color="#EBF0F3"/>
</g><rect x="282.837" y="160.722" style="fill:#5EBED1" width="34.807" height="63.526" data-original="#2D93BA" class="" data-old_color="#2D93BA"/><polygon style="fill:#D9ECF2" points="282.838,224.248 282.838,160.723 317.648,160.723 " data-original="#27A2DB" class="active-path" data-old_color="#27A2DB"/><g>
	<rect x="299.221" y="160.474" style="fill:#B63328" width="2.018" height="63.778" data-original="#EBF0F3" class="" data-old_color="#EBF0F3"/>
	<rect x="282.837" y="175.881" style="fill:#B63328" width="34.807" height="3.029" data-original="#EBF0F3" class="" data-old_color="#EBF0F3"/>
</g><rect x="283.861" y="235.657" style="fill:#5EBED1" width="34.807" height="63.526" data-original="#2D93BA" class="" data-old_color="#2D93BA"/><polygon style="fill:#D9ECF2" points="283.849,299.181 283.849,235.656 318.658,235.656 " data-original="#27A2DB" class="active-path" data-old_color="#27A2DB"/><g>
	<rect x="300.245" y="235.401" style="fill:#B63328" width="2.018" height="63.778" data-original="#EBF0F3" class="" data-old_color="#EBF0F3"/>
	<rect x="283.861" y="250.808" style="fill:#B63328" width="34.807" height="3.029" data-original="#EBF0F3" class="" data-old_color="#EBF0F3"/>
</g><rect x="133.163" y="209.929" style="fill:#FBE2D0" width="80.811" height="111.915" data-original="#D5D6DB" class="" data-old_color="#D5D6DB"/><polyline style="fill:#E95C31" points="133.183,209.944 174.535,174.59 213.994,209.944 " data-original="#3A556A" class="" data-old_color="#3A556A"/><polyline style="fill:#FBE2D0" points="140.629,212.571 174.535,184.535 206.549,212.571 " data-original="#D5D6DB" class="" data-old_color="#D5D6DB"/><path style="fill:#5EBED1" d="M206.621,299.181h-28.144l-0.073-61.723c0-7.151,5.797-12.949,12.949-12.949h2.247  c7.151,0,12.949,5.797,12.949,12.949L206.621,299.181z" data-original="#2D93BA" class="" data-old_color="#2D93BA"/><path style="fill:#D9ECF2" d="M178.477,299.181l-0.073-61.723c0-7.151,4.687-12.949,10.469-12.949h0  c7.956,0,13.004,10.542,9.181,19.171L178.477,299.181z" data-original="#27A2DB" class="active-path" data-old_color="#27A2DB"/><g>
	<rect x="191.697" y="224.265" style="fill:#B63328" width="1.634" height="74.923" data-original="#EBF0F3" class="" data-old_color="#EBF0F3"/>
	<rect x="178.406" y="239.668" style="fill:#B63328" width="28.143" height="3.029" data-original="#EBF0F3" class="" data-old_color="#EBF0F3"/>
</g><path style="fill:#5EBED1" d="M167.551,299.306h-28.144l-0.073-61.723c0-7.151,5.797-12.949,12.949-12.949h2.247  c7.151,0,12.949,5.797,12.949,12.949L167.551,299.306z" data-original="#2D93BA" class="" data-old_color="#2D93BA"/><path style="fill:#D9ECF2" d="M139.408,299.306l-0.073-61.723c0-7.151,4.687-12.949,10.469-12.949h0  c7.956,0,13.004,10.542,9.181,19.171L139.408,299.306z" data-original="#27A2DB" class="active-path" data-old_color="#27A2DB"/><g>
	<rect x="152.627" y="224.393" style="fill:#B63328" width="1.634" height="74.923" data-original="#EBF0F3" class="" data-old_color="#EBF0F3"/>
	<rect x="139.337" y="239.796" style="fill:#B63328" width="28.143" height="3.029" data-original="#EBF0F3" class="" data-old_color="#EBF0F3"/>
</g><rect x="334.08" y="209.929" style="fill:#FBE2D0" width="80.811" height="111.915" data-original="#D5D6DB" class="" data-old_color="#D5D6DB"/><polyline style="fill:#E95C31" points="334.081,209.944 375.432,174.59 414.892,209.944 " data-original="#3A556A" class="" data-old_color="#3A556A"/><polyline style="fill:#FBE2D0" points="341.526,212.571 375.432,184.535 407.446,212.571 " data-original="#D5D6DB" class="" data-old_color="#D5D6DB"/><path style="fill:#5EBED1" d="M407.518,299.181h-28.144l-0.073-61.723c0-7.151,5.797-12.949,12.949-12.949h2.247  c7.151,0,12.949,5.797,12.949,12.949L407.518,299.181z" data-original="#2D93BA" class="" data-old_color="#2D93BA"/><path style="fill:#D9ECF2" d="M379.374,299.181l-0.073-61.723c0-7.151,4.687-12.949,10.469-12.949h0  c7.956,0,13.004,10.542,9.181,19.171L379.374,299.181z" data-original="#27A2DB" class="active-path" data-old_color="#27A2DB"/><g>
	<rect x="392.576" y="224.265" style="fill:#B63328" width="1.634" height="74.923" data-original="#EBF0F3" class="" data-old_color="#EBF0F3"/>
	<rect x="379.307" y="239.668" style="fill:#B63328" width="28.143" height="3.029" data-original="#EBF0F3" class="" data-old_color="#EBF0F3"/>
</g><path style="fill:#5EBED1" d="M368.449,299.306h-28.144l-0.073-61.723c0-7.151,5.797-12.949,12.949-12.949h2.247  c7.151,0,12.949,5.797,12.949,12.949L368.449,299.306z" data-original="#2D93BA" class="" data-old_color="#2D93BA"/><path style="fill:#D9ECF2" d="M340.305,299.306l-0.073-61.723c0-7.151,4.687-12.949,10.469-12.949h0  c7.956,0,13.004,10.542,9.181,19.171L340.305,299.306z" data-original="#27A2DB" class="active-path" data-old_color="#27A2DB"/><g>
	<rect x="353.536" y="224.393" style="fill:#B63328" width="1.634" height="74.923" data-original="#EBF0F3" class="" data-old_color="#EBF0F3"/>
	<rect x="340.224" y="239.796" style="fill:#B63328" width="28.143" height="3.029" data-original="#EBF0F3" class="" data-old_color="#EBF0F3"/>
</g></g> </svg>
