<?xml version="1.0" encoding="iso-8859-1"?>
<!-- Generator: Adobe Illustrator 19.0.0, SVG Export Plug-In . SVG Version: 6.00 Build 0)  -->
<svg version="1.1" id="Capa_1" xmlns="http://www.w3.org/2000/svg" xmlns:xlink="http://www.w3.org/1999/xlink" x="0px" y="0px"
	 viewBox="0 0 512 512" style="enable-background:new 0 0 512 512;" xml:space="preserve">
<path style="fill:#FFD33F;" d="M25.6,503.467l23.364-288.12c1.425-17.698,9.685-34.15,23.04-45.858L211.046,47.872
	c25.737-22.519,64.171-22.519,89.907,0l138.999,121.617c13.355,11.708,21.615,28.16,23.04,45.858l23.407,288.12"/>
<path style="fill:#EA3836;" d="M85.333,469.333l44.015-198.05c4.719-21.231,14.694-40.926,29.013-57.293l0,0
	c47.198-53.931,129.169-59.392,183.1-12.194c4.326,3.789,8.405,7.868,12.194,12.194l0,0c14.319,16.367,24.294,36.062,29.013,57.293
	l43.998,198.05H85.333z"/>
<polygon style="fill:#383856;" points="341.333,469.333 256,469.333 256,324.267 "/>
<path style="fill:#6B3713;" d="M341.333,469.333L341.333,469.333l-3.345-6.699c-13.858-27.716-12.595-60.595,3.345-87.168l0,0
	c-31.659,0-60.894-16.964-76.604-44.45L256,315.733l3.038,18.227C268.041,387.985,297.515,436.471,341.333,469.333z"/>
<path style="fill:#874D1B;" d="M503.467,512H8.533C3.823,512,0,508.177,0,503.467c0-4.71,3.823-8.533,8.533-8.533h494.933
	c4.71,0,8.533,3.823,8.533,8.533C512,508.177,508.177,512,503.467,512z"/>
<path style="fill:#FFAC3E;" d="M396.8,335.095l29.867,134.238H129.254C95.445,479.778,61.073,488.286,26.3,494.814l-0.7,8.653h460.8
	l-19.533-240.922C446.541,289.476,423.014,313.839,396.8,335.095z"/>
<g>
	<path style="fill:#D62121;" d="M341.333,375.467c-15.94,26.573-17.203,59.452-3.345,87.168l3.345,6.699h85.333L396.8,335.095
		c-17.792,14.592-36.463,28.075-55.91,40.371C341.043,375.467,341.188,375.467,341.333,375.467z"/>
	<path style="fill:#D62121;" d="M129.254,469.333h118.212v-44.015C209.033,442.479,169.549,457.182,129.254,469.333z"/>
	<path style="fill:#D62121;" d="M256,421.436c-2.842,1.314-5.692,2.611-8.533,3.883v44.015h17.067v-51.9
		C261.692,418.79,258.842,420.122,256,421.436z"/>
	<path style="fill:#D62121;" d="M247.467,170.121v299.213h17.067V170.121C258.85,169.754,253.15,169.754,247.467,170.121z"/>
</g>
<g>
	<path style="fill:#FFD33F;" d="M85.333,85.333c-14.14,0-25.6-11.46-25.6-25.6c0-4.71-3.823-8.533-8.533-8.533
		s-8.533,3.823-8.533,8.533c0,14.14-11.46,25.6-25.6,25.6c-4.71,0-8.533,3.823-8.533,8.533c0,4.71,3.823,8.533,8.533,8.533
		c14.14,0,25.6,11.46,25.6,25.6c0,4.71,3.823,8.533,8.533,8.533s8.533-3.823,8.533-8.533c0-14.14,11.46-25.6,25.6-25.6
		c4.71,0,8.533-3.823,8.533-8.533C93.867,89.156,90.044,85.333,85.333,85.333z"/>
	<path style="fill:#FFD33F;" d="M503.467,34.133c-14.14,0-25.6-11.46-25.6-25.6c0-4.71-3.823-8.533-8.533-8.533
		c-4.71,0-8.533,3.823-8.533,8.533c0,14.14-11.46,25.6-25.6,25.6c-4.71,0-8.533,3.823-8.533,8.533S430.49,51.2,435.2,51.2
		c14.14,0,25.6,11.46,25.6,25.6c0,4.71,3.823,8.533,8.533,8.533c4.71,0,8.533-3.823,8.533-8.533c0-14.14,11.46-25.6,25.6-25.6
		c4.71,0,8.533-3.823,8.533-8.533S508.177,34.133,503.467,34.133z"/>
</g>
<path d="M503.467,494.933h-9.19l-22.724-280.277c-1.587-19.934-10.914-38.451-25.984-51.593L306.569,41.446
	c-28.988-25.233-72.149-25.233-101.137,0L66.432,163.063c-15.07,13.141-24.397,31.667-25.984,51.601L17.724,494.933h-9.19
	c-4.71,0-8.533,3.823-8.533,8.533C0,508.177,3.823,512,8.533,512h494.933c4.71,0,8.533-3.823,8.533-8.533
	C512,498.756,508.177,494.933,503.467,494.933z M57.463,216.038c1.237-15.497,8.491-29.892,20.207-40.107L216.67,54.289
	c22.545-19.627,56.115-19.627,78.66,0l139.017,121.617c11.716,10.214,18.97,24.61,20.207,40.107l22.588,278.921H34.859
	L57.463,216.038z"/>
<path d="M360.107,208.367c-50.304-57.472-137.668-63.283-195.14-12.979c-22.144,19.379-37.521,45.321-43.913,74.044l-44.058,198.05
	c-1.024,4.599,1.877,9.156,6.477,10.18c0.614,0.137,1.237,0.205,1.86,0.205h341.333c4.71,0,8.533-3.814,8.542-8.525
	c0-0.623-0.068-1.246-0.205-1.86l-44.015-198.05C385.954,246.818,375.339,225.826,360.107,208.367z M321.604,440.474
	c-23.066-23.962-39.885-53.222-48.99-85.205c14.916,15.036,34.338,24.781,55.305,27.759c-7.825,18.091-10.035,38.11-6.357,57.472
	L321.604,440.474z M317.926,460.8h-53.393v-76.902C276.608,413.065,294.818,439.296,317.926,460.8z M137.677,273.135
	c11.605-52.343,56.294-90.795,109.79-94.455V460.8H95.974L137.677,273.135z M346.607,460.8l-0.99-1.98
	c-12.629-25.088-11.477-54.912,3.029-78.959c2.423-4.036,1.118-9.284-2.918-11.708c-1.331-0.802-2.85-1.22-4.395-1.22
	c-28.587-0.034-54.98-15.351-69.188-40.158l-7.612-13.303V178.645c53.504,3.652,98.21,42.121,109.79,94.49L416.026,460.8H346.607z"
	/>
<path d="M503.467,34.133c-14.14,0-25.6-11.46-25.6-25.6c0-4.71-3.823-8.533-8.533-8.533c-4.71,0-8.533,3.823-8.533,8.533
	c0,14.14-11.46,25.6-25.6,25.6c-4.71,0-8.533,3.823-8.533,8.533S430.49,51.2,435.2,51.2c14.14,0,25.6,11.46,25.6,25.6
	c0,4.71,3.823,8.533,8.533,8.533c4.71,0,8.533-3.823,8.533-8.533c0-14.14,11.46-25.6,25.6-25.6c4.71,0,8.533-3.823,8.533-8.533
	S508.177,34.133,503.467,34.133z M469.333,51.465c-2.483-3.345-5.453-6.315-8.798-8.798c3.345-2.483,6.315-5.453,8.798-8.798
	c2.483,3.345,5.453,6.315,8.798,8.798C474.786,45.15,471.817,48.119,469.333,51.465z"/>
<path d="M42.667,128c0,4.71,3.823,8.533,8.533,8.533s8.533-3.823,8.533-8.533c0-14.14,11.46-25.6,25.6-25.6
	c4.71,0,8.533-3.823,8.533-8.533c0-4.71-3.823-8.533-8.533-8.533c-14.14,0-25.6-11.46-25.6-25.6c0-4.71-3.823-8.533-8.533-8.533
	s-8.533,3.823-8.533,8.533c0,14.14-11.46,25.6-25.6,25.6c-4.71,0-8.533,3.823-8.533,8.533c0,4.71,3.823,8.533,8.533,8.533
	C31.206,102.4,42.667,113.86,42.667,128z M51.2,85.069c2.483,3.345,5.453,6.315,8.798,8.798c-3.345,2.483-6.315,5.453-8.798,8.798
	c-2.483-3.345-5.453-6.315-8.798-8.798C45.747,91.383,48.717,88.414,51.2,85.069z"/>
<g>
</g>
<g>
</g>
<g>
</g>
<g>
</g>
<g>
</g>
<g>
</g>
<g>
</g>
<g>
</g>
<g>
</g>
<g>
</g>
<g>
</g>
<g>
</g>
<g>
</g>
<g>
</g>
<g>
</g>
</svg>
