<?xml version="1.0" encoding="iso-8859-1"?>
<!-- Generator: Adobe Illustrator 19.0.0, SVG Export Plug-In . SVG Version: 6.00 Build 0)  -->
<svg version="1.1" id="Layer_1" xmlns="http://www.w3.org/2000/svg" xmlns:xlink="http://www.w3.org/1999/xlink" x="0px" y="0px"
	 viewBox="0 0 512 512" style="enable-background:new 0 0 512 512;" xml:space="preserve">
<rect x="52.966" y="35.31" style="fill:#FFA54B;" width="406.069" height="17.655"/>
<g>
	<rect x="123.586" y="44.138" style="fill:#A7A5AC;" width="17.655" height="370.759"/>
	<rect x="194.207" y="44.138" style="fill:#A7A5AC;" width="17.655" height="370.759"/>
</g>
<g>
	<path style="fill:#736F7B;" d="M132.414,61.793L132.414,61.793c-4.875,0-8.828-3.953-8.828-8.828V35.31
		c0-4.875,3.953-8.828,8.828-8.828l0,0c4.875,0,8.828,3.953,8.828,8.828v17.655C141.241,57.841,137.289,61.793,132.414,61.793z"/>
	<path style="fill:#736F7B;" d="M203.034,61.793L203.034,61.793c-4.875,0-8.828-3.953-8.828-8.828V35.31
		c0-4.875,3.953-8.828,8.828-8.828l0,0c4.875,0,8.828,3.953,8.828,8.828v17.655C211.862,57.841,207.91,61.793,203.034,61.793z"/>
</g>
<g>
	<path style="fill:#00D2B9;" d="M220.69,308.966H114.759c-4.875,0-8.828,3.953-8.828,8.828v52.966c0,4.875,3.953,8.828,8.828,8.828
		H220.69c4.875,0,8.828-3.953,8.828-8.828v-52.966C229.517,312.918,225.565,308.966,220.69,308.966z"/>
	<path style="fill:#00D2B9;" d="M229.517,432.552H105.931c-4.875,0-8.828-3.953-8.828-8.828v-17.655
		c0-4.875,3.953-8.828,8.828-8.828h123.586c4.875,0,8.828,3.953,8.828,8.828v17.655
		C238.345,428.599,234.392,432.552,229.517,432.552z"/>
</g>
<path style="fill:#00BEA9;" d="M97.103,414.897v8.828c0,4.875,3.953,8.828,8.828,8.828h123.586c4.875,0,8.828-3.953,8.828-8.828
	v-8.828H97.103z"/>
<g>
	<rect x="300.138" y="44.138" style="fill:#A7A5AC;" width="17.655" height="370.759"/>
	<rect x="370.759" y="44.138" style="fill:#A7A5AC;" width="17.655" height="370.759"/>
</g>
<g>
	<path style="fill:#736F7B;" d="M308.966,61.793L308.966,61.793c-4.875,0-8.828-3.953-8.828-8.828V35.31
		c0-4.875,3.953-8.828,8.828-8.828l0,0c4.875,0,8.828,3.953,8.828,8.828v17.655C317.793,57.841,313.841,61.793,308.966,61.793z"/>
	<path style="fill:#736F7B;" d="M379.586,61.793L379.586,61.793c-4.875,0-8.828-3.953-8.828-8.828V35.31
		c0-4.875,3.953-8.828,8.828-8.828l0,0c4.875,0,8.828,3.953,8.828,8.828v17.655C388.414,57.841,384.461,61.793,379.586,61.793z"/>
</g>
<g>
	<path style="fill:#00D2B9;" d="M397.241,308.966H291.31c-4.875,0-8.828,3.953-8.828,8.828v52.966c0,4.875,3.953,8.828,8.828,8.828
		h105.931c4.875,0,8.828-3.953,8.828-8.828v-52.966C406.069,312.918,402.116,308.966,397.241,308.966z"/>
	<path style="fill:#00D2B9;" d="M406.069,432.552H282.483c-4.875,0-8.828-3.953-8.828-8.828v-17.655
		c0-4.875,3.953-8.828,8.828-8.828h123.586c4.875,0,8.828,3.953,8.828,8.828v17.655
		C414.897,428.599,410.944,432.552,406.069,432.552z"/>
</g>
<path style="fill:#00BEA9;" d="M273.655,414.897v8.828c0,4.875,3.953,8.828,8.828,8.828h123.586c4.875,0,8.828-3.953,8.828-8.828
	v-8.828H273.655z"/>
<path style="fill:#FFC855;" d="M468.767,34.051C468.086,14.957,452.586,0,433.483,0H78.517C59.414,0,43.914,14.957,43.233,34.051
	L26.492,502.858l17.638,0.629L60.871,34.681c0.345-9.548,8.095-17.026,17.646-17.026h354.966c9.551,0,17.302,7.478,17.646,17.026
	l16.742,468.806l17.638-0.629L468.767,34.051z"/>
<g>
	<path style="fill:#FFA54B;" d="M52.966,512H8.828C3.948,512,0,508.047,0,503.172c0-4.875,3.948-8.828,8.828-8.828h44.138
		c4.879,0,8.828,3.953,8.828,8.828C61.793,508.047,57.845,512,52.966,512z"/>
	<path style="fill:#FFA54B;" d="M503.172,512h-44.138c-4.879,0-8.828-3.953-8.828-8.828c0-4.875,3.948-8.828,8.828-8.828h44.138
		c4.879,0,8.828,3.953,8.828,8.828C512,508.047,508.052,512,503.172,512z"/>
</g>
<g>
</g>
<g>
</g>
<g>
</g>
<g>
</g>
<g>
</g>
<g>
</g>
<g>
</g>
<g>
</g>
<g>
</g>
<g>
</g>
<g>
</g>
<g>
</g>
<g>
</g>
<g>
</g>
<g>
</g>
</svg>
