<?xml version="1.0" encoding="iso-8859-1"?>
<!-- Generator: Adobe Illustrator 19.0.0, SVG Export Plug-In . SVG Version: 6.00 Build 0)  -->
<svg version="1.1" id="Capa_1" xmlns="http://www.w3.org/2000/svg" xmlns:xlink="http://www.w3.org/1999/xlink" x="0px" y="0px"
	 viewBox="0 0 512 512" style="enable-background:new 0 0 512 512;" xml:space="preserve">
<path style="fill:#54B88B;" d="M200.85,504.5c-5.951,0-11.913-2.18-16.589-6.58c-9.738-9.165-10.203-24.487-1.038-34.225
	c37.305-39.639,48.564-51.601,48.564-189.227c0-13.372,10.84-24.212,24.212-24.212s24.212,10.84,24.212,24.212
	c0,74.802-3.456,115.551-12.325,145.336c-9.941,33.388-26.745,53.007-49.4,77.078C213.723,501.944,207.294,504.5,200.85,504.5z"/>
<path style="opacity:0.1;enable-background:new    ;" d="M200.85,504.5c-5.951,0-11.913-2.18-16.589-6.58
	c-9.738-9.165-10.203-24.487-1.038-34.225c37.305-39.639,48.564-51.601,48.564-189.227c0-13.372,10.84-24.212,24.212-24.212
	s24.212,10.84,24.212,24.212c0,74.802-3.456,115.551-12.325,145.336c-9.941,33.388-26.745,53.007-49.4,77.078
	C213.723,501.944,207.294,504.5,200.85,504.5z"/>
<path style="opacity:0.1;enable-background:new    ;" d="M256,250.256c-13.372,0-24.212,10.84-24.212,24.212
	c0,52.21-1.623,86.326-5.671,110.738c15.396-4.608,33.48-11.359,51.145-19.915c2.051-23.48,2.95-52.729,2.95-90.823
	C280.212,261.096,269.372,250.256,256,250.256z"/>
<path style="fill:#54B88B;" d="M134.94,68.029c-33.429,0-60.529,27.1-60.529,60.529s27.1,60.529,60.529,60.529H256V68.029
	C256,34.6,228.9,7.5,195.47,7.5C162.04,7.5,134.94,34.6,134.94,68.029z"/>
<path style="fill:#68B894;" d="M134.94,310.147c0,33.43,27.1,60.53,60.529,60.53s60.529-27.1,60.529-60.53V189.088H134.94
	c-33.429,0-60.529,27.1-60.529,60.529S101.512,310.147,134.94,310.147z"/>
<g>
	<path style="fill:#54B88B;" d="M377.059,310.147c33.429,0,60.529-27.1,60.529-60.529s-27.1-60.529-60.529-60.529H256v121.059
		c0,33.43,27.1,60.53,60.529,60.53C349.959,370.677,377.059,343.577,377.059,310.147z"/>
	<path style="fill:#54B88B;" d="M377.059,68.029c0-33.429-27.1-60.529-60.53-60.529C283.1,7.5,256,34.6,256,68.029v121.059h121.059
		c33.429,0,60.529-27.1,60.529-60.529S410.488,68.029,377.059,68.029z"/>
</g>
<path style="opacity:0.1;enable-background:new    ;" d="M134.94,310.147c0,33.43,27.1,60.53,60.529,60.53s60.529-27.1,60.529-60.53
	V189.088H134.94c-33.429,0-60.529,27.1-60.529,60.529S101.512,310.147,134.94,310.147z"/>
<path style="opacity:0.1;enable-background:new    ;" d="M377.059,68.029c0-33.429-27.1-60.529-60.53-60.529
	C283.1,7.5,256,34.6,256,68.029v121.059h121.059c33.429,0,60.529-27.1,60.529-60.529S410.488,68.029,377.059,68.029z"/>
<g style="opacity:0.1;">
	<g>
		<path d="M353.452,294.041c-1.92,0-3.839-0.732-5.304-2.197l-22.698-22.699c-2.929-2.929-2.929-7.678,0.001-10.606
			c2.929-2.928,7.678-2.929,10.606,0.001l22.698,22.699c2.929,2.929,2.929,7.678-0.001,10.606
			C357.29,293.309,355.371,294.041,353.452,294.041z"/>
		<path d="M309.367,249.955c-1.919,0-3.839-0.732-5.304-2.196L201.025,144.721c-2.929-2.93-2.929-7.678,0-10.607
			c2.93-2.928,7.678-2.928,10.607,0l103.038,103.038c2.929,2.93,2.929,7.678,0,10.607
			C313.206,249.223,311.286,249.955,309.367,249.955z"/>
		<path d="M184.941,125.53c-1.919,0-3.839-0.732-5.304-2.196l-26.395-26.395c-2.929-2.93-2.929-7.678,0-10.607
			c2.93-2.928,7.678-2.928,10.607,0l26.395,26.395c2.929,2.93,2.929,7.678,0,10.607C188.781,124.798,186.861,125.53,184.941,125.53z
			"/>
	</g>
	<g>
		<path d="M330.754,121.834c-1.919,0-3.839-0.732-5.304-2.196c-2.929-2.93-2.929-7.678,0-10.607l22.698-22.698
			c2.93-2.928,7.678-2.928,10.607,0c2.929,2.93,2.929,7.678,0,10.607l-22.698,22.698
			C334.592,121.102,332.673,121.834,330.754,121.834z"/>
		<path d="M208.574,244.013c-1.919,0-3.839-0.732-5.304-2.196c-2.929-2.93-2.929-7.678,0-10.607l100.792-100.792
			c2.93-2.928,7.678-2.928,10.607,0c2.929,2.93,2.929,7.678,0,10.607L213.879,241.816
			C212.414,243.28,210.493,244.013,208.574,244.013z"/>
		<path d="M158.548,294.041c-1.919,0-3.839-0.732-5.303-2.196c-2.93-2.929-2.93-7.678-0.001-10.606l22.698-22.699
			c2.93-2.93,7.679-2.929,10.606-0.001c2.93,2.929,2.93,7.678,0.001,10.606l-22.698,22.699
			C162.387,293.309,160.466,294.041,158.548,294.041z"/>
	</g>
</g>
<path d="M408.049,189.088c21.967-11.293,37.039-34.177,37.039-60.529c0-35.105-26.726-64.085-60.9-67.658
	C380.614,26.726,351.635,0,316.529,0C290.177,0,267.293,15.071,256,37.038C244.707,15.071,221.823,0,195.47,0
	c-17.363,0-33.895,6.541-46.547,18.417c-3.02,2.835-3.17,7.582-0.336,10.602c2.835,3.021,7.581,3.171,10.602,0.336
	C169.051,20.098,181.936,15,195.47,15c29.24,0,53.029,23.789,53.029,53.029v113.559H134.94c-29.24,0-53.029-23.789-53.029-53.029
	S105.701,75.53,134.94,75.53c4.143,0,7.5-3.357,7.5-7.5c0-2.299,0.148-4.612,0.44-6.875c0.53-4.107-2.37-7.868-6.479-8.398
	c-4.097-0.527-7.868,2.37-8.398,6.479c-0.071,0.553-0.136,1.108-0.194,1.666c-34.171,3.576-60.898,32.556-60.898,67.658
	c0,26.353,15.072,49.236,37.039,60.529c-21.967,11.293-37.039,34.178-37.039,60.53c0,35.105,26.726,64.085,60.9,67.658
	c3.573,34.175,32.553,60.9,67.658,60.9c8.735,0,17.081-1.673,24.76-4.685c-5.696,45.981-17.994,59.057-42.469,85.063
	c-11.982,12.733-11.373,32.843,1.36,44.827c5.905,5.558,13.622,8.618,21.729,8.618c8.711,0,17.13-3.637,23.099-9.978
	c3.364-3.575,6.053-6.472,8.459-9.115c2.789-3.064,2.565-7.807-0.497-10.595c-3.063-2.788-7.807-2.564-10.595,0.497
	c-2.35,2.581-4.984,5.42-8.291,8.933c-3.191,3.392-7.515,5.259-12.175,5.259c-4.271,0-8.337-1.613-11.448-4.541
	c-6.71-6.316-7.032-16.914-0.717-23.625c26.911-28.594,41.959-44.589,47.6-104.298c8.217-6.182,14.979-14.186,19.715-23.398
	c3.624,7.048,8.435,13.385,14.18,18.742c-1.873,23.956-4.9,42.399-9.481,57.783c-3.716,12.48-8.67,23.641-15.143,34.118
	c-2.178,3.523-1.086,8.145,2.438,10.322c1.229,0.76,2.59,1.121,3.936,1.121c2.513,0,4.969-1.264,6.387-3.559
	c7.18-11.618,12.661-23.957,16.761-37.722c4.285-14.392,7.28-31.109,9.273-51.877c9.587,5.169,20.546,8.11,32.18,8.11
	c35.105,0,64.085-26.726,67.658-60.9c34.175-3.573,60.9-32.553,60.9-67.658C445.088,223.266,430.016,200.381,408.049,189.088z
	 M248.5,310.147c0,29.24-23.789,53.029-53.029,53.029s-53.029-23.789-53.029-53.029c0-4.143-3.357-7.5-7.5-7.5
	c-29.24,0-53.029-23.789-53.029-53.029c0-29.241,23.789-53.03,53.029-53.03H248.5V310.147z M263.5,68.029
	C263.5,38.789,287.289,15,316.529,15s53.029,23.789,53.029,53.029c0,4.143,3.357,7.5,7.5,7.5c29.24,0,53.029,23.789,53.029,53.029
	s-23.789,53.029-53.029,53.029H263.5V68.029z M377.059,302.647c-4.143,0-7.5,3.357-7.5,7.5c0,29.24-23.789,53.029-53.029,53.029
	s-53.03-23.788-53.03-53.029v-113.56h113.559c29.24,0,53.029,23.789,53.029,53.03C430.088,278.858,406.299,302.647,377.059,302.647z
	"/>
<g>
</g>
<g>
</g>
<g>
</g>
<g>
</g>
<g>
</g>
<g>
</g>
<g>
</g>
<g>
</g>
<g>
</g>
<g>
</g>
<g>
</g>
<g>
</g>
<g>
</g>
<g>
</g>
<g>
</g>
</svg>
