<?xml version="1.0" encoding="iso-8859-1"?>
<!-- Generator: Adobe Illustrator 19.0.0, SVG Export Plug-In . SVG Version: 6.00 Build 0)  -->
<svg version="1.1" id="Capa_1" xmlns="http://www.w3.org/2000/svg" xmlns:xlink="http://www.w3.org/1999/xlink" x="0px" y="0px"
	 viewBox="0 0 511.999 511.999" style="enable-background:new 0 0 511.999 511.999;" xml:space="preserve">
<rect x="95.366" y="431.532" style="fill:#F23366;" width="325.311" height="35.064"/>
<rect x="59.119" y="18.88" style="fill:#65CDEF;" width="388.988" height="249.987"/>
<path style="fill:#B57049;" d="M461.977,282.829H44.749V7.717h417.23v275.112H461.977z M78.984,248.593h348.758V41.953H78.984
	V248.593z"/>
<polygon style="opacity:0.1;enable-background:new    ;" points="79.076,248.593 79.076,245.886 44.84,281.905 44.84,282.829 
	462.07,282.829 427.834,248.593 "/>
<polygon style="opacity:0.2;enable-background:new    ;" points="462.07,7.717 427.834,41.953 427.834,248.593 462.07,282.829 
	462.07,282.829 "/>
<g>
	<path style="fill:#AEAFB0;" d="M129.328,394.714H89.099H48.871c-6.815,0-12.339,5.525-12.339,12.339
		c0,6.814,5.525,12.339,12.339,12.339h10.248v74.601c0,5.683,4.606,10.289,10.289,10.289h39.384c5.682,0,10.289-4.606,10.289-10.289
		v-74.601h10.248c6.815,0,12.339-5.525,12.339-12.339C141.668,400.239,136.143,394.714,129.328,394.714z"/>
	<circle style="fill:#AEAFB0;" cx="89.1" cy="357.227" r="37.483"/>
	<path style="fill:#AEAFB0;" d="M463.128,390.426H422.9H382.67c-6.815,0-12.339,5.525-12.339,12.339l0,0
		c0,6.815,5.525,12.339,12.339,12.339h10.248v74.601c0,5.683,4.606,10.289,10.289,10.289h39.384c5.682,0,10.289-4.606,10.289-10.289
		v-74.601h10.248c6.815,0,12.339-5.525,12.339-12.339l0,0C475.467,395.95,469.942,390.426,463.128,390.426z"/>
	<circle style="fill:#AEAFB0;" cx="422.9" cy="352.947" r="37.483"/>
</g>
<path style="fill:#98D4AD;" d="M332.964,116.722c-3.995-3.86-10.333-3.852-14.318,0.019l-67.029,64.62l-48.142-64.412
	c-4-5.352-11.962-5.53-16.198-0.363L85.213,248.593h342.621l0.04-38.283L332.964,116.722z"/>
<circle style="fill:#FFDB4C;" cx="253.454" cy="85.87" r="20.555"/>
<g>
	<path style="fill:#FFFFFF;" d="M332.964,116.701c-3.995-3.86-10.333-3.852-14.318,0.019l-19.164,18.476
		c5.127,7.676,13.867,12.733,23.791,12.733c11.129,0,20.767-6.364,25.491-15.647L332.964,116.701z"/>
	<path style="fill:#FFFFFF;" d="M194.296,151.422c10.427,0,19.881-4.141,26.827-10.859l-17.65-23.615
		c-4-5.352-11.962-5.53-16.198-0.363l-19.076,24.674C175.07,147.568,184.233,151.422,194.296,151.422z"/>
</g>
<path d="M50.977,167.692c-4.262,0-7.717,3.454-7.717,7.717v107.417c0,0.255,0.013,0.51,0.038,0.765
	c0.01,0.11,0.032,0.217,0.047,0.326c0.02,0.14,0.037,0.281,0.064,0.421c0.025,0.127,0.06,0.25,0.092,0.375
	c0.03,0.119,0.057,0.239,0.092,0.357c0.037,0.123,0.083,0.242,0.127,0.363c0.042,0.117,0.08,0.235,0.128,0.35
	c0.047,0.113,0.102,0.221,0.153,0.331c0.056,0.118,0.108,0.237,0.17,0.353c0.057,0.106,0.121,0.208,0.183,0.311
	c0.067,0.112,0.131,0.226,0.205,0.336c0.076,0.114,0.162,0.222,0.244,0.331c0.069,0.092,0.133,0.186,0.206,0.276
	c0.152,0.185,0.314,0.363,0.483,0.534c0.01,0.01,0.019,0.022,0.029,0.032c0.011,0.011,0.025,0.022,0.036,0.033
	c0.169,0.167,0.345,0.327,0.529,0.478c0.09,0.073,0.183,0.137,0.275,0.205c0.11,0.082,0.218,0.168,0.332,0.244
	c0.108,0.072,0.221,0.135,0.332,0.202c0.105,0.063,0.208,0.129,0.316,0.187c0.113,0.061,0.229,0.112,0.346,0.167
	c0.112,0.053,0.223,0.109,0.339,0.157c0.113,0.046,0.228,0.084,0.343,0.126c0.123,0.044,0.245,0.092,0.37,0.13
	c0.114,0.034,0.229,0.06,0.345,0.089c0.129,0.033,0.256,0.069,0.388,0.095c0.133,0.027,0.268,0.042,0.401,0.062
	c0.115,0.016,0.227,0.038,0.344,0.049c0.253,0.025,0.507,0.038,0.761,0.038h417.23c0.254,0,0.508-0.013,0.761-0.038
	c0.116-0.011,0.228-0.033,0.344-0.049c0.135-0.02,0.27-0.035,0.402-0.062c0.132-0.026,0.258-0.062,0.387-0.095
	c0.115-0.029,0.23-0.055,0.345-0.089c0.126-0.038,0.247-0.085,0.37-0.13c0.114-0.041,0.229-0.079,0.343-0.126
	c0.115-0.048,0.226-0.104,0.339-0.157c0.115-0.055,0.232-0.106,0.346-0.167c0.108-0.058,0.21-0.123,0.315-0.186
	c0.111-0.067,0.224-0.13,0.333-0.203c0.114-0.076,0.221-0.161,0.33-0.243c0.092-0.069,0.186-0.133,0.276-0.206
	c0.184-0.151,0.36-0.311,0.529-0.478c0.011-0.011,0.025-0.022,0.036-0.033c0.01-0.01,0.019-0.022,0.029-0.032
	c0.169-0.171,0.33-0.348,0.483-0.534c0.073-0.09,0.137-0.183,0.206-0.276c0.082-0.11,0.168-0.217,0.244-0.331
	c0.073-0.11,0.137-0.223,0.205-0.336c0.062-0.103,0.127-0.205,0.183-0.311c0.062-0.116,0.115-0.236,0.171-0.354
	c0.051-0.109,0.106-0.217,0.153-0.329c0.048-0.116,0.086-0.235,0.129-0.353c0.043-0.12,0.089-0.238,0.127-0.361
	c0.036-0.118,0.062-0.238,0.092-0.357c0.031-0.124,0.066-0.248,0.092-0.375c0.028-0.139,0.044-0.28,0.064-0.421
	c0.015-0.109,0.036-0.216,0.047-0.326c0.025-0.254,0.038-0.509,0.038-0.765V7.72c0-0.255-0.013-0.51-0.038-0.765
	c-0.01-0.11-0.032-0.217-0.047-0.326c-0.02-0.14-0.037-0.281-0.064-0.421c-0.025-0.127-0.06-0.25-0.092-0.375
	c-0.03-0.119-0.057-0.239-0.092-0.357c-0.037-0.122-0.083-0.241-0.127-0.361c-0.042-0.117-0.08-0.236-0.129-0.352
	c-0.046-0.112-0.102-0.22-0.153-0.33c-0.056-0.118-0.108-0.238-0.17-0.353c-0.057-0.106-0.121-0.208-0.183-0.311
	c-0.067-0.112-0.131-0.226-0.205-0.336c-0.076-0.114-0.162-0.222-0.244-0.331c-0.069-0.092-0.133-0.186-0.206-0.276
	c-0.152-0.185-0.314-0.363-0.483-0.534c-0.01-0.01-0.019-0.022-0.029-0.032c-0.011-0.011-0.025-0.022-0.036-0.033
	c-0.169-0.167-0.345-0.327-0.529-0.478c-0.089-0.073-0.182-0.136-0.274-0.205c-0.11-0.082-0.218-0.168-0.332-0.245
	c-0.107-0.071-0.218-0.134-0.327-0.199c-0.107-0.064-0.212-0.131-0.322-0.19c-0.109-0.059-0.221-0.107-0.332-0.159
	c-0.117-0.056-0.234-0.114-0.354-0.164c-0.106-0.043-0.214-0.079-0.321-0.117c-0.131-0.047-0.259-0.097-0.392-0.137
	c-0.104-0.032-0.21-0.055-0.316-0.081c-0.139-0.036-0.276-0.074-0.418-0.102c-0.115-0.023-0.23-0.035-0.346-0.052
	c-0.134-0.021-0.265-0.044-0.401-0.058c-0.19-0.019-0.382-0.025-0.573-0.029c-0.06-0.002-0.12-0.01-0.182-0.01H50.977
	c-0.062,0-0.121,0.008-0.183,0.009c-0.191,0.004-0.383,0.01-0.573,0.029c-0.136,0.013-0.268,0.038-0.401,0.058
	c-0.115,0.017-0.23,0.03-0.346,0.052c-0.142,0.028-0.279,0.067-0.418,0.102c-0.105,0.027-0.211,0.049-0.315,0.081
	c-0.134,0.04-0.262,0.09-0.392,0.137c-0.107,0.039-0.215,0.074-0.321,0.117c-0.12,0.049-0.237,0.108-0.354,0.164
	c-0.111,0.052-0.223,0.102-0.332,0.159c-0.11,0.059-0.216,0.127-0.323,0.19C46.91,1.164,46.8,1.225,46.693,1.296
	c-0.115,0.077-0.224,0.163-0.334,0.246c-0.091,0.071-0.184,0.134-0.273,0.207c-0.184,0.151-0.36,0.311-0.529,0.478
	c-0.011,0.011-0.025,0.022-0.036,0.033c-0.01,0.01-0.019,0.022-0.029,0.032c-0.169,0.171-0.33,0.348-0.483,0.534
	c-0.073,0.09-0.137,0.183-0.206,0.276c-0.082,0.11-0.168,0.217-0.244,0.331c-0.073,0.11-0.137,0.223-0.205,0.336
	c-0.062,0.103-0.127,0.205-0.183,0.311c-0.062,0.115-0.114,0.234-0.17,0.352c-0.052,0.11-0.107,0.219-0.154,0.332
	c-0.047,0.115-0.085,0.233-0.128,0.349c-0.043,0.12-0.09,0.24-0.128,0.363c-0.036,0.118-0.062,0.238-0.092,0.357
	c-0.031,0.124-0.066,0.248-0.092,0.375c-0.028,0.139-0.044,0.28-0.064,0.421c-0.015,0.109-0.036,0.216-0.047,0.326
	c-0.025,0.254-0.038,0.509-0.038,0.765v137.554c0,4.263,3.455,7.717,7.717,7.717s7.717-3.454,7.717-7.717V26.347l18.803,18.803
	v200.248L58.694,264.2v-88.79C58.694,171.147,55.239,167.692,50.977,167.692z M430.775,34.235H88.41L69.607,15.433h379.969
	L430.775,34.235z M92.93,49.668h333.325v25.911c0,4.263,3.455,7.717,7.717,7.717c4.262,0,7.717-3.454,7.717-7.717V45.148
	l18.803-18.803v237.852l-18.803-18.803v-138.95c0-4.263-3.455-7.717-7.717-7.717c-4.262,0-7.717,3.454-7.717,7.717v91.505
	l-87.928-86.778c-7.032-6.795-18.038-6.781-25.056,0.033l-60.52,58.782l-43.095-57.658c-3.337-4.464-8.446-7.096-14.018-7.222
	c-5.556-0.135-10.794,2.276-14.328,6.585c-0.046,0.057-0.093,0.114-0.138,0.172L92.93,225.995V49.668z M259.194,204.388
	c2.551,3.413,7.386,4.112,10.801,1.562c3.414-2.552,4.112-7.387,1.561-10.801l-9.489-12.695l61.956-60.177
	c1.003-0.974,2.574-0.975,3.521-0.063l98.711,97.419v21.243h-325.32l92.358-119.457c0.685-0.79,1.546-0.915,1.998-0.882
	c0.468,0.01,1.35,0.158,2.003,1.032L259.194,204.388z M88.41,256.309h342.365l18.803,18.802H69.607L88.41,256.309z"/>
<path d="M463.128,382.709h-6.257c6.982-7.958,11.228-18.373,11.228-29.766c0-24.924-20.276-45.2-45.2-45.2
	c-24.924,0-45.2,20.276-45.2,45.2c0,11.394,4.246,21.808,11.228,29.766h-6.257c-11.059,0-20.057,8.997-20.057,20.056
	c0,11.059,8.998,20.056,20.057,20.056h2.53v9.204H126.798v-4.915h2.53c11.059,0,20.057-8.997,20.057-20.056
	c0-11.059-8.998-20.056-20.057-20.056h-6.257c6.982-7.958,11.228-18.373,11.228-29.766c0-24.924-20.276-45.2-45.2-45.2
	s-45.2,20.276-45.2,45.2c0,11.394,4.246,21.808,11.228,29.766h-6.257c-11.059,0-20.056,8.997-20.056,20.056
	c0,11.059,8.998,20.056,20.056,20.056h2.531v15.116c0,4.263,3.455,7.717,7.717,7.717s7.717-3.454,7.717-7.717V427.11h44.529v12.632
	v27.004v27.248c0,1.419-1.154,2.572-2.572,2.572H69.408c-1.418,0-2.572-1.153-2.572-2.572v-15.756c0-4.263-3.455-7.717-7.717-7.717
	s-7.717,3.454-7.717,7.717v15.756c0,9.928,8.078,18.005,18.005,18.005h39.384c9.928,0,18.005-8.078,18.005-18.005v-19.531h258.404
	v15.242c0,9.928,8.078,18.005,18.005,18.005h39.384c9.928,0,18.005-8.078,18.005-18.005V422.82h2.531
	c11.059,0,20.056-8.997,20.056-20.056C483.184,391.704,474.186,382.709,463.128,382.709z M59.333,357.232
	c0-16.413,13.353-29.767,29.766-29.767s29.766,13.354,29.766,29.767c0,16.413-13.353,29.766-29.766,29.766
	S59.333,373.645,59.333,357.232z M59.119,411.677H48.871c-2.55,0-4.623-2.074-4.623-4.623s2.074-4.623,4.623-4.623h80.456
	c2.55,0,4.624,2.074,4.624,4.623s-2.074,4.623-4.624,4.623h-10.247H59.119z M393.133,352.943c0-16.413,13.353-29.767,29.766-29.767
	c16.414,0,29.767,13.354,29.767,29.767c0,16.413-13.353,29.766-29.767,29.766C406.486,382.709,393.133,369.355,393.133,352.943z
	 M126.798,459.03v-11.571h258.404v11.571H126.798z M445.164,489.705c0,1.419-1.154,2.572-2.572,2.572h-39.384
	c-1.418,0-2.572-1.153-2.572-2.572v-22.958v-27.004v-16.921h44.529V489.705z M463.128,407.388H452.88h-59.962h-10.247
	c-2.55,0-4.624-2.074-4.624-4.623s2.074-4.623,4.624-4.623h80.456c2.55,0,4.623,2.074,4.623,4.623S465.676,407.388,463.128,407.388z
	"/>
<path d="M253.455,114.14c15.59,0,28.273-12.683,28.273-28.273s-12.683-28.273-28.273-28.273c-15.589,0-28.272,12.683-28.272,28.273
	S237.866,114.14,253.455,114.14z M253.455,73.029c7.08,0,12.839,5.76,12.839,12.839s-5.76,12.839-12.839,12.839
	c-7.079,0-12.838-5.76-12.838-12.839S246.376,73.029,253.455,73.029z"/>
<g>
</g>
<g>
</g>
<g>
</g>
<g>
</g>
<g>
</g>
<g>
</g>
<g>
</g>
<g>
</g>
<g>
</g>
<g>
</g>
<g>
</g>
<g>
</g>
<g>
</g>
<g>
</g>
<g>
</g>
</svg>
