<?xml version="1.0" encoding="utf-8"?>
<!-- Generator: Adobe Illustrator 26.1.0, SVG Export Plug-In . SVG Version: 6.00 Build 0)  -->
<svg version="1.1" id="Lag_1" xmlns="http://www.w3.org/2000/svg" xmlns:xlink="http://www.w3.org/1999/xlink" x="0px" y="0px"
	 viewBox="0 0 765.4 765.4" style="enable-background:new 0 0 765.4 765.4;" xml:space="preserve">
<style type="text/css">
	.st0{fill:#3671B3;}
	.st1{fill:#FFFFFF;}
	.st2{fill-rule:evenodd;clip-rule:evenodd;fill:#FFFFFF;}
	.st3{fill:none;stroke:#FFFFFF;stroke-width:16;stroke-miterlimit:10;}
</style>
<path class="st0" d="M708.7,763.2h-652C25.5,763.2,0,737.6,0,706.5V58.9C0,27.7,25.5,2.2,56.7,2.2h652c31.2,0,56.7,25.5,56.7,56.7
	v647.6C765.4,737.6,739.8,763.2,708.7,763.2z"/>
<path class="st1" d="M518.9,227.3c0-14-0.2-24.2,0-34.4c0.3-16.1,7.4-23.6,23-23.7c23.7-0.3,47.5-0.3,71.2-0.1
	c14.8,0.1,22.7,7.9,23,22.7c0.3,15,0.4,30.1,0,45.1c-0.2,7.6,2.2,11.3,10.1,10.2c15.9-2.3,24.8,5.7,31.3,19.4
	c10.5,22.1,22.4,43.6,33.4,65.5c9.3,18.5,0.8,32.1-20,32.6c-16,0.4-16,0.4-16,16.1c0,80.7,0.2,120.6-0.2,201.3
	c-0.1,10.8,2.7,15.6,13.8,13.9c2.7-0.4,5.6-0.2,8.3,0.1c10.5,1.2,17.7,8.8,18,18.7c0.3,9.7-6.6,18.3-16.6,20.1
	c-3.5,0.7-7.1,0.5-10.6,0.5c-202.9,0-405.8,0-608.6-0.1c-3.9,0-8,0.2-11.8-0.5c-9.9-1.9-17.1-10.9-16.7-20.2
	c0.4-9.6,8-17.3,18.4-18.5c6.9-0.8,17.1,0.8,19.8-3c3.7-5.1,1.8-14.3,1.8-21.8c0.1-77.1,0-113.5,0-190.7c0-4.7,0-9.3,0-15.8
	c-7,0-12.8,0.2-18.5,0c-17.6-0.9-26.2-15-18.4-30.6c11.9-23.7,24.5-47,36.2-70.8c5.8-11.8,14.3-17.7,27.4-16
	c10.2,1.3,12.9-3.2,12.4-12.8c-0.7-13.8-0.5-27.7-0.3-41.5c0.3-16.3,7.9-23.8,24.3-23.9c23.3-0.1,46.7-0.1,70,0.1
	c15.5,0.2,23.1,8,23.3,23.6c0.2,10.2,0,20.4,0,33.4c6-3.9,10.2-6.4,14-9.2c35.2-26.3,70.2-52.7,105.4-78.9
	c14-10.5,18.6-10.6,32.7-0.1c34.6,25.7,69,51.7,103.5,77.5C507,218.7,511.4,221.8,518.9,227.3z M441.2,595.6l12.6,0.3
	c56.9-0.5,113.9-0.3,170.8-0.4c3.4,0,6.7-0.6,10.2-1c0-90.7,0-139.4,0-230c-5.3,0-9.6,0-13.9,0c-63.7,0-127.3-0.1-191,0.3
	c-10.7,0.1-19.4-2.4-26.4-10.6c-6.1-7.2-12.1-14.4-21-25c-6.3,8.4-10,13.5-13.8,18.4c-10.2,13.2-23.4,17.5-40.4,17.3
	c-62.1-0.9-124.2-0.2-186.2-0.5c-8.7,0-12.5,1.7-12.5,11.6c0.4,83.1,0.3,125.4,0,208.4c0,8.9,2.7,11.4,11.5,11.4
	c56.9-0.3,113.9-0.1,170.8-0.1c3.8,0,7.5,0.4,12.2,0c0-19.3-0.3-38.4,0.1-56.5c0.6-34.5,25.9-60.5,58.5-60.5
	c32.5,0,57.9,26.2,58.5,60.6c0.3,14.6,0.5,29.3-0.2,43.9L441.2,595.6z M371.4,287.7c-3.3-0.4-5.5-1-7.7-1
	c-77.8,0-155.6-0.1-233.5,0.1c-2.9,0-7.4,0.6-8.5,2.5c-6.5,11-12.2,22.4-18.5,34.3c3.5,0.9,4.6,1.4,5.7,1.4
	c73.5,0.1,146.9,0.2,220.4,0.2c2.6,0,6.1-0.4,7.7-2C348.4,311.8,359.4,300.2,371.4,287.7z M395.7,286.7c-0.5,1.2-0.9,2.5-1.4,3.7
	c9.3,9,18.2,18.7,28.2,26.8c5,4.1,12.2,7.5,18.4,7.6c69.2,0.5,138.4,0.3,207.5,0.3c4.1,0,8.2,0,14.9,0
	c-5.8-11.2-10.9-19.6-14.7-28.5c-3.3-7.6-8.1-10.2-16.4-10.1c-74.7,0.3-149.4,0.2-224.1,0.2C404,286.7,399.9,286.7,395.7,286.7z
	 M287.9,245.9c64.8,0,125.7,0,190,0c-32.1-24-61.3-46-90.8-67.7c-1.8-1.4-6.4-1.5-8.2-0.1C349.4,199.7,320.1,221.8,287.9,245.9z
	 M401.9,587.7c0-16.6,0.5-33.2-0.1-49.8c-0.4-12-8.8-19.8-19.4-19.6c-10.2,0.2-17.9,7.8-18.6,19.3c-0.6,8.3-0.1,16.6-0.1,24.9
	c0,0-0.1,0-0.1,0c0,8.7,0,17.4,0,26.1c0,0-0.7,6.8,6.8,6.8c7.5,0,26.1,0,26.1,0S401.9,595.9,401.9,587.7z M207.1,228.7
	c0-20.1,0-20.2-14.1-20.1c-25.1,0.3-24.2-3.3-24.1,14.9c0.1,23.8-3.2,23.7,12.9,23.5C210.1,246.6,206.8,250.7,207.1,228.7z
	 M596.7,228.2c0-19.5,0-19.5-13.6-19.5c-24.7,0-23.6,0.1-25.1,24.8c-1,15.6,7.7,13.9,17.4,13.8C598.9,246.8,596.5,249.8,596.7,228.2
	z"/>
</svg>
