<?xml version="1.0" encoding="iso-8859-1"?>
<!-- Generator: Adobe Illustrator 19.0.0, SVG Export Plug-In . SVG Version: 6.00 Build 0)  -->
<svg version="1.1" id="Capa_1" xmlns="http://www.w3.org/2000/svg" xmlns:xlink="http://www.w3.org/1999/xlink" x="0px" y="0px"
	 viewBox="0 0 511.999 511.999" style="enable-background:new 0 0 511.999 511.999;" xml:space="preserve">
<ellipse transform="matrix(0.5859 -0.8104 0.8104 0.5859 89.8662 280.6996)" style="fill:#FFCDAC;" cx="319.591" cy="52.418" rx="43.924" ry="39.31"/>
<path style="fill:#F5B955;" d="M238.602,255.97l65.778-120.025c10.17-18.558,2.904-41.851-16.015-51.333l-8.57-4.295
	c-18.132-9.089-40.204-2.043-49.717,15.871l-60.997,114.864L238.602,255.97z"/>
<polygon style="fill:#D9996F;" points="447.997,191.97 447.997,336.84 501.997,296.97 501.997,165.736 "/>
<path style="fill:#F5B955;" d="M282.067,142.028l26.132,50.964c2.866,5.59,8.89,8.827,15.134,8.131l62.712-6.991
	c9.682-1.079,18.65,5.226,20.91,14.702l0,0c2.683,11.246-5.058,22.312-16.542,23.648l-81.694,9.502
	c-14.275,1.66-28.081-5.715-34.637-18.504l-18.084-35.276L282.067,142.028z"/>
<polygon style="fill:#C88C64;" points="149.701,464.969 356.998,464.969 384.166,383.969 501.997,296.97 501.997,501.969 
	163.576,501.969 "/>
<polygon style="fill:#D9996F;" points="102.999,501.969 64,397.969 10,397.969 10,501.969 "/>
<path style="fill:#9BBEFF;" d="M169.082,211.051l-10.464,11.477c-18.473,20.262-22.669,49.763-10.577,74.371l4.986,10.148
	l-8.542,95.242v62.68v17.911c0,10.543,8.547,19.09,19.09,19.09h47.173c7.87,0,14.25-6.38,14.25-14.25l0,0
	c0-7.87-6.38-14.25-14.25-14.25h-10.267c-6.385,0-12.391-3.026-16.192-8.156l0,0c-2.571-3.47-3.958-7.675-3.958-11.994v-47.85
	l33.655-91.212l-5.987-4.288l31.128,22.285c8.079,5.784,12.872,15.109,12.872,25.045v93.835c0,7.64,6.193,13.833,13.833,13.833
	h45.917c6.213,0,11.25-5.037,11.25-11.25l0,0c0-6.213-5.037-11.25-11.25-11.25h-4.739c-6.126,0-12.037-2.253-16.609-6.331l0,0
	c-6.998-6.241-9.906-15.878-7.529-24.948l17.05-65.054c6.892-26.296-4.048-54.027-27.038-68.534l-60.305-38.054L169.082,211.051z"/>
<g>
	<path style="fill:#5A55E1;" d="M251.999,417.596v33.54c0,7.64,6.193,13.833,13.833,13.833h45.917c6.213,0,11.25-5.037,11.25-11.25
		s-5.037-11.25-11.25-11.25h-4.739c-6.126,0-12.037-2.253-16.609-6.331c-5.361-4.781-8.31-11.557-8.333-18.542L251.999,417.596
		L251.999,417.596z"/>
	<path style="fill:#5A55E1;" d="M163.576,501.969h47.173c7.87,0,14.25-6.38,14.25-14.25c0-7.87-6.38-14.25-14.25-14.25h-10.267
		c-6.385,0-12.391-3.026-16.192-8.156c-2.571-3.47-3.958-7.675-3.958-11.994h-35.846v11.65v17.911
		C144.486,493.422,153.033,501.969,163.576,501.969z"/>
</g>
<path style="fill:#46C373;" d="M249.999,74.55l-34.918-19.238c-23.435-12.911-52.888-4.841-66.468,18.212L95.92,162.969
	c-14.179,24.069-5.621,55.096,18.892,68.492l29.445,16.091L249.999,74.55z"/>
<g>
	<path style="fill:#A5DC69;" d="M158.57,174.537c-9.557-6.731-22.772-4.354-29.384,5.286l-27.336,41.412
		c3.62,4.002,7.951,7.487,12.962,10.225l29.445,16.092l35.576-58.206L158.57,174.537z"/>
	<path style="fill:#A5DC69;" d="M148.612,73.524l-13.589,23.068l0,0c0,0,38.476,22.427,79.779-3.634l28.197-18.408l-3.54-5.807
		L215.08,55.312C191.646,42.401,162.193,50.471,148.612,73.524z"/>
</g>
<path d="M506.503,288.042c-3.368-1.7-7.409-1.358-10.445,0.883l-78.569,58.011V97.971c0-5.522-4.478-10-10-10s-10,4.478-10,10
	v87.576c-3.935-1.325-8.197-1.837-12.551-1.354l-62.714,6.99c-2.111,0.225-4.162-0.873-5.127-2.754l-14.54-28.355l10.59-19.323
	c6.091-11.114,7.465-23.857,3.925-35.986c2.97-0.115,5.973-0.482,8.986-1.139c13.286-2.898,25.184-10.831,33.501-22.337
	c8.317-11.505,12.119-25.29,10.705-38.815c-1.457-13.94-8.233-25.936-19.08-33.777c-22.036-15.928-54.136-9.289-71.557,14.809
	c-8.317,11.505-12.119,25.29-10.705,38.815c0.159,1.518,0.392,3.009,0.675,4.478c-4.379-0.614-8.83-0.602-13.243,0.037
	c-0.471-0.387-0.979-0.742-1.532-1.046l-34.918-19.238c-13.626-7.507-29.394-9.375-44.397-5.266
	c-15.004,4.111-27.616,13.757-35.513,27.161l-52.692,89.444c-8.244,13.995-10.406,30.326-6.087,45.983
	c4.319,15.658,14.548,28.57,28.8,36.359l22.57,12.334c-3.199,16.113-1.165,33.181,6.48,48.739l3.751,7.634l-8.292,92.452
	c-0.026,0.297-0.04,0.596-0.04,0.894v80.591c0,16.04,13.05,29.09,29.09,29.09h47.173c13.371,0,24.25-10.879,24.25-24.25
	c0-13.371-10.879-24.25-24.25-24.25h-10.267c-3.202,0-6.25-1.535-8.156-4.109c-1.305-1.761-1.994-3.85-1.994-6.041v-46.063
	l28.498-77.234l14.477,10.365c5.442,3.896,8.692,10.219,8.692,16.913v93.836c0,13.142,10.691,23.833,23.833,23.833h33.292h12.625
	h45.25c4.298,0,8.114-2.746,9.48-6.82l26.165-78.009l99.354-73.358v175.186h-20v-68.832c0-5.522-4.478-10-10-10s-10,4.478-10,10
	v68.832h-44.509c-5.522,0-10,4.478-10,10s4.478,10,10,10h94.508c5.522,0,10-4.478,10-10V296.97
	C511.997,293.195,509.872,289.743,506.503,288.042z M295.837,35.224c7.107-9.832,17.837-15.233,28.075-15.233
	c5.548,0,10.953,1.587,15.557,4.915c6.175,4.463,10.047,11.441,10.905,19.648c0.901,8.622-1.593,17.508-7.022,25.019
	c-5.429,7.511-13.085,12.665-21.555,14.514c-8.013,1.747-15.8,0.284-21.957-4.113c-0.153-0.113-0.303-0.229-0.458-0.34
	c-5.975-4.471-9.726-11.336-10.568-19.39C287.913,51.62,290.407,42.735,295.837,35.224z M275.313,89.255l8.57,4.297
	c1.374,0.689,2.669,1.485,3.886,2.369c0.079,0.058,0.154,0.121,0.233,0.178c0.032,0.023,0.065,0.045,0.098,0.068
	c4.545,3.409,7.901,8.133,9.634,13.685c2.231,7.154,1.478,14.714-2.125,21.286l-4.075,7.436l-0.569-1.11
	c-2.52-4.915-8.548-6.855-13.461-4.336c-4.915,2.52-6.855,8.547-4.336,13.461l26.133,50.965c4.732,9.229,14.842,14.653,25.14,13.506
	l62.713-6.99c4.652-0.523,8.989,2.525,10.075,7.084c0.626,2.621,0.119,5.28-1.425,7.488c-1.545,2.207-3.869,3.595-6.545,3.906
	l-81.695,9.502c-10.071,1.165-19.955-4.106-24.583-13.132l-18.084-35.276c-2.52-4.916-8.546-6.859-13.46-4.337
	c-4.915,2.52-6.856,8.546-4.337,13.46l7.122,13.893l-19.224,35.079l-52.779-34.103l56.691-106.757
	C245.817,87.869,262.146,82.655,275.313,89.255z M210.256,64.07l16.542,9.114l-17.463,11.401
	c-17.832,11.642-40.108,14.221-59.964,7.354l7.857-13.338C168.137,60.082,191.426,53.696,210.256,64.07z M104.536,168.045
	l34.527-58.609c10.514,4.181,21.638,6.257,32.746,6.257c14.603,0,29.17-3.594,42.26-10.679l-37.25,70.146l-12.49-8.798
	c-6.824-4.807-15.108-6.642-23.325-5.162c-8.217,1.479-15.343,6.084-20.064,12.969l-19.239,28.052
	c-0.455-1.193-0.859-2.413-1.204-3.661C97.631,188.169,99.065,177.331,104.536,168.045z M119.608,222.685
	c-1.879-1.027-3.648-2.193-5.307-3.477l23.132-33.729c1.674-2.44,4.199-4.072,7.111-4.597s5.849,0.126,8.267,1.83l14.553,10.251
	l-6.523,12.284l-9.613,10.543c-4.911,5.387-8.935,11.311-12.068,17.58L119.608,222.685z M200.482,483.469h10.267
	c2.344,0,4.25,1.906,4.25,4.25c0,2.344-1.906,4.25-4.25,4.25h-47.173c-5.012,0-9.09-4.078-9.09-9.09v-19.561h17.582
	c0.997,2.834,2.395,5.527,4.187,7.945C181.914,478.906,190.972,483.469,200.482,483.469z M213.82,301.839
	c-4.492-3.216-10.739-2.181-13.952,2.31c-3.163,4.419-2.205,10.53,2.103,13.788l-31.021,84.072c-0.409,1.108-0.618,2.28-0.618,3.462
	v37.85h-15.846v-40.583l8.502-94.796c0.164-1.825-0.177-3.659-0.985-5.304l-4.986-10.147c-6.441-13.107-7.504-27.666-3.581-40.975
	c0.283-0.654,0.495-1.323,0.63-2c2.463-7.335,6.464-14.241,11.942-20.25l4.759-5.219l96.78,62.015
	c19.393,12.236,28.516,35.36,22.702,57.541l-16.774,63.995h-11.477V357.3c0-13.131-6.374-25.533-17.051-33.176L213.82,301.839z
	 M299.123,454.969h-33.292c-2.113,0-3.833-1.72-3.833-3.833v-23.54h11.517c1.821,6.052,5.296,11.605,10.229,16.004
	c6.411,5.72,14.674,8.869,23.266,8.869h4.739c0.689,0,1.25,0.561,1.25,1.25s-0.561,1.25-1.25,1.25L299.123,454.969L299.123,454.969z
	 M378.227,375.924c-1.652,1.22-2.889,2.918-3.541,4.865l-24.881,74.18h-16.87c0.024-0.416,0.063-0.828,0.063-1.25
	c0-11.718-9.532-21.25-21.25-21.25h-4.739c-3.676,0-7.209-1.347-9.953-3.795c-3.156-2.814-4.917-6.734-5.002-10.819
	c0.002-0.087,0.013-0.171,0.013-0.259c0-0.054-0.007-0.106-0.008-0.16c0.009-1.234,0.163-2.479,0.486-3.711l17.051-65.054
	c8.035-30.654-4.573-62.613-31.374-79.525l-26.332-16.616l13.358-24.375c7.656,14.823,23.106,24.056,39.551,24.055
	c1.684,0,3.38-0.097,5.077-0.295l81.694-9.502c2.031-0.236,4.012-0.685,5.92-1.325v120.613L378.227,375.924z"/>
<path d="M407.488,73.971c2.63,0,5.21-1.07,7.069-2.931c1.86-1.859,2.931-4.439,2.931-7.069c0-2.63-1.07-5.21-2.931-7.07
	c-1.859-1.86-4.439-2.93-7.069-2.93c-2.631,0-5.21,1.069-7.07,2.93c-1.86,1.861-2.93,4.44-2.93,7.07c0,2.63,1.069,5.21,2.93,7.069
	C402.278,72.901,404.857,73.971,407.488,73.971z"/>
<path d="M73.363,394.457c-1.464-3.902-5.194-6.488-9.363-6.488H10c-5.522,0-10,4.478-10,10s4.478,10,10,10h47.07l36.566,97.511
	c1.506,4.015,5.315,6.491,9.365,6.491c1.166,0,2.353-0.206,3.51-0.64c5.171-1.939,7.791-7.703,5.852-12.875L73.363,394.457z"/>
<path d="M447.997,292.626c5.522,0,10-4.478,10-10V198.23l48.37-23.499c4.968-2.414,7.038-8.397,4.625-13.365
	c-2.414-4.969-8.398-7.036-13.365-4.625l-54,26.234c-3.443,1.674-5.63,5.166-5.63,8.995v90.655
	C437.997,288.149,442.475,292.626,447.997,292.626z"/>
<path d="M461.997,394.828c2.63,0,5.21-1.069,7.069-2.93c1.86-1.87,2.931-4.439,2.931-7.07c0-2.63-1.07-5.21-2.931-7.069
	c-1.859-1.87-4.439-2.931-7.069-2.931c-2.63,0-5.21,1.061-7.07,2.931c-1.86,1.859-2.93,4.439-2.93,7.069
	c0,2.631,1.069,5.2,2.93,7.07C456.787,393.759,459.367,394.828,461.997,394.828z"/>
<g>
</g>
<g>
</g>
<g>
</g>
<g>
</g>
<g>
</g>
<g>
</g>
<g>
</g>
<g>
</g>
<g>
</g>
<g>
</g>
<g>
</g>
<g>
</g>
<g>
</g>
<g>
</g>
<g>
</g>
</svg>
