<svg id="Cirkel" xmlns="http://www.w3.org/2000/svg" viewBox="0 0 15.59055 15.59055"><defs><style>.cls-1{fill:#726c54;}.cls-2{fill:#11233C;}</style></defs><rect class="cls-1" x="0.00472" width="15.59055" height="15.59055" rx="7.79478"/><path class="cls-2" d="M3.85555,11.87172a.56877.56877,0,0,0,.56878.56879h6.742a.56881.56881,0,0,0,.56878-.56879V9.49715H3.85555Z"/><path class="cls-2" d="M12.1346,8.23342H3.456a.34738.34738,0,1,0,0,.69476H12.1346a.34738.34738,0,0,0,0-.69476Z"/><path class="cls-2" d="M3.85561,7.7228h.4751V5.67647a1.04111,1.04111,0,0,1-.4751.15826Z"/><path class="cls-2" d="M11.26,7.7228h.47509V5.83473a1.04077,1.04077,0,0,1-.47509-.1582Z"/><path class="cls-2" d="M11.88607,3.47927A.56471.56471,0,0,0,11.37282,3.15h-7.155a.56469.56469,0,0,0-.51324.32923L3.59682,3.714h8.39691Z"/><path class="cls-2" d="M3.78176,5.4471A.69.69,0,0,0,4.18532,5.298a.706.706,0,0,0,.26141-.5c.00025-.007.004-.01275.004-.01977,0,.007.00372.01281.004.01977a.65605.65605,0,0,0,.25012.49243L4.716,5.298a.66562.66562,0,0,0,1.06854-.5c.00025-.007.004-.01275.004-.01977,0,.007.00372.01281.004.01977a.66559.66559,0,0,0,1.32989,0c.00025-.007.004-.01275.004-.01977,0,.007.00372.01281.004.01977a.66562.66562,0,0,0,1.32995,0c.00025-.007.004-.01275.004-.01977,0,.007.00372.01281.004.01977a.66559.66559,0,0,0,1.32989,0c.00025-.007.004-.01275.004-.01977,0,.007.00372.01281.004.01977a.65306.65306,0,0,0,1.06854.5l.01117-.00757a.656.656,0,0,0,.25018-.49243c.00025-.007.004-.01275.004-.01977,0,.007.00372.01281.004.01977a.65029.65029,0,0,0,.11609.3407,1.02062,1.02062,0,0,0,.14532.1593.48039.48039,0,0,0,.40357.14911.6696.6696,0,0,0,.66894-.66888H12.482L12.2231,4.214H3.36745l-.25885.56421h.00421A.65822.65822,0,0,0,3.78176,5.4471Z"/></svg>