<?xml version="1.0" encoding="iso-8859-1"?>
<!-- Generator: Adobe Illustrator 19.0.0, SVG Export Plug-In . SVG Version: 6.00 Build 0)  -->
<svg version="1.1" id="Capa_1" xmlns="http://www.w3.org/2000/svg" xmlns:xlink="http://www.w3.org/1999/xlink" x="0px" y="0px"
	 viewBox="0 0 512 512" style="enable-background:new 0 0 512 512;" xml:space="preserve">
<path style="fill:#34ABE0;" d="M512,256c0,12.487-0.899,24.775-2.633,36.78c-0.418,2.926-0.888,5.841-1.411,8.735
	c-0.711,4.002-1.526,7.962-2.424,11.901c-0.648,2.832-1.348,5.642-2.09,8.432c-11.515,43.395-34.137,82.275-64.658,113.382
	C392.328,482.607,327.596,512,256,512C114.615,512,0,397.385,0,256c0-23.03,3.041-45.338,8.746-66.57
	C24.67,130.121,61.367,79.318,110.561,45.317c6.165-4.274,12.528-8.276,19.069-11.995c23.27-13.239,48.807-22.925,75.891-28.338
	C221.842,1.714,238.717,0,256,0c122.42,0,224.768,85.922,250.023,200.756C509.942,218.551,512,237.035,512,256z"/>
<path style="fill:#B58657;" d="M10.193,63.681c0,0,36.92,118.126,153.898,183.87c103.44,58.135,245.766,21.437,245.766,21.437"/>
<path style="fill:#C69A6A;" d="M409.856,268.987c0,0-6.366-0.238-17.551-1.374c-35.546-3.615-119.827-16.335-203.766-59.454
	C104.6,165.041,45.174,103.937,21.532,77.148c-7.44-8.431-11.339-13.467-11.339-13.467s6.352,0.232,17.528,1.371
	c35.536,3.62,119.836,16.331,203.789,59.458c83.952,43.126,143.384,104.248,167.024,131.028
	C405.968,263.958,409.856,268.987,409.856,268.987z"/>
<g>
	<path style="fill:#5C5E70;" d="M409.856,268.987c0,0-6.366-0.238-17.551-1.374L21.532,77.148
		c-7.44-8.431-11.339-13.467-11.339-13.467s6.352,0.232,17.528,1.371l370.812,190.485
		C405.968,263.958,409.856,268.987,409.856,268.987z"/>
	<path style="fill:#5C5E70;" d="M241.934,182.729c6.856-13.346,0.459-30.307-30.341-46.128s-61.324-17.828-68.18-4.482
		c-6.856,13.346,12.553,36.991,43.353,52.812S235.078,196.075,241.934,182.729z"/>
</g>
<g>
	<path style="fill:#F9EED7;" d="M506.023,200.756l-30.563-30.563h-40.751l-90.906-83.069h-59.549L205.521,4.984
		C221.842,1.714,238.717,0,256,0c53.332,0,102.849,16.311,143.841,44.199c24.607,16.739,46.143,37.658,63.582,61.733
		C483.641,133.831,498.375,165.972,506.023,200.756z"/>
	<path style="fill:#F9EED7;" d="M438.784,435.231C392.328,482.607,327.596,512,256,512c-36.268,0-70.771-7.544-102.024-21.138
		c-12.81-5.569-25.067-12.163-36.686-19.665c-2.57-1.661-5.11-3.365-7.617-5.12c-10.961-7.649-21.305-16.133-30.919-25.37
		c-18.829-18.066-34.9-38.985-47.522-62.067c-12.654-23.144-21.838-48.452-26.843-75.233C1.505,288.047,0,272.196,0,256
		c0-23.03,3.041-45.338,8.746-66.57l63.927,37.188l-4.702,53.279l79.924,26.645l12.539,51.722l117.551,34.482l36.039,59.549
		L438.784,435.231z"/>
</g>
<g>
	<path style="fill:#E8DBC4;" d="M263.701,478.323c0,6.928-5.611,12.539-12.539,12.539h-97.186
		c-12.81-5.569-25.067-12.163-36.686-19.665c-1.766-2.56-4.472-4.43-7.617-5.12c-10.961-7.649-21.305-16.133-30.919-25.37h8.714
		c3.459,0,6.593-1.4,8.871-3.668c2.267-2.267,3.668-5.402,3.668-8.871c0-6.917,5.611-12.539,12.539-12.539h119.108
		c3.469,0,6.604,1.4,8.871,3.678c2.267,2.267,3.668,5.402,3.668,8.861c0,6.928-5.611,12.539-12.539,12.539h-40.406
		c-6.917,0-12.539,5.622-12.539,12.539c0,6.928,5.622,12.539,12.539,12.539h59.914c3.459,0,6.593,1.4,8.871,3.668
		C262.301,471.719,263.701,474.854,263.701,478.323z"/>
	<path style="fill:#E8DBC4;" d="M463.423,105.932h-31.493c-3.459,0-6.593-1.4-8.871-3.668c-2.267-2.278-3.668-5.413-3.668-8.871
		c0-6.928-5.622-12.539-12.539-12.539h-59.914c-3.459,0-6.593-1.4-8.861-3.668c-2.267-2.278-3.678-5.413-3.678-8.871
		c0-6.917,5.622-12.539,12.539-12.539h40.406c3.469,0,6.604-1.4,8.871-3.668c2.058-2.069,3.396-4.838,3.626-7.91
		C424.448,60.938,445.983,81.857,463.423,105.932z"/>
	<path style="fill:#E8DBC4;" d="M129.087,341.023c0,6.928-5.611,12.539-12.539,12.539H76.152c-3.469,0-6.604,1.4-8.871,3.668
		c-2.267,2.267-3.668,5.402-3.668,8.871c0,6.928-5.622,12.539-12.539,12.539H31.232c-12.654-23.144-21.838-48.452-26.843-75.233
		h27.178c3.459,0,6.593,1.4,8.871,3.668c2.267,2.267,3.668,5.402,3.668,8.871c0,6.928,5.611,12.539,12.539,12.539h59.904
		c3.469,0,6.604,1.4,8.871,3.668C127.687,334.42,129.087,337.554,129.087,341.023z"/>
</g>
<g>
	<path style="fill:#797B89;" d="M260.121,170.563c0.806-2.211,2.739-3.941,5.223-4.372c3.696-0.642,7.212,1.836,7.852,5.532
		l17.742,102.317c0.642,3.696-1.836,7.213-5.532,7.852c-3.696,0.642-7.212-1.836-7.852-5.532l-17.742-102.317
		C259.604,172.831,259.728,171.64,260.121,170.563z"/>
	<path style="fill:#797B89;" d="M284.25,275.198c14.973-2.597,33.869,36.497,37.168,53.296c3.021,15.384-8.631,27.687-21.815,35.244
		c-14.148,8.109-27.784,6.939-32.408-25.841C264.804,320.944,269.276,277.794,284.25,275.198z"/>
</g>
<g>
	<path style="fill:#78CAEF;" d="M421.553,370.457l-54.217-24.648c-5.122-2.328-7.386-8.369-5.057-13.49l0,0
		c2.328-5.122,8.369-7.386,13.49-5.057l54.217,24.648c5.122,2.328,7.386,8.369,5.057,13.49l0,0
		C432.714,370.521,426.675,372.786,421.553,370.457z"/>
	<path style="fill:#78CAEF;" d="M507.956,301.516c-0.711,4.002-1.526,7.962-2.424,11.901c-0.648,2.832-1.348,5.642-2.09,8.432
		l-42.266-19.216c-5.12-2.33-7.387-8.37-5.057-13.49c1.703-3.751,5.413-5.977,9.279-5.977c1.411,0,2.842,0.293,4.211,0.92
		L507.956,301.516z"/>
	<path style="fill:#78CAEF;" d="M232.426,318.212l-54.217-24.648c-5.122-2.328-7.386-8.369-5.057-13.49l0,0
		c2.328-5.122,8.369-7.386,13.49-5.057l54.217,24.648c5.122,2.328,7.386,8.369,5.057,13.49l0,0
		C243.588,318.276,237.548,320.541,232.426,318.212z"/>
	<path style="fill:#78CAEF;" d="M208.393,87.29l-54.217-24.648c-5.122-2.328-7.386-8.369-5.057-13.49l0,0
		c2.328-5.122,8.369-7.386,13.49-5.057l54.217,24.648c5.122,2.328,7.386,8.369,5.057,13.49l0,0
		C219.555,87.353,213.515,89.619,208.393,87.29z"/>
	<path style="fill:#78CAEF;" d="M378.712,174.016l-54.217-24.648c-5.122-2.328-7.386-8.369-5.057-13.49l0,0
		c2.328-5.122,8.369-7.386,13.49-5.057l54.217,24.648c5.122,2.328,7.386,8.369,5.057,13.49l0,0
		C389.873,174.08,383.834,176.345,378.712,174.016z"/>
</g>
<g>
</g>
<g>
</g>
<g>
</g>
<g>
</g>
<g>
</g>
<g>
</g>
<g>
</g>
<g>
</g>
<g>
</g>
<g>
</g>
<g>
</g>
<g>
</g>
<g>
</g>
<g>
</g>
<g>
</g>
</svg>
