<?xml version="1.0" encoding="iso-8859-1"?>
<!-- Generator: Adobe Illustrator 19.0.0, SVG Export Plug-In . SVG Version: 6.00 Build 0)  -->
<svg version="1.1" id="Layer_1" xmlns="http://www.w3.org/2000/svg" xmlns:xlink="http://www.w3.org/1999/xlink" x="0px" y="0px"
	 viewBox="0 0 512 512" style="enable-background:new 0 0 512 512;" xml:space="preserve">
<path style="fill:#4EBFED;" d="M45.807,512h420.387c25.298,0,45.806-20.508,45.806-45.806V45.806
	C512.001,20.508,491.492,0,466.195,0H45.807C20.508,0,0.001,20.508,0.001,45.806v420.387C0.001,491.491,20.508,512,45.807,512z"/>
<path style="fill:#3BA4BC;" d="M466.195,479.961H45.807c-7.591,0-13.767-6.176-13.767-13.767V45.806
	c0-7.591,6.176-13.767,13.767-13.767h420.387c7.591,0,13.767,6.176,13.767,13.767v420.387
	C479.961,473.785,473.785,479.961,466.195,479.961z M47.419,464.582h417.163V47.418H47.419V464.582z"/>
<path style="fill:#FFFFFF;" d="M281.217,96.425H178.388v328.708h56.971V315.755h45.859c60.469,0,109.665-49.195,109.665-109.664
	S341.686,96.425,281.217,96.425z M281.217,258.784h-45.859V153.396h45.859c29.055,0,52.693,23.639,52.693,52.695
	S310.272,258.784,281.217,258.784z"/>
<g>
</g>
<g>
</g>
<g>
</g>
<g>
</g>
<g>
</g>
<g>
</g>
<g>
</g>
<g>
</g>
<g>
</g>
<g>
</g>
<g>
</g>
<g>
</g>
<g>
</g>
<g>
</g>
<g>
</g>
</svg>
