<?xml version="1.0" encoding="iso-8859-1"?>
<!-- Generator: Adobe Illustrator 19.0.0, SVG Export Plug-In . SVG Version: 6.00 Build 0)  -->
<svg version="1.1" id="Capa_1" xmlns="http://www.w3.org/2000/svg" xmlns:xlink="http://www.w3.org/1999/xlink" x="0px" y="0px"
	 viewBox="0 0 512 512" style="enable-background:new 0 0 512 512;" xml:space="preserve">
<path style="fill:#FFF5AF;" d="M512,256c0,141.385-114.615,256-256,256S0,397.385,0,256S114.615,0,256,0S512,114.615,512,256z"/>
<path style="fill:#FFE67D;" d="M110,185v80c0,2.761-2.239,5-5,5H0.385C0.136,265.364,0,260.698,0,256
	c0-26.463,4.017-51.988,11.472-76H105C107.761,180,110,182.239,110,185z"/>
<path style="fill:#EDC85F;" d="M512,256c0,1.337-0.03,2.667-0.051,4H395c-2.761,0-5-2.239-5-5v-80c0-2.761,2.239-5,5-5h102.178
	C506.764,196.881,512,225.827,512,256z M85,200H6.16c-3.603,16.146-5.69,32.863-6.084,50H85c2.761,0,5-2.239,5-5v-40
	C90,202.239,87.761,200,85,200z"/>
<path style="fill:#B9783D;" d="M316,240H196c-2.761,0-5-2.239-5-5V75c0-2.761,2.239-5,5-5h120c2.761,0,5,2.239,5,5v160
	C321,237.761,318.761,240,316,240z"/>
<path style="fill:#FFAFB4;" d="M297,220h-82c-2.761,0-5-2.239-5-5V95c0-2.761,2.239-5,5-5h82c2.761,0,5,2.239,5,5v120
	C302,217.761,299.761,220,297,220z"/>
<path style="fill:#FF5A5F;" d="M277,200h-42c-2.761,0-5-2.239-5-5v-80c0-2.761,2.239-5,5-5h42c2.761,0,5,2.239,5,5v80
	C282,197.761,279.761,200,277,200z"/>
<path style="fill:#C99C47;" d="M468.496,113.227c5.771,8.573,11.05,17.506,15.769,26.773H355c-2.761,0-5-2.239-5-5V17.811
	c9.198,3.633,18.133,7.786,26.773,12.418v77.999c0,2.761,2.239,5,5,5L468.496,113.227L468.496,113.227z"/>
<path style="fill:#AFEBD2;" d="M472.906,120H375c-2.761,0-5-2.239-5-5V26.742C412.282,47.808,447.912,80.22,472.906,120z"/>
<path style="fill:#1E9682;" d="M458.971,100H395c-2.761,0-5-2.239-5-5V37.845C416.607,54.223,439.984,75.332,458.971,100z"/>
<path style="fill:#D29650;" d="M104.008,50H145c2.761,0,5,2.239,5,5v100c0,2.761-2.239,5-5,5H45c-2.761,0-5-2.239-5-5v-36.452
	c6.072-9.523,12.758-18.616,20-27.225C63.224,87.49,76.56,93.636,80,90c3.241-3.426-3.425-16.645,0-19.888
	C87.579,62.935,95.596,56.217,104.008,50z"/>
<path style="fill:#A5CDFA;" d="M80.116,70H125c2.761,0,5,2.239,5,5v60c0,2.761-2.239,5-5,5H65c-2.761,0-5-2.239-5-5V91.336
	C66.298,83.848,73.012,76.72,80.116,70z"/>
<path style="fill:#6E96DC;" d="M95,125L95,125c-11.046,0-20-8.954-20-20l0,0c0-11.046,8.954-20,20-20l0,0c11.046,0,20,8.954,20,20
	l0,0C115,116.046,106.046,125,95,125z"/>
<path style="fill:#F5DA73;" d="M479.998,380C436.33,458.714,352.394,512,256,512S75.67,458.714,32.002,380H479.998z M236,290h40
	c2.761,0,5-2.239,5-5v-20c0-2.761-2.239-5-5-5h-40c-2.761,0-5,2.239-5,5v20C231,287.761,233.238,290,236,290z"/>
<path style="fill:#FF5A5F;" d="M505.217,314.745c-1.161,4.943-2.473,9.826-3.915,14.654c-34.262-9.267-65.954-26.52-92.802-50.831
	c-41.912,37.955-95.626,58.725-152.5,58.725s-110.588-20.77-152.5-58.725c-26.848,24.311-58.541,41.563-92.802,50.831
	c-1.442-4.828-2.755-9.711-3.915-14.654c34.632-9.361,67.342-27.608,94.477-54.745l2.24,2.24l2.24-2.24
	c82.854,82.856,217.667,82.855,300.52,0l2.24,2.24l2.24-2.24C437.876,287.137,470.585,305.383,505.217,314.745z"/>
<path style="fill:#415A87;" d="M451,430c0,5.523-4.477,10-10,10h-25h-20h-25c-5.523,0-10-4.477-10-10s4.477-10,10-10h25V298.286
	c-11.65-4.119-20-15.225-20-28.286c0-16.569,13.432-30,30-30c16.569,0,30,13.431,30,30c0,13.061-8.349,24.167-20,28.286V420h25
	C446.523,420,451,424.477,451,430z M141,420h-25V298.286c11.651-4.119,20-15.225,20-28.286c0-16.569-13.431-30-30-30
	c-16.568,0-30,13.431-30,30c0,13.061,8.35,24.167,20,28.286V420H71c-5.523,0-10,4.477-10,10s4.477,10,10,10h25h20h25
	c5.523,0,10-4.477,10-10S146.523,420,141,420z"/>
<path style="fill:#FFF091;" d="M511.488,240H415c-2.761,0-5-2.239-5-5v-40c0-2.761,2.239-5,5-5h88.393
	C507.677,206.099,510.428,222.819,511.488,240z"/>
<g>
</g>
<g>
</g>
<g>
</g>
<g>
</g>
<g>
</g>
<g>
</g>
<g>
</g>
<g>
</g>
<g>
</g>
<g>
</g>
<g>
</g>
<g>
</g>
<g>
</g>
<g>
</g>
<g>
</g>
</svg>
