<?xml version="1.0" encoding="iso-8859-1"?>
<!-- Generator: Adobe Illustrator 18.0.0, SVG Export Plug-In . SVG Version: 6.00 Build 0)  -->
<!DOCTYPE svg PUBLIC "-//W3C//DTD SVG 1.1//EN" "http://www.w3.org/Graphics/SVG/1.1/DTD/svg11.dtd">
<svg xmlns="http://www.w3.org/2000/svg" xmlns:xlink="http://www.w3.org/1999/xlink" version="1.1" id="Capa_1" x="0px" y="0px" viewBox="0 0 494.475 494.475" style="enable-background:new 0 0 494.475 494.475;" xml:space="preserve" width="512px" height="512px">
<g id="XMLID_119_">
	<path id="XMLID_125_" d="M447.133,119.266H47.335c-3.202,0-5.797,2.596-5.797,5.798v27.03c0,3.202,2.595,5.798,5.797,5.798h399.798   c3.204,0,5.798-2.596,5.798-5.798v-27.03C452.931,121.861,450.337,119.266,447.133,119.266z" fill="#2a516e"/>
	<path id="XMLID_124_" d="M447.133,182.033h-28.367l-10.389,23.874l-19.722,7.266l-5.693,18.685v44.049l33.079,23.795l5.378,3.86   l-2.36,4.922l-17.857,37.223l23.104,37.701l-30.395-35.269l-1.137-1.313l0.667-2.247l10.259-34.927l-20.737-10.332v189.356   c0,3.204,2.596,5.798,5.798,5.798h58.373c3.204,0,5.798-2.594,5.798-5.798V187.831   C452.931,184.629,450.337,182.033,447.133,182.033z" fill="#2a516e"/>
	<path id="XMLID_123_" d="M457.91,92.837L247.227,0l-74.753,32.939l9.367,19.78l43.831,5.781l-46.531,1.411l-1.736,0.049l-1.33-1.93   l-14.11-20.453L36.566,92.837c-2.902,1.273-4.509,4.411-3.851,7.509c0.647,3.099,3.381,5.321,6.552,5.321H455.21   c3.164,0,5.896-2.223,6.554-5.321C462.411,97.248,460.805,94.11,457.91,92.837z" fill="#2a516e"/>
	<path id="XMLID_122_" d="M105.708,182.033H47.335c-3.202,0-5.797,2.596-5.797,5.798v11.167l34.659,27.928l5.159,4.152l-2.628,4.785   l-19.86,36.184l21.002,38.918l-28.415-36.882l-1.063-1.37l0.778-2.214l12.164-34.313l-21.798-12.383v264.872   c0,3.204,2.595,5.798,5.797,5.798h58.373c3.204,0,5.798-2.594,5.798-5.798V187.831   C111.506,184.629,108.912,182.033,105.708,182.033z" fill="#2a516e"/>
	<path id="XMLID_121_" d="M304.138,232.895l-21.36-24.912l-13.624,18.684v90.04l1.461,0.194l1.621,2.32l32.917,46.929l23.906,0.908   l-25.334,5.328l-1.314,0.275l-1.387-1.402l-31.87-32.405v149.822c0,3.204,2.595,5.798,5.798,5.798h58.373   c3.202,0,5.798-2.594,5.798-5.798v-203.88l-23.129-9.343L304.138,232.895z" fill="#2a516e"/>
	<path id="XMLID_120_" d="M191.433,182.033l-21.798,7.266l-14.29,18.684v280.693c0,3.204,2.596,5.798,5.799,5.798h58.372   c3.203,0,5.798-2.594,5.798-5.798v-69.968l-10.331,11.587l-1.929,2.174l-1.494,0.292l-24.352,4.769l-23.129,38.163l17.413-43.167   l0.405-1.013l1.744-0.869l20.589-10.233l21.085-32.478v-92.757l-29.729-13.494l19.722-28.027l-6.065-33.216l16.072-38.406H191.433z   " fill="#2a516e"/>
</g>
<g>
</g>
<g>
</g>
<g>
</g>
<g>
</g>
<g>
</g>
<g>
</g>
<g>
</g>
<g>
</g>
<g>
</g>
<g>
</g>
<g>
</g>
<g>
</g>
<g>
</g>
<g>
</g>
<g>
</g>
</svg>
