<svg height="512" viewBox="0 0 512 512" width="512" xmlns="http://www.w3.org/2000/svg"><path d="m400 144h16v16h-16z" fill="#8d7761"/><path d="m360 272a8 8 0 0 1 -8-8v-72a8 8 0 0 1 16 0v72a8 8 0 0 1 -8 8z" fill="#c3c3c3"/><path d="m360 196.038a78.038 78.038 0 0 1 -34.883-8.191l-9.383-4.692a8 8 0 1 1 7.157-14.31l9.382 4.691a62.3 62.3 0 0 0 55.454 0l9.382-4.691a8 8 0 1 1 7.157 14.31l-9.383 4.692a78.038 78.038 0 0 1 -34.883 8.191z" fill="#eaeae8"/><path d="m392 152h32v112h-32z" fill="#8d7761"/><path d="m113.5 269.726-50.342 106.274h-23.158a24 24 0 0 0 -24 24v8h72l56.842-120h43.158l-1-32h-51.812a24 24 0 0 0 -21.688 13.726z" fill="#99d8aa"/><path d="m187 256h-51v-10.124a21.876 21.876 0 0 1 21.876-21.876h29.124z" fill="#8dc79d"/><path d="m320 256h104v32h-104z" fill="#fbb540"/><path d="m424 272h56v16h-56z" fill="#d1763e"/><path d="m424 304h56v16h-56z" fill="#d1763e"/><path d="m424 336h56v16h-56z" fill="#d1763e"/><path d="m424 368h56v16h-56z" fill="#d1763e"/><g fill="#b36435"><path d="m424 272h16v16h-16z"/><path d="m424 304h16v16h-16z"/><path d="m424 336h16v16h-16z"/><path d="m424 368h16v16h-16z"/><path d="m464 272h16v16h-16z"/><path d="m464 304h16v16h-16z"/><path d="m464 336h16v16h-16z"/><path d="m464 368h16v16h-16z"/></g><path d="m184 104h144v184h-144z" fill="#6cbae5"/><path d="m184 104h144v16h-144z" fill="#4799cf"/><path d="m392 240h32v16h-32z" fill="#746250"/><path d="m424 416a8 8 0 0 1 -8-8v-152a8 8 0 0 1 16 0v152a8 8 0 0 1 -8 8z" fill="#e78244"/><path d="m480 416a8 8 0 0 1 -8-8v-152a8 8 0 0 1 16 0v152a8 8 0 0 1 -8 8z" fill="#e78244"/><path d="m152 288h32v120h-32z" fill="#8d7761"/><path d="m328 288h32v120h-32z" fill="#8d7761"/><path d="m152 288h32v16h-32z" fill="#746250"/><path d="m328 288h32v16h-32z" fill="#746250"/><path d="m368 104h-224l112-80z" fill="#b94137"/><path d="m296 144c0 1.35-.07 2.68-.2 4a40 40 0 0 1 -79.6 0c-.13-1.32-.2-2.65-.2-4a40 40 0 0 1 80 0z" fill="#4799cf"/><ellipse cx="256" cy="140" fill="#3f86bb" rx="39.8" ry="36"/><path d="m424 136a15.964 15.964 0 1 1 -.5-4 16 16 0 0 1 .5 4z" fill="#786653"/><ellipse cx="408" cy="132" fill="#8d7761" rx="15.5" ry="12"/><path d="m480 416h-456a8 8 0 0 1 0-16h456a8 8 0 0 1 0 16z" fill="#55785f"/><path d="m256 216a40 40 0 0 0 -40 40v192h80v-192a40 40 0 0 0 -40-40z" fill="#fbb540"/><circle cx="256" cy="448" fill="#c38325" r="40"/><path d="m296 448a40 40 0 0 0 -80 0v-48a40 40 0 0 1 80 0z" fill="#ea9d2d"/><path d="m296 352a40 40 0 0 0 -80 0v-48a40 40 0 0 1 80 0z" fill="#ea9d2d"/></svg>