<?xml version="1.0" encoding="iso-8859-1"?>
<!-- Generator: Adobe Illustrator 19.0.0, SVG Export Plug-In . SVG Version: 6.00 Build 0)  -->
<svg version="1.1" id="Capa_1" xmlns="http://www.w3.org/2000/svg" xmlns:xlink="http://www.w3.org/1999/xlink" x="0px" y="0px"
	 viewBox="0 0 512 512" style="enable-background:new 0 0 512 512;" xml:space="preserve">
<g>
	<path style="fill:#98CDF4;" d="M468.276,174.122c-2.523,0-5.079-0.637-7.426-1.978c-7.19-4.109-9.686-13.268-5.578-20.456
		l12.842-22.47c6.683-11.694,3.615-26.631-7.135-34.744c-11.971-9.037-19.776-22.184-21.977-37.021
		c-2.2-14.837,1.452-29.683,10.285-41.805l6.885-9.449c4.876-6.692,14.255-8.164,20.946-3.289
		c6.692,4.877,8.165,14.254,3.288,20.947l-6.885,9.449c-8.571,11.764-6.093,28.466,5.522,37.234
		c22.757,17.178,29.25,48.799,15.103,73.556l-12.842,22.471C478.541,171.408,473.48,174.122,468.276,174.122z"/>
	<path style="fill:#98CDF4;" d="M376.756,174.088c-2.522,0-5.079-0.637-7.426-1.978c-7.189-4.108-9.686-13.267-5.578-20.456
		l12.841-22.47c6.684-11.694,3.616-26.631-7.134-34.745c-11.971-9.037-19.776-22.184-21.977-37.02
		c-2.2-14.837,1.452-29.683,10.285-41.805l6.885-9.449c4.876-6.691,14.252-8.166,20.946-3.288
		c6.693,4.876,8.165,14.254,3.288,20.947l-6.885,9.449c-8.571,11.763-6.094,28.466,5.522,37.234
		c22.758,17.179,29.25,48.8,15.102,73.556l-12.841,22.469C387.019,171.374,381.961,174.088,376.756,174.088z"/>
	<path style="fill:#98CDF4;" d="M427.09,354.17c-2.523,0-5.079-0.637-7.426-1.978c-7.19-4.109-9.686-13.268-5.578-20.456
		l12.842-22.47c6.683-11.694,3.615-26.631-7.135-34.744c-11.971-9.037-19.776-22.184-21.977-37.021
		c-2.2-14.836,1.452-29.683,10.285-41.805l6.885-9.449c4.875-6.692,14.255-8.165,20.946-3.288
		c6.692,4.876,8.165,14.254,3.288,20.946l-6.885,9.449c-8.571,11.764-6.093,28.466,5.522,37.234
		c22.757,17.178,29.25,48.799,15.103,73.556l-12.842,22.471C437.354,351.455,432.293,354.17,427.09,354.17z"/>
</g>
<path style="fill:#FFB64C;" d="M219.727,80.991c0,27.067-22.02,49.097-49.097,49.097s-49.097-22.03-49.097-49.097
	c0-27.077,22.02-49.107,49.097-49.107S219.727,53.914,219.727,80.991z"/>
<path style="fill:#6B77E8;" d="M217.199,374.334l-7.467,112.467C208.792,500.935,196.968,512,182.805,512H44.449
	c-11.005,0-21.03-5.098-27.507-13.993s-8.246-20.001-4.878-30.476l16.562-51.336c9.626-29.836,37.153-49.907,68.498-49.947
	l24.409-0.03l87.939-0.13C213.95,366.078,217.498,369.866,217.199,374.334z"/>
<path style="fill:#4B5BE4;" d="M217.199,374.334l-7.467,112.467C208.792,500.935,196.968,512,182.805,512h-61.271V366.218
	l87.939-0.13C213.95,366.078,217.498,369.866,217.199,374.334z"/>
<path style="fill:#FFB64C;" d="M296.86,350.176v120.594c0,11.025-4.348,21.33-12.254,29.016
	c-7.616,7.417-17.602,11.465-28.207,11.465c-0.38,0-0.76-0.01-1.139-0.02c-0.19,0-0.37-0.01-0.56-0.02
	c-21.44-0.89-38.792-19.151-38.792-40.971v-97.525l-49.497-17.782c-21.51-7.726-35.963-28.277-35.963-51.136V183.203
	c0-22.01,17.652-40.401,39.342-41.001c11.035-0.3,21.46,3.768,29.356,11.455c7.906,7.686,12.254,17.992,12.254,29.016h0.12v8.946
	l19.481,6.717l23.699-11.814l0.03-0.01c18.112-9.026,40.181-1.639,49.207,16.472c9.026,18.102,1.629,40.181-16.472,49.197
	l-0.17,0.09L254.7,268.004l-13.134,6.337c-2.169,1.049-4.558,1.579-6.937,1.579c-1.779,0-3.548-0.29-5.238-0.88l-17.992-6.237
	v16.272l43.3,15.563l9.795,3.518C283.856,311.114,296.86,329.605,296.86,350.176z"/>
<g>
	<path style="fill:#FFA81F;" d="M296.86,350.176v120.594c0,11.025-4.348,21.33-12.254,29.016
		c-7.616,7.417-17.602,11.465-28.207,11.465c-0.38,0-0.76-0.01-1.139-0.02c-0.19,0-0.37-0.01-0.56-0.02V300.639l9.795,3.518
		C283.856,311.114,296.86,329.605,296.86,350.176z"/>
	<path style="fill:#FFA81F;" d="M287.296,252.271l-32.595,15.733v-81.482l0.03-0.01c18.112-9.026,40.181-1.639,49.207,16.472
		c9.026,18.102,1.629,40.181-16.472,49.197L287.296,252.271z"/>
	<path style="fill:#FFA81F;" d="M219.727,80.991c0,27.067-22.02,49.097-49.097,49.097V31.884
		C197.708,31.884,219.727,53.914,219.727,80.991z"/>
</g>
<g>
</g>
<g>
</g>
<g>
</g>
<g>
</g>
<g>
</g>
<g>
</g>
<g>
</g>
<g>
</g>
<g>
</g>
<g>
</g>
<g>
</g>
<g>
</g>
<g>
</g>
<g>
</g>
<g>
</g>
</svg>
