<?xml version="1.0" encoding="iso-8859-1"?>
<!-- Generator: Adobe Illustrator 19.0.0, SVG Export Plug-In . SVG Version: 6.00 Build 0)  -->
<svg version="1.1" id="Layer_1" xmlns="http://www.w3.org/2000/svg" xmlns:xlink="http://www.w3.org/1999/xlink" x="0px" y="0px"
	 viewBox="0 0 512 512" style="enable-background:new 0 0 512 512;" xml:space="preserve">
<g>
	<path style="fill:#6CA1E9;" d="M160.813,499.801c22.025,9.442,47.538-0.755,56.98-22.78L398.121,60.496
		c9.442-22.025-0.755-47.529-22.78-56.971c-22.025-9.442-47.529,0.755-56.98,22.78L138.034,442.821
		C128.592,464.846,138.789,490.359,160.813,499.801L160.813,499.801z"/>
	<g>
		<path style="fill:#BE3A2B;" d="M255.06,172.52L191.755,26.305C182.313,4.28,156.8-5.925,134.784,3.525
			c-22.025,9.442-32.23,34.946-22.788,56.971l95.787,221.227L255.06,172.52z"/>
		<path style="fill:#BE3A2B;" d="M302.341,281.727l-47.278,109.204l37.263,86.085c9.45,22.025,34.955,32.23,56.98,22.788
			c22.025-9.442,32.221-34.955,22.78-56.98L302.341,281.727z"/>
	</g>
	<polygon style="fill:#6CA1E9;" points="175.792,209.303 221.36,95.353 202.017,50.236 156.449,164.187 	"/>
	<path style="fill:#71C084;" d="M156.449,164.185l45.568-113.95L191.76,26.301c-2.647-6.17-6.647-11.29-11.385-15.438
		l-43.268,108.206L156.449,164.185z"/>
	<path style="fill:#922C25;" d="M332.254,485.949c-10.11,0-19.734-5.91-23.969-15.759l-27.353-63.826
		c-1.892-4.4,0.156-9.502,4.556-11.385c4.365-1.918,9.502,0.139,11.394,4.556l27.353,63.818c1.883,4.374,6.994,6.43,11.403,4.547
		c4.365-1.918,9.502,0.139,11.385,4.556c1.892,4.408-0.148,9.511-4.556,11.394C339.136,485.281,335.673,485.949,332.254,485.949"/>
	<path style="fill:#4F85BF;" d="M269.34,250.774L269.34,250.774c-8.808-3.775-19.013,0.304-22.788,9.112l-23.925,55.791
		c-1.892,4.426,0.156,9.554,4.582,11.455l15.872,6.804c4.426,1.9,9.554-0.148,11.455-4.582l23.916-55.791
		C282.227,264.755,278.148,254.549,269.34,250.774"/>
	<polygon style="fill:#F0C419;" points="334.329,209.303 288.761,95.353 308.104,50.236 353.672,164.187 	"/>
	<path style="fill:#71C084;" d="M353.672,164.185l-45.568-113.95l10.257-23.934c2.647-6.17,6.647-11.29,11.385-15.438
		l43.268,108.206L353.672,164.185z"/>
	<path style="fill:#4F85BF;" d="M177.873,485.958c-3.419,0-6.89-0.677-10.223-2.109c-4.408-1.883-6.448-6.986-4.556-11.394
		c1.883-4.417,7.012-6.465,11.385-4.556c4.426,1.874,9.52-0.156,11.412-4.556l27.353-63.809c1.892-4.417,7.012-6.465,11.394-4.556
		c4.4,1.883,6.448,6.986,4.556,11.385l-27.353,63.818C197.607,480.039,187.983,485.958,177.873,485.958"/>
	<g>
		<path style="fill:#E4E5E6;" d="M464.271,512c-4.799,0-8.678-3.879-8.678-8.678v-17.356c0-4.799,3.879-8.678,8.678-8.678
			s8.678,3.879,8.678,8.678v17.356C472.949,508.121,469.07,512,464.271,512"/>
		<path style="fill:#E4E5E6;" d="M464.271,468.61c-4.799,0-8.678-3.879-8.678-8.678V182.238c0-4.799,3.879-8.678,8.678-8.678
			s8.678,3.879,8.678,8.678v277.695C472.949,464.731,469.07,468.61,464.271,468.61"/>
	</g>
	<path style="fill:#C1C4C6;" d="M481.627,485.966h-34.712c-4.79,0-8.678-3.888-8.678-8.678v-8.678c0-4.79,3.888-8.678,8.678-8.678
		h34.712c4.79,0,8.678,3.888,8.678,8.678v8.678C490.305,482.079,486.417,485.966,481.627,485.966"/>
	<path style="fill:#6F58A8;" d="M481.627,182.238h-34.712V17.356C446.915,7.767,454.682,0,464.271,0s17.356,7.767,17.356,17.356
		V182.238z"/>
	<g>
		<path style="fill:#E4E5E6;" d="M472.949,381.831h-17.356c-4.799,0-8.678-3.879-8.678-8.678s3.879-8.678,8.678-8.678h17.356
			c4.799,0,8.678,3.879,8.678,8.678S477.748,381.831,472.949,381.831"/>
		<path style="fill:#E4E5E6;" d="M472.949,295.051h-17.356c-4.799,0-8.678-3.879-8.678-8.678s3.879-8.678,8.678-8.678h17.356
			c4.799,0,8.678,3.879,8.678,8.678S477.748,295.051,472.949,295.051"/>
	</g>
	<g>
		<path style="fill:#F0C419;" d="M446.915,100.542v20.949c2.222,0,4.443-0.85,6.135-2.543l28.577-28.577V69.423
			c-2.222,0-4.443,0.85-6.135,2.543L446.915,100.542z"/>
		<path style="fill:#F0C419;" d="M446.915,143.932v20.949c2.222,0,4.443-0.85,6.135-2.543l28.577-28.577v-20.949
			c-2.222,0-4.443,0.85-6.135,2.543L446.915,143.932z"/>
	</g>
	<g>
		<path style="fill:#E4E5E6;" d="M47.729,512c-4.799,0-8.678-3.879-8.678-8.678v-17.356c0-4.799,3.879-8.678,8.678-8.678
			s8.678,3.879,8.678,8.678v17.356C56.407,508.121,52.528,512,47.729,512"/>
		<path style="fill:#E4E5E6;" d="M47.729,468.61c-4.799,0-8.678-3.879-8.678-8.678V182.238c0-4.799,3.879-8.678,8.678-8.678
			s8.678,3.879,8.678,8.678v277.695C56.407,464.731,52.528,468.61,47.729,468.61"/>
	</g>
	<path style="fill:#C1C4C6;" d="M65.085,485.966H30.373c-4.79,0-8.678-3.888-8.678-8.678v-8.678c0-4.79,3.888-8.678,8.678-8.678
		h34.712c4.79,0,8.678,3.888,8.678,8.678v8.678C73.763,482.079,69.875,485.966,65.085,485.966"/>
	<path style="fill:#6F58A8;" d="M65.085,182.238H30.373V17.356C30.373,7.767,38.14,0,47.729,0s17.356,7.767,17.356,17.356V182.238z"
		/>
	<g>
		<path style="fill:#E4E5E6;" d="M56.407,381.831H39.051c-4.799,0-8.678-3.879-8.678-8.678s3.879-8.678,8.678-8.678h17.356
			c4.799,0,8.678,3.879,8.678,8.678S61.206,381.831,56.407,381.831"/>
		<path style="fill:#E4E5E6;" d="M56.407,295.051H39.051c-4.799,0-8.678-3.879-8.678-8.678s3.879-8.678,8.678-8.678h17.356
			c4.799,0,8.678,3.879,8.678,8.678S61.206,295.051,56.407,295.051"/>
	</g>
	<g>
		<path style="fill:#F0C419;" d="M30.373,100.542v20.949c2.222,0,4.443-0.85,6.135-2.543l28.577-28.577V69.423
			c-2.222,0-4.443,0.85-6.135,2.543L30.373,100.542z"/>
		<path style="fill:#F0C419;" d="M30.373,143.932v20.949c2.222,0,4.443-0.85,6.135-2.543l28.577-28.577v-20.949
			c-2.222,0-4.443,0.85-6.135,2.543L30.373,143.932z"/>
	</g>
</g>
<g>
</g>
<g>
</g>
<g>
</g>
<g>
</g>
<g>
</g>
<g>
</g>
<g>
</g>
<g>
</g>
<g>
</g>
<g>
</g>
<g>
</g>
<g>
</g>
<g>
</g>
<g>
</g>
<g>
</g>
</svg>
