<?xml version="1.0" encoding="iso-8859-1"?>
<!-- Generator: Adobe Illustrator 21.0.0, SVG Export Plug-In . SVG Version: 6.00 Build 0)  -->
<svg version="1.1" id="Capa_1" xmlns="http://www.w3.org/2000/svg" xmlns:xlink="http://www.w3.org/1999/xlink" x="0px" y="0px"
	 viewBox="0 0 512 512" style="enable-background:new 0 0 512 512;" xml:space="preserve">
<linearGradient id="SVGID_1_" gradientUnits="userSpaceOnUse" x1="74.9807" y1="439.0193" x2="437.0193" y2="76.9807" gradientTransform="matrix(1 0 0 -1 0 514)">
	<stop  offset="0" style="stop-color:#6DE6FF"/>
	<stop  offset="1" style="stop-color:#0CA7FC"/>
</linearGradient>
<circle style="fill:url(#SVGID_1_);" cx="256" cy="256" r="256"/>
<path style="fill:#56545B;" d="M228.268,89.347c-1.98-8.647,6.068-19.127,9.337-22.435l-4.014-3.984l-4.006-3.993
	c-0.659,0.661-16.095,16.38-12.355,32.886c2.238,9.876,10.513,17.421,24.596,22.422l3.786-10.659
	C235.439,99.97,229.603,95.18,228.268,89.347z"/>
<path style="fill:#39373E;" d="M282.414,58.935l-8.012,7.986c0.118,0.118,11.676,12.068,9.335,22.4
	c-1.325,5.846-7.163,10.644-17.35,14.263l3.786,10.659c14.082-5.002,22.357-12.546,24.596-22.422
	C298.51,75.315,283.073,59.596,282.414,58.935z"/>
<linearGradient id="SVGID_2_" gradientUnits="userSpaceOnUse" x1="197.296" y1="362.76" x2="314.704" y2="362.76" gradientTransform="matrix(1 0 0 -1 0 514)">
	<stop  offset="0" style="stop-color:#ACABB1"/>
	<stop  offset="1" style="stop-color:#56545B"/>
</linearGradient>
<ellipse style="fill:url(#SVGID_2_);" cx="256" cy="151.24" rx="58.704" ry="50.08"/>
<linearGradient id="SVGID_3_" gradientUnits="userSpaceOnUse" x1="63.151" y1="238.7614" x2="448.848" y2="238.7614" gradientTransform="matrix(1 0 0 -1 0 514)">
	<stop  offset="0" style="stop-color:#56545B"/>
	<stop  offset="1" style="stop-color:#0F0F11"/>
</linearGradient>
<path style="fill:url(#SVGID_3_);" d="M436.241,269.224l-0.51,0.962c-0.13,0.246-13.309,24.669-35.447,28.335
	c-7.532,1.249-15.415-0.038-23.577-3.784c0.111-2.128,0.17-4.27,0.17-6.425c0-10.748-1.41-21.165-4.042-31.085
	c2.533,0.266,4.992,0.412,7.36,0.412c0,0,0.002,0,0.003,0c11.025-0.001,20.429-2.888,27.951-8.581
	c21.623-16.366,19.163-49.431,19.048-50.83l-0.091-1.091l-14.183,1.167l0.088,1.09c0.021,0.265,1.96,26.651-13.452,38.315
	c-7.473,5.657-18.157,7.096-31.846,4.369c-3.424-8.265-7.737-16.067-12.822-23.288c11.103-6.256,18.534-14.362,22.184-24.264
	c9.377-25.44-10.529-51.958-11.381-53.075l-0.664-0.87l-11.315,8.632l0.661,0.87c0.161,0.212,16.022,21.398,9.343,39.52
	c-2.651,7.193-8.641,13.166-17.836,17.891c-22.127-24.592-54.196-40.06-89.882-40.06c-35.685,0-67.754,15.467-89.88,40.058
	c-9.175-4.715-15.158-10.674-17.817-17.847c-6.688-18.046,9.175-39.359,9.336-39.573l0.659-0.872l-11.32-8.62l-0.664,0.87
	c-0.852,1.116-20.759,27.634-11.382,53.075c3.649,9.9,11.079,18.006,22.179,24.261c-5.087,7.222-9.4,15.026-12.825,23.292
	c-13.663,2.72-24.332,1.289-31.803-4.344c-15.355-11.578-13.508-38.091-13.487-38.358l0.083-1.089l-14.181-1.152l-0.089,1.092
	c-0.115,1.4-2.563,34.473,19.048,50.83c7.523,5.694,16.927,8.581,27.951,8.581c2.366,0,4.824-0.146,7.356-0.412
	c-2.632,9.919-4.042,20.337-4.042,31.084c0,2.155,0.059,4.297,0.17,6.424c-8.159,3.742-16.041,5.03-23.578,3.785
	c-22.163-3.67-35.316-28.087-35.446-28.333l-0.511-0.965l-12.607,6.594l0.506,0.97c0.657,1.258,16.419,30.865,45.64,35.761
	c2.704,0.453,5.461,0.682,8.193,0.682c6.427,0,12.931-1.271,19.481-3.759c1.882,10.662,5.167,20.839,9.649,30.341
	c-13.399,1.832-23.761,6.931-30.919,15.31c-17.61,20.614-8.127,52.388-7.715,53.73l0.321,1.046l13.604-4.165l-0.314-1.043
	c-0.077-0.256-7.563-25.757,4.955-40.357c5.707-6.655,14.945-10.315,27.549-10.972c21.476,33.572,59.088,55.828,101.898,55.828
	c42.811,0,80.423-22.257,101.899-55.83c12.606,0.657,21.846,4.316,27.555,10.974c12.518,14.6,5.032,40.101,4.955,40.357
	l-0.315,1.045l13.606,4.164l0.321-1.046c0.413-1.342,9.896-33.117-7.715-53.731c-7.159-8.381-17.523-13.479-30.926-15.31
	c4.482-9.502,7.766-19.679,9.649-30.341c6.55,2.488,13.053,3.759,19.481,3.759c2.734,0,5.491-0.229,8.194-0.682
	c29.235-4.899,44.983-34.504,45.639-35.762l0.506-0.97L436.241,269.224z"/>
<g>
</g>
<g>
</g>
<g>
</g>
<g>
</g>
<g>
</g>
<g>
</g>
<g>
</g>
<g>
</g>
<g>
</g>
<g>
</g>
<g>
</g>
<g>
</g>
<g>
</g>
<g>
</g>
<g>
</g>
</svg>
