<?xml version="1.0" encoding="iso-8859-1"?>
<!-- Generator: Adobe Illustrator 19.0.0, SVG Export Plug-In . SVG Version: 6.00 Build 0)  -->
<svg version="1.1" id="Capa_1" xmlns="http://www.w3.org/2000/svg" xmlns:xlink="http://www.w3.org/1999/xlink" x="0px" y="0px"
	 viewBox="0 0 512.001 512.001" style="enable-background:new 0 0 512.001 512.001;" xml:space="preserve">
<g>
	<path style="fill:#F74A4F;" d="M122.591,470.58H70.954c-2.843,0-5.147-2.304-5.147-5.147v-33.926h61.93v33.926
		C127.738,468.276,125.433,470.58,122.591,470.58z"/>
	<path style="fill:#F74A4F;" d="M441.046,470.58h-51.637c-2.842,0-5.147-2.304-5.147-5.147v-33.926h61.93v33.926
		C446.192,468.276,443.888,470.58,441.046,470.58z"/>
</g>
<g>
	<path style="fill:#CD3F48;" d="M127.741,431.512v33.921c0,2.841-2.306,5.147-5.147,5.147H108.07v-39.068H127.741z"/>
	<path style="fill:#CD3F48;" d="M446.192,431.512v33.921c0,2.841-2.306,5.147-5.147,5.147h-14.524v-39.068H446.192z"/>
</g>
<g>
	<path style="fill:#7D7878;" d="M294.128,396.32c-0.667,0-1.345-0.09-2.019-0.278c-3.99-1.113-6.322-5.25-5.209-9.239l11.153-39.979
		c1.519-5.445,6.528-9.249,12.182-9.249H355c4.142,0,7.5,3.358,7.5,7.5s-3.358,7.5-7.5,7.5h-42.979l-10.673,38.258
		C300.423,394.149,297.41,396.32,294.128,396.32z"/>
	<path style="fill:#7D7878;" d="M442.69,396.32c-3.282,0-6.295-2.171-7.22-5.487l-10.672-38.258H382c-4.142,0-7.5-3.358-7.5-7.5
		s3.358-7.5,7.5-7.5h44.584c5.652,0,10.661,3.802,12.181,9.247l11.153,39.981c1.113,3.99-1.219,8.126-5.209,9.239
		C444.036,396.23,443.357,396.32,442.69,396.32z"/>
</g>
<path style="fill:#F74A4F;" d="M469.308,165.81L469.308,165.81c-12.183-4.603-25.792,1.541-30.395,13.725l-28.833,76.309
	c-1.94,5.134-6.855,8.531-12.342,8.531h-80.031c-13.024,0-23.582,10.558-23.582,23.582l0,0c0,13.024,10.558,23.582,23.582,23.582
	l111.948-0.269c5.444-0.013,10.321-3.369,12.279-8.448l41.099-106.616C487.636,184.022,481.491,170.413,469.308,165.81z"/>
<path style="fill:#CD3F48;" d="M483.036,196.203l-41.102,106.621c-1.956,5.075-6.835,8.431-12.28,8.441l-111.943,0.278
	c-6.516,0-12.414-2.635-16.676-6.907c-3.428-3.428-5.795-7.885-6.598-12.877c1.235,0.206,2.501,0.309,3.798,0.309l111.943-0.268
	c5.445-0.021,10.324-3.376,12.28-8.451l41.102-106.621c1.513-4.015,1.863-8.183,1.204-12.136c1.523,0.247,3.047,0.648,4.539,1.215
	C481.492,170.418,487.637,184.026,483.036,196.203z"/>
<path style="fill:#7D7878;" d="M381,361.701h-25.182c-2.842,0-5.147-2.304-5.147-5.147v-45.016h35.476v45.016
	C386.147,359.397,383.843,361.701,381,361.701z"/>
<path style="fill:#B3B3BA;" d="M96.773,435.983v-47.164H507.04c2.74,0,4.961,2.221,4.961,4.961v37.243
	c0,2.74-2.221,4.961-4.961,4.961H96.773V435.983z"/>
<path style="fill:#A0A0A5;" d="M470.719,435.983v-47.164h36.135c2.842,0,5.147,2.304,5.147,5.147v36.871
	c0,2.843-2.304,5.147-5.147,5.147h-36.135V435.983z"/>
<path style="fill:#B3B3BA;" d="M112.165,388.818H65.001V118.073c0-2.904,2.354-5.258,5.258-5.258h41.907L112.165,388.818
	L112.165,388.818z"/>
<rect x="89.39" y="112.811" style="fill:#A0A0A5;" width="22.78" height="276"/>
<path style="fill:#F74A4F;" d="M121.647,184.181L121.647,184.181c-8.594,0.351-16.705-3.976-21.199-11.31l-58.05-94.738
	c-9.614-15.691,1.186-35.934,19.573-36.686l0,0c8.793-0.359,17.083,4.1,21.629,11.636l57.393,95.137
	C150.31,163.663,139.669,183.444,121.647,184.181z"/>
<path style="fill:#CD3F48;" d="M121.653,184.187c-0.828,0.034-1.657,0.029-2.475-0.028c5.44-7.308,6.677-17.592,1.327-26.467
	l-57.401-95.13c-2.265-3.768-5.484-6.771-9.219-8.781c-3.099-1.661-6.533-2.647-10.116-2.838c4.079-5.426,10.467-9.185,18.2-9.501
	c4.397-0.18,8.662,0.85,12.41,2.861c3.735,2.011,6.954,5.014,9.219,8.781l57.401,95.13
	C150.31,163.662,139.667,183.45,121.653,184.187z"/>
<g>
	<path style="fill:#7D7878;" d="M142.444,259.414h-5.284c-2.108,0-4.118-0.887-5.539-2.443l-48.577-53.213
		c-2.792-3.059-2.577-7.803,0.482-10.596c3.059-2.793,7.803-2.576,10.596,0.482l46.346,50.77h1.976
		c24.071,0,43.654-19.583,43.654-43.654c0-6.329-1.413-12.706-4.086-18.441l-14.562-31.244c-1.75-3.754-0.125-8.217,3.629-9.966
		c3.756-1.749,8.216-0.125,9.966,3.629l14.562,31.244c3.592,7.707,5.491,16.275,5.491,24.778
		C201.098,233.102,174.786,259.414,142.444,259.414z"/>
	<path style="fill:#7D7878;" d="M206.481,366.655c-27.148-32.977-56.406-83.834-99.879-95.717
		C61.67,258.655,15.288,285.124,3.006,330.056c-12.282,44.932,14.186,91.314,59.118,103.596
		c14.213,3.885,111.252,1.737,111.252,1.737C209.195,435.95,229.249,394.312,206.481,366.655z"/>
</g>
<path style="fill:#666363;" d="M173.373,435.386c0,0-37.006,0.823-68.669,0.535c20.628-0.165,37.397-0.535,37.397-0.535
	c35.822,0.566,55.874-41.072,33.104-68.731c-27.144-32.981-56.409-83.831-99.879-95.72c-2.213-0.607-4.426-1.122-6.639-1.534
	c12.208-2.316,25.116-1.966,37.911,1.534c43.48,11.889,72.735,62.74,99.879,95.72C229.247,394.315,209.195,435.952,173.373,435.386z
	"/>
<circle style="fill:#FFEFD8;" cx="88.58" cy="353.461" r="41.926"/>
<path style="fill:#EDDDC8;" d="M130.51,353.47c0,23.15-18.776,41.916-41.926,41.916c-4.097,0-8.05-0.587-11.786-1.688
	c17.407-5.085,30.129-21.174,30.129-40.227c0-19.064-12.723-35.153-30.129-40.238c3.737-1.101,7.689-1.688,11.786-1.688
	C111.735,311.544,130.51,330.309,130.51,353.47z"/>
<path style="fill:#F74A4F;" d="M173.622,369.721c-3.691-1.88-8.208-0.413-10.088,3.277l-6.072,11.917L92.36,346.984
	c-3.58-2.086-8.171-0.875-10.256,2.705c-2.085,3.579-0.874,8.171,2.705,10.256l65.833,38.357l-6.456,12.67
	c-1.88,3.691-0.413,8.207,3.277,10.088c1.091,0.556,2.253,0.819,3.399,0.819c2.73,0,5.364-1.497,6.688-4.096l19.35-37.973
	C178.779,376.118,177.312,371.602,173.622,369.721z"/>
<g>
</g>
<g>
</g>
<g>
</g>
<g>
</g>
<g>
</g>
<g>
</g>
<g>
</g>
<g>
</g>
<g>
</g>
<g>
</g>
<g>
</g>
<g>
</g>
<g>
</g>
<g>
</g>
<g>
</g>
</svg>
