<?xml version="1.0" encoding="iso-8859-1"?>
<!-- Generator: Adobe Illustrator 19.0.0, SVG Export Plug-In . SVG Version: 6.00 Build 0)  -->
<svg version="1.1" id="Capa_1" xmlns="http://www.w3.org/2000/svg" xmlns:xlink="http://www.w3.org/1999/xlink" x="0px" y="0px"
	 viewBox="0 0 511.999 511.999" style="enable-background:new 0 0 511.999 511.999;" xml:space="preserve">
<polygon style="fill:#66507A;" points="63.625,432.344 256,55.609 448.375,432.344 "/>
<g>
	<polygon style="fill:#D1D873;" points="448.375,432.344 256,55.609 256,280.047 320.124,432.344 	"/>
	<polygon style="fill:#D1D873;" points="63.625,432.344 256,55.609 256,280.047 191.875,432.344 	"/>
</g>
<polygon style="fill:#E8EBB9;" points="320.124,432.344 352.188,384.25 256,280.047 "/>
<path style="fill:#F8CD76;" d="M223.938,432.344c0-17.708,32.063-64.125,32.063-64.125s32.063,46.418,32.063,64.125
	S273.708,464.407,256,464.407S223.938,450.052,223.938,432.344z"/>
<path style="fill:#C84455;" d="M239.969,448.376c0-8.854,16.031-32.063,16.031-32.063s16.031,23.208,16.031,32.063
	s-7.177,16.031-16.031,16.031S239.969,457.229,239.969,448.376z"/>
<path style="fill:#C6CE50;" d="M263.109,69.258c-1.498-2.875-4.303-4.312-7.109-4.312c-2.805,0-5.611,1.438-7.109,4.312
	L55.609,440.36h28.055L270.027,82.542L263.109,69.258z"/>
<path d="M315.47,481.733l-35.636-17.818c9.555-7.232,15.743-18.69,15.743-31.571c0-19.084-27.818-60.323-33.394-68.396
	c-2.937-4.251-9.429-4.251-12.366,0c-5.576,8.074-33.394,49.312-33.394,68.396c0,12.879,6.187,24.338,15.743,31.571l-35.636,17.818
	c-3.427,1.713-5.03,5.871-3.643,9.441c1.58,4.067,6.457,5.955,10.365,4.001l45.165-22.583l-0.265,31.83
	c-0.034,4.15,3.302,7.543,7.453,7.577c0.021,0,0.042,0,0.063,0c4.121,0,7.48-3.323,7.514-7.453l0.267-32.023l45.3,22.65
	c3.915,1.957,8.777,0.062,10.365-4.001C320.507,487.607,318.892,483.443,315.47,481.733z M247.484,448.376
	c0.019-2.522,3.596-9.978,8.517-18.182c4.921,8.204,8.498,15.66,8.517,18.181c0,4.696-3.82,8.517-8.517,8.517
	S247.484,453.072,247.484,448.376z M255.999,381.783c11.688,18.183,24.549,41.595,24.549,50.561c0,3.517-0.748,6.86-2.087,9.887
	c-3.246-10.766-12.91-25.313-16.279-30.19c-2.937-4.251-9.429-4.251-12.366,0c-3.369,4.876-13.031,19.424-16.278,30.19
	c-1.338-3.027-2.087-6.37-2.087-9.887C231.452,422.966,244.711,399.319,255.999,381.783z"/>
<path d="M475.783,377.529c-3.714-1.857-8.227-0.352-10.083,3.361l-17.396,34.793L336.365,196.466
	c-1.888-3.696-6.411-5.162-10.111-3.275c-3.695,1.888-5.162,6.414-3.275,10.11L436.1,424.829H334.166l24.274-36.411
	c1.925-2.887,1.622-6.716-0.73-9.265l-94.195-102.044v-35.029l3.202,3.202c3.057,3.056,8.217,2.851,11.028-0.431
	c2.518-2.941,2.337-7.461-0.399-10.196l-10.718-10.718l10.718-10.718c2.935-2.935,2.935-7.693,0-10.627
	c-2.936-2.935-7.693-2.935-10.628,0l-3.202,3.202V185.97l3.202,3.202c3.057,3.056,8.217,2.851,11.028-0.431
	c2.518-2.941,2.337-7.461-0.399-10.196l-10.718-10.718l10.718-10.718c2.935-2.935,2.935-7.693,0-10.627
	c-2.936-2.935-7.693-2.935-10.628,0l-3.202,3.202V86.849l43.097,84.398c1.863,3.647,6.464,5.138,10.111,3.275
	c3.646-1.863,5.137-6.464,3.275-10.11L264.695,56.113l29.62-44.43c2.302-3.453,1.369-8.119-2.084-10.42
	c-3.452-2.302-8.118-1.37-10.42,2.084L256,42.063L230.19,3.347c-2.301-3.453-6.969-4.386-10.42-2.084
	c-3.453,2.301-4.387,6.968-2.084,10.42l29.62,44.43L64.219,414.656l-17.735-41.381c-1.635-3.813-6.054-5.581-9.867-3.947
	c-3.815,1.635-5.582,6.053-3.947,9.867l24.047,56.109c1.177,2.739,3.976,4.554,6.951,4.554h128.207c3.024,0,5.752-1.813,6.926-4.599
	L256,299.411l57.17,135.778c1.126,2.794,3.964,4.67,6.965,4.67h128.209c2.814,0,5.492-1.632,6.753-4.154l24.047-48.094
	C480.999,383.899,479.494,379.385,475.783,377.529z M321.626,416.545l-42.057-99.886l63.085,68.343L321.626,416.545z
	 M186.885,424.83H75.9l172.586-337.98v62.837l-3.202-3.202c-2.936-2.935-7.693-2.935-10.628,0s-2.935,7.693,0,10.627l10.718,10.718
	l-10.718,10.718c-4.629,4.629-1.258,12.828,5.314,12.828c1.923,0,3.846-0.733,5.314-2.201l3.202-3.202v19.825l-3.202-3.202
	c-2.936-2.935-7.693-2.935-10.628,0c-2.935,2.935-2.935,7.693,0,10.627l10.718,10.718l-10.718,10.718
	c-2.735,2.735-2.918,7.255-0.399,10.196c2.81,3.282,7.971,3.487,11.028,0.431l3.202-3.202v36.449L186.885,424.83z"/>
<g>
</g>
<g>
</g>
<g>
</g>
<g>
</g>
<g>
</g>
<g>
</g>
<g>
</g>
<g>
</g>
<g>
</g>
<g>
</g>
<g>
</g>
<g>
</g>
<g>
</g>
<g>
</g>
<g>
</g>
</svg>
