<?xml version="1.0" encoding="iso-8859-1"?>
<!-- Generator: Adobe Illustrator 17.1.0, SVG Export Plug-In . SVG Version: 6.00 Build 0)  -->
<!DOCTYPE svg PUBLIC "-//W3C//DTD SVG 1.1//EN" "http://www.w3.org/Graphics/SVG/1.1/DTD/svg11.dtd">
<svg xmlns="http://www.w3.org/2000/svg" xmlns:xlink="http://www.w3.org/1999/xlink" version="1.1" id="Capa_1" x="0px" y="0px" viewBox="0 0 252.83 252.83" style="enable-background:new 0 0 252.83 252.83;" xml:space="preserve" width="512px" height="512px">
<g>
	<path d="M15.529,123.064l183.299,93.681l-2.203,4.31c-4.147,8.114-14.087,11.331-22.201,7.183L5.817,142.067   c-5.247-2.682-7.327-9.11-4.645-14.357l0,0C3.853,122.462,10.281,120.383,15.529,123.064z M244.535,186.592L138.412,133.53   c-1.288-6.623-5.522-12.597-12.023-15.848L62.15,85.562c-11.112-5.556-24.629-1.052-30.187,10.063   c-5.557,11.114-1.052,24.63,10.062,30.188l64.239,32.12c3.23,1.615,6.663,2.38,10.045,2.38c2.245,0,4.464-0.349,6.59-0.999   l108.219,54.11c2.153,1.077,4.442,1.587,6.696,1.587c5.502,0,10.8-3.039,13.428-8.295   C254.948,199.306,251.945,190.296,244.535,186.592z M28.781,79.688c15.715,0,28.454-12.739,28.454-28.454   S44.496,22.78,28.781,22.78c-15.715,0-28.454,12.739-28.454,28.454S13.067,79.688,28.781,79.688z" fill="#496070"/>
</g>
<g>
</g>
<g>
</g>
<g>
</g>
<g>
</g>
<g>
</g>
<g>
</g>
<g>
</g>
<g>
</g>
<g>
</g>
<g>
</g>
<g>
</g>
<g>
</g>
<g>
</g>
<g>
</g>
<g>
</g>
</svg>
