<?xml version="1.0"?>
<svg xmlns="http://www.w3.org/2000/svg" xmlns:xlink="http://www.w3.org/1999/xlink" version="1.1" id="Capa_1" x="0px" y="0px" viewBox="0 0 512 512" style="enable-background:new 0 0 512 512;" xml:space="preserve" width="512px" height="512px" class=""><g><circle style="fill:#196E88" cx="256" cy="256" r="256" data-original="#FF6954" class="" data-old_color="#FF6954"/><path style="fill:#F9E7CD;" d="M469.685,25.359v371.681c-11.776,17.805-25.725,34.053-41.462,48.368H188.607V25.359L469.685,25.359  L469.685,25.359z" data-original="#F9E7CD" class=""/><rect x="218.384" y="56.047" style="fill:#69B0C0" width="221.518" height="140.016" data-original="#FFC772" class="active-path" data-old_color="#FFC772"/><polygon style="fill:#E8D4BB;" points="323.396,128.804 188.604,25.359 188.604,257.326 " data-original="#E8D4BB"/><g>
	<path style="fill:#196E88" d="M433.636,219.903h-208.98c-3.463,0-6.269,2.807-6.269,6.269l0,0c0,3.463,2.807,6.269,6.269,6.269   h208.98c3.463,0,6.269-2.807,6.269-6.269l0,0C439.905,222.711,437.099,219.903,433.636,219.903z" data-original="#4A5370" class="" data-old_color="#4A5370"/>
	<path style="fill:#196E88" d="M433.636,250.205h-208.98c-3.463,0-6.269,2.807-6.269,6.269l0,0c0,3.463,2.807,6.269,6.269,6.269   h208.98c3.463,0,6.269-2.807,6.269-6.269l0,0C439.905,253.013,437.099,250.205,433.636,250.205z" data-original="#4A5370" class="" data-old_color="#4A5370"/>
	<path style="fill:#196E88" d="M433.636,280.507h-208.98c-3.463,0-6.269,2.807-6.269,6.269l0,0c0,3.463,2.807,6.269,6.269,6.269   h208.98c3.463,0,6.269-2.807,6.269-6.269l0,0C439.905,283.315,437.099,280.507,433.636,280.507z" data-original="#4A5370" class="" data-old_color="#4A5370"/>
	<path style="fill:#196E88" d="M433.636,310.809h-208.98c-3.463,0-6.269,2.807-6.269,6.269l0,0c0,3.463,2.807,6.269,6.269,6.269   h208.98c3.463,0,6.269-2.807,6.269-6.269l0,0C439.905,313.617,437.099,310.809,433.636,310.809z" data-original="#4A5370" class="" data-old_color="#4A5370"/>
</g><path style="fill:#FCF2E8;" d="M323.399,128.804v374.23c-21.473,5.841-44.074,8.965-67.396,8.965  c-44.304,0-85.974-11.254-122.316-31.065c-7.084-3.856-13.97-8.035-20.626-12.539c-8.129-5.465-15.924-11.4-23.353-17.763  c-4.587-3.908-9.017-7.983-13.312-12.215c-12.737-12.539-24.179-26.405-34.074-41.378V128.803L323.399,128.804L323.399,128.804z" data-original="#FCF2E8" class=""/><rect x="72.098" y="159.107" style="fill:#69B0C0" width="221.518" height="140.016" data-original="#27D1CF" class="" data-old_color="#27D1CF"/><g>
	<polygon style="fill:#69B0C0" points="213.131,299.122 87.775,299.122 150.446,204.182  " data-original="#FFC772" class="active-path" data-old_color="#FFC772"/>
	<polygon style="fill:#69B0C0" points="293.619,299.122 137.078,299.122 215.342,186.185  " data-original="#FFC772" class="active-path" data-old_color="#FFC772"/>
</g><g>
	<path style="fill:#196E88" d="M287.35,316.885H78.37c-3.463,0-6.269,2.807-6.269,6.269l0,0c0,3.463,2.807,6.269,6.269,6.269   h208.98c3.463,0,6.269-2.807,6.269-6.269l0,0C293.619,319.692,290.813,316.885,287.35,316.885z" data-original="#4A5370" class="" data-old_color="#4A5370"/>
	<path style="fill:#196E88" d="M287.35,347.187H78.37c-3.463,0-6.269,2.807-6.269,6.269l0,0c0,3.463,2.807,6.269,6.269,6.269   h208.98c3.463,0,6.269-2.807,6.269-6.269l0,0C293.619,349.994,290.813,347.187,287.35,347.187z" data-original="#4A5370" class="" data-old_color="#4A5370"/>
	<path style="fill:#196E88" d="M287.35,377.489H78.37c-3.463,0-6.269,2.807-6.269,6.269l0,0c0,3.463,2.807,6.269,6.269,6.269   h208.98c3.463,0,6.269-2.807,6.269-6.269l0,0C293.619,380.296,290.813,377.489,287.35,377.489z" data-original="#4A5370" class="" data-old_color="#4A5370"/>
	<path style="fill:#196E88" d="M287.35,407.791H78.37c-3.463,0-6.269,2.807-6.269,6.269l0,0c0,3.463,2.807,6.269,6.269,6.269   h208.98c3.463,0,6.269-2.807,6.269-6.269l0,0C293.619,410.598,290.813,407.791,287.35,407.791z" data-original="#4A5370" class="" data-old_color="#4A5370"/>
	<path style="fill:#196E88" d="M293.619,444.363c0,3.459-2.811,6.269-6.269,6.269H89.708c-4.587-3.908-9.017-7.983-13.312-12.215   c0.616-0.209,1.285-0.324,1.975-0.324h208.98c1.735,0,3.302,0.7,4.43,1.839C292.919,441.061,293.619,442.628,293.619,444.363z" data-original="#4A5370" class="" data-old_color="#4A5370"/>
	<path style="fill:#196E88" d="M225.931,474.665c0,3.459-2.8,6.269-6.269,6.269h-85.974c-7.084-3.856-13.97-8.035-20.626-12.539   h106.6c1.735,0,3.302,0.7,4.43,1.839C225.231,471.363,225.931,472.93,225.931,474.665z" data-original="#4A5370" class="" data-old_color="#4A5370"/>
</g><path style="fill:#F48944;" d="M382.875,114.468c-0.209,0.512-0.418,1.024-0.616,1.536c-3.208,7.91-6.092,15.924-8.673,24.033  c-5.799,18.275-10.01,37.021-12.581,56.027h-20.511c2.006-15.83,5.099-31.504,9.237-46.895c2.393-8.913,5.141-17.732,8.223-26.446  c1.369-3.856,2.8-7.69,4.305-11.494c0.512-1.317,1.045-2.612,1.578-3.918c0.146-0.366,0.293-0.742,0.449-1.108l0.209,0.094  L382.875,114.468z" data-original="#F48944" class=""/><path style="fill:#3AB760;" d="M327.471,102.944c-5.094-1.217-10.076-3.289-14.747-6.252c11.395-17.936,32.611-25.848,52.182-21.184  c5.098,1.215,10.09,3.284,14.762,6.252l0.599,0.143c5.509-0.541,10.897-0.138,15.995,1.077  c19.572,4.663,34.941,21.292,37.024,42.439c-5.503,0.538-10.886,0.141-15.981-1.07L327.471,102.944z" data-original="#3AB760" class=""/><g>
	<path style="fill:#43C970;" d="M362.678,109.089c-11.19,8.608-26.024,12.279-40.829,8.751   c3.104-13.028,11.195-23.565,21.767-30.068c10.572-6.503,23.625-8.975,36.653-5.87c-0.02,0.084-0.04,0.167-0.06,0.251   c-0.001,0.004-0.001,0.004-0.001,0.004L362.678,109.089z" data-original="#43C970" class=""/>
	<path style="fill:#43C970;" d="M380.208,82.157c0,0,0,0,0.001-0.004c0.02-0.084,0.04-0.167,0.06-0.251   c0.084,0.02,0.167,0.04,0.251,0.06c12.912,3.149,23.353,11.201,29.816,21.708c6.503,10.572,8.975,23.625,5.87,36.653   c-14.553-3.467-25.995-13.154-32.184-25.577L380.208,82.157z" data-original="#43C970" class=""/>
</g><path style="fill:#53D37A" d="M364.561,147.361c21.913-13.768,29.517-42.876,15.958-65.398l0,0l-0.019,0.011  C358.024,95.507,351.638,124.976,364.561,147.361z" data-original="#53D37A" class=""/></g> </svg>
